<svg width="16" height="16" viewBox="0 0 16 16" fill="none" xmlns="http://www.w3.org/2000/svg">
<path d="M7.80539 3.52827C7.54504 3.26792 7.12293 3.26792 6.86258 3.52827L2.86258 7.52827C2.73756 7.65329 2.66732 7.82286 2.66732 7.99967C2.66732 8.17649 2.73756 8.34605 2.86258 8.47108L6.86258 12.4711C7.12293 12.7314 7.54504 12.7314 7.80539 12.4711C8.06574 12.2107 8.06574 11.7886 7.80539 11.5283L4.94346 8.66634L12.6673 8.66634C13.0355 8.66634 13.334 8.36786 13.334 7.99967C13.334 7.63148 13.0355 7.33301 12.6673 7.33301L4.94346 7.33301L7.80539 4.47108C8.06574 4.21073 8.06574 3.78862 7.80539 3.52827Z" fill="#2E4156"/>
</svg>
