<svg width="16" height="16" viewBox="0 0 16 16" fill="none" xmlns="http://www.w3.org/2000/svg">
<path d="M8.19461 3.52827C8.45496 3.26792 8.87707 3.26792 9.13742 3.52827L13.1374 7.52827C13.2624 7.65329 13.3327 7.82286 13.3327 7.99967C13.3327 8.17649 13.2624 8.34605 13.1374 8.47108L9.13742 12.4711C8.87707 12.7314 8.45496 12.7314 8.19461 12.4711C7.93426 12.2107 7.93426 11.7886 8.19461 11.5283L11.0565 8.66634L3.33268 8.66634C2.96449 8.66634 2.66602 8.36786 2.66602 7.99967C2.66602 7.63148 2.96449 7.33301 3.33268 7.33301L11.0565 7.33301L8.19461 4.47108C7.93426 4.21073 7.93426 3.78862 8.19461 3.52827Z" fill="#2E4156"/>
</svg>
