<svg width="18" height="18" viewBox="0 0 18 18" fill="none" xmlns="http://www.w3.org/2000/svg">
<path d="M2.4511 2.33377L4.00695 12.4468C4.01828 12.5303 4.04196 12.6099 4.0761 12.6836C4.17887 12.9055 4.3764 13.0746 4.61675 13.1389C4.69017 13.1586 4.76713 13.1684 4.84583 13.1671H13.9993C14.3674 13.1671 14.6918 12.9257 14.7975 12.5732L17.2975 4.2399C17.3732 3.98758 17.3252 3.71434 17.1679 3.503C17.0107 3.29166 16.7628 3.16711 16.4993 3.16711H4.26558L3.9915 1.3856C3.98123 1.31111 3.96112 1.23977 3.93252 1.17292C3.88061 1.05119 3.80112 0.94575 3.70293 0.8631C3.61182 0.786274 3.50402 0.728627 3.38574 0.69638C3.3113 0.675993 3.23318 0.665781 3.15326 0.667107H1.49935C1.03911 0.667107 0.666016 1.0402 0.666016 1.50044C0.666016 1.96068 1.03911 2.33377 1.49935 2.33377H2.4511ZM5.54763 11.5004L4.52199 4.83377H15.3793L13.3793 11.5004H5.54763Z" fill="white"/>
<path d="M7.33268 15.6671C7.33268 16.5876 6.58649 17.3338 5.66602 17.3338C4.74554 17.3338 3.99935 16.5876 3.99935 15.6671C3.99935 14.7466 4.74554 14.0004 5.66602 14.0004C6.58649 14.0004 7.33268 14.7466 7.33268 15.6671Z" fill="white"/>
<path d="M14.8327 15.6671C14.8327 16.5876 14.0865 17.3338 13.166 17.3338C12.2455 17.3338 11.4993 16.5876 11.4993 15.6671C11.4993 14.7466 12.2455 14.0004 13.166 14.0004C14.0865 14.0004 14.8327 14.7466 14.8327 15.6671Z" fill="white"/>
</svg>
