<svg width="18" height="17" viewBox="0 0 18 17" fill="none" xmlns="http://www.w3.org/2000/svg">
<path d="M2.4511 1.83377L4.00695 11.9468C4.01828 12.0303 4.04196 12.1099 4.0761 12.1836C4.17887 12.4055 4.3764 12.5746 4.61675 12.6389C4.69017 12.6586 4.76713 12.6684 4.84583 12.6671H13.9993C14.3674 12.6671 14.6918 12.4257 14.7975 12.0732L17.2975 3.7399C17.3732 3.48758 17.3252 3.21434 17.1679 3.003C17.0107 2.79166 16.7628 2.66711 16.4993 2.66711H4.26558L3.9915 0.8856C3.98123 0.811114 3.96112 0.739771 3.93252 0.672924C3.88061 0.551194 3.80112 0.44575 3.70293 0.3631C3.61182 0.286274 3.50402 0.228627 3.38574 0.19638C3.3113 0.175993 3.23318 0.165781 3.15326 0.167107H1.49935C1.03911 0.167107 0.666016 0.540203 0.666016 1.00044C0.666016 1.46068 1.03911 1.83377 1.49935 1.83377H2.4511ZM5.54763 11.0004L4.52199 4.33377H15.3793L13.3793 11.0004H5.54763Z" fill="#007D75"/>
<path d="M7.33268 15.1671C7.33268 16.0876 6.58649 16.8338 5.66602 16.8338C4.74554 16.8338 3.99935 16.0876 3.99935 15.1671C3.99935 14.2466 4.74554 13.5004 5.66602 13.5004C6.58649 13.5004 7.33268 14.2466 7.33268 15.1671Z" fill="#007D75"/>
<path d="M14.8327 15.1671C14.8327 16.0876 14.0865 16.8338 13.166 16.8338C12.2455 16.8338 11.4993 16.0876 11.4993 15.1671C11.4993 14.2466 12.2455 13.5004 13.166 13.5004C14.0865 13.5004 14.8327 14.2466 14.8327 15.1671Z" fill="#007D75"/>
</svg>
