<svg width="32" height="32" viewBox="0 0 32 32" fill="none" xmlns="http://www.w3.org/2000/svg">
<path fill-rule="evenodd" clip-rule="evenodd" d="M16 0C7.16344 0 0 7.16344 0 16C0 24.8366 7.16344 32 16 32C24.8366 32 32 24.8366 32 16C32 7.16344 24.8366 0 16 0ZM12.4821 7.51816C13.3924 7.47673 13.6832 7.4666 16.0007 7.4666H15.9981C18.3163 7.4666 18.6061 7.47673 19.5163 7.51816C20.4248 7.55976 21.0452 7.70358 21.5892 7.91461C22.151 8.13239 22.6257 8.42394 23.1004 8.89862C23.575 9.37293 23.8666 9.84903 24.0853 10.4103C24.295 10.9529 24.439 11.573 24.4817 12.4814C24.5226 13.3916 24.5333 13.6825 24.5333 16C24.5333 18.3176 24.5226 18.6077 24.4817 19.5179C24.439 20.426 24.295 21.0463 24.0853 21.5891C23.8666 22.1501 23.575 22.6262 23.1004 23.1005C22.6262 23.5752 22.1508 23.8675 21.5898 24.0854C21.0468 24.2965 20.426 24.4403 19.5176 24.4819C18.6073 24.5233 18.3174 24.5334 15.9997 24.5334C13.6823 24.5334 13.3916 24.5233 12.4814 24.4819C11.5731 24.4403 10.9529 24.2965 10.4099 24.0854C9.84903 23.8675 9.37293 23.5752 8.89879 23.1005C8.4243 22.6262 8.13274 22.1501 7.91461 21.5889C7.70376 21.0463 7.55994 20.4262 7.51816 19.5177C7.47691 18.6075 7.4666 18.3176 7.4666 16C7.4666 13.6825 7.47727 13.3915 7.51798 12.4812C7.55887 11.5731 7.70287 10.9529 7.91443 10.4101C8.1331 9.84903 8.42466 9.37293 8.89933 8.89862C9.37364 8.42412 9.84974 8.13256 10.411 7.91461C10.9536 7.70358 11.5737 7.55976 12.4821 7.51816Z" fill="#007D75"/>
<path fill-rule="evenodd" clip-rule="evenodd" d="M15.236 9.00409C15.3846 9.00385 15.5445 9.00393 15.7171 9.004L16.0015 9.00409C18.2799 9.00409 18.55 9.01226 19.4497 9.05315C20.2817 9.0912 20.7333 9.23022 21.0341 9.34702C21.4323 9.50169 21.7162 9.68658 22.0147 9.98525C22.3134 10.2839 22.4983 10.5684 22.6533 10.9666C22.7701 11.267 22.9093 11.7186 22.9472 12.5506C22.988 13.4502 22.9969 13.7204 22.9969 15.9978C22.9969 18.2751 22.988 18.5453 22.9472 19.4449C22.9091 20.2769 22.7701 20.7285 22.6533 21.0289C22.4986 21.4271 22.3134 21.7107 22.0147 22.0092C21.716 22.3079 21.4325 22.4928 21.0341 22.6474C20.7336 22.7648 20.2817 22.9034 19.4497 22.9415C18.5501 22.9824 18.2799 22.9913 16.0015 22.9913C13.7229 22.9913 13.4528 22.9824 12.5533 22.9415C11.7213 22.9031 11.2697 22.7641 10.9687 22.6473C10.5705 22.4926 10.2861 22.3077 9.98738 22.009C9.68871 21.7104 9.50382 21.4266 9.3488 21.0282C9.232 20.7278 9.09279 20.2762 9.05493 19.4442C9.01404 18.5446 9.00586 18.2744 9.00586 15.9956C9.00586 13.7168 9.01404 13.448 9.05493 12.5485C9.09297 11.7165 9.232 11.2649 9.3488 10.9641C9.50346 10.5659 9.68871 10.2814 9.98738 9.98276C10.2861 9.68409 10.5705 9.4992 10.9687 9.34418C11.2695 9.22684 11.7213 9.08818 12.5533 9.04995C13.3405 9.0144 13.6456 9.00373 15.236 9.00195V9.00409ZM20.5566 10.421C19.9912 10.421 19.5325 10.8792 19.5325 11.4447C19.5325 12.01 19.9912 12.4687 20.5566 12.4687C21.1219 12.4687 21.5806 12.01 21.5806 11.4447C21.5806 10.8793 21.1219 10.4207 20.5566 10.4207V10.421ZM11.6193 15.9998C11.6193 13.5798 13.5813 11.6177 16.0013 11.6176C18.4215 11.6176 20.3831 13.5797 20.3831 15.9998C20.3831 18.42 18.4216 20.3812 16.0015 20.3812C13.5814 20.3812 11.6193 18.42 11.6193 15.9998Z" fill="#007D75"/>
<path d="M16.0007 13.1562C17.5716 13.1562 18.8452 14.4297 18.8452 16.0007C18.8452 17.5716 17.5716 18.8452 16.0007 18.8452C14.4297 18.8452 13.1562 17.5716 13.1562 16.0007C13.1562 14.4297 14.4297 13.1562 16.0007 13.1562Z" fill="#007D75"/>
</svg>
