<svg width="108" height="40" viewBox="0 0 108 40" fill="none" xmlns="http://www.w3.org/2000/svg">
<g clip-path="url(#clip0_1618_25297)">
<path d="M8.94629 31.6777C8.85684 31.6777 8.7685 31.6581 8.68754 31.6202C8.60659 31.5823 8.53499 31.5271 8.47794 31.4585C8.42083 31.39 8.37965 31.3097 8.35726 31.2235C8.33487 31.1373 8.33185 31.0472 8.34842 30.9597L9.54817 24.6095C9.57044 24.4895 9.62895 24.3791 9.71584 24.2931L24.4076 9.66486C24.4942 9.57849 24.6051 9.52026 24.7256 9.49791L31.1024 8.30347C31.1998 8.28518 31.3 8.29085 31.3946 8.31997C31.4893 8.34908 31.5753 8.40072 31.6454 8.47042C31.7154 8.54011 31.7673 8.62579 31.7966 8.72003C31.8258 8.81421 31.8315 8.91412 31.8133 9.01102L30.6135 15.3609C30.591 15.4809 30.5326 15.5913 30.4458 15.6775L15.7555 30.3056C15.6692 30.392 15.5584 30.4503 15.438 30.4725L9.06098 31.6672C9.02317 31.6743 8.98473 31.6778 8.94629 31.6777ZM31.2146 8.68807C31.2011 8.68825 31.1875 8.68946 31.1742 8.69183L24.7974 9.88651C24.7555 9.89421 24.7168 9.91447 24.6867 9.94451L9.99744 24.5735C9.96737 24.6036 9.94702 24.6419 9.93899 24.6835L8.73948 31.0339C8.73285 31.0675 8.73471 31.1023 8.74494 31.1351C8.75512 31.1678 8.77333 31.1975 8.79793 31.2216C8.82224 31.2458 8.85213 31.2638 8.88499 31.2738C8.91779 31.284 8.95263 31.2859 8.98642 31.2796L15.3637 30.0849C15.4055 30.0772 15.4439 30.0569 15.4737 30.0269L30.164 15.3989C30.1941 15.3689 30.2144 15.3306 30.2222 15.2889L31.4219 8.93878C31.4277 8.90845 31.4266 8.87725 31.419 8.84732C31.4112 8.81745 31.397 8.78955 31.3773 8.76576C31.3576 8.74191 31.3329 8.72269 31.3049 8.70937C31.2769 8.69612 31.2463 8.68906 31.2153 8.68882L31.2146 8.68807Z" fill="white"/>
<path d="M31.2134 31.6777C31.1755 31.6777 31.1379 31.6742 31.1007 31.6673L24.7239 30.4726C24.6033 30.4505 24.4923 30.3922 24.4059 30.3056L9.71582 15.6776C9.62905 15.5914 9.57054 15.481 9.54821 15.3609L8.3484 9.01105C8.33008 8.91414 8.33578 8.81423 8.36497 8.71999C8.39423 8.62575 8.44611 8.54008 8.51619 8.47032C8.58621 8.40063 8.67228 8.34893 8.76691 8.31987C8.86159 8.29081 8.96191 8.2852 9.05921 8.30349L15.4363 9.49793C15.5566 9.52039 15.6673 9.57863 15.7538 9.66488L30.4441 24.2929C30.5309 24.3792 30.5893 24.4897 30.6118 24.6098L31.8115 30.9597C31.828 31.0472 31.825 31.1373 31.8025 31.2235C31.7802 31.3098 31.7389 31.39 31.6818 31.4586C31.6247 31.5272 31.5531 31.5823 31.4722 31.6202C31.3912 31.6581 31.3029 31.6777 31.2134 31.6777ZM8.94551 8.68815C8.91457 8.68844 8.88404 8.69545 8.85606 8.70876C8.82809 8.72207 8.80343 8.74129 8.78377 8.76514C8.76412 8.78893 8.74993 8.81678 8.74219 8.8467C8.73451 8.87657 8.73347 8.90778 8.73922 8.93811L9.93874 15.2882C9.94671 15.3299 9.96712 15.3682 9.99719 15.3982L24.6872 30.0262C24.7172 30.0563 24.7558 30.0765 24.7977 30.0842L31.1747 31.2788C31.2085 31.2852 31.2434 31.2832 31.2763 31.273C31.3091 31.263 31.339 31.245 31.3633 31.2208C31.3877 31.1965 31.4057 31.1668 31.4159 31.1341C31.426 31.1013 31.4281 31.0666 31.4217 31.0329L30.2219 24.6831C30.2142 24.6413 30.1938 24.6029 30.1637 24.5728L15.4734 9.94482C15.4435 9.91472 15.405 9.89452 15.3632 9.88682L8.98622 8.69215C8.97279 8.68971 8.95918 8.68838 8.94551 8.68815Z" fill="white"/>
<path d="M20.08 36.2706C19.9811 36.2705 19.8836 36.2464 19.7961 36.2003C19.7087 36.1543 19.6338 36.0878 19.578 36.0064L15.9165 30.672C15.8471 30.5714 15.8101 30.4521 15.8106 30.3301V9.64289C15.8103 9.52087 15.8472 9.40162 15.9165 9.30096L19.5775 3.96608C19.6333 3.88475 19.7082 3.81821 19.7957 3.77221C19.8831 3.72622 19.9806 3.70217 20.0795 3.70215C20.1784 3.70222 20.2758 3.72629 20.3633 3.77228C20.4508 3.81826 20.5257 3.88478 20.5815 3.96608L24.2423 9.30096C24.3114 9.40168 24.3483 9.52087 24.3482 9.64289V30.3301C24.3484 30.4521 24.3114 30.5713 24.2423 30.672L20.5827 36.0056C20.527 36.0872 20.452 36.154 20.3643 36.2001C20.2768 36.2463 20.1791 36.2705 20.08 36.2706ZM20.08 4.09705C20.0454 4.09668 20.0112 4.10487 19.9806 4.12087C19.9499 4.13688 19.9237 4.16021 19.9043 4.18878L16.2433 9.52365C16.2193 9.55867 16.2066 9.60006 16.2067 9.64237V30.3295C16.2066 30.372 16.2193 30.4134 16.2433 30.4486L19.9043 35.7832C19.9236 35.8118 19.9498 35.8353 19.9805 35.8513C20.0112 35.8673 20.0453 35.8755 20.08 35.8751C20.1147 35.8756 20.1489 35.8674 20.1796 35.8513C20.2102 35.8353 20.2364 35.8119 20.2557 35.7832L23.9155 30.4471C23.9396 30.412 23.9525 30.3705 23.9524 30.3281V9.64087C23.9525 9.5985 23.9396 9.55705 23.9155 9.52214L20.2547 4.18728C20.2354 4.15892 20.2094 4.13576 20.1789 4.11989C20.1483 4.10401 20.1144 4.0959 20.08 4.0963V4.09705Z" fill="white"/>
<path d="M24.3178 30.1939L20.0471 25.9409L15.7762 30.1939V24.1811H9.73828L14.009 19.9284L9.73828 15.6761H15.7762V9.66309L20.0471 13.9158L24.3178 9.66309V15.6761H30.3553L26.0846 19.929L30.3553 24.1811H24.3178V30.1939ZM20.327 25.6612L23.9198 29.2388V24.1811H21.8134L20.327 25.6612ZM16.174 24.1811V29.2388L19.767 25.6612L18.2806 24.1811H16.174ZM18.8421 24.1811L20.0469 25.3808L21.2516 24.1811H18.8421ZM24.3186 23.7857H29.3978L25.8047 20.2082L24.3186 21.6883V23.7857ZM22.2123 23.7857H23.9213V22.0836L22.2123 23.7857ZM18.445 23.7857H21.6505L23.9213 21.5243V18.3324L21.6505 16.071H18.4443L16.1733 18.3324V21.5246L18.445 23.7857ZM16.174 23.7857H17.8833L16.174 22.0836V23.7857ZM10.6978 23.7857H15.777V21.6883L14.2906 20.2082L10.6978 23.7857ZM24.3186 18.728V21.1289L25.5234 19.9292L24.3186 18.728ZM14.5714 19.9277L15.7762 21.1274V18.7265L14.5714 19.9277ZM24.3186 18.1677L25.8047 19.648L29.3978 16.0702H24.3178L24.3186 18.1677ZM10.6978 16.0702L14.2898 19.6501L15.7762 18.1697V16.071L10.6978 16.0702ZM22.2123 16.0702L23.9213 17.7723V16.0702H22.2123ZM16.174 16.0702V17.7723L17.8833 16.0702H16.174ZM21.8149 15.6748H23.9213V10.6178L20.3285 14.1954L21.8149 15.6748ZM18.8421 15.6748H21.2535L20.0486 14.4751L18.8421 15.6748ZM16.174 15.6748H18.2806L19.767 14.1947L16.174 10.6178V15.6748Z" fill="white"/>
<path d="M30.467 24.2375H9.69207C9.56953 24.2376 9.44978 24.2008 9.3487 24.1317L3.99121 20.4861C3.90963 20.4305 3.84289 20.3559 3.79678 20.2688C3.75066 20.1817 3.72656 20.0848 3.72656 19.9863C3.72656 19.8878 3.75066 19.7909 3.79678 19.7037C3.84289 19.6166 3.90963 19.5421 3.99121 19.4864L9.3487 15.8408C9.44984 15.772 9.56959 15.7352 9.69207 15.7354H30.467C30.5895 15.7353 30.7092 15.7721 30.8103 15.8408L36.1676 19.4864C36.2493 19.542 36.316 19.6166 36.3622 19.7037C36.4083 19.7908 36.4325 19.8878 36.4325 19.9863C36.4325 20.0848 36.4083 20.1818 36.3622 20.2689C36.316 20.356 36.2493 20.4306 36.1676 20.4861L30.8103 24.1317C30.7093 24.2008 30.5896 24.2376 30.467 24.2375ZM9.69207 16.1298C9.64944 16.1298 9.6078 16.1426 9.57261 16.1665L4.21535 19.8121C4.18688 19.8313 4.16358 19.8573 4.14747 19.8876C4.13136 19.9179 4.12294 19.9516 4.12294 19.9859C4.12294 20.0202 4.13136 20.054 4.14747 20.0842C4.16358 20.1146 4.18688 20.1404 4.21535 20.1597L9.57261 23.8053C9.6078 23.8293 9.64944 23.8421 9.69207 23.842H30.467C30.5096 23.842 30.5511 23.8292 30.5862 23.8053L35.9437 20.1597C35.9722 20.1404 35.9955 20.1146 36.0116 20.0842C36.0277 20.054 36.0361 20.0202 36.0361 19.9859C36.0361 19.9516 36.0277 19.9179 36.0116 19.8876C35.9955 19.8573 35.9722 19.8313 35.9437 19.8121L30.5862 16.1665C30.5511 16.1426 30.5096 16.1298 30.467 16.1298H9.69207Z" fill="white"/>
<path d="M21.7278 4.00437L24.6938 8.32226C24.7154 8.35375 24.7457 8.37829 24.781 8.39294C24.8164 8.40758 24.8552 8.41169 24.8929 8.40475L30.0885 7.4525C30.1152 7.44758 30.1406 7.43728 30.1631 7.42217C30.1857 7.407 30.2048 7.38744 30.2194 7.36463C30.234 7.34182 30.2437 7.31624 30.2479 7.28949C30.2521 7.26275 30.2507 7.23548 30.2438 7.20932L28.401 0.147609C28.3934 0.118111 28.379 0.0907792 28.3589 0.0677725C28.3389 0.0447663 28.3137 0.0267166 28.2855 0.0150366C28.2573 0.00335653 28.2266 -0.00163264 28.1961 0.00046817C28.1656 0.00256899 28.136 0.0117011 28.1096 0.0271414L21.791 3.72344C21.7677 3.73711 21.7474 3.75541 21.7314 3.77722C21.7154 3.79903 21.7041 3.82388 21.6982 3.85023C21.6922 3.87657 21.6918 3.90386 21.6969 3.93037C21.702 3.95689 21.7125 3.98207 21.7278 4.00437Z" fill="white"/>
<path d="M32.6541 10.0024L31.6833 15.156C31.676 15.1937 31.6799 15.2327 31.6945 15.2683C31.7091 15.3038 31.7338 15.3343 31.7656 15.356L36.1252 18.3475C36.1476 18.3629 36.173 18.3735 36.1997 18.3787C36.2264 18.3839 36.254 18.3835 36.2806 18.3777C36.3072 18.3718 36.3323 18.3605 36.3543 18.3445C36.3763 18.3285 36.3948 18.3082 36.4085 18.2848L40.1283 11.9796C40.1439 11.9533 40.1531 11.9237 40.1551 11.8933C40.1573 11.8628 40.1523 11.8323 40.1406 11.804C40.1289 11.7758 40.1107 11.7507 40.0876 11.7306C40.0645 11.7106 40.037 11.6961 40.0073 11.6884L32.8989 9.84919C32.8727 9.84236 32.8454 9.84097 32.8185 9.84508C32.7918 9.84919 32.7661 9.85868 32.7432 9.87304C32.7203 9.8874 32.7005 9.90627 32.6852 9.92855C32.6699 9.95078 32.6594 9.9759 32.6541 10.0024Z" fill="white"/>
<path d="M10.1711 7.37138L15.1987 8.31089C15.2354 8.31766 15.2732 8.31379 15.3076 8.2996C15.342 8.28548 15.3716 8.26169 15.3927 8.23118L18.3111 4.01374C18.3262 3.99203 18.3367 3.96742 18.3419 3.94148C18.347 3.91553 18.3467 3.88881 18.341 3.86299C18.3353 3.83717 18.3242 3.8128 18.3086 3.79143C18.2929 3.77006 18.273 3.75215 18.2501 3.73881L12.0987 0.139732C12.073 0.124705 12.0442 0.115806 12.0145 0.113745C11.9848 0.111684 11.9551 0.116512 11.9275 0.127848C11.9 0.139184 11.8755 0.156724 11.856 0.179082C11.8364 0.201439 11.8223 0.228006 11.8148 0.256699L10.0202 7.13347C10.0133 7.159 10.0119 7.18562 10.0159 7.21173C10.0199 7.2379 10.0293 7.2629 10.0434 7.28525C10.0576 7.30759 10.0762 7.32675 10.0982 7.34157C10.1202 7.35639 10.1449 7.36658 10.1711 7.37138Z" fill="white"/>
<path d="M4.03037 18.3543L8.3766 15.3938C8.40824 15.3723 8.4329 15.3421 8.44761 15.3068C8.46233 15.2716 8.4664 15.2329 8.45942 15.1954L7.50091 10.0102C7.49597 9.98355 7.48556 9.95819 7.47038 9.93567C7.45514 9.91321 7.43548 9.89405 7.41251 9.87952C7.38954 9.86494 7.36377 9.85527 7.3369 9.85104C7.30998 9.84682 7.28253 9.84815 7.25618 9.85504L0.148219 11.6943C0.118575 11.702 0.0911283 11.7165 0.0680295 11.7365C0.0449307 11.7565 0.0268062 11.7816 0.015085 11.8098C0.00336382 11.838 -0.00163819 11.8685 0.000470151 11.8989C0.00257849 11.9294 0.0117404 11.9589 0.0272372 11.9852L3.74749 18.2913C3.76129 18.3147 3.77974 18.3349 3.80172 18.3508C3.82369 18.3668 3.8487 18.378 3.87522 18.3839C3.90174 18.3898 3.92919 18.3903 3.95587 18.3852C3.98256 18.3801 4.00792 18.3696 4.03037 18.3543Z" fill="white"/>
<path d="M7.50552 29.9683L8.47636 24.8149C8.48363 24.7771 8.47973 24.7382 8.46514 24.7027C8.45048 24.6672 8.42582 24.6366 8.39407 24.6149L4.03449 21.6247C4.01207 21.6093 3.98671 21.5987 3.95998 21.5935C3.93325 21.5883 3.90574 21.5887 3.87915 21.5945C3.85256 21.6004 3.82747 21.6116 3.80545 21.6276C3.78342 21.6435 3.76492 21.6638 3.75112 21.6872L0.0311094 27.9925C0.0156145 28.0189 0.00646204 28.0484 0.00436904 28.0788C0.00227605 28.1093 0.0073019 28.1399 0.019049 28.168C0.0307961 28.1962 0.0489462 28.2213 0.0720736 28.2413C0.0952015 28.2614 0.122675 28.2758 0.152341 28.2835L7.26079 30.123C7.28708 30.1298 7.31453 30.1311 7.3414 30.1269C7.36827 30.1227 7.39398 30.1131 7.41689 30.0986C7.43986 30.0841 7.45958 30.065 7.47482 30.0426C7.49005 30.0202 7.50052 29.9949 7.50552 29.9683Z" fill="white"/>
<path d="M18.4328 35.9671L15.4668 31.6492C15.4451 31.6178 15.4148 31.5932 15.3795 31.5786C15.3442 31.564 15.3053 31.5598 15.2677 31.5667L10.0721 32.519C10.0454 32.5239 10.02 32.5342 9.99745 32.5493C9.97489 32.5644 9.95575 32.584 9.94115 32.6068C9.92656 32.6296 9.91679 32.6552 9.91254 32.6819C9.90835 32.7087 9.90969 32.736 9.91649 32.7621L11.7595 39.8241C11.7672 39.8535 11.7816 39.8809 11.8017 39.9039C11.8218 39.9268 11.8469 39.9448 11.8751 39.9565C11.9034 39.9682 11.934 39.9731 11.9645 39.971C11.995 39.9689 12.0246 39.9598 12.051 39.9443L18.3695 36.248C18.3929 36.2343 18.4132 36.216 18.4292 36.1942C18.4452 36.1724 18.4565 36.1476 18.4625 36.1212C18.4684 36.0949 18.4688 36.0676 18.4637 36.0411C18.4586 36.0146 18.4481 35.9894 18.4328 35.9671Z" fill="white"/>
<path d="M30.0965 32.5133L24.9315 31.5473C24.8939 31.5403 24.855 31.5443 24.8196 31.5588C24.7843 31.5734 24.7539 31.5978 24.7322 31.6293L21.7341 35.9619C21.7186 35.9842 21.7081 36.0094 21.7029 36.0359C21.6976 36.0625 21.6981 36.0898 21.7039 36.1162C21.7098 36.1426 21.7211 36.1675 21.7371 36.1894C21.7531 36.2113 21.7734 36.2296 21.7968 36.2433L28.1163 39.9401C28.1427 39.9556 28.1724 39.9647 28.2029 39.9668C28.2334 39.969 28.264 39.964 28.2923 39.9523C28.3205 39.9406 28.3457 39.9226 28.3658 39.8997C28.3859 39.8767 28.4003 39.8494 28.408 39.8199L30.2516 32.7555C30.2582 32.7294 30.2594 32.7022 30.2551 32.6756C30.2508 32.6491 30.2411 32.6237 30.2266 32.601C30.2121 32.5783 30.193 32.5588 30.1706 32.5437C30.1483 32.5287 30.123 32.5183 30.0965 32.5133Z" fill="white"/>
<path d="M36.1279 21.6171L31.7816 24.5773C31.7498 24.5991 31.725 24.6295 31.7103 24.665C31.6956 24.7005 31.6916 24.7395 31.6988 24.7773L32.6574 29.9622C32.6623 29.9889 32.6727 30.0143 32.6879 30.0367C32.7031 30.0593 32.7228 30.0784 32.7458 30.0929C32.7688 30.1075 32.7945 30.1172 32.8214 30.1214C32.8483 30.1257 32.8758 30.1243 32.9021 30.1174L40.0098 28.2782C40.0395 28.2705 40.0669 28.2561 40.0901 28.236C40.1132 28.216 40.1313 28.1909 40.1431 28.1627C40.1548 28.1345 40.1599 28.104 40.1578 28.0736C40.1557 28.0431 40.1465 28.0136 40.131 27.9872L36.4107 21.6814C36.3971 21.6579 36.3788 21.6375 36.3568 21.6215C36.3349 21.6054 36.3099 21.594 36.2834 21.5879C36.2568 21.5819 36.2294 21.5814 36.2026 21.5864C36.1758 21.5915 36.1504 21.6019 36.1279 21.6171Z" fill="white"/>
<path d="M23.0679 9.32707L20.3321 5.33982C20.3037 5.29914 20.2659 5.26591 20.2218 5.24295C20.1778 5.22 20.1288 5.20801 20.0791 5.20801C20.0293 5.20801 19.9804 5.22 19.9363 5.24295C19.8923 5.26591 19.8544 5.29914 19.8261 5.33982L17.0902 9.32707C16.8101 9.68973 17.1429 10.0208 17.3317 10.2088L18.5482 11.4203C18.5631 11.435 18.581 11.4461 18.6008 11.4527C18.6206 11.4595 18.6417 11.4615 18.6624 11.4588C18.6831 11.456 18.7029 11.4486 18.7203 11.437C18.7377 11.4254 18.7521 11.41 18.7626 11.392L19.9611 9.32504C19.973 9.30444 19.9903 9.28736 20.011 9.27544C20.0317 9.26357 20.0552 9.25732 20.0791 9.25732C20.103 9.25732 20.1265 9.26357 20.1472 9.27544C20.1679 9.28736 20.1851 9.30444 20.197 9.32504L21.3955 11.392C21.406 11.41 21.4204 11.4254 21.4378 11.437C21.4552 11.4486 21.475 11.456 21.4957 11.4588C21.5164 11.4615 21.5375 11.4595 21.5573 11.4527C21.5771 11.4461 21.5951 11.435 21.6099 11.4203L22.8265 10.2088C23.0155 10.0208 23.3269 9.73894 23.0679 9.32707Z" fill="white"/>
<path d="M10.3961 25.4183L9.49905 30.1636C9.49021 30.2124 9.49335 30.2625 9.50818 30.3097C9.52301 30.357 9.54912 30.4 9.58431 30.435C9.61944 30.47 9.66259 30.4961 9.71005 30.5109C9.75745 30.5257 9.80781 30.5288 9.85672 30.52L14.6231 29.6275C15.0787 29.5683 15.0785 29.0999 15.0785 28.834V27.1207C15.0785 27.0998 15.0737 27.0793 15.0645 27.0606C15.0553 27.042 15.0418 27.0257 15.0253 27.013C15.0087 27.0004 14.9894 26.9916 14.9688 26.9877C14.9484 26.9836 14.9272 26.9843 14.907 26.9897L12.5919 27.6076C12.5688 27.6137 12.5444 27.6137 12.5213 27.6076C12.4982 27.6014 12.4771 27.5893 12.4602 27.5724C12.4433 27.5556 12.4312 27.5346 12.4249 27.5116C12.4188 27.4886 12.4188 27.4644 12.4249 27.4414L13.0451 25.1357C13.0506 25.1156 13.0513 25.0945 13.0472 25.0741C13.0432 25.0537 13.0344 25.0345 13.0217 25.018C13.009 25.0015 12.9926 24.9881 12.9739 24.9789C12.9552 24.9697 12.9345 24.965 12.9136 24.965H11.193C10.9272 24.965 10.5064 24.9452 10.3961 25.4183Z" fill="white"/>
<path d="M25.5356 29.6274L30.301 30.5209C30.3499 30.5297 30.4003 30.5265 30.4477 30.5118C30.4952 30.4969 30.5383 30.4709 30.5735 30.4359C30.6086 30.4008 30.6347 30.3579 30.6496 30.3106C30.6644 30.2634 30.6675 30.2132 30.6587 30.1645L29.7626 25.4182C29.7031 24.9646 29.2328 24.9648 28.9657 24.9648H27.2451C27.2243 24.9648 27.2036 24.9696 27.1849 24.9788C27.1661 24.988 27.1498 25.0013 27.137 25.0179C27.1243 25.0344 27.1156 25.0536 27.1116 25.074C27.1075 25.0944 27.1082 25.1155 27.1136 25.1356L27.7338 27.441C27.7401 27.4639 27.7401 27.4883 27.734 27.5113C27.7279 27.5343 27.7156 27.5554 27.6987 27.5722C27.6818 27.5891 27.6607 27.6012 27.6375 27.6073C27.6144 27.6135 27.59 27.6134 27.5669 27.6072L25.2517 26.9896C25.2315 26.9842 25.2104 26.9834 25.1899 26.9875C25.1694 26.9915 25.1501 27.0002 25.1335 27.0129C25.117 27.0256 25.1035 27.0418 25.0943 27.0605C25.0851 27.0792 25.0803 27.0997 25.0803 27.1206V28.8338C25.0798 29.0998 25.06 29.518 25.5356 29.6274Z" fill="white"/>
<path d="M29.7627 14.5517L30.6597 9.80639C30.6686 9.75765 30.6655 9.70758 30.6507 9.66028C30.6358 9.61305 30.6097 9.5701 30.5745 9.53507C30.5394 9.50005 30.4962 9.47406 30.4488 9.4593C30.4013 9.44448 30.351 9.44141 30.3021 9.45021L25.5357 10.3425C25.0801 10.4018 25.0801 10.8701 25.0801 11.1361V12.8493C25.0801 12.8702 25.085 12.8907 25.0942 12.9094C25.1035 12.9281 25.1169 12.9443 25.1335 12.957C25.1501 12.9697 25.1694 12.9784 25.1899 12.9824C25.2104 12.9864 25.2316 12.9857 25.2518 12.9803L27.567 12.3627C27.5901 12.3566 27.6144 12.3566 27.6375 12.3627C27.6606 12.3689 27.6817 12.381 27.6986 12.3979C27.7155 12.4147 27.7277 12.4357 27.7339 12.4587C27.7401 12.4817 27.7401 12.506 27.7339 12.5289L27.1134 14.8344C27.1081 14.8544 27.1074 14.8755 27.1114 14.8959C27.1156 14.9164 27.1243 14.9355 27.137 14.952C27.1498 14.9685 27.1662 14.9819 27.1849 14.9911C27.2037 15.0003 27.2243 15.0051 27.2452 15.0051H28.9658C29.2328 15.0063 29.6528 15.0265 29.7627 14.5517Z" fill="white"/>
<path d="M9.37479 17.01L5.37065 19.7343C5.3298 19.7625 5.29642 19.8002 5.27337 19.844C5.25032 19.8879 5.23828 19.9367 5.23828 19.9862C5.23828 20.0358 5.25032 20.0845 5.27337 20.1284C5.29642 20.1723 5.3298 20.2099 5.37065 20.2382L9.37479 22.9625C9.73875 23.2414 10.0713 22.9103 10.2603 22.722L11.4769 21.5106C11.4916 21.4958 11.5028 21.478 11.5095 21.4582C11.5162 21.4385 11.5183 21.4175 11.5155 21.3969C11.5128 21.3762 11.5053 21.3566 11.4937 21.3393C11.4821 21.322 11.4666 21.3075 11.4485 21.2971L9.37276 20.1037C9.35211 20.0918 9.33489 20.0747 9.32297 20.0541C9.31105 20.0334 9.30471 20.0101 9.30471 19.9862C9.30471 19.9624 9.31105 19.939 9.32297 19.9184C9.33489 19.8978 9.35211 19.8807 9.37276 19.8688L11.4485 18.6753C11.4666 18.6649 11.4821 18.6505 11.4937 18.6332C11.5053 18.6159 11.5128 18.5962 11.5155 18.5756C11.5183 18.5549 11.5162 18.5339 11.5095 18.5142C11.5028 18.4945 11.4916 18.4766 11.4769 18.4619L10.2603 17.2512C10.0713 17.0625 9.78841 16.7528 9.37479 17.01Z" fill="white"/>
<path d="M17.0905 30.6449L19.8264 34.6318C19.8548 34.6725 19.8926 34.7058 19.9366 34.7288C19.9807 34.7518 20.0297 34.7638 20.0794 34.7638C20.1291 34.7638 20.1782 34.7518 20.2223 34.7288C20.2663 34.7058 20.3041 34.6725 20.3324 34.6318L23.0683 30.6449C23.3484 30.2822 23.0156 29.951 22.8268 29.7631L21.6103 28.5514C21.5954 28.5367 21.5775 28.5256 21.5577 28.5189C21.5379 28.5122 21.5168 28.5102 21.4961 28.5129C21.4754 28.5156 21.4556 28.5231 21.4382 28.5347C21.4208 28.5462 21.4064 28.5616 21.3959 28.5796L20.1974 30.6466C20.1854 30.6672 20.1682 30.6843 20.1475 30.6962C20.1268 30.7081 20.1033 30.7143 20.0794 30.7143C20.0555 30.7143 20.032 30.7081 20.0113 30.6962C19.9906 30.6843 19.9735 30.6672 19.9615 30.6466L18.763 28.5796C18.7525 28.5616 18.7381 28.5462 18.7207 28.5347C18.7033 28.5231 18.6835 28.5156 18.6627 28.5129C18.642 28.5102 18.621 28.5122 18.6012 28.5189C18.5814 28.5256 18.5634 28.5367 18.5486 28.5514L17.332 29.7631C17.143 29.951 16.8323 30.2327 17.0905 30.6449Z" fill="white"/>
<path d="M30.7845 22.9621L34.7886 20.2378C34.8295 20.2096 34.8628 20.172 34.8859 20.1281C34.909 20.0842 34.921 20.0354 34.921 19.9859C34.921 19.9364 34.909 19.8876 34.8859 19.8437C34.8628 19.7999 34.8295 19.7622 34.7886 19.734L30.7845 17.0096C30.4205 16.7307 30.088 17.0622 29.899 17.2501L28.6824 18.4615C28.6676 18.4763 28.6565 18.4942 28.6498 18.5139C28.6431 18.5336 28.641 18.5546 28.6437 18.5752C28.6465 18.5959 28.654 18.6156 28.6656 18.6329C28.6772 18.6502 28.6927 18.6646 28.7108 18.675L30.7865 19.8684C30.8073 19.8803 30.8245 19.8975 30.8365 19.9181C30.8485 19.9387 30.8547 19.9622 30.8547 19.986C30.8547 20.0099 30.8485 20.0333 30.8365 20.0539C30.8245 20.0746 30.8073 20.0917 30.7865 20.1036L28.7108 21.2968C28.6927 21.3072 28.6772 21.3216 28.6656 21.3389C28.654 21.3562 28.6465 21.376 28.6437 21.3966C28.641 21.4172 28.6431 21.4382 28.6498 21.4579C28.6565 21.4776 28.6676 21.4956 28.6824 21.5103L29.899 22.7217C30.088 22.9099 30.3709 23.2193 30.7845 22.9621Z" fill="white"/>
<path d="M14.6887 10.3613L9.92331 9.46773C9.8744 9.45899 9.82404 9.46211 9.77658 9.47693C9.72912 9.49175 9.68597 9.51774 9.65084 9.55276C9.61566 9.58779 9.58954 9.63074 9.57465 9.67803C9.55977 9.72527 9.55662 9.7754 9.56541 9.82414L10.4617 14.5704C10.5212 15.0238 10.9916 15.0238 11.2586 15.0238H12.9792C13.0001 15.0238 13.0207 15.019 13.0394 15.0098C13.0581 15.0006 13.0744 14.9872 13.0872 14.9707C13.0999 14.9542 13.1086 14.9351 13.1127 14.9146C13.1168 14.8942 13.1161 14.8732 13.1107 14.8531L12.4902 12.5474C12.4841 12.5245 12.4841 12.5002 12.4902 12.4772C12.4965 12.4542 12.5086 12.4332 12.5256 12.4164C12.5425 12.3995 12.5635 12.3874 12.5866 12.3812C12.6098 12.3751 12.6341 12.3751 12.6572 12.3812L14.9726 12.9991C14.9928 13.0045 15.014 13.0052 15.0344 13.0012C15.055 12.9971 15.0742 12.9884 15.0908 12.9757C15.1074 12.9631 15.1208 12.9468 15.1301 12.9281C15.1393 12.9095 15.1441 12.8889 15.1441 12.8681V11.1548C15.1441 10.8889 15.1638 10.4707 14.6887 10.3613Z" fill="white"/>
<path d="M18.3338 14.3582L18.0449 14.6459C17.9415 14.7488 17.8014 14.8067 17.6552 14.8068H17.2433C17.1549 14.8068 17.0702 14.7718 17.0077 14.7095C16.9453 14.6473 16.9102 14.5629 16.9102 14.4749V12.7784C16.9102 12.7532 16.9177 12.7287 16.9317 12.7079C16.9458 12.687 16.9657 12.6707 16.989 12.6611C17.0123 12.6514 17.0379 12.6489 17.0627 12.6538C17.0874 12.6586 17.1102 12.6707 17.1281 12.6884L18.3328 13.8881C18.364 13.9189 18.3888 13.9554 18.4058 13.9957C18.4227 14.036 18.4315 14.0793 18.4315 14.123C18.4316 14.1667 18.423 14.2099 18.4063 14.2503C18.3895 14.2907 18.3649 14.3274 18.3338 14.3582Z" fill="white"/>
<path d="M22.8338 14.7798H22.4249C22.2788 14.7796 22.1387 14.7218 22.0353 14.619L21.7442 14.3291C21.7132 14.2983 21.6886 14.2618 21.6718 14.2215C21.6551 14.1812 21.6465 14.1381 21.6465 14.0945C21.6465 14.0509 21.6551 14.0077 21.6718 13.9674C21.6886 13.9271 21.7132 13.8906 21.7442 13.8597L22.949 12.6601C22.9669 12.6424 22.9896 12.6303 23.0144 12.6255C23.0391 12.6206 23.0647 12.6231 23.088 12.6328C23.1113 12.6424 23.1313 12.6586 23.1453 12.6795C23.1593 12.7004 23.1668 12.7249 23.1669 12.75V14.4479C23.1669 14.4915 23.1583 14.5346 23.1416 14.5749C23.1248 14.6151 23.1003 14.6517 23.0694 14.6825C23.0384 14.7133 23.0017 14.7378 22.9613 14.7545C22.9208 14.7712 22.8775 14.7798 22.8338 14.7798Z" fill="white"/>
<path d="M25.7179 18.2467L25.429 17.9591C25.3257 17.856 25.2677 17.7165 25.2676 17.5709V17.1607C25.2676 17.0727 25.3027 16.9884 25.3652 16.9262C25.4276 16.864 25.5123 16.8291 25.6007 16.8291H27.3047C27.3299 16.829 27.3546 16.8365 27.3756 16.8505C27.3966 16.8644 27.413 16.8843 27.4226 16.9075C27.4323 16.9308 27.4348 16.9563 27.4298 16.981C27.4249 17.0057 27.4127 17.0283 27.3948 17.046L26.19 18.2457C26.1591 18.2767 26.1223 18.3013 26.0819 18.3181C26.0414 18.3349 25.998 18.3436 25.9541 18.3437C25.9103 18.3438 25.8668 18.3353 25.8263 18.3187C25.7858 18.302 25.749 18.2776 25.7179 18.2467Z" fill="white"/>
<path d="M25.293 22.7272V22.3201C25.2931 22.1745 25.3511 22.0349 25.4544 21.9319L25.7456 21.642C25.808 21.5798 25.8928 21.5449 25.9811 21.5449C26.0694 21.5449 26.1542 21.5798 26.2166 21.642L27.4214 22.8417C27.4394 22.8594 27.4516 22.8821 27.4565 22.9068C27.4615 22.9315 27.459 22.9571 27.4492 22.9803C27.4396 23.0036 27.4231 23.0234 27.4021 23.0374C27.3811 23.0513 27.3564 23.0587 27.3311 23.0586H25.626C25.5378 23.0586 25.4531 23.0237 25.3906 22.9616C25.3282 22.8994 25.293 22.8151 25.293 22.7272Z" fill="white"/>
<path d="M21.8123 25.5988L22.1015 25.3111C22.1527 25.2601 22.2134 25.2197 22.2803 25.1921C22.3472 25.1645 22.4189 25.1503 22.4913 25.1504H22.9029C22.9913 25.1504 23.076 25.1854 23.1384 25.2475C23.2009 25.3098 23.236 25.3941 23.236 25.482V27.1786C23.236 27.2038 23.2287 27.2284 23.2146 27.2494C23.2006 27.2703 23.1807 27.2867 23.1574 27.2963C23.134 27.3059 23.1083 27.3084 23.0835 27.3035C23.0587 27.2986 23.036 27.2864 23.0181 27.2686L21.8134 26.0689C21.7822 26.0381 21.7575 26.0016 21.7406 25.9613C21.7237 25.9209 21.715 25.8777 21.7148 25.834C21.7147 25.7904 21.7233 25.7471 21.74 25.7067C21.7568 25.6663 21.7813 25.6297 21.8123 25.5988Z" fill="white"/>
<path d="M17.3118 25.1768H17.7204C17.8667 25.1769 18.0069 25.2348 18.1103 25.3377L18.4014 25.6276C18.4638 25.6899 18.4989 25.7743 18.4989 25.8623C18.4989 25.9502 18.4638 26.0346 18.4014 26.0968L17.1966 27.2965C17.1788 27.3143 17.156 27.3264 17.1312 27.3313C17.1064 27.3362 17.0807 27.3337 17.0574 27.3241C17.034 27.3145 17.0141 27.2981 17 27.2772C16.986 27.2563 16.9785 27.2317 16.9785 27.2065V25.5087C16.9786 25.4207 17.0137 25.3363 17.0762 25.2741C17.1387 25.2118 17.2235 25.1769 17.3118 25.1768Z" fill="white"/>
<path d="M14.4289 21.7094L14.7181 21.9973C14.8213 22.1003 14.8793 22.2397 14.8795 22.3852V22.7954C14.8794 22.8833 14.8442 22.9677 14.7818 23.0299C14.7192 23.0921 14.6345 23.127 14.5461 23.127H12.8424C12.8172 23.127 12.7925 23.1195 12.7715 23.1056C12.7506 23.0916 12.7342 23.0718 12.7246 23.0485C12.7149 23.0254 12.7124 22.9999 12.7173 22.9752C12.7221 22.9505 12.7342 22.9279 12.752 22.9101L13.9568 21.7104C13.9877 21.6794 14.0244 21.6548 14.0649 21.638C14.1054 21.6211 14.1488 21.6124 14.1926 21.6123C14.2365 21.6122 14.28 21.6208 14.3205 21.6374C14.361 21.6541 14.3979 21.6785 14.4289 21.7094Z" fill="white"/>
<path d="M14.8534 17.2284V17.6353C14.8533 17.7808 14.7952 17.9204 14.692 18.0234L14.4009 18.3133C14.3383 18.3755 14.2536 18.4104 14.1653 18.4104C14.0769 18.4104 13.9922 18.3755 13.9297 18.3133L12.7249 17.1137C12.7071 17.0958 12.6949 17.0732 12.69 17.0485C12.685 17.0238 12.6876 16.9982 12.6972 16.975C12.7069 16.9517 12.7233 16.9319 12.7443 16.9179C12.7653 16.9039 12.79 16.8964 12.8153 16.8965H14.5205C14.6089 16.8966 14.6935 16.9316 14.7559 16.9939C14.8183 17.0561 14.8534 17.1404 14.8534 17.2284Z" fill="white"/>
<path d="M18.9283 21.7403H21.2322V21.133H21.8421V18.8388H21.2322V18.2314H18.9283V18.8388H18.3184V21.133H18.9283V21.7403Z" fill="white"/>
<path d="M66.6132 18.4422L65.7664 16.4417H61.9059L61.0591 18.4422H59.0352L63.1545 8.91113H64.6184L68.6226 18.4422H66.6132ZM62.4938 14.927H65.2209L63.8576 11.4975L62.4938 14.927Z" fill="white"/>
<path d="M74.4179 10.5115H72.2648V18.4422H70.3991V10.5115H68.2461V8.91113H74.4179V10.5115Z" fill="white"/>
<path d="M75.5996 8.91113H77.4653V14.8984C77.4653 15.4986 77.6183 15.9701 77.9248 16.313C78.2883 16.7513 78.7954 16.9704 79.4462 16.9704C80.097 16.9704 80.6041 16.7513 80.9676 16.313C81.2735 15.9701 81.4265 15.4986 81.4265 14.8984V8.91113H83.2928V14.7412C83.2928 15.8273 83.0532 16.6751 82.5751 17.2847C82.2401 17.7229 81.7906 18.0611 81.2258 18.2993C80.671 18.5375 80.0778 18.6565 79.4462 18.6565C78.8146 18.6565 78.2167 18.5375 77.652 18.2993C77.0972 18.0611 76.6523 17.7229 76.3173 17.2847C75.8386 16.6751 75.5996 15.8273 75.5996 14.7412V8.91113Z" fill="white"/>
<path d="M85.2812 8.91113H88.0508C89.1034 8.91113 89.9171 9.14928 90.4911 9.62563C91.1227 10.1591 91.4385 10.8736 91.4385 11.769C91.4385 12.7598 91.0651 13.5076 90.3189 14.0125C90.0316 14.2126 89.6827 14.3507 89.2709 14.4269L92.2562 18.4422H89.931L87.3767 14.6126H87.147V18.4422H85.2812V8.91113ZM87.147 10.4258V13.298H87.678C87.8309 13.298 87.9792 13.2885 88.1229 13.2694C88.2758 13.2409 88.4718 13.1885 88.7114 13.1122C88.9505 13.0265 89.1418 12.8788 89.2855 12.6693C89.4384 12.4502 89.5152 12.1787 89.5152 11.8548C89.5152 11.5309 89.4431 11.2641 89.2994 11.0546C89.1563 10.8355 88.965 10.6878 88.7254 10.6116C88.4864 10.5258 88.295 10.4734 88.1514 10.4544C88.0077 10.4354 87.8594 10.4258 87.7065 10.4258H87.147Z" fill="white"/>
<path d="M100.039 18.4422L99.1922 16.4417H95.3316L94.4848 18.4422H92.4609L96.5803 8.91113H98.0441L102.048 18.4422H100.039ZM95.9202 14.927H98.6472L97.2834 11.4975L95.9202 14.927Z" fill="white"/>
<path d="M103.166 8.91113H105.032V16.8418H107.989V18.4422H103.166V8.91113Z" fill="white"/>
<path d="M51.8561 18.4421H49.9902V8.91113H51.282L56.045 15.2699V8.91113H57.9108V18.4421H56.6191L51.8561 12.069V18.4421Z" fill="white"/>
<path d="M67.3724 21.4561V23.0925H63.2891V25.2695H67.2247V26.9059H63.2891V29.5651H67.3724V31.2015H61.3652V21.4561H67.3724Z" fill="white"/>
<path d="M77.6431 31.2015L76.7701 29.156H72.7898L71.9168 31.2015H69.8301L74.0768 21.4561H75.586L79.7147 31.2015H77.6431ZM73.3963 27.6072H76.2077L74.802 24.1006L73.3963 27.6072Z" fill="white"/>
<path d="M82.5547 21.4561H84.4786V29.5651H88.0588V31.2015H82.5547V21.4561Z" fill="white"/>
<path d="M97.2067 23.0925H94.4546V31.2015H92.5314V23.0925H89.7793V21.4561H97.2067V23.0925Z" fill="white"/>
<path d="M101.839 21.4561V25.2257H106.146V21.4561H107.989V31.2015H106.146V26.8621H101.839V31.2015H100.035V21.4561H101.839Z" fill="white"/>
<path d="M51.7938 21.3496V25.1192H56.1006V21.3496H57.9441V31.095H56.1006V26.7556H51.7938V31.095H49.9902V21.3496H51.7938Z" fill="white"/>
<path d="M52.3144 34.6537L52.1718 34.947C52.0583 34.8341 52.0774 34.8429 51.944 34.7808C51.7823 34.7073 51.6191 34.6706 51.4545 34.6706C51.1282 34.6706 50.8557 34.785 50.6372 35.0138C50.4215 35.2398 50.3137 35.518 50.3137 35.8485C50.3137 36.2044 50.4315 36.4854 50.667 36.6916C50.9054 36.8978 51.1693 37.0009 51.4587 37.0009C51.6404 37.0009 51.8164 36.9571 51.9866 36.8695C52.1058 36.8102 52.215 36.7311 52.3144 36.6323V37.0221C52.0561 37.2056 51.7709 37.2974 51.4587 37.2974C51.0388 37.2974 50.6883 37.1576 50.4073 36.878C50.1292 36.5984 49.9902 36.2538 49.9902 35.8442C49.9902 35.4233 50.1307 35.0731 50.4116 34.7935C50.6954 34.5139 51.0501 34.374 51.4758 34.374C51.788 34.374 52.0675 34.4673 52.3144 34.6537Z" fill="white"/>
<path d="M58.3522 36.878C58.0685 37.1576 57.7195 37.2974 57.3052 37.2974C56.8908 37.2974 56.5404 37.1576 56.2538 36.878C55.97 36.5984 55.8281 36.251 55.8281 35.8357C55.8281 35.4177 55.9714 35.0703 56.258 34.7935C56.5447 34.5139 56.8937 34.374 57.3052 34.374C57.7166 34.374 58.0657 34.5139 58.3522 34.7935C58.6389 35.0703 58.782 35.4177 58.782 35.8357C58.782 36.251 58.6389 36.5984 58.3522 36.878ZM58.1225 35.0096C57.8983 34.7836 57.6258 34.6706 57.3052 34.6706C56.9845 34.6706 56.7121 34.7836 56.4879 35.0096C56.2637 35.2355 56.1517 35.5109 56.1517 35.8357C56.1517 36.1606 56.2637 36.436 56.4879 36.662C56.7121 36.8879 56.9845 37.0009 57.3052 37.0009C57.6258 37.0009 57.8983 36.8879 58.1225 36.662C58.3464 36.436 58.4586 36.1606 58.4586 35.8357C58.4586 35.5109 58.3464 35.2355 58.1225 35.0096Z" fill="white"/>
<path d="M62.4473 34.4199H62.9026C63.2091 34.4199 63.4389 34.4722 63.5924 34.5767C63.7994 34.7151 63.903 34.9241 63.903 35.2038C63.903 35.4213 63.8361 35.602 63.7029 35.7461C63.5726 35.8901 63.4005 35.9692 63.1876 35.9833L64.0902 37.2459H63.707L62.8433 36.0088H62.7619V37.2459H62.4473V34.4199ZM62.7619 34.7165V35.7291H62.962C63.158 35.7291 63.3115 35.6839 63.422 35.5935C63.5325 35.5032 63.5878 35.376 63.5878 35.2122C63.5878 35.0202 63.5127 34.8817 63.3621 34.797C63.2661 34.7433 63.1295 34.7165 62.9538 34.7165H62.7619Z" fill="white"/>
<path d="M67.6699 34.4199H68.1852C68.5086 34.4199 68.747 34.4863 68.9 34.6191C69.0733 34.766 69.1599 34.9679 69.1599 35.225C69.1599 35.4453 69.0843 35.6331 68.9343 35.7884C68.7866 35.941 68.5627 36.0172 68.2614 36.0172H67.9851V37.2459H67.6699V34.4199ZM67.9851 34.7165V35.7206H68.2445C68.4318 35.7206 68.5778 35.6754 68.683 35.5851C68.7906 35.4947 68.8447 35.369 68.8447 35.208C68.8447 34.8804 68.6359 34.7165 68.2189 34.7165H67.9851Z" fill="white"/>
<path d="M75.069 36.878C74.7852 37.1576 74.4362 37.2974 74.0221 37.2974C73.6075 37.2974 73.2574 37.1576 72.9706 36.878C72.6868 36.5984 72.5449 36.251 72.5449 35.8357C72.5449 35.4177 72.688 35.0703 72.9747 34.7935C73.2614 34.5139 73.6104 34.374 74.0221 34.374C74.4333 34.374 74.7823 34.5139 75.069 34.7935C75.3557 35.0703 75.4988 35.4177 75.4988 35.8357C75.4988 36.251 75.3557 36.5984 75.069 36.878ZM74.8393 35.0096C74.6148 34.7836 74.3426 34.6706 74.0221 34.6706C73.7011 34.6706 73.4289 34.7836 73.2044 35.0096C72.9805 35.2355 72.8683 35.5109 72.8683 35.8357C72.8683 36.1606 72.9805 36.436 73.2044 36.662C73.4289 36.8879 73.7011 37.0009 74.0221 37.0009C74.3426 37.0009 74.6148 36.8879 74.8393 36.662C75.0632 36.436 75.1754 36.1606 75.1754 35.8357C75.1754 35.5109 75.0632 35.2355 74.8393 35.0096Z" fill="white"/>
<path d="M79.1641 34.4199H79.6194C79.9259 34.4199 80.1557 34.4722 80.3086 34.5767C80.5163 34.7151 80.6198 34.9241 80.6198 35.2038C80.6198 35.4213 80.5529 35.602 80.4197 35.7461C80.2889 35.8901 80.1173 35.9692 79.9044 35.9833L80.8071 37.2459H80.4238L79.5595 36.0088H79.4787V37.2459H79.1641V34.4199ZM79.4787 34.7165V35.7291H79.6788C79.8748 35.7291 80.0277 35.6839 80.1388 35.5935C80.2493 35.5032 80.3046 35.376 80.3046 35.2122C80.3046 35.0202 80.2295 34.8817 80.0789 34.797C79.9824 34.7433 79.8463 34.7165 79.6706 34.7165H79.4787Z" fill="white"/>
<path d="M86.2851 37.2471L85.953 36.4506H84.7444L84.4036 37.2471H84.0547L85.3028 34.418H85.3609H85.4185L86.634 37.2471H86.2851ZM84.8677 36.154H85.8297L85.3528 35.0228L84.8677 36.154Z" fill="white"/>
<path d="M91.3172 34.7165H90.628V37.2459H90.3128V34.7165H89.623V34.4199H91.3172V34.7165Z" fill="white"/>
<path d="M94.8281 34.4199H95.1433V37.2459H94.8281V34.4199Z" fill="white"/>
<path d="M101.333 36.878C101.049 37.1576 100.7 37.2974 100.286 37.2974C99.8717 37.2974 99.521 37.1576 99.2343 36.878C98.9505 36.5984 98.8086 36.251 98.8086 35.8357C98.8086 35.4177 98.9522 35.0703 99.2384 34.7935C99.5251 34.5139 99.8741 34.374 100.286 34.374C100.697 34.374 101.047 34.5139 101.333 34.7935C101.619 35.0703 101.763 35.4177 101.763 35.8357C101.763 36.251 101.619 36.5984 101.333 36.878ZM101.103 35.0096C100.879 34.7836 100.606 34.6706 100.286 34.6706C99.9654 34.6706 99.6926 34.7836 99.4687 35.0096C99.2442 35.2355 99.132 35.5109 99.132 35.8357C99.132 36.1606 99.2442 36.436 99.4687 36.662C99.6926 36.8879 99.9654 37.0009 100.286 37.0009C100.606 37.0009 100.879 36.8879 101.103 36.662C101.327 36.436 101.439 36.1606 101.439 35.8357C101.439 35.5109 101.327 35.2355 101.103 35.0096Z" fill="white"/>
<path d="M105.743 37.2459H105.428V34.4199H105.743L107.641 36.7151V34.4199H107.956V37.2459H107.641L105.743 34.9463V37.2459Z" fill="white"/>
</g>
<defs>
<clipPath id="clip0_1618_25297">
<rect width="108" height="40" fill="white"/>
</clipPath>
</defs>
</svg>
