<svg width="130" height="48" viewBox="0 0 130 48" fill="none" xmlns="http://www.w3.org/2000/svg">
<g clip-path="url(#clip0_1628_6464)">
<path d="M10.7675 38.0129C10.6598 38.0129 10.5535 37.9893 10.456 37.9438C10.3586 37.8984 10.2724 37.8322 10.2037 37.7499C10.135 37.6676 10.0854 37.5713 10.0585 37.4678C10.0315 37.3643 10.0279 37.2562 10.0478 37.1512L11.492 29.531C11.5188 29.387 11.5892 29.2546 11.6938 29.1513L29.3783 11.5974C29.4826 11.4938 29.6161 11.4239 29.7611 11.3971L37.4369 9.96377C37.5541 9.94182 37.6748 9.94863 37.7887 9.98357C37.9026 10.0185 38.0062 10.0805 38.0904 10.1641C38.1747 10.2477 38.2372 10.3506 38.2725 10.4636C38.3077 10.5767 38.3145 10.6966 38.2926 10.8128L36.8483 18.4327C36.8213 18.5767 36.751 18.7092 36.6466 18.8127L18.9638 36.3663C18.8599 36.47 18.7265 36.54 18.5816 36.5666L10.9055 38.0003C10.86 38.0088 10.8138 38.013 10.7675 38.0129ZM37.572 10.4253C37.5557 10.4255 37.5394 10.427 37.5233 10.4298L29.8475 11.8634C29.797 11.8727 29.7506 11.897 29.7143 11.933L12.0328 29.4878C11.9966 29.5239 11.9721 29.5699 11.9624 29.6198L10.5185 37.2403C10.5106 37.2806 10.5128 37.3224 10.5251 37.3617C10.5374 37.401 10.5593 37.4367 10.5889 37.4655C10.6182 37.4946 10.6541 37.5161 10.6937 37.5282C10.7332 37.5404 10.7751 37.5427 10.8158 37.5351L18.4922 36.1015C18.5424 36.0922 18.5886 36.0679 18.6245 36.0319L36.3073 18.4782C36.3435 18.4423 36.368 18.3963 36.3773 18.3463L37.8215 10.7261C37.8284 10.6897 37.8272 10.6523 37.8179 10.6164C37.8086 10.5805 37.7915 10.5471 37.7678 10.5185C37.7441 10.4899 37.7144 10.4668 37.6806 10.4509C37.647 10.435 37.6101 10.4265 37.5728 10.4262L37.572 10.4253Z" fill="#007D75"/>
<path d="M37.5705 38.0129C37.5249 38.0129 37.4796 38.0086 37.4348 38.0003L29.759 36.5667C29.6139 36.5402 29.4803 36.4702 29.3762 36.3664L11.6938 18.8127C11.5893 18.7093 11.5189 18.5768 11.492 18.4327L10.0478 10.8129C10.0258 10.6966 10.0326 10.5767 10.0678 10.4636C10.103 10.3505 10.1654 10.2477 10.2498 10.164C10.3341 10.0804 10.4377 10.0183 10.5516 9.98346C10.6655 9.94859 10.7863 9.94185 10.9034 9.9638L18.5795 11.3971C18.7243 11.4241 18.8576 11.494 18.9617 11.5975L36.6445 29.1511C36.7489 29.2547 36.8193 29.3873 36.8463 29.5314L38.2904 37.1512C38.3103 37.2563 38.3067 37.3644 38.2796 37.4679C38.2527 37.5714 38.2031 37.6676 38.1343 37.75C38.0656 37.8322 37.9794 37.8984 37.882 37.9439C37.7845 37.9893 37.6782 38.0129 37.5705 38.0129ZM10.7666 10.4254C10.7293 10.4257 10.6926 10.4341 10.6589 10.4501C10.6252 10.4661 10.5955 10.4892 10.5719 10.5178C10.5482 10.5463 10.5311 10.5797 10.5218 10.6157C10.5126 10.6515 10.5113 10.6889 10.5182 10.7253L11.9621 18.3455C11.9717 18.3955 11.9963 18.4414 12.0325 18.4774L29.7149 36.031C29.751 36.0671 29.7974 36.0914 29.8479 36.1006L37.5239 37.5342C37.5646 37.5418 37.6066 37.5394 37.6462 37.5273C37.6857 37.5152 37.7217 37.4936 37.751 37.4645C37.7803 37.4354 37.802 37.3997 37.8142 37.3605C37.8264 37.3212 37.8289 37.2796 37.8213 37.2391L36.377 29.6193C36.3677 29.5692 36.3432 29.5231 36.307 29.487L18.6242 11.9334C18.5883 11.8973 18.5419 11.873 18.4916 11.8638L10.8156 10.4302C10.7994 10.4273 10.783 10.4257 10.7666 10.4254Z" fill="#007D75"/>
<path d="M24.1704 43.5255C24.0513 43.5254 23.934 43.4964 23.8287 43.4412C23.7234 43.386 23.6333 43.3061 23.5661 43.2084L19.1588 36.8072C19.0752 36.6865 19.0308 36.5433 19.0313 36.3969V11.5723C19.0309 11.4258 19.0754 11.2827 19.1588 11.1619L23.5656 4.76008C23.6327 4.66249 23.7229 4.58263 23.8282 4.52744C23.9335 4.47225 24.0507 4.44339 24.1698 4.44336C24.2889 4.44344 24.4061 4.47233 24.5114 4.52752C24.6167 4.5827 24.7069 4.66252 24.7741 4.76008L29.1806 11.1619C29.2637 11.2828 29.3082 11.4258 29.308 11.5723V36.3969C29.3083 36.5433 29.2638 36.6863 29.1806 36.8072L24.7755 43.2075C24.7084 43.3054 24.6182 43.3856 24.5127 43.4409C24.4072 43.4964 24.2897 43.5254 24.1704 43.5255ZM24.1704 4.91724C24.1288 4.91679 24.0876 4.92662 24.0507 4.94583C24.0138 4.96504 23.9822 4.99303 23.9589 5.02731L19.5522 11.4292C19.5233 11.4712 19.508 11.5209 19.5081 11.5716V36.3962C19.508 36.4472 19.5233 36.4969 19.5522 36.5391L23.9589 42.9406C23.9822 42.975 24.0137 43.0031 24.0506 43.0223C24.0875 43.0416 24.1287 43.0514 24.1704 43.0509C24.2121 43.0515 24.2533 43.0416 24.2903 43.0224C24.3272 43.0032 24.3587 42.975 24.3819 42.9406L28.7872 36.5373C28.8163 36.4952 28.8317 36.4454 28.8316 36.3945V11.5698C28.8317 11.519 28.8163 11.4692 28.7872 11.4274L24.3807 5.02551C24.3575 4.99148 24.3261 4.96369 24.2894 4.94464C24.2527 4.92559 24.2118 4.91586 24.1704 4.91634V4.91724Z" fill="#007D75"/>
<path d="M29.2701 36.2326L24.1295 31.1291L18.9886 36.2326V29.0173H11.7207L16.8613 23.9141L11.7207 18.8113H18.9886V11.5957L24.1295 16.6989L29.2701 11.5957V18.8113H36.5375L31.3968 23.9148L36.5375 29.0173H29.2701V36.2326ZM24.4664 30.7935L28.791 35.0866V29.0173H26.2556L24.4664 30.7935ZM19.4674 29.0173V35.0866L23.7924 30.7935L22.0032 29.0173H19.4674ZM22.679 29.0173L24.1292 30.457L25.5794 29.0173H22.679ZM29.2711 28.5429H35.3849L31.06 24.2498L29.2711 26.0259V28.5429ZM26.7357 28.5429H28.7928V26.5004L26.7357 28.5429ZM22.2011 28.5429H26.0595L28.7928 25.8292V21.9988L26.0595 19.2852H22.2002L19.4665 21.9988V25.8295L22.2011 28.5429ZM19.4674 28.5429H21.5249L19.4674 26.5004V28.5429ZM12.8757 28.5429H18.9895V26.0259L17.2003 24.2498L12.8757 28.5429ZM29.2711 22.4736V25.3547L30.7213 23.915L29.2711 22.4736ZM17.5384 23.9132L18.9886 25.3529V22.4718L17.5384 23.9132ZM29.2711 21.8012L31.06 23.5776L35.3849 19.2842H29.2701L29.2711 21.8012ZM12.8757 19.2842L17.1994 23.5801L18.9886 21.8036V19.2852L12.8757 19.2842ZM26.7357 19.2842L28.7928 21.3267V19.2842H26.7357ZM19.4674 19.2842V21.3267L21.5249 19.2842H19.4674ZM26.2574 18.8097H28.7928V12.7414L24.4682 17.0345L26.2574 18.8097ZM22.679 18.8097H25.5816L24.1313 17.3702L22.679 18.8097ZM19.4674 18.8097H22.0032L23.7924 17.0336L19.4674 12.7414V18.8097Z" fill="#007D75"/>
<path d="M36.6739 29.0853H11.667C11.5195 29.0856 11.3754 29.0413 11.2537 28.9584L4.80489 24.5838C4.70668 24.517 4.62635 24.4275 4.57085 24.323C4.51534 24.2185 4.48633 24.1021 4.48633 23.9839C4.48633 23.8658 4.51534 23.7494 4.57085 23.6449C4.62635 23.5403 4.70668 23.4509 4.80489 23.3841L11.2537 19.0094C11.3755 18.9268 11.5196 18.8827 11.667 18.8828H36.6739C36.8214 18.8827 36.9654 18.9269 37.0872 19.0094L43.5357 23.3841C43.634 23.4508 43.7144 23.5403 43.77 23.6448C43.8255 23.7494 43.8545 23.8658 43.8545 23.9839C43.8545 24.1021 43.8255 24.2185 43.77 24.3231C43.7144 24.4275 43.634 24.5171 43.5357 24.5838L37.0872 28.9584C36.9655 29.0413 36.8214 29.0856 36.6739 29.0853ZM11.667 19.3561C11.6157 19.3561 11.5656 19.3715 11.5232 19.4002L5.07469 23.7749C5.04041 23.798 5.01236 23.8291 4.99297 23.8655C4.97359 23.9018 4.96345 23.9423 4.96345 23.9835C4.96345 24.0246 4.97359 24.0651 4.99297 24.1015C5.01236 24.1379 5.04041 24.1689 5.07469 24.1921L11.5232 28.5667C11.5656 28.5956 11.6157 28.6109 11.667 28.6108H36.6739C36.7251 28.6108 36.7751 28.5955 36.8174 28.5667L43.2662 24.1921C43.3005 24.1689 43.3286 24.1379 43.348 24.1015C43.3674 24.0651 43.3774 24.0246 43.3774 23.9835C43.3774 23.9423 43.3674 23.9018 43.348 23.8655C43.3286 23.8291 43.3005 23.798 43.2662 23.7749L36.8174 19.4002C36.7751 19.3715 36.7251 19.3561 36.6739 19.3561H11.667Z" fill="#007D75"/>
<path d="M26.1528 4.80524L29.723 9.98671C29.749 10.0245 29.7855 10.054 29.828 10.0715C29.8705 10.0891 29.9173 10.094 29.9626 10.0857L36.2166 8.943C36.2487 8.9371 36.2793 8.92473 36.3064 8.9066C36.3336 8.8884 36.3566 8.86492 36.3742 8.83756C36.3917 8.81019 36.4034 8.77948 36.4085 8.74739C36.4135 8.7153 36.4118 8.68258 36.4036 8.65118L34.1854 0.177131C34.1762 0.141733 34.1589 0.108935 34.1347 0.081327C34.1105 0.0537196 34.0803 0.03206 34.0463 0.0180439C34.0123 0.00402784 33.9754 -0.00195917 33.9388 0.000561805C33.902 0.00308279 33.8664 0.0140414 33.8346 0.0325696L26.2289 4.46813C26.2008 4.48453 26.1763 4.50649 26.1571 4.53267C26.1378 4.55883 26.1243 4.58866 26.1171 4.62027C26.11 4.65189 26.1094 4.68463 26.1156 4.71644C26.1217 4.74826 26.1344 4.77849 26.1528 4.80524Z" fill="#007D75"/>
<path d="M39.3057 12.004L38.1372 18.1884C38.1283 18.2337 38.133 18.2805 38.1507 18.3231C38.1682 18.3657 38.198 18.4023 38.2363 18.4284L43.4839 22.0182C43.5108 22.0366 43.5414 22.0494 43.5736 22.0557C43.6058 22.0618 43.6389 22.0614 43.6709 22.0544C43.7029 22.0473 43.7332 22.0338 43.7596 22.0146C43.7862 21.9954 43.8084 21.971 43.8249 21.9429L48.3024 14.3767C48.3212 14.3452 48.3322 14.3097 48.3348 14.2731C48.3373 14.2365 48.3313 14.1999 48.3173 14.166C48.3031 14.1322 48.2813 14.102 48.2535 14.0779C48.2256 14.0539 48.1925 14.0365 48.1568 14.0273L39.6003 11.8202C39.5688 11.812 39.5359 11.8103 39.5037 11.8153C39.4714 11.8202 39.4406 11.8316 39.413 11.8488C39.3854 11.866 39.3616 11.8887 39.3432 11.9154C39.3247 11.9421 39.3121 11.9723 39.3057 12.004Z" fill="#007D75"/>
<path d="M12.2441 8.84644L18.2959 9.97385C18.3401 9.98198 18.3856 9.97733 18.427 9.96031C18.4684 9.94336 18.5041 9.91481 18.5295 9.8782L22.0423 4.81727C22.0606 4.79121 22.0732 4.76168 22.0794 4.73056C22.0856 4.69942 22.0852 4.66736 22.0783 4.63637C22.0714 4.60538 22.0581 4.57614 22.0393 4.5505C22.0204 4.52485 21.9965 4.50336 21.9689 4.48735L14.5645 0.168459C14.5335 0.150428 14.4989 0.139748 14.4631 0.137275C14.4274 0.134802 14.3915 0.140596 14.3584 0.154199C14.3252 0.167802 14.2958 0.18885 14.2723 0.215679C14.2487 0.242508 14.2318 0.274389 14.2228 0.308819L12.0625 8.56094C12.0543 8.59158 12.0525 8.62353 12.0574 8.65486C12.0622 8.68626 12.0735 8.71627 12.0905 8.74308C12.1075 8.76989 12.1299 8.79288 12.1564 8.81067C12.1829 8.82845 12.2127 8.84068 12.2441 8.84644Z" fill="#007D75"/>
<path d="M4.85137 22.0252L10.0829 18.4726C10.121 18.4468 10.1507 18.4105 10.1684 18.3682C10.1861 18.326 10.191 18.2795 10.1826 18.2345L9.02887 12.0123C9.02292 11.9803 9.01039 11.9498 8.99212 11.9228C8.97378 11.8959 8.95012 11.8729 8.92247 11.8554C8.89481 11.8379 8.8638 11.8263 8.83146 11.8213C8.79905 11.8162 8.766 11.8178 8.73429 11.826L0.178412 14.0331C0.14273 14.0424 0.109691 14.0597 0.0818874 14.0838C0.0540833 14.1078 0.0322667 14.138 0.0181579 14.1718C0.00404904 14.2056 -0.00197189 14.2422 0.000565923 14.2787C0.00310374 14.3152 0.014132 14.3507 0.0327856 14.3823L4.51087 21.9496C4.52748 21.9776 4.54969 22.0019 4.57614 22.021C4.60259 22.0401 4.6327 22.0536 4.66461 22.0607C4.69654 22.0678 4.72958 22.0683 4.7617 22.0622C4.79382 22.0561 4.82434 22.0435 4.85137 22.0252Z" fill="#007D75"/>
<path d="M9.03363 35.9623L10.2022 29.7782C10.211 29.733 10.2063 29.6862 10.1887 29.6436C10.1711 29.601 10.1414 29.5644 10.1032 29.5382L4.85554 25.95C4.82855 25.9315 4.79802 25.9188 4.76584 25.9125C4.73367 25.9064 4.70055 25.9068 4.66856 25.9138C4.63655 25.9208 4.60635 25.9344 4.57984 25.9535C4.55332 25.9726 4.53106 25.9969 4.51444 26.025L0.0366507 33.5914C0.0179995 33.623 0.00698266 33.6585 0.00446331 33.695C0.00194397 33.7315 0.00799361 33.7682 0.0221336 33.802C0.0362737 33.8359 0.058121 33.866 0.0859596 33.89C0.113799 33.914 0.146868 33.9313 0.182578 33.9406L8.73905 36.148C8.77069 36.1561 8.80373 36.1577 8.83607 36.1527C8.86842 36.1477 8.89936 36.1361 8.92694 36.1187C8.95459 36.1013 8.97832 36.0784 8.99667 36.0515C9.01501 36.0246 9.02761 35.9943 9.03363 35.9623Z" fill="#007D75"/>
<path d="M22.1865 43.1593L18.6163 37.9779C18.5902 37.9402 18.5537 37.9107 18.5112 37.8931C18.4687 37.8756 18.4219 37.8706 18.3766 37.8789L12.1227 39.0216C12.0905 39.0275 12.0599 39.0398 12.0328 39.058C12.0056 39.0761 11.9826 39.0996 11.965 39.127C11.9475 39.1544 11.9357 39.1851 11.9306 39.2171C11.9256 39.2492 11.9272 39.282 11.9354 39.3134L14.1538 47.7877C14.1631 47.8231 14.1804 47.8559 14.2046 47.8835C14.2287 47.911 14.2591 47.9326 14.293 47.9466C14.327 47.9606 14.3638 47.9666 14.4005 47.964C14.4373 47.9615 14.4729 47.9506 14.5046 47.932L22.1103 43.4964C22.1384 43.48 22.1629 43.4581 22.1821 43.4319C22.2014 43.4057 22.215 43.3759 22.2222 43.3443C22.2293 43.3127 22.2298 43.28 22.2236 43.2481C22.2175 43.2163 22.2049 43.186 22.1865 43.1593Z" fill="#007D75"/>
<path d="M36.2269 39.0167L30.0098 37.8575C29.9645 37.8491 29.9178 37.8539 29.8752 37.8714C29.8326 37.8889 29.796 37.9182 29.7699 37.9559L26.1611 43.1551C26.1425 43.1818 26.1298 43.212 26.1235 43.2439C26.1172 43.2758 26.1177 43.3086 26.1248 43.3402C26.1319 43.3719 26.1455 43.4018 26.1647 43.428C26.184 43.4543 26.2084 43.4763 26.2366 43.4928L33.8435 47.9289C33.8752 47.9475 33.9109 47.9585 33.9476 47.961C33.9844 47.9635 34.0212 47.9576 34.0552 47.9436C34.0892 47.9296 34.1195 47.908 34.1437 47.8804C34.1679 47.8528 34.1853 47.8201 34.1945 47.7847L36.4136 39.3073C36.4216 39.276 36.4231 39.2434 36.4179 39.2116C36.4127 39.1797 36.401 39.1492 36.3835 39.122C36.3661 39.0948 36.3431 39.0714 36.3162 39.0532C36.2893 39.0352 36.2589 39.0227 36.2269 39.0167Z" fill="#007D75"/>
<path d="M43.4878 25.9413L38.2563 29.4936C38.218 29.5196 38.1881 29.5562 38.1704 29.5988C38.1526 29.6414 38.1479 29.6882 38.1566 29.7335L39.3104 35.9555C39.3163 35.9875 39.3288 36.0179 39.3471 36.0449C39.3654 36.0719 39.3892 36.0948 39.4168 36.1123C39.4445 36.1298 39.4754 36.1414 39.5078 36.1465C39.5402 36.1516 39.5733 36.1499 39.605 36.1417L48.1605 33.9346C48.1962 33.9254 48.2293 33.9081 48.2572 33.884C48.2849 33.86 48.3068 33.8299 48.3209 33.796C48.3351 33.7622 48.3412 33.7256 48.3386 33.689C48.3361 33.6525 48.3251 33.6171 48.3064 33.5855L43.8283 26.0184C43.8119 25.9903 43.7898 25.9658 43.7634 25.9465C43.737 25.9272 43.7069 25.9136 43.675 25.9063C43.643 25.8991 43.61 25.8985 43.5778 25.9045C43.5456 25.9105 43.515 25.9231 43.4878 25.9413Z" fill="#007D75"/>
<path d="M27.7685 11.1929L24.4753 6.40817C24.4412 6.35936 24.3957 6.31948 24.3427 6.29193C24.2896 6.26439 24.2307 6.25 24.1708 6.25C24.1109 6.25 24.052 6.26439 23.9989 6.29193C23.9459 6.31948 23.9004 6.35936 23.8663 6.40817L20.5731 11.1929C20.2359 11.6281 20.6365 12.0254 20.8637 12.251L22.3281 13.7047C22.346 13.7224 22.3676 13.7357 22.3914 13.7437C22.4153 13.7517 22.4406 13.7542 22.4655 13.7509C22.4905 13.7476 22.5143 13.7387 22.5353 13.7248C22.5562 13.7109 22.5736 13.6924 22.5862 13.6708L24.0288 11.1904C24.0432 11.1657 24.0639 11.1452 24.0888 11.1309C24.1137 11.1167 24.142 11.1092 24.1708 11.1092C24.1996 11.1092 24.2279 11.1167 24.2528 11.1309C24.2777 11.1452 24.2984 11.1657 24.3128 11.1904L25.7554 13.6708C25.768 13.6924 25.7854 13.7109 25.8063 13.7248C25.8273 13.7387 25.8511 13.7476 25.8761 13.7509C25.901 13.7542 25.9263 13.7517 25.9502 13.7437C25.974 13.7357 25.9956 13.7224 26.0135 13.7047L27.4779 12.251C27.7054 12.0254 28.0803 11.6871 27.7685 11.1929Z" fill="#007D75"/>
<path d="M12.5154 30.5032L11.4356 36.1975C11.425 36.256 11.4287 36.3162 11.4466 36.3729C11.4644 36.4296 11.4959 36.4812 11.5382 36.5232C11.5805 36.5652 11.6324 36.5965 11.6896 36.6142C11.7466 36.632 11.8073 36.6358 11.8661 36.6252L17.6035 35.5542C18.1518 35.4832 18.1516 34.921 18.1516 34.6019V32.546C18.1516 32.521 18.1458 32.4964 18.1347 32.474C18.1236 32.4516 18.1075 32.432 18.0875 32.4168C18.0676 32.4016 18.0443 32.3911 18.0196 32.3864C17.995 32.3815 17.9695 32.3823 17.9452 32.3889L15.1584 33.1303C15.1306 33.1376 15.1013 33.1376 15.0735 33.1303C15.0457 33.1228 15.0203 33.1083 15 33.0881C14.9796 33.0679 14.965 33.0427 14.9575 33.0151C14.9501 32.9874 14.9501 32.9584 14.9575 32.9308L15.704 30.164C15.7106 30.1399 15.7115 30.1146 15.7066 30.0901C15.7017 30.0656 15.6912 30.0426 15.6758 30.0228C15.6606 30.003 15.6408 29.9869 15.6183 29.9759C15.5957 29.9648 15.5709 29.9591 15.5458 29.9591H13.4746C13.1547 29.9591 12.6481 29.9354 12.5154 30.5032Z" fill="#007D75"/>
<path d="M30.7378 35.5541L36.4739 36.6263C36.5328 36.6368 36.5934 36.633 36.6505 36.6153C36.7077 36.5975 36.7595 36.5662 36.8019 36.5242C36.8442 36.4822 36.8756 36.4307 36.8935 36.3739C36.9113 36.3172 36.9151 36.2571 36.9044 36.1986L35.8259 30.503C35.7543 29.9587 35.1881 29.959 34.8666 29.959H32.7955C32.7704 29.959 32.7456 29.9647 32.723 29.9757C32.7004 29.9868 32.6807 30.0027 32.6654 30.0226C32.6501 30.0424 32.6396 30.0655 32.6347 30.0899C32.6298 30.1144 32.6307 30.1397 32.6372 30.1638L33.3838 32.9303C33.3913 32.9579 33.3914 32.9871 33.3839 33.0147C33.3766 33.0424 33.3619 33.0676 33.3415 33.0878C33.3212 33.1081 33.2957 33.1226 33.2679 33.13C33.24 33.1373 33.2107 33.1373 33.1829 33.1298L30.396 32.3886C30.3718 32.3822 30.3463 32.3813 30.3216 32.3861C30.297 32.391 30.2737 32.4014 30.2538 32.4166C30.2338 32.4319 30.2177 32.4514 30.2065 32.4738C30.1955 32.4962 30.1897 32.5208 30.1897 32.5458V34.6018C30.1891 34.9209 30.1652 35.4227 30.7378 35.5541Z" fill="#007D75"/>
<path d="M35.8259 17.4616L36.9057 11.7673C36.9164 11.7088 36.9126 11.6487 36.8948 11.5919C36.8769 11.5353 36.8455 11.4837 36.8031 11.4417C36.7609 11.3997 36.7089 11.3685 36.6518 11.3508C36.5947 11.333 36.534 11.3293 36.4752 11.3399L30.7379 12.4106C30.1895 12.4817 30.1895 13.0438 30.1895 13.3629V15.4188C30.1895 15.4438 30.1953 15.4685 30.2065 15.4909C30.2176 15.5133 30.2338 15.5328 30.2538 15.548C30.2737 15.5632 30.297 15.5737 30.3217 15.5785C30.3463 15.5833 30.3718 15.5825 30.3961 15.576L33.183 14.8349C33.2107 14.8275 33.24 14.8275 33.2679 14.8349C33.2957 14.8423 33.321 14.8569 33.3414 14.8771C33.3617 14.8973 33.3764 14.9224 33.3839 14.9501C33.3913 14.9777 33.3913 15.0068 33.3839 15.0343L32.637 17.8008C32.6305 17.8249 32.6297 17.8502 32.6346 17.8747C32.6396 17.8993 32.6501 17.9223 32.6654 17.9421C32.6808 17.9618 32.7005 17.9779 32.7231 17.9889C32.7456 18 32.7705 18.0057 32.7956 18.0057H34.8667C35.1881 18.0072 35.6936 18.0315 35.8259 17.4616Z" fill="#007D75"/>
<path d="M11.2858 20.4124L6.46597 23.6815C6.4168 23.7154 6.37663 23.7606 6.34888 23.8132C6.32113 23.8659 6.30664 23.9244 6.30664 23.9838C6.30664 24.0433 6.32113 24.1018 6.34888 24.1544C6.37663 24.2071 6.4168 24.2523 6.46597 24.2862L11.2858 27.5554C11.7239 27.89 12.1242 27.4927 12.3517 27.2668L13.816 25.8131C13.8338 25.7954 13.8473 25.7739 13.8553 25.7503C13.8634 25.7266 13.8659 25.7014 13.8626 25.6767C13.8593 25.6519 13.8503 25.6283 13.8363 25.6075C13.8223 25.5867 13.8037 25.5694 13.7819 25.5569L11.2833 24.1249C11.2585 24.1105 11.2377 24.09 11.2234 24.0653C11.209 24.0405 11.2014 24.0125 11.2014 23.9838C11.2014 23.9553 11.209 23.9272 11.2234 23.9025C11.2377 23.8778 11.2585 23.8572 11.2833 23.8429L13.7819 22.4107C13.8037 22.3983 13.8223 22.381 13.8363 22.3602C13.8503 22.3395 13.8593 22.3158 13.8626 22.2911C13.8659 22.2663 13.8634 22.2411 13.8553 22.2174C13.8473 22.1938 13.8338 22.1723 13.816 22.1546L12.3517 20.7018C12.1242 20.4754 11.7837 20.1038 11.2858 20.4124Z" fill="#007D75"/>
<path d="M20.5735 36.7746L23.8667 41.559C23.9008 41.6078 23.9463 41.6478 23.9993 41.6753C24.0523 41.703 24.1113 41.7174 24.1712 41.7174C24.231 41.7174 24.2901 41.703 24.3431 41.6753C24.3961 41.6478 24.4416 41.6078 24.4757 41.559L27.7689 36.7746C28.1061 36.3394 27.7055 35.942 27.4783 35.7165L26.0139 34.2624C25.996 34.2448 25.9744 34.2315 25.9506 34.2235C25.9267 34.2154 25.9014 34.213 25.8765 34.2162C25.8515 34.2195 25.8277 34.2285 25.8067 34.2424C25.7858 34.2563 25.7684 34.2747 25.7558 34.2963L24.3132 36.7767C24.2988 36.8014 24.2781 36.8219 24.2532 36.8362C24.2282 36.8505 24.2 36.858 24.1712 36.858C24.1424 36.858 24.1141 36.8505 24.0892 36.8362C24.0643 36.8219 24.0436 36.8014 24.0292 36.7767L22.5866 34.2963C22.574 34.2747 22.5566 34.2563 22.5357 34.2424C22.5147 34.2285 22.4909 34.2195 22.4659 34.2162C22.441 34.213 22.4157 34.2154 22.3918 34.2235C22.368 34.2315 22.3464 34.2448 22.3285 34.2624L20.8641 35.7165C20.6366 35.942 20.2626 36.28 20.5735 36.7746Z" fill="#007D75"/>
<path d="M37.0548 27.5549L41.8746 24.2858C41.9237 24.2519 41.9639 24.2067 41.9917 24.1541C42.0194 24.1014 42.0339 24.0429 42.0339 23.9835C42.0339 23.924 42.0194 23.8655 41.9917 23.8129C41.9639 23.7602 41.9237 23.715 41.8746 23.6812L37.0548 20.412C36.6167 20.0773 36.2164 20.475 35.9889 20.7005L34.5245 22.1542C34.5067 22.1719 34.4933 22.1934 34.4852 22.2171C34.4772 22.2407 34.4747 22.2659 34.478 22.2906C34.4813 22.3154 34.4903 22.3391 34.5043 22.3598C34.5183 22.3806 34.5368 22.3979 34.5587 22.4104L37.0572 23.8425C37.0822 23.8568 37.103 23.8773 37.1174 23.9021C37.1318 23.9269 37.1394 23.955 37.1394 23.9836C37.1394 24.0122 37.1318 24.0403 37.1174 24.0651C37.103 24.0899 37.0822 24.1105 37.0572 24.1247L34.5587 25.5566C34.5368 25.569 34.5183 25.5863 34.5043 25.6071C34.4903 25.6279 34.4813 25.6515 34.478 25.6763C34.4747 25.7011 34.4772 25.7262 34.4852 25.7499C34.4933 25.7735 34.5067 25.7951 34.5245 25.8127L35.9889 27.2665C36.2164 27.4923 36.5569 27.8636 37.0548 27.5549Z" fill="#007D75"/>
<path d="M17.6806 12.4335L11.9445 11.3613C11.8856 11.3508 11.825 11.3545 11.7679 11.3723C11.7107 11.3901 11.6588 11.4213 11.6165 11.4633C11.5741 11.5053 11.5427 11.5569 11.5248 11.6136C11.5069 11.6703 11.5031 11.7305 11.5137 11.789L12.5926 17.4845C12.6641 18.0285 13.2303 18.0285 13.5518 18.0285H15.6228C15.648 18.0285 15.6728 18.0228 15.6953 18.0117C15.7178 18.0007 15.7375 17.9846 15.7528 17.9648C15.7681 17.9451 15.7787 17.9221 15.7836 17.8975C15.7885 17.8731 15.7876 17.8478 15.7812 17.8237L15.0343 15.0569C15.0269 15.0293 15.0269 15.0002 15.0343 14.9727C15.0418 14.945 15.0564 14.9199 15.0768 14.8997C15.0972 14.8794 15.1225 14.8649 15.1503 14.8575C15.1782 14.8501 15.2074 14.8501 15.2352 14.8575L18.0223 15.5989C18.0466 15.6054 18.0721 15.6063 18.0968 15.6014C18.1215 15.5965 18.1446 15.5861 18.1646 15.5709C18.1845 15.5557 18.2007 15.5362 18.2119 15.5137C18.223 15.4914 18.2287 15.4667 18.2287 15.4418V13.3857C18.2287 13.0666 18.2525 12.5649 17.6806 12.4335Z" fill="#007D75"/>
<path d="M22.0691 17.2299L21.7214 17.5751C21.5969 17.6986 21.4282 17.7681 21.2522 17.7682H20.7565C20.6501 17.7681 20.5481 17.7261 20.4729 17.6514C20.3978 17.5768 20.3555 17.4755 20.3555 17.3699V15.334C20.3555 15.3039 20.3646 15.2744 20.3814 15.2494C20.3984 15.2243 20.4223 15.2048 20.4504 15.1933C20.4784 15.1817 20.5093 15.1787 20.5391 15.1845C20.5688 15.1904 20.5962 15.2048 20.6178 15.2261L22.0679 16.6657C22.1055 16.7026 22.1353 16.7465 22.1557 16.7948C22.1761 16.8432 22.1867 16.8951 22.1867 16.9476C22.1869 17 22.1765 17.0519 22.1564 17.1004C22.1362 17.1488 22.1065 17.1928 22.0691 17.2299Z" fill="#007D75"/>
<path d="M27.4858 17.7365H26.9936C26.8177 17.7363 26.6492 17.667 26.5247 17.5436L26.1742 17.1958C26.1369 17.1588 26.1074 17.1149 26.0872 17.0665C26.067 17.0182 26.0566 16.9664 26.0566 16.9141C26.0566 16.8618 26.067 16.81 26.0872 16.7617C26.1074 16.7133 26.1369 16.6695 26.1742 16.6325L27.6245 15.1929C27.646 15.1716 27.6733 15.1572 27.7032 15.1513C27.7329 15.1455 27.7638 15.1485 27.7918 15.1601C27.8199 15.1716 27.8439 15.1911 27.8607 15.2162C27.8776 15.2412 27.8866 15.2707 27.8867 15.3008V17.3382C27.8867 17.3905 27.8764 17.4423 27.8563 17.4906C27.8361 17.5389 27.8066 17.5828 27.7694 17.6198C27.7321 17.6568 27.6879 17.6862 27.6392 17.7062C27.5906 17.7262 27.5384 17.7365 27.4858 17.7365Z" fill="#007D75"/>
<path d="M30.9561 21.8964L30.6083 21.5513C30.4841 21.4276 30.4142 21.2601 30.4141 21.0854V20.5933C30.4141 20.4877 30.4563 20.3865 30.5315 20.3119C30.6067 20.2372 30.7086 20.1953 30.815 20.1953H32.8661C32.8965 20.1952 32.9263 20.2041 32.9515 20.2209C32.9768 20.2377 32.9965 20.2615 33.0081 20.2894C33.0197 20.3173 33.0227 20.348 33.0168 20.3776C33.0108 20.4072 32.9961 20.4343 32.9746 20.4556L31.5244 21.8952C31.4872 21.9324 31.4429 21.9619 31.3942 21.9821C31.3456 22.0023 31.2933 22.0127 31.2405 22.0128C31.1877 22.0129 31.1354 22.0027 31.0866 21.9828C31.0378 21.9628 30.9935 21.9335 30.9561 21.8964Z" fill="#007D75"/>
<path d="M30.4453 27.2723V26.7837C30.4455 26.609 30.5153 26.4415 30.6396 26.3179L30.9901 25.97C31.0653 25.8954 31.1673 25.8535 31.2736 25.8535C31.38 25.8535 31.4819 25.8954 31.5571 25.97L33.0074 27.4097C33.0289 27.4309 33.0436 27.4581 33.0496 27.4877C33.0555 27.5174 33.0525 27.5481 33.0408 27.576C33.0292 27.6039 33.0094 27.6277 32.9841 27.6444C32.9588 27.6612 32.929 27.6701 32.8986 27.6699H30.8462C30.74 27.6699 30.638 27.6281 30.5629 27.5535C30.4877 27.4789 30.4454 27.3778 30.4453 27.2723Z" fill="#007D75"/>
<path d="M26.256 30.7197L26.6041 30.3745C26.6657 30.3133 26.7388 30.2648 26.8193 30.2317C26.8998 30.1986 26.9862 30.1816 27.0732 30.1816H27.5687C27.6751 30.1816 27.7771 30.2236 27.8523 30.2982C27.9275 30.3729 27.9697 30.4741 27.9697 30.5796V32.6155C27.9697 32.6457 27.9608 32.6753 27.944 32.7004C27.9271 32.7256 27.9031 32.7452 27.875 32.7567C27.8469 32.7683 27.8159 32.7713 27.7861 32.7654C27.7563 32.7595 27.7289 32.7449 27.7074 32.7235L26.2573 31.2838C26.2197 31.2469 26.19 31.203 26.1697 31.1547C26.1493 31.1063 26.1388 31.0545 26.1387 31.002C26.1385 30.9496 26.1489 30.8977 26.169 30.8493C26.1891 30.8008 26.2187 30.7568 26.256 30.7197Z" fill="#007D75"/>
<path d="M20.8387 30.2109H21.3306C21.5066 30.2111 21.6753 30.2806 21.7998 30.4041L22.1502 30.752C22.2254 30.8267 22.2676 30.928 22.2676 31.0335C22.2676 31.1391 22.2254 31.2403 22.1502 31.315L20.7 32.7546C20.6785 32.776 20.6512 32.7905 20.6213 32.7964C20.5914 32.8023 20.5605 32.7993 20.5324 32.7877C20.5043 32.7762 20.4803 32.7566 20.4634 32.7315C20.4465 32.7064 20.4375 32.6769 20.4375 32.6466V30.6092C20.4376 30.5037 20.4799 30.4024 20.5551 30.3277C20.6303 30.253 20.7324 30.2111 20.8387 30.2109Z" fill="#007D75"/>
<path d="M17.3679 26.052L17.716 26.3976C17.8402 26.5211 17.91 26.6885 17.9103 26.863V27.3553C17.9102 27.4608 17.8678 27.5621 17.7926 27.6367C17.7174 27.7113 17.6154 27.7532 17.509 27.7532H15.4582C15.4279 27.7532 15.3982 27.7442 15.3729 27.7275C15.3477 27.7107 15.328 27.6869 15.3164 27.659C15.3048 27.6312 15.3017 27.6006 15.3076 27.571C15.3135 27.5414 15.328 27.5143 15.3495 27.4929L16.7996 26.0533C16.8368 26.0161 16.881 25.9865 16.9298 25.9663C16.9785 25.9461 17.0307 25.9357 17.0835 25.9355C17.1363 25.9355 17.1886 25.9457 17.2374 25.9657C17.2862 25.9857 17.3305 26.015 17.3679 26.052Z" fill="#007D75"/>
<path d="M17.8786 20.6736V21.162C17.8784 21.3366 17.8086 21.5041 17.6843 21.6277L17.3339 21.9756C17.2586 22.0502 17.1566 22.0921 17.0503 22.0921C16.9439 22.0921 16.8419 22.0502 16.7667 21.9756L15.3165 20.536C15.295 20.5146 15.2804 20.4875 15.2744 20.4578C15.2685 20.4282 15.2716 20.3975 15.2832 20.3696C15.2948 20.3417 15.3146 20.3178 15.3398 20.3011C15.3652 20.2843 15.3949 20.2753 15.4253 20.2754H17.4779C17.5843 20.2755 17.6861 20.3176 17.7612 20.3922C17.8364 20.4669 17.8786 20.5681 17.8786 20.6736Z" fill="#007D75"/>
<path d="M22.783 26.0895H25.5562V25.3607H26.2904V22.6077H25.5562V21.8789H22.783V22.6077H22.0488V25.3607H22.783V26.0895Z" fill="#007D75"/>
<path d="M80.1842 22.1306L79.1649 19.73H74.518L73.4987 22.1306H71.0625L76.021 10.6934H77.783L82.6029 22.1306H80.1842ZM75.2257 17.9124H78.5083L76.8673 13.797L75.2257 17.9124Z" fill="black"/>
<path d="M89.5774 12.6138H86.9858V22.1306H84.74V12.6138H82.1484V10.6934H89.5774V12.6138Z" fill="black"/>
<path d="M91 10.6934H93.2458V17.8781C93.2458 18.5983 93.4299 19.1641 93.7988 19.5757C94.2363 20.1015 94.8468 20.3645 95.6302 20.3645C96.4135 20.3645 97.024 20.1015 97.4615 19.5757C97.8297 19.1641 98.0138 18.5983 98.0138 17.8781V10.6934H100.26V17.6895C100.26 18.9927 99.9719 20.0101 99.3964 20.7417C98.9932 21.2675 98.4521 21.6733 97.7723 21.9592C97.1045 22.245 96.3904 22.3879 95.6302 22.3879C94.8699 22.3879 94.1502 22.245 93.4705 21.9592C92.8026 21.6733 92.2671 21.2675 91.8639 20.7417C91.2877 20.0101 91 18.9927 91 17.6895V10.6934Z" fill="black"/>
<path d="M102.654 10.6934H105.988C107.255 10.6934 108.234 10.9791 108.925 11.5508C109.686 12.1909 110.066 13.0483 110.066 14.1228C110.066 15.3117 109.616 16.2091 108.718 16.815C108.372 17.0551 107.952 17.2208 107.457 17.3122L111.05 22.1306H108.251L105.177 17.5351H104.9V22.1306H102.654V10.6934ZM104.9 12.511V15.9576H105.539C105.723 15.9576 105.902 15.9462 106.075 15.9233C106.259 15.889 106.495 15.8262 106.783 15.7347C107.071 15.6318 107.301 15.4546 107.474 15.2031C107.658 14.9402 107.751 14.6144 107.751 14.2257C107.751 13.837 107.664 13.517 107.491 13.2655C107.319 13.0026 107.088 12.8254 106.8 12.7339C106.512 12.631 106.282 12.5681 106.109 12.5453C105.936 12.5224 105.758 12.511 105.574 12.511H104.9Z" fill="black"/>
<path d="M120.417 22.1306L119.397 19.73H114.75L113.731 22.1306H111.295L116.253 10.6934H118.015L122.835 22.1306H120.417ZM115.459 17.9124H118.741L117.1 13.797L115.459 17.9124Z" fill="black"/>
<path d="M124.182 10.6934H126.428V20.2101H129.986V22.1306H124.182V10.6934Z" fill="black"/>
<path d="M62.4198 22.1306H60.1738V10.6934H61.7287L67.4619 18.3239V10.6934H69.7079V22.1306H68.153L62.4198 14.4829V22.1306Z" fill="black"/>
<path d="M81.0961 25.7461V27.7098H76.181V30.3222H80.9183V32.2859H76.181V35.4769H81.0961V37.4406H73.8652V25.7461H81.0961Z" fill="black"/>
<path d="M93.4592 37.4406L92.4084 34.986H87.6173L86.5665 37.4406H84.0547L89.1665 25.7461H90.9831L95.9528 37.4406H93.4592ZM88.3474 33.1275H91.7315L90.0395 28.9196L88.3474 33.1275Z" fill="black"/>
<path d="M99.3711 25.7461H101.687V35.4769H105.996V37.4406H99.3711V25.7461Z" fill="black"/>
<path d="M117.007 27.7098H113.694V37.4406H111.379V27.7098H108.066V25.7461H117.007V27.7098Z" fill="black"/>
<path d="M122.583 25.7461V30.2696H127.768V25.7461H129.986V37.4406H127.768V32.2333H122.583V37.4406H120.412V25.7461H122.583Z" fill="black"/>
<path d="M62.3448 25.6191V30.1426H67.5289V25.6191H69.748V37.3136H67.5289V32.1063H62.3448V37.3136H60.1738V25.6191H62.3448Z" fill="black"/>
<path d="M62.9714 41.5856L62.7998 41.9376C62.6632 41.8021 62.6862 41.8127 62.5256 41.7381C62.3309 41.65 62.1345 41.6059 61.9364 41.6059C61.5436 41.6059 61.2157 41.7432 60.9526 42.0177C60.693 42.2889 60.5632 42.6228 60.5632 43.0193C60.5632 43.4464 60.705 43.7836 60.9885 44.0311C61.2754 44.2785 61.5931 44.4022 61.9415 44.4022C62.1601 44.4022 62.3719 44.3496 62.5768 44.2446C62.7204 44.1734 62.8518 44.0785 62.9714 43.9599V44.4277C62.6606 44.6479 62.3173 44.7581 61.9415 44.7581C61.436 44.7581 61.0141 44.5903 60.6759 44.2548C60.3411 43.9192 60.1738 43.5057 60.1738 43.0143C60.1738 42.5092 60.3429 42.0889 60.681 41.7533C61.0226 41.4178 61.4496 41.25 61.962 41.25C62.3378 41.25 62.6742 41.3619 62.9714 41.5856Z" fill="black"/>
<path d="M70.2394 44.2548C69.898 44.5903 69.4778 44.7581 68.9791 44.7581C68.4804 44.7581 68.0585 44.5903 67.7135 44.2548C67.372 43.9192 67.2012 43.5023 67.2012 43.004C67.2012 42.5024 67.3737 42.0855 67.7186 41.7533C68.0637 41.4178 68.4838 41.25 68.9791 41.25C69.4744 41.25 69.8945 41.4178 70.2394 41.7533C70.5845 42.0855 70.7567 42.5024 70.7567 43.004C70.7567 43.5023 70.5845 43.9192 70.2394 44.2548ZM69.9629 42.0127C69.693 41.7415 69.3651 41.6059 68.9791 41.6059C68.5932 41.6059 68.2652 41.7415 67.9954 42.0127C67.7255 42.2838 67.5906 42.6143 67.5906 43.004C67.5906 43.3939 67.7255 43.7243 67.9954 43.9955C68.2652 44.2666 68.5932 44.4022 68.9791 44.4022C69.3651 44.4022 69.693 44.2666 69.9629 43.9955C70.2324 43.7243 70.3675 43.3939 70.3675 43.004C70.3675 42.6143 70.2324 42.2838 69.9629 42.0127Z" fill="black"/>
<path d="M75.168 41.3047H75.7161C76.085 41.3047 76.3616 41.3674 76.5464 41.4928C76.7956 41.6589 76.9202 41.9097 76.9202 42.2453C76.9202 42.5063 76.8397 42.7232 76.6794 42.8961C76.5226 43.0689 76.3154 43.1638 76.0591 43.1808L77.1456 44.6959H76.6843L75.6447 43.2113H75.5467V44.6959H75.168V41.3047ZM75.5467 41.6606V42.8757H75.7875C76.0234 42.8757 76.2083 42.8215 76.3413 42.713C76.4743 42.6046 76.5408 42.452 76.5408 42.2555C76.5408 42.025 76.4505 41.8589 76.2692 41.7572C76.1536 41.6928 75.9891 41.6606 75.7777 41.6606H75.5467Z" fill="black"/>
<path d="M81.4551 41.3047H82.0753C82.4646 41.3047 82.7516 41.3844 82.9357 41.5436C83.1443 41.7199 83.2486 41.9622 83.2486 42.2707C83.2486 42.5351 83.1576 42.7605 82.977 42.9469C82.7992 43.1299 82.5297 43.2214 82.167 43.2214H81.8345V44.6959H81.4551V41.3047ZM81.8345 41.6606V42.8656H82.1467C82.3721 42.8656 82.5479 42.8113 82.6746 42.7029C82.8041 42.5944 82.8692 42.4436 82.8692 42.2504C82.8692 41.8572 82.6179 41.6606 82.1159 41.6606H81.8345Z" fill="black"/>
<path d="M90.3605 44.2548C90.0189 44.5903 89.5988 44.7581 89.1004 44.7581C88.6013 44.7581 88.1798 44.5903 87.8347 44.2548C87.4931 43.9192 87.3223 43.5023 87.3223 43.004C87.3223 42.5024 87.4945 42.0855 87.8396 41.7533C88.1847 41.4178 88.6048 41.25 89.1004 41.25C89.5953 41.25 90.0154 41.4178 90.3605 41.7533C90.7056 42.0855 90.8778 42.5024 90.8778 43.004C90.8778 43.5023 90.7056 43.9192 90.3605 44.2548ZM90.084 42.0127C89.8138 41.7415 89.4861 41.6059 89.1004 41.6059C88.714 41.6059 88.3863 41.7415 88.1161 42.0127C87.8466 42.2838 87.7115 42.6143 87.7115 43.004C87.7115 43.3939 87.8466 43.7243 88.1161 43.9955C88.3863 44.2666 88.714 44.4022 89.1004 44.4022C89.4861 44.4022 89.8138 44.2666 90.084 43.9955C90.3535 43.7243 90.4886 43.3939 90.4886 43.004C90.4886 42.6143 90.3535 42.2838 90.084 42.0127Z" fill="black"/>
<path d="M95.291 41.3047H95.8392C96.2081 41.3047 96.4846 41.3674 96.6687 41.4928C96.9187 41.6589 97.0433 41.9097 97.0433 42.2453C97.0433 42.5063 96.9628 42.7232 96.8024 42.8961C96.6449 43.0689 96.4384 43.1638 96.1822 43.1808L97.2687 44.6959H96.8073L95.7671 43.2113H95.6697V44.6959H95.291V41.3047ZM95.6697 41.6606V42.8757H95.9106C96.1465 42.8757 96.3306 42.8215 96.4643 42.713C96.5973 42.6046 96.6638 42.452 96.6638 42.2555C96.6638 42.025 96.5735 41.8589 96.3922 41.7572C96.276 41.6928 96.1122 41.6606 95.9008 41.6606H95.6697Z" fill="black"/>
<path d="M103.86 44.6957L103.461 43.7399H102.006L101.596 44.6957H101.176L102.678 41.3008H102.748H102.817L104.281 44.6957H103.86ZM102.154 43.384H103.312L102.738 42.0265L102.154 43.384Z" fill="black"/>
<path d="M109.918 41.6606H109.089V44.6959H108.709V41.6606H107.879V41.3047H109.918V41.6606Z" fill="black"/>
<path d="M114.145 41.3047H114.524V44.6959H114.145V41.3047Z" fill="black"/>
<path d="M121.974 44.2548C121.632 44.5903 121.212 44.7581 120.714 44.7581C120.215 44.7581 119.793 44.5903 119.448 44.2548C119.106 43.9192 118.936 43.5023 118.936 43.004C118.936 42.5024 119.108 42.0855 119.453 41.7533C119.798 41.4178 120.218 41.25 120.714 41.25C121.209 41.25 121.629 41.4178 121.974 41.7533C122.319 42.0855 122.492 42.5024 122.492 43.004C122.492 43.5023 122.319 43.9192 121.974 44.2548ZM121.697 42.0127C121.428 41.7415 121.099 41.6059 120.714 41.6059C120.328 41.6059 120 41.7415 119.73 42.0127C119.46 42.2838 119.325 42.6143 119.325 43.004C119.325 43.3939 119.46 43.7243 119.73 43.9955C120 44.2666 120.328 44.4022 120.714 44.4022C121.099 44.4022 121.428 44.2666 121.697 43.9955C121.967 43.7243 122.102 43.3939 122.102 43.004C122.102 42.6143 121.967 42.2838 121.697 42.0127Z" fill="black"/>
<path d="M127.282 44.6959H126.902V41.3047H127.282L129.567 44.059V41.3047H129.946V44.6959H129.567L127.282 41.9364V44.6959Z" fill="black"/>
</g>
<defs>
<clipPath id="clip0_1628_6464">
<rect width="130" height="48" fill="white"/>
</clipPath>
</defs>
</svg>
