<svg width="34" height="24" viewBox="0 0 34 24" fill="none" xmlns="http://www.w3.org/2000/svg">
<rect x="0.3" y="0.3" width="33.4" height="23.4" rx="3.7" fill="white" stroke="#DCE4F1" stroke-width="0.6"/>
<path d="M20.1128 17.3852H14.0449V6.30664H20.1128V17.3852Z" fill="#FF5F00"/>
<path d="M14.433 11.8449C14.433 9.59756 15.4687 7.5957 17.0817 6.30562C15.9022 5.36225 14.4136 4.79918 12.7958 4.79918C8.96591 4.79918 5.86133 7.95361 5.86133 11.8449C5.86133 15.7362 8.96591 18.8906 12.7958 18.8906C14.4136 18.8906 15.9022 18.3276 17.0817 17.3842C15.4687 16.0941 14.433 14.0922 14.433 11.8449Z" fill="#EB001B"/>
<path d="M28.2969 11.8449C28.2969 15.7362 25.1924 18.8906 21.3624 18.8906C19.7447 18.8906 18.2561 18.3276 17.0762 17.3842C18.6895 16.0941 19.7253 14.0922 19.7253 11.8449C19.7253 9.59756 18.6895 7.5957 17.0762 6.30562C18.2561 5.36225 19.7447 4.79918 21.3624 4.79918C25.1924 4.79918 28.2969 7.95361 28.2969 11.8449Z" fill="#F79E1B"/>
</svg>
