<svg width="34" height="24" viewBox="0 0 34 24" fill="none" xmlns="http://www.w3.org/2000/svg">
<rect x="0.3" y="0.3" width="33.4" height="23.4" rx="3.7" fill="white" stroke="#DCE4F1" stroke-width="0.6"/>
<path fill-rule="evenodd" clip-rule="evenodd" d="M5.50043 8.40171L5.53978 8.40116C5.81897 8.3963 6.50127 8.38442 6.79857 9.41141C7.00901 10.1384 7.34424 11.3292 7.80424 12.9838H7.99159C8.4849 11.2394 8.82379 10.0486 9.00824 9.41141C9.30501 8.38621 10.0203 8.39626 10.3672 8.40114C10.3893 8.40145 10.4099 8.40174 10.4287 8.40174L12.8642 8.40174V16.156H10.3819V11.5863H10.2155L8.83171 16.156H6.96412L5.58037 11.5829H5.41392V16.156H2.93164V8.40174L5.50043 8.40171ZM16.4287 8.40171V12.9748H16.6268L18.31 9.21439C18.6367 8.46605 19.3331 8.40171 19.3331 8.40171H21.7352V16.156H19.2011V11.5829H19.003L17.3529 15.3433C17.0261 16.0883 16.2967 16.156 16.2967 16.156H13.8946V8.40171H16.4287ZM27.8015 13.8461C29.0305 13.8461 30.1406 13.1119 30.4941 12.0866H22.7342V16.156H25.144V13.8461H27.8015Z" fill="#40A548"/>
<path d="M27.9173 8.40234H22.6074C22.7338 10.1287 24.1863 11.6066 25.69 11.6066H30.6611C30.948 10.1718 29.9604 8.40234 27.9173 8.40234Z" fill="#1291D0"/>
</svg>
