<svg width="32" height="32" viewBox="0 0 32 32" fill="none" xmlns="http://www.w3.org/2000/svg">
<path fill-rule="evenodd" clip-rule="evenodd" d="M0 16C0 24.8366 7.16344 32 16 32C24.8366 32 32 24.8366 32 16C32 7.16344 24.8366 0 16 0C7.16344 0 0 7.16344 0 16ZM13.0665 23.3332L13.3388 19.2547L13.3385 19.2545L20.7578 12.5592C21.0834 12.2702 20.6867 12.1293 20.2544 12.3914L11.098 18.1681L7.14298 16.9336C6.28886 16.6721 6.28272 16.0852 7.33474 15.6632L22.7467 9.72042C23.4506 9.40084 24.13 9.88948 23.8613 10.9668L21.2367 23.3352C21.0534 24.2142 20.5223 24.4244 19.7865 24.0184L15.7883 21.0645L13.8665 22.9332C13.8605 22.9391 13.8544 22.9449 13.8484 22.9508C13.6335 23.16 13.4557 23.3332 13.0665 23.3332Z" fill="#007D75"/>
</svg>
