<svg width="14" height="14" viewBox="0 0 14 14" fill="none" xmlns="http://www.w3.org/2000/svg">
<path fill-rule="evenodd" clip-rule="evenodd" d="M5.66732 1.60269C5.66732 0.901465 6.23579 0.333008 6.93698 0.333008H7.00065C8.10525 0.333008 9.00065 1.22844 9.00065 2.33301V4.99967H11.5099C12.9967 4.99967 13.9637 6.56426 13.2988 7.89408L10.9655 12.5608C10.6267 13.2383 9.93417 13.6663 9.17658 13.6663H6.49812C6.33447 13.6663 6.17167 13.6462 6.01331 13.6067L6.01302 13.6066L3.58525 12.9997H2.33398C1.22942 12.9997 0.333984 12.1043 0.333984 10.9997V6.99967C0.333984 5.89508 1.22942 4.99967 2.33398 4.99967H3.75497L5.37415 2.57087L5.37418 2.57082C5.56533 2.28415 5.66732 1.9473 5.66732 1.60269ZM3.00065 6.33301H2.33398C1.96579 6.33301 1.66732 6.63147 1.66732 6.99967V10.9997C1.66732 11.3679 1.96579 11.6663 2.33398 11.6663H3.00065V6.33301ZM4.33398 11.8125V6.53486L6.48352 3.31052C6.48353 3.3105 6.48354 3.31048 6.48355 3.31046C6.809 2.82237 6.98789 2.25188 6.99999 1.66634H7.00065C7.36885 1.66634 7.66732 1.96481 7.66732 2.33301V5.66634C7.66732 6.03453 7.96579 6.33301 8.33398 6.33301H11.5099C12.0056 6.33301 12.3279 6.85455 12.1062 7.2978L9.7729 11.9645C9.65996 12.1903 9.42913 12.333 9.17658 12.333H6.49812C6.44376 12.333 6.38936 12.3263 6.33612 12.313L4.33398 11.8125Z" fill="#007D75"/>
</svg>
