<svg width="32" height="32" viewBox="0 0 32 32" fill="none" xmlns="http://www.w3.org/2000/svg">
<path fill-rule="evenodd" clip-rule="evenodd" d="M16 0C24.8366 0 32 7.16344 32 16C32 24.8366 24.8366 32 16 32C7.16344 32 0 24.8366 0 16C0 7.16344 7.16344 0 16 0ZM20.2628 13.9721C20.185 13.3399 19.9907 12.8435 19.6456 12.4038C19.1975 11.8376 18.6249 11.4986 17.7771 11.2974C17.2246 11.1634 17.0014 11.1788 16.8015 11.3613C16.6154 11.5323 16.5791 11.8751 16.7213 12.0972C16.8213 12.2583 16.9367 12.316 17.2577 12.379C17.6851 12.4576 17.9805 12.5597 18.2491 12.7133C18.8194 13.0426 19.085 13.5579 19.1135 14.3921C19.1267 14.7838 19.1606 14.9043 19.2974 15.0432C19.551 15.2971 20.0022 15.2477 20.1937 14.9439C20.2639 14.8293 20.2746 14.7795 20.282 14.5135C20.2869 14.3488 20.2798 14.1037 20.2628 13.9721ZM20.2703 10.0934C21.6261 11.1898 22.3837 12.7482 22.4964 14.6851C22.5437 15.448 22.4808 15.6964 22.2116 15.838C21.9688 15.9691 21.6936 15.9259 21.5048 15.7285C21.3798 15.6001 21.3318 15.4245 21.3336 15.1135C21.3391 14.2536 21.141 13.2934 20.8189 12.6271C20.4461 11.8517 19.8699 11.1917 19.145 10.7092C18.5101 10.2855 17.6697 9.99923 16.855 9.92795C16.3265 9.88172 16.1378 9.79221 16.0363 9.53886C15.9735 9.38731 15.9901 9.1253 16.0638 9.00795C16.1334 8.89974 16.2898 8.78008 16.4003 8.74845C16.5174 8.71428 17.2 8.77401 17.5708 8.84769C18.583 9.05371 19.5064 9.47734 20.2703 10.0934ZM24.9682 22.1444C24.9303 22.0337 24.8419 21.8629 24.7788 21.7648C24.3809 21.164 22.2431 19.491 21.1757 18.9438C20.5663 18.6308 20.1147 18.5264 19.78 18.6244C19.42 18.7257 19.2305 18.8932 18.6274 19.6428C18.3842 19.9432 18.1348 20.2247 18.0685 20.2689C17.9042 20.3828 17.5822 20.4746 17.3548 20.4746C16.8274 20.4713 15.8706 20.1298 15.1349 19.6807C14.5633 19.3329 13.8307 18.7098 13.2686 18.0931C12.6054 17.3689 12.1539 16.7301 11.7971 16.009C11.3361 15.0824 11.2192 14.5162 11.4118 14.1019C11.4592 13.9976 11.5224 13.8869 11.5507 13.8521C11.5792 13.8205 11.876 13.577 12.2044 13.3113C12.8486 12.799 12.9528 12.682 13.0728 12.3309C13.2244 11.885 13.1834 11.4296 12.9497 10.971C12.7697 10.6231 12.2992 9.8641 11.9581 9.37391C11.5066 8.72877 10.3824 7.34989 10.1581 7.16324C9.75396 6.83436 9.23613 6.7774 8.66452 6.99883C8.06143 7.23286 6.93091 8.14367 6.44775 8.77936C6.01198 9.35494 5.84467 9.76289 5.81938 10.3005C5.79729 10.7433 5.83517 10.9267 6.06885 11.4928C7.89721 15.9331 10.6255 19.4783 14.3738 22.293C16.3317 23.7636 18.3621 24.8832 20.4684 25.6485C21.6967 26.0944 22.2304 26.1166 22.8588 25.7497C23.124 25.5916 23.7809 24.918 24.1472 24.4278C24.7535 23.6118 24.9777 23.2355 25.0408 22.935C25.085 22.7295 25.0503 22.3721 24.9682 22.1444ZM24.1607 12.1338C24.5453 13.1358 24.7298 14.0345 24.7702 15.1301C24.7767 15.3465 24.7737 15.7431 24.7597 16.0117C24.7305 16.5266 24.7025 16.629 24.5543 16.7652C24.316 16.9888 23.8515 16.9355 23.6754 16.666C23.5834 16.5215 23.5705 16.4156 23.5883 15.814C23.6394 14.0343 23.2795 12.6409 22.4124 11.2476C21.3763 9.57593 19.8265 8.44984 17.8111 7.89892C17.2972 7.75869 16.8641 7.67323 16.1905 7.58254C15.7517 7.52511 15.6556 7.50083 15.5473 7.43417C15.2201 7.22464 15.2158 6.69406 15.5419 6.48133C15.7102 6.36904 15.8343 6.36402 16.3829 6.43427C17.9914 6.63529 19.4267 7.11325 20.6061 7.83551C21.4515 8.3539 21.9845 8.8196 22.6707 9.63522C23.3966 10.5051 23.7809 11.1482 24.1607 12.1338Z" fill="#007D75"/>
</svg>
