<svg width="34" height="24" viewBox="0 0 34 24" fill="none" xmlns="http://www.w3.org/2000/svg">
<rect x="0.3" y="0.3" width="33.4" height="23.4" rx="3.7" fill="white" stroke="#DCE4F1" stroke-width="0.6"/>
<path d="M15.0957 16.459H12.832L14.2479 8.05859H16.5114L15.0957 16.459Z" fill="#15195A"/>
<path d="M23.302 8.26584C22.8555 8.09587 22.1473 7.9082 21.2717 7.9082C19.0363 7.9082 17.4621 9.05203 17.4525 10.6874C17.4339 11.8939 18.5795 12.564 19.4364 12.9663C20.3121 13.3774 20.6098 13.6458 20.6098 14.0122C20.6009 14.575 19.9021 14.8344 19.2504 14.8344C18.3467 14.8344 17.8624 14.7006 17.1266 14.3875L16.8285 14.2533L16.5117 16.139C17.0426 16.3711 18.0208 16.5771 19.0363 16.5861C21.4114 16.5861 22.9577 15.46 22.9761 13.7173C22.9851 12.761 22.3802 12.0282 21.076 11.4295C20.2843 11.0451 19.7994 10.7859 19.7994 10.3927C19.8087 10.0352 20.2095 9.66896 21.1032 9.66896C21.8391 9.65103 22.3798 9.82076 22.7894 9.99061L22.9941 10.0798L23.302 8.26584Z" fill="#15195A"/>
<path fill-rule="evenodd" clip-rule="evenodd" d="M27.354 8.05859H29.105L30.9311 16.4589H28.8352C28.8352 16.4589 28.6301 15.4937 28.5651 15.1988H25.6588C25.5748 15.4221 25.1838 16.4589 25.1838 16.4589H22.8086L26.1709 8.75558C26.4039 8.21039 26.8141 8.05859 27.354 8.05859ZM27.2146 11.1327C27.2146 11.1327 26.4973 13.0005 26.3108 13.483H28.1924C28.0993 13.063 27.6706 11.0523 27.6706 11.0523L27.5124 10.3284C27.4458 10.5148 27.3495 10.7711 27.2845 10.9439C27.2404 11.0611 27.2108 11.1399 27.2146 11.1327Z" fill="#15195A"/>
<path fill-rule="evenodd" clip-rule="evenodd" d="M3.02359 8.05859H6.66554C7.15919 8.07629 7.55976 8.22821 7.6901 8.76473L8.48151 12.624C8.48163 12.6244 8.48175 12.6247 8.48186 12.6251L8.72411 13.7869L10.9409 8.05859H13.3345L9.77651 16.4501H7.38279L5.36522 9.15091C4.66909 8.76038 3.87461 8.44629 2.98633 8.22833L3.02359 8.05859Z" fill="#15195A"/>
</svg>
