<svg width="32" height="32" viewBox="0 0 32 32" fill="none" xmlns="http://www.w3.org/2000/svg">
<path fill-rule="evenodd" clip-rule="evenodd" d="M0 16C0 24.8366 7.16344 32 16 32C24.8366 32 32 24.8366 32 16C32 7.16344 24.8366 0 16 0C7.16344 0 0 7.16344 0 16ZM26.0413 15.3877C26.0392 20.6322 21.7729 24.8996 16.5273 24.9017H16.5233C14.931 24.9012 13.3664 24.5017 11.9768 23.7437L6.9332 25.0667L8.28295 20.1366C7.45036 18.6937 7.01226 17.0571 7.01297 15.3802C7.01506 10.1345 11.2831 5.86673 16.5272 5.86673C19.0723 5.86783 21.4611 6.85864 23.2573 8.65701C25.0536 10.4553 26.0423 12.8456 26.0413 15.3877Z" fill="#007D75"/>
<path fill-rule="evenodd" clip-rule="evenodd" d="M9.21735 22.8073L12.2103 22.0222L12.499 22.1936C13.7131 22.9141 15.1049 23.2953 16.5239 23.2959H16.5271C20.8856 23.2959 24.433 19.7484 24.4347 15.3881C24.4355 13.2751 23.6138 11.2884 22.1208 9.79364C20.6278 8.29891 18.6423 7.47534 16.5302 7.47461C12.1683 7.47461 8.62087 11.0217 8.61914 15.3817C8.61853 16.8759 9.0366 18.3311 9.82818 19.5901L10.0162 19.8893L9.21735 22.8073ZM20.9946 17.437C21.1604 17.5171 21.2724 17.5712 21.3202 17.651C21.3796 17.7501 21.3796 18.2261 21.1816 18.7815C20.9834 19.3368 20.0337 19.8436 19.5769 19.9118C19.1674 19.973 18.6491 19.9986 18.0797 19.8176C17.7344 19.7081 17.2916 19.5618 16.7244 19.3168C14.4958 18.3545 12.9897 16.1945 12.7051 15.7863C12.6851 15.7577 12.6712 15.7377 12.6634 15.7273L12.6615 15.7247C12.5357 15.5569 11.6927 14.4321 11.6927 13.2681C11.6927 12.1731 12.2306 11.5991 12.4782 11.3349C12.4951 11.3168 12.5107 11.3002 12.5247 11.2849C12.7426 11.0469 13.0002 10.9874 13.1586 10.9874C13.3171 10.9874 13.4758 10.9889 13.6143 10.9958C13.6314 10.9967 13.6491 10.9966 13.6675 10.9965C13.806 10.9957 13.9788 10.9947 14.1491 11.4039C14.2147 11.5614 14.3106 11.7949 14.4117 12.0412C14.6163 12.5392 14.8423 13.0894 14.8821 13.1691C14.9415 13.2881 14.9811 13.4268 14.9019 13.5856C14.89 13.6093 14.879 13.6318 14.8685 13.6533C14.809 13.7748 14.7652 13.8642 14.6642 13.9821C14.6245 14.0285 14.5834 14.0785 14.5424 14.1285C14.4606 14.2281 14.3788 14.3277 14.3076 14.3986C14.1886 14.5171 14.0647 14.6457 14.2034 14.8837C14.342 15.1217 14.8191 15.9002 15.5258 16.5306C16.2855 17.2082 16.9458 17.4946 17.2805 17.6397C17.3458 17.6681 17.3988 17.6911 17.4376 17.7105C17.6752 17.8295 17.8139 17.8096 17.9526 17.651C18.0913 17.4923 18.5469 16.9568 18.7053 16.7189C18.8638 16.481 19.0223 16.5206 19.2402 16.5999C19.4581 16.6793 20.6269 17.2543 20.8646 17.3733C20.911 17.3965 20.9544 17.4175 20.9946 17.437Z" fill="#007D75"/>
</svg>
