<svg width="34" height="24" fill="none" xmlns="http://www.w3.org/2000/svg"><rect x=".3" y=".3" width="33.4" height="23.4" rx="3.7" fill="#fff" stroke="#DCE4F1" stroke-width=".6"/><path fill-rule="evenodd" clip-rule="evenodd" d="M5.5 8.402h.04c.279-.006.961-.018 1.259 1.01.21.726.545 1.917 1.005 3.572h.188a782.65 782.65 0 0 1 1.016-3.573c.297-1.025 1.012-1.015 1.36-1.01h2.496v7.755h-2.482v-4.57h-.166l-1.384 4.57H6.964L5.58 11.583h-.166v4.573H2.932V8.402H5.5Zm10.929 0v4.573h.198l1.683-3.76c.327-.749 1.023-.813 1.023-.813h2.402v7.754h-2.534v-4.573h-.198l-1.65 3.76c-.327.745-1.056.813-1.056.813h-2.402V8.402h2.534Zm11.373 5.444c1.229 0 2.339-.734 2.692-1.76h-7.76v4.07h2.41v-2.31h2.658Z" fill="#40A548"/><path d="M27.917 8.402h-5.31c.127 1.727 1.58 3.205 3.083 3.205h4.971c.287-1.435-.7-3.205-2.744-3.205Z" fill="#1291D0"/></svg>