<svg width="32" height="32" fill="none" xmlns="http://www.w3.org/2000/svg"><path fill-rule="evenodd" clip-rule="evenodd" d="M16 0c8.837 0 16 7.163 16 16s-7.163 16-16 16S0 24.837 0 16 7.163 0 16 0Zm4.263 13.972c-.078-.632-.272-1.128-.617-1.568-.448-.566-1.021-.905-1.869-1.107-.552-.134-.776-.118-.976.064-.186.171-.222.514-.08.736.1.161.216.219.537.282.427.079.723.18.991.334.57.33.836.845.864 1.68.014.39.048.511.184.65a.588.588 0 0 0 .897-.1c.07-.114.08-.163.088-.43a4.238 4.238 0 0 0-.02-.54Zm.007-3.879c1.356 1.097 2.114 2.655 2.226 4.592.048.763-.015 1.011-.284 1.153a.575.575 0 0 1-.707-.11c-.125-.128-.173-.303-.171-.614.005-.86-.193-1.82-.515-2.487a4.803 4.803 0 0 0-1.674-1.918c-.635-.423-1.475-.71-2.29-.781-.529-.046-.717-.136-.819-.39-.063-.15-.046-.413.028-.53a.719.719 0 0 1 .336-.26c.117-.034.8.026 1.17.1a6.274 6.274 0 0 1 2.7 1.245Zm4.698 12.051a2.134 2.134 0 0 0-.19-.38c-.397-.6-2.535-2.273-3.602-2.82-.61-.313-1.061-.418-1.396-.32-.36.102-.55.27-1.153 1.019-.243.3-.492.582-.558.626-.165.114-.487.206-.714.206-.528-.004-1.484-.345-2.22-.794-.572-.348-1.304-.971-1.866-1.588-.664-.724-1.115-1.363-1.472-2.084-.46-.927-.578-1.493-.385-1.907.047-.104.11-.215.139-.25.028-.032.325-.275.653-.54.645-.513.749-.63.869-.981.151-.446.11-.901-.123-1.36a18.68 18.68 0 0 0-.992-1.597c-.451-.645-1.576-2.024-1.8-2.21-.404-.33-.922-.387-1.493-.165-.604.234-1.734 1.145-2.217 1.78-.436.576-.603.984-.629 1.521-.022.443.016.627.25 1.193 1.828 4.44 4.557 7.985 8.305 10.8 1.958 1.47 3.988 2.59 6.094 3.355 1.229.446 1.762.469 2.39.102.266-.158.923-.832 1.29-1.322.605-.816.83-1.193.893-1.493.044-.205.01-.563-.073-.79Zm-.807-10.01c.384 1.002.569 1.9.61 2.996.006.216.003.613-.011.882-.03.515-.058.617-.206.753-.238.224-.702.17-.879-.099-.092-.145-.105-.25-.087-.852.051-1.78-.309-3.173-1.176-4.566-1.036-1.672-2.585-2.798-4.6-3.35-.515-.14-.948-.225-1.622-.315-.438-.058-.534-.082-.643-.149-.327-.21-.331-.74-.005-.953.168-.112.292-.117.84-.047 1.61.201 3.045.68 4.224 1.402.845.518 1.378.984 2.065 1.8.726.87 1.11 1.512 1.49 2.498Z" fill="#007D75"/></svg>