<svg width="108" height="40" fill="none" xmlns="http://www.w3.org/2000/svg"><g clip-path="url(#a)" fill="#fff"><path d="M8.946 31.678a.61.61 0 0 1-.589-.454.603.603 0 0 1-.009-.264l1.2-6.35c.022-.12.08-.23.168-.317L24.408 9.665a.607.607 0 0 1 .318-.167l6.376-1.195a.61.61 0 0 1 .711.708l-1.2 6.35a.603.603 0 0 1-.167.316l-14.69 14.629a.604.604 0 0 1-.318.166l-6.377 1.195a.613.613 0 0 1-.115.01Zm22.269-22.99a.25.25 0 0 0-.04.004l-6.378 1.195a.21.21 0 0 0-.11.058L9.997 24.573a.213.213 0 0 0-.058.11l-1.2 6.35a.206.206 0 0 0 .059.189.21.21 0 0 0 .188.058l6.378-1.195a.208.208 0 0 0 .11-.058l14.69-14.628a.21.21 0 0 0 .058-.11l1.2-6.35a.21.21 0 0 0-.207-.25Z"/><path d="M31.213 31.678a.617.617 0 0 1-.112-.01l-6.377-1.195a.603.603 0 0 1-.318-.167L9.716 15.678a.601.601 0 0 1-.168-.317l-1.2-6.35a.604.604 0 0 1 .711-.708l6.377 1.195c.12.022.231.08.318.167l14.69 14.628a.603.603 0 0 1 .168.317l1.2 6.35a.602.602 0 0 1-.34.66.61.61 0 0 1-.259.058ZM8.946 8.688a.213.213 0 0 0-.204.159.21.21 0 0 0-.003.091l1.2 6.35a.21.21 0 0 0 .058.11l14.69 14.628c.03.03.069.05.11.058l6.378 1.195a.21.21 0 0 0 .247-.246l-1.2-6.35a.21.21 0 0 0-.058-.11L15.474 9.945a.209.209 0 0 0-.11-.058L8.985 8.692a.251.251 0 0 0-.04-.004Z"/><path d="M20.08 36.27a.61.61 0 0 1-.502-.264l-3.662-5.334a.598.598 0 0 1-.105-.342V9.643a.6.6 0 0 1 .105-.342l3.662-5.335a.607.607 0 0 1 1.003 0l3.661 5.335c.07.1.106.22.106.342V30.33a.603.603 0 0 1-.106.342l-3.66 5.334a.605.605 0 0 1-.502.265Zm0-32.173a.21.21 0 0 0-.176.092l-3.66 5.335a.21.21 0 0 0-.037.118V30.33a.21.21 0 0 0 .036.119l3.661 5.334a.208.208 0 0 0 .176.092.208.208 0 0 0 .176-.092l3.66-5.336a.21.21 0 0 0 .036-.119V9.641a.208.208 0 0 0-.037-.119l-3.66-5.335a.208.208 0 0 0-.175-.09Z"/><path d="m24.318 30.194-4.27-4.253-4.272 4.253V24.18H9.738l4.271-4.253-4.27-4.252h6.037V9.663l4.271 4.253 4.27-4.253v6.013h6.038l-4.27 4.253 4.27 4.252h-6.037v6.013Zm-3.991-4.533 3.593 3.578V24.18h-2.107l-1.486 1.48Zm-4.153-1.48v5.058l3.593-3.578-1.486-1.48h-2.107Zm2.668 0 1.205 1.2 1.205-1.2h-2.41Zm5.477-.395h5.079l-3.593-3.578-1.486 1.48v2.098Zm-2.107 0h1.71v-1.702l-1.71 1.702Zm-3.767 0h3.206l2.27-2.262v-3.192l-2.27-2.261h-3.207l-2.27 2.261v3.193l2.271 2.26Zm-2.271 0h1.71l-1.71-1.702v1.702Zm-5.476 0h5.079v-2.098l-1.486-1.48-3.593 3.578Zm13.62-5.058v2.4l1.205-1.199-1.204-1.201Zm-9.747 1.2 1.205 1.2v-2.401l-1.205 1.2Zm9.748-1.76 1.486 1.48 3.593-3.578h-5.08v2.098ZM10.698 16.07l3.592 3.58 1.486-1.48v-2.1h-5.078Zm11.514 0 1.71 1.702V16.07h-1.71Zm-6.038 0v1.702l1.71-1.702h-1.71Zm5.64-.395h2.107v-5.057l-3.593 3.577 1.487 1.48Zm-2.972 0h2.412l-1.205-1.2-1.207 1.2Zm-2.668 0h2.107l1.486-1.48-3.593-3.577v5.057Z"/><path d="M30.467 24.238H9.692a.608.608 0 0 1-.343-.106L3.99 20.486a.606.606 0 0 1 0-1l5.358-3.645a.609.609 0 0 1 .343-.106h20.775a.61.61 0 0 1 .343.106l5.358 3.645a.607.607 0 0 1 .194.783.605.605 0 0 1-.194.217l-5.358 3.646a.607.607 0 0 1-.343.105ZM9.692 16.13a.213.213 0 0 0-.12.037l-5.357 3.645a.21.21 0 0 0 0 .348l5.358 3.645a.211.211 0 0 0 .12.037h20.774a.212.212 0 0 0 .12-.037l5.357-3.645a.21.21 0 0 0 0-.348l-5.358-3.646a.212.212 0 0 0-.119-.036H9.692ZM21.728 4.004l2.966 4.318a.198.198 0 0 0 .199.083l5.195-.952a.198.198 0 0 0 .16-.164.195.195 0 0 0-.004-.08L28.4.148a.195.195 0 0 0-.116-.133.198.198 0 0 0-.175.012L21.79 3.723a.199.199 0 0 0-.094.207.196.196 0 0 0 .03.074Zm10.926 5.998-.97 5.154a.197.197 0 0 0 .082.2l4.36 2.992a.199.199 0 0 0 .282-.063l3.72-6.305a.194.194 0 0 0 .013-.176.198.198 0 0 0-.134-.116L32.9 9.85a.2.2 0 0 0-.245.153ZM10.171 7.371l5.028.94a.193.193 0 0 0 .194-.08l2.918-4.217a.193.193 0 0 0 .03-.151.192.192 0 0 0-.09-.124l-6.152-3.6a.193.193 0 0 0-.284.118L10.02 7.133a.19.19 0 0 0 .078.209.192.192 0 0 0 .073.03ZM4.03 18.354l4.347-2.96a.197.197 0 0 0 .082-.199l-.958-5.185a.198.198 0 0 0-.245-.155l-7.108 1.84a.2.2 0 0 0-.148.204c.003.03.012.06.027.086l3.72 6.306a.197.197 0 0 0 .128.093.2.2 0 0 0 .155-.03Zm3.476 11.614.97-5.153a.197.197 0 0 0-.082-.2l-4.36-2.99a.199.199 0 0 0-.283.062l-3.72 6.305a.197.197 0 0 0 .121.291l7.109 1.84a.2.2 0 0 0 .245-.155Zm10.927 5.999-2.966-4.318a.198.198 0 0 0-.2-.082l-5.195.952a.199.199 0 0 0-.16.163.197.197 0 0 0 .004.08l1.843 7.062a.197.197 0 0 0 .292.12l6.318-3.696a.198.198 0 0 0 .095-.207.196.196 0 0 0-.031-.074Zm11.663-3.454-5.165-.966a.2.2 0 0 0-.199.082l-2.998 4.333a.195.195 0 0 0 .063.281l6.32 3.697a.198.198 0 0 0 .291-.12l1.844-7.065a.197.197 0 0 0-.155-.242Zm6.032-10.896-4.346 2.96a.198.198 0 0 0-.083.2l.958 5.185a.196.196 0 0 0 .164.16.196.196 0 0 0 .081-.005l7.108-1.839a.199.199 0 0 0 .148-.204.197.197 0 0 0-.027-.087l-3.72-6.306a.194.194 0 0 0-.128-.093.2.2 0 0 0-.155.03Zm-13.06-12.29L20.332 5.34a.308.308 0 0 0-.506 0L17.09 9.327c-.28.363.053.694.242.882l1.216 1.211a.136.136 0 0 0 .172.017.137.137 0 0 0 .043-.045l1.198-2.067a.136.136 0 0 1 .186-.05.15.15 0 0 1 .05.05l1.198 2.067a.137.137 0 0 0 .215.028l1.216-1.211c.19-.188.5-.47.242-.882ZM10.396 25.418 9.5 30.164a.306.306 0 0 0 .211.347.309.309 0 0 0 .147.009l4.766-.892c.456-.06.456-.528.456-.794v-1.713a.136.136 0 0 0-.172-.131l-2.315.618a.138.138 0 0 1-.132-.036.136.136 0 0 1-.035-.13l.62-2.306a.134.134 0 0 0-.023-.118.136.136 0 0 0-.108-.053h-1.721c-.266 0-.687-.02-.797.453Zm15.14 4.209 4.765.894a.31.31 0 0 0 .349-.21.306.306 0 0 0 .009-.146l-.896-4.747c-.06-.453-.53-.453-.797-.453h-1.72a.137.137 0 0 0-.134.109.135.135 0 0 0 .002.062l.62 2.305a.135.135 0 0 1-.167.166l-2.315-.617a.136.136 0 0 0-.172.13v1.714c0 .266-.02.684.456.793Zm4.227-15.075.897-4.746a.305.305 0 0 0-.358-.356l-4.766.893c-.456.059-.456.527-.456.793v1.713a.136.136 0 0 0 .172.131l2.315-.617a.138.138 0 0 1 .132.035.136.136 0 0 1 .035.13l-.62 2.306a.137.137 0 0 0 .023.118.138.138 0 0 0 .108.053h1.72c.268.001.688.021.798-.453Z"/><path d="M9.375 17.01 5.37 19.734a.307.307 0 0 0 0 .504l4.004 2.724c.364.28.696-.052.885-.24l1.217-1.211a.136.136 0 0 0 .017-.172.136.136 0 0 0-.046-.042l-2.075-1.193a.136.136 0 0 1 0-.235l2.075-1.194a.136.136 0 0 0 .029-.213l-1.217-1.21c-.189-.19-.472-.5-.885-.242Zm7.715 13.635 2.736 3.987a.309.309 0 0 0 .506 0l2.736-3.987c.28-.363-.052-.694-.241-.882l-1.217-1.212a.138.138 0 0 0-.172-.016.136.136 0 0 0-.042.045l-1.199 2.067a.136.136 0 0 1-.235 0l-1.199-2.067a.136.136 0 0 0-.1-.067.137.137 0 0 0-.114.038l-1.217 1.212c-.189.188-.5.47-.242.882Zm13.695-7.683 4.004-2.724a.306.306 0 0 0 0-.504l-4.005-2.724c-.363-.28-.696.052-.885.24l-1.217 1.212a.136.136 0 0 0 .029.213l2.076 1.193a.136.136 0 0 1 .05.186.135.135 0 0 1-.05.05l-2.076 1.193a.136.136 0 0 0-.029.213l1.217 1.212c.189.188.472.497.886.24ZM14.689 10.361l-4.766-.893a.31.31 0 0 0-.348.21.306.306 0 0 0-.01.146l.897 4.746c.06.454.53.454.797.454h1.72a.136.136 0 0 0 .132-.17l-.62-2.307a.137.137 0 0 1 .035-.13.136.136 0 0 1 .131-.036l2.316.618a.137.137 0 0 0 .157-.07.136.136 0 0 0 .014-.06v-1.714c0-.266.02-.684-.455-.794Zm3.645 3.997-.29.288a.553.553 0 0 1-.389.16h-.412a.334.334 0 0 1-.333-.331v-1.697a.126.126 0 0 1 .079-.117.127.127 0 0 1 .14.027l1.204 1.2a.333.333 0 0 1 .073.362.33.33 0 0 1-.072.108Zm4.5.422h-.41a.554.554 0 0 1-.389-.161l-.29-.29a.331.331 0 0 1 0-.47l1.204-1.199a.127.127 0 0 1 .196.02c.014.02.022.045.022.07v1.698a.332.332 0 0 1-.333.332Zm2.884 3.467-.289-.288a.549.549 0 0 1-.161-.388v-.41a.33.33 0 0 1 .333-.332h1.704a.127.127 0 0 1 .09.217l-1.205 1.2a.333.333 0 0 1-.472 0Zm-.425 4.48v-.407c0-.146.058-.285.161-.388l.292-.29a.334.334 0 0 1 .47 0l1.205 1.2a.126.126 0 0 1 .028.138.127.127 0 0 1-.118.079h-1.705a.334.334 0 0 1-.333-.332Zm-3.481 2.872.29-.288a.551.551 0 0 1 .39-.16h.41a.334.334 0 0 1 .334.331v1.697a.127.127 0 0 1-.152.125.128.128 0 0 1-.066-.035l-1.205-1.2a.33.33 0 0 1 0-.47Zm-4.5-.422h.408c.147 0 .287.058.39.16l.291.29a.332.332 0 0 1 0 .47l-1.204 1.2a.127.127 0 0 1-.14.027.128.128 0 0 1-.078-.118V25.51a.331.331 0 0 1 .333-.332Zm-2.883-3.467.29.287a.549.549 0 0 1 .16.388v.41a.332.332 0 0 1-.333.332h-1.704a.129.129 0 0 1-.117-.078.126.126 0 0 1 .027-.139l1.205-1.2a.332.332 0 0 1 .472 0Zm.424-4.482v.407a.549.549 0 0 1-.161.388l-.291.29a.334.334 0 0 1-.471 0l-1.205-1.2a.128.128 0 0 1 .02-.195.127.127 0 0 1 .07-.021h1.706a.334.334 0 0 1 .332.331Zm4.075 4.512h2.304v-.607h.61v-2.294h-.61v-.608h-2.304v.608h-.61v2.294h.61v.607Zm47.685-3.298-.847-2h-3.86l-.847 2h-2.024l4.12-9.53h1.463l4.005 9.53h-2.01Zm-4.12-3.515h2.728l-1.363-3.43-1.364 3.43Zm11.925-4.416h-2.153v7.931h-1.866v-7.93h-2.153v-1.6h6.172v1.6Zm1.182-1.6h1.865v5.987c0 .6.153 1.072.46 1.415.363.438.87.657 1.521.657.651 0 1.158-.219 1.522-.657.305-.343.459-.814.459-1.415V8.911h1.866v5.83c0 1.086-.24 1.934-.718 2.544-.335.438-.784.776-1.35 1.014a4.463 4.463 0 0 1-1.779.358c-.631 0-1.23-.12-1.794-.358a3.26 3.26 0 0 1-1.335-1.014c-.478-.61-.717-1.458-.717-2.544v-5.83Zm9.681 0h2.77c1.052 0 1.866.238 2.44.715.632.533.948 1.248.948 2.143 0 .99-.374 1.739-1.12 2.243a2.65 2.65 0 0 1-1.048.415l2.985 4.015h-2.325l-2.554-3.83h-.23v3.83h-1.866v-9.53Zm1.866 1.515v2.872h.531c.153 0 .301-.01.445-.029.153-.028.349-.08.588-.157.24-.085.43-.233.575-.443.152-.219.23-.49.23-.814 0-.324-.073-.59-.217-.8a1.05 1.05 0 0 0-.574-.443 2.96 2.96 0 0 0-.574-.158 3.392 3.392 0 0 0-.444-.028h-.56Zm12.892 8.016-.847-2h-3.86l-.847 2H92.46l4.12-9.53h1.463l4.004 9.53h-2.009Zm-4.119-3.515h2.727l-1.364-3.43-1.363 3.43Zm7.246-6.016h1.866v7.93h2.957v1.601h-4.823v-9.53Zm-51.31 9.531H49.99v-9.53h1.292l4.763 6.358V8.91h1.866v9.531h-1.292l-4.763-6.373v6.373Zm15.516 3.014v1.637H63.29v2.177h3.936v1.636H63.29v2.66h4.083v1.636h-6.007v-9.746h6.007Zm10.271 9.745-.873-2.045h-3.98l-.873 2.046H69.83l4.247-9.746h1.509l4.129 9.745h-2.072Zm-4.247-3.594h2.812l-1.406-3.506-1.406 3.506Zm9.159-6.151h1.924v8.11h3.58v1.636h-5.504v-9.746Zm14.652 1.637h-2.752V31.2H92.53v-8.108h-2.75v-1.637h7.428v1.637Zm4.632-1.637v3.77h4.307v-3.77h1.843v9.745h-1.843v-4.339h-4.307v4.34h-1.804v-9.746h1.804Zm-50.045-.106v3.77H56.1v-3.77h1.843v9.745H56.1v-4.34h-4.307v4.34H49.99V21.35h1.804Zm.52 13.304-.142.293c-.114-.113-.095-.104-.228-.166a1.173 1.173 0 0 0-.49-.11c-.326 0-.598.114-.817.343a1.163 1.163 0 0 0-.323.834c0 .356.117.637.353.844.238.206.502.309.792.309a1.26 1.26 0 0 0 .856-.369v.39a1.445 1.445 0 0 1-.856.275 1.43 1.43 0 0 1-1.469-1.453c0-.42.14-.77.422-1.05.283-.28.638-.42 1.064-.42.312 0 .592.093.838.28Zm6.038 2.224c-.283.28-.633.42-1.047.42-.414 0-.765-.14-1.051-.42a1.404 1.404 0 0 1-.426-1.042c0-.418.143-.766.43-1.042.287-.28.636-.42 1.047-.42.412 0 .76.14 1.047.42.287.276.43.624.43 1.042 0 .415-.143.762-.43 1.042Zm-.23-1.868a1.108 1.108 0 0 0-.817-.34c-.32 0-.593.114-.817.34a1.128 1.128 0 0 0-.336.826c0 .325.112.6.336.826.224.226.496.339.817.339.32 0 .593-.113.818-.339a1.13 1.13 0 0 0 .336-.826c0-.325-.113-.6-.337-.826Zm4.325-.59h.456c.306 0 .536.052.69.157.206.138.31.347.31.627a.768.768 0 0 1-.2.542.731.731 0 0 1-.515.237l.902 1.263h-.383l-.864-1.237h-.081v1.237h-.315V34.42Zm.315.297v1.012h.2c.196 0 .35-.045.46-.136a.465.465 0 0 0 .166-.38c0-.193-.075-.331-.226-.416a.848.848 0 0 0-.408-.08h-.192Zm4.908-.297h.515c.324 0 .562.066.715.2.173.146.26.348.26.605 0 .22-.076.408-.226.563-.147.153-.371.23-.673.23h-.276v1.228h-.315V34.42Zm.315.297v1.004h.26c.187 0 .333-.046.438-.136a.466.466 0 0 0 .162-.377c0-.328-.21-.491-.626-.491h-.234Zm7.084 2.161c-.284.28-.633.42-1.047.42-.415 0-.765-.14-1.051-.42a1.404 1.404 0 0 1-.426-1.042c0-.418.143-.766.43-1.042a1.44 1.44 0 0 1 1.047-.42c.411 0 .76.14 1.047.42.287.276.43.624.43 1.042 0 .415-.143.762-.43 1.042Zm-.23-1.868a1.109 1.109 0 0 0-.817-.34c-.32 0-.593.114-.818.34a1.13 1.13 0 0 0-.336.826c0 .325.113.6.336.826.225.226.497.339.818.339.32 0 .593-.113.817-.339a1.13 1.13 0 0 0 .336-.826c0-.325-.112-.6-.336-.826Zm4.325-.59h.455c.307 0 .537.052.69.157.207.138.31.347.31.627a.768.768 0 0 1-.2.542.732.732 0 0 1-.515.237l.903 1.263h-.383l-.865-1.237h-.08v1.237h-.315V34.42Zm.315.297v1.012h.2c.196 0 .349-.045.46-.136a.465.465 0 0 0 .166-.38c0-.193-.076-.331-.226-.416a.85.85 0 0 0-.408-.08h-.192Zm6.806 2.53-.332-.796h-1.209l-.34.796h-.35l1.249-2.829h.115l1.216 2.83h-.349Zm-1.417-1.093h.962l-.477-1.131-.485 1.131Zm6.449-1.437h-.689v2.529h-.315v-2.53h-.69v-.296h1.694v.297Zm3.511-.297h.315v2.826h-.315V34.42Zm6.505 2.458c-.284.28-.633.42-1.047.42a1.45 1.45 0 0 1-1.052-.42 1.404 1.404 0 0 1-.425-1.042c0-.418.143-.766.43-1.042a1.44 1.44 0 0 1 1.047-.42c.411 0 .761.14 1.047.42.286.276.43.624.43 1.042a1.4 1.4 0 0 1-.43 1.042Zm-.23-1.868a1.108 1.108 0 0 0-.817-.34c-.32 0-.593.114-.817.34a1.128 1.128 0 0 0-.337.826c0 .325.112.6.337.826.224.226.496.339.817.339.32 0 .593-.113.817-.339a1.13 1.13 0 0 0 .336-.826c0-.325-.112-.6-.336-.826Zm4.64 2.236h-.315V34.42h.315l1.898 2.295V34.42h.315v2.826h-.315l-1.898-2.3v2.3Z"/></g><defs><clipPath id="a"><path fill="#fff" d="M0 0h108v40H0z"/></clipPath></defs></svg>