<svg width="32" height="32" fill="none" xmlns="http://www.w3.org/2000/svg"><path fill-rule="evenodd" clip-rule="evenodd" d="M0 16c0 8.837 7.163 16 16 16s16-7.163 16-16S24.837 0 16 0 0 7.163 0 16Zm26.041-.612c-.002 5.244-4.268 9.512-9.514 9.514h-.004c-1.592 0-3.157-.4-4.546-1.158l-5.044 1.323 1.35-4.93a9.497 9.497 0 0 1-1.27-4.757c.002-5.246 4.27-9.513 9.514-9.513a9.452 9.452 0 0 1 6.73 2.79 9.456 9.456 0 0 1 2.784 6.73Z" fill="#007D75"/><path fill-rule="evenodd" clip-rule="evenodd" d="m9.217 22.807 2.993-.785.289.172a7.896 7.896 0 0 0 4.025 1.102h.003c4.359 0 7.906-3.548 7.908-7.908 0-2.113-.821-4.1-2.314-5.594a7.854 7.854 0 0 0-5.59-2.32c-4.363 0-7.91 3.548-7.912 7.908 0 1.494.418 2.95 1.21 4.208l.187.3-.799 2.917Zm11.778-5.37c.165.08.277.134.325.214.06.1.06.575-.138 1.13-.199.556-1.148 1.063-1.605 1.13-.41.062-.928.088-1.497-.093-.346-.11-.788-.256-1.356-.501-2.228-.962-3.734-3.122-4.019-3.53l-.042-.06-.002-.002c-.125-.168-.968-1.293-.968-2.457 0-1.095.538-1.669.785-1.933l.047-.05a.873.873 0 0 1 .634-.298c.158 0 .317.002.455.009h.053c.139 0 .312-.001.482.408.066.157.162.39.263.637.204.498.43 1.048.47 1.128.06.12.1.258.02.417a6.728 6.728 0 0 0-.034.067 1.35 1.35 0 0 1-.204.33c-.04.045-.08.095-.122.146a3.71 3.71 0 0 1-.234.27c-.12.118-.243.247-.105.485.139.238.616 1.016 1.323 1.647.76.677 1.42.964 1.755 1.109.065.028.118.051.157.07.237.12.376.1.515-.059.138-.159.594-.694.752-.932.159-.238.317-.198.535-.12.218.08 1.387.655 1.625.774l.13.064Z" fill="#007D75"/></svg>