<svg><defs><font id="FuturaPT-Medium" horiz-adv-x="1200" vert-adv-y="1200"><font-face font-family="Futura PT Medium" font-weight="400" ascent="982" descent="-300"/><glyph glyph-name="uni21" unicode="!" d="M175 165H77v502h98V165M83.5 5.5l-8.75 8.75Q66 23 66 48t17.5 42.5Q101 108 126 108t42.5-17.5Q186 73 186 48T168.5 5.5Q151-12 126-12T83.5 5.5Z" horiz-adv-x="252" vert-adv-y="1000"/><glyph glyph-name="uni22" unicode="&quot;" d="m156 667-18-268H66L48 667h108m162 0-18-268h-72l-18 268h108Z" horiz-adv-x="366" vert-adv-y="1000"/><glyph glyph-name="uni23" unicode="#" d="M407 0h-98l31 196H226L195 0H97l31 196H20l14 88h108l18 112H52l14 88h108l29 183h98l-29-183h114l29 183h98l-29-183h108l-14-88H470l-18-112h108l-14-88H438L407 0m-53 284 18 112H258l-18-112h114Z" horiz-adv-x="600" vert-adv-y="1000"/><glyph glyph-name="uni24" unicode="$" d="m476 567-82-48q-10 24-30 42-28 24-72 24-47 0-74-27-20-20-20-51 0-34 26-56 20-17 63-34l50-20q76-31 111-70 46-51 46-126 0-90-58-152Q390 0 326-9v-101h-74v98q-77 6-130 66-49 55-56 130l101 22q0-48 28-85 32-40 87-40 48 0 79 32 31 31 31 80 0 43-29 73-19 20-67 41l-64 27q-58 25-94 61-42 43-42 102 0 80 51 129 43 41 105 50v89h74v-88q48-4 87-33 41-32 63-77Z" horiz-adv-x="568" vert-adv-y="1000"/><glyph glyph-name="uni25" unicode="%" d="m80.5 626.5 23.75 23.25Q128 673 194 673t113.5-46.5Q355 580 355 516t-47.5-110.5Q260 359 194 359T80.5 405.5Q33 452 33 516t47.5 110.5m52.5-169 11-13.25Q155 431 194 431t61 26.5q22 26.5 22 58.5t-22 58.5Q233 601 194 601t-61-26.5Q111 548 111 516t22-58.5M191 18l381 660 47-27L238-11l-47 29m311.5 242.5 23.75 23.25Q550 307 616 307t113.5-46.5Q777 214 777 150T729.5 39.5Q682-7 616-7T502.5 39.5Q455 86 455 150t47.5 110.5m52.5-169 11-13.25Q577 65 616 65t61 26.5q22 26.5 22 58.5t-22 58.5Q655 235 616 235t-61-26.5Q533 182 533 150t22-58.5Z" horiz-adv-x="810" vert-adv-y="1000"/><glyph glyph-name="uni26" unicode="&amp;" d="m537 313 65-68-79-91L646 0H522l-66 82q-26-27-56-49-65-46-146-46-92 0-146 54T54 178q0 60 25 99t71 73q30 22 53 37-66 66-66 138 0 63 40.5 108.5T295 679q75 0 117.5-43T455 535q0-48-29-87-26-34-83-77l118-144 76 86M395 154 263 314q-46-25-73-55-36-39-36-85 0-42 29-71.5T258 73q36 0 75 26 24 18 62 55M284 442l37 27q40 28 40 66 0 24-16.5 42T295 595q-30 0-47-16.5T231 536q0-31 23-58l30-36Z" horiz-adv-x="646" vert-adv-y="1000"/><glyph glyph-name="uni27" unicode="'" d="m156 667-18-268H66L48 667h108Z" horiz-adv-x="204" vert-adv-y="1000"/><glyph glyph-name="uni28" unicode="(" d="m264-142-90-35q-43 92-68 202-26 116-26 255 0 140 28 265 24 106 66 195l90-35q-41-92-60-181-24-108-24-244 0-131 23-236 22-93 61-186Z" horiz-adv-x="324" vert-adv-y="1000"/><glyph glyph-name="uni29" unicode=")" d="m150-177-90 35q39 93 61 186 23 105 23 236 0 136-24 244-19 89-60 181l90 35q42-89 66-195 28-125 28-265 0-139-26-255-25-110-68-202Z" horiz-adv-x="324" vert-adv-y="1000"/><glyph glyph-name="uni2a" unicode="*" d="m136 655 107-45-7 119h78l-8-118 108 44 25-72-114-28 74-90-60-47-64 97-64-97-60 47 74 88-114 28 25 74Z" horiz-adv-x="550" vert-adv-y="1000"/><glyph glyph-name="uni2b" unicode="+" d="M33 291v90h170v170h94V381h170v-90H297V121h-94v170H33Z" horiz-adv-x="500" vert-adv-y="1000"/><glyph glyph-name="uni2c" unicode="," d="m10-129 102 254 88-34L76-156l-66 27Z" horiz-adv-x="320" vert-adv-y="1000"/><glyph glyph-name="uni2d" unicode="-" d="M50 162v102h240V162H50Z" horiz-adv-x="340" vert-adv-y="1000"/><glyph glyph-name="uni2e" unicode="." d="m83.5 5.5-8.75 8.75Q66 23 66 48t17.5 42.5Q101 108 126 108t42.5-17.5Q186 73 186 48T168.5 5.5Q151-12 126-12T83.5 5.5Z" horiz-adv-x="252" vert-adv-y="1000"/><glyph glyph-name="uni2f" unicode="/" d="m0-177 526 942 80-36L80-213 0-177Z" horiz-adv-x="684" vert-adv-y="1000"/><glyph glyph-name="uni30" unicode="0" d="M435 61q-63-72-151-72T133 61q-85 97-85 272 0 176 85 273 63 72 151 72t151-72q85-97 85-273 0-175-85-272m-61 472q-36 55-90 55t-90-55q-46-68-46-199 0-130 46-200 36-55 90-55t90 55q46 70 46 200 0 131-46 199Z" horiz-adv-x="568" vert-adv-y="1000"/><glyph glyph-name="uni31" unicode="1" d="M250 0v573H134l56 94h162V0H250Z" horiz-adv-x="568" vert-adv-y="1000"/><glyph glyph-name="uni32" unicode="2" d="M482 94V0H34l231 280q52 63 80 104 35 52 35 96 0 45-29 76.5T269 588q-53 0-84-35t-34-86H53q4 88 56 146 58 65 156 65 101 0 158-59t57-142q0-69-48-140-26-39-95-120L233 94h249Z" horiz-adv-x="568" vert-adv-y="1000"/><glyph glyph-name="uni33" unicode="3" d="M166 497H68q4 79 57 130t146 51q91 0 144-55 48-49 48-127 0-50-23-88-23-36-60-56 42-16 66-53 28-41 28-103 0-92-57-149-58-58-163-58-97 0-149 56-49 52-57 136h98q8-45 36-72 32-30 81-30 47 0 78 28 35 33 35 94 0 50-30 79-31 30-86 30h-20v86h14q56 0 85 29 26 26 26 71 0 41-26 67-26 25-71 25-48 0-74-27-10-11-17-26.5t-9-24.5q-2-9-2-13Z" horiz-adv-x="568" vert-adv-y="1000"/><glyph glyph-name="uni34" unicode="4" d="M448 716V220h72v-94h-72V0h-98v126H20l428 590M198 218h152v215L198 218Z" horiz-adv-x="568" vert-adv-y="1000"/><glyph glyph-name="uni35" unicode="5" d="M477 667v-94H271l-33-111q20 2 31 2 94 0 154-59 65-63 65-171 0-109-68-177-69-68-185-68-76 0-128 30-48 29-79 77l77 64q14-34 51-58 34-23 87-23 63 0 102 37 43 43 43 113t-40 108q-39 37-109 37-40 0-78-14-34-13-59-30l99 337h276Z" horiz-adv-x="568" vert-adv-y="1000"/><glyph glyph-name="uni36" unicode="6" d="m348 690 74-55-159-201q20 4 42 4 94 0 154-62 59-62 59-156 0-103-66-168-64-63-172-63-109 0-172 65-58 61-58 151 0 66 32 128 7 14 14.5 26.5t17 26.5q9.5 14 14.5 20.5t18.5 24Q160 448 163 452l185 238m31-376q-37 37-94 37t-96-37q-39-37-39-99t39-99q39-37 96-37t94 37q39 39 39 99t-39 99Z" horiz-adv-x="568" vert-adv-y="1000"/><glyph glyph-name="uni37" unicode="7" d="m50 27 332 546H54v94h496L130-23 50 27Z" horiz-adv-x="568" vert-adv-y="1000"/><glyph glyph-name="uni38" unicode="8" d="m363 272-15.5 15.5Q332 303 284 303t-79-31q-31-31-31-81 0-45 30-78 30-34 80-34t80 34q30 33 30 78 0 50-31 81m-6 289q-29 27-73 27t-73-27q-28-28-28-74 0-43 27-70 28-30 74-30t74 30q27 27 27 70 0 46-28 74m37-214q45-19 70-54 30-40 30-100 0-87-53-142-58-62-157-62T127 51q-53 55-53 142 0 60 30 100 25 35 70 54-36 15-59 50-24 38-24 91 0 85 56 139 54 51 137 51t137-51q56-54 56-139 0-53-24-91-23-35-59-50Z" horiz-adv-x="568" vert-adv-y="1000"/><glyph glyph-name="uni39" unicode="9" d="m220-23-74 55 157 201q-17-4-36-4-94 0-156 62-61 61-61 152 0 99 66 167t172 68q108 0 172-66 58-60 58-151 0-65-32-127-7-14-14.5-26.5t-17-26.5q-9.5-14-14.5-20.5t-18.5-24Q408 219 405 215L220-23m63 339q57 0 96 40 39 41 39 99t-39 95q-40 38-95 38t-95-38q-39-39-39-98 0-60 39-99 39-37 94-37Z" horiz-adv-x="568" vert-adv-y="1000"/><glyph glyph-name="uni3a" unicode=":" d="m83.5 329.5-8.75 8.75Q66 347 66 372t17.5 42.5Q101 432 126 432t42.5-17.5Q186 397 186 372t-17.5-42.5Q151 312 126 312t-42.5 17.5m0-325-8.75 8.75Q66 22 66 47t17.5 42.5Q101 107 126 107t42.5-17.5Q186 72 186 47T168.5 4.5Q151-13 126-13T83.5 4.5Z" horiz-adv-x="252" vert-adv-y="1000"/><glyph glyph-name="uni3b" unicode=";" d="m107.5 329.5-8.75 8.75Q90 347 90 372t17.5 42.5Q125 432 150 432t42.5-17.5Q210 397 210 372t-17.5-42.5Q175 312 150 312t-42.5 17.5M10-129l102 254 88-34L76-156l-66 27Z" horiz-adv-x="320" vert-adv-y="1000"/><glyph glyph-name="uni3c" unicode="&lt;" d="m137 332 330-156V80L33 291v82l434 211v-96L137 332Z" horiz-adv-x="500" vert-adv-y="1000"/><glyph glyph-name="uni3d" unicode="=" d="M33 380v84h434v-84H33m0-162v84h434v-84H33Z" horiz-adv-x="500" vert-adv-y="1000"/><glyph glyph-name="uni3e" unicode="&gt;" d="M363 332 33 488v96l434-211v-82L33 80v96l330 156Z" horiz-adv-x="500" vert-adv-y="1000"/><glyph glyph-name="uni3f" unicode="?" d="M158 485H56q-2 23-2 34 0 75 45 118 44 42 117 42 75 0 121-44 43-41 43-112 0-81-59-123-21-15-70-35l-30-12q-30-12-40-22-15-15-15-36 0-25 17-39 12-10 30-10 24 0 38 15 16 17 16 53h98q0-70-44-116-42-42-109-42-62 0-105 41-41 41-41 106 0 51 32 86 24 26 87 51 59 23 73 35 22 21 22 50 0 30-17 47t-46 17q-30 0-46-18-17-17-17-53 0-13 4-33M175.5 4.5l-8.75 8.75Q158 22 158 47t17.5 42.5Q193 107 218 107t42.5-17.5Q278 72 278 47T260.5 4.5Q243-13 218-13T175.5 4.5Z" horiz-adv-x="434" vert-adv-y="1000"/><glyph glyph-name="uni40" unicode="@" d="m474 439 10 52h68l-39-201q-6-30-6-45 0-21 10-30.5t22-9.5q32 0 60 40 17 24 26 64t9 71q0 93-64.5 165T385 617q-121 0-204-83T98 328q0-88 46-159T270 68q50-20 114-20 110 0 203 41l17-62q-94-39-215-39-148 0-242 81Q34 168 34 329q0 151 99 249.5T382 677q135 0 225.5-80.5T698 381q0-106-48-170-48-63-115-63-31 0-50.5 17T459 210q-44-68-124-68-52 0-96.5 38.5T194 302q0 93 54 147t121 54q76 0 105-64M345 212q43 0 75.5 38t32.5 97q0 43-22 64.5T377 433q-44 0-75-35t-31-95q0-44 21.5-67.5T345 212Z" horiz-adv-x="732" vert-adv-y="1000"/><glyph glyph-name="uni41" unicode="A" d="m542 0-70 161H187L114 0H4l332 706L652 0H542M229 257h202l-99 226-103-226Z" horiz-adv-x="656" vert-adv-y="1000"/><glyph glyph-name="uni42" unicode="B" d="M80 667h101q68 0 110-11t74-41q53-50 53-132 0-47-20-79-18-31-50-46 52-13 86-48 44-46 44-125 0-73-44-120Q372 0 247 0H80v667m102-96V380h31q56 0 83 26 26 25 26 76 0 41-24 64-26 25-81 25h-35m0-275V96h62q69 0 101 26 33 26 33 74 0 43-27 70-31 30-105 30h-64Z" horiz-adv-x="526" vert-adv-y="1000"/><glyph glyph-name="uni43" unicode="C" d="M574 631V511q-82 74-181 74-108 0-175.5-71.5T150 331q0-107 69-178.5T394 81q99 0 180 77V37q-84-50-183-50-139 0-236 92Q48 179 48 331q0 160 107 261 92 87 241 87 103 0 178-48Z" horiz-adv-x="620" vert-adv-y="1000"/><glyph glyph-name="uni44" unicode="D" d="M80 667h140q79 0 138-13.5T468 602q61-46 94.5-116T596 333q0-175-134-269-54-38-110-51T218 0H80v667m102-96V96h44q114 0 177 47 91 69 91 190 0 62-25.5 113T404 525q-64 46-178 46h-44Z" horiz-adv-x="644" vert-adv-y="1000"/><glyph glyph-name="uni45" unicode="E" d="M448 667v-96H182V402h258v-96H182V96h266V0H80v667h368Z" horiz-adv-x="500" vert-adv-y="1000"/><glyph glyph-name="uni46" unicode="F" d="M414 667v-96H182V402h224v-96H182V0H80v667h334Z" horiz-adv-x="450" vert-adv-y="1000"/><glyph glyph-name="uni47" unicode="G" d="M425 253v94h275v-5q0-174-99-270-88-85-227-85T147 78Q48 180 48 330q0 75 27 140.5T145 579q45 45 110.5 72.5T396 679q99 0 174-42 69-39 108-100l-81-57q-36 50-82 76-49 29-118 29-107 0-176-69-33-33-52-83t-19-104q0-107 69-181 63-67 167-67 89 0 149 59 49 48 56 113H425Z" horiz-adv-x="748" vert-adv-y="1000"/><glyph glyph-name="uni48" unicode="H" d="M182 667V403h286v264h102V0H468v307H182V0H80v667h102Z" horiz-adv-x="650" vert-adv-y="1000"/><glyph glyph-name="uni49" unicode="I" d="M80 667h102V0H80v667Z" horiz-adv-x="262" vert-adv-y="1000"/><glyph glyph-name="uni4a" unicode="J" d="M180 667h102V235q0-102-25-152-48-96-157-96-66 0-118 34l50 86q28-24 70-24 49 0 67 45 11 28 11 107v432Z" horiz-adv-x="362" vert-adv-y="1000"/><glyph glyph-name="uni4b" unicode="K" d="M182 667V401l258 266h134L273 365 576 0H440L202 296l-20-20V0H80v667h102Z" horiz-adv-x="586" vert-adv-y="1000"/><glyph glyph-name="uni4c" unicode="L" d="M80 667h102V96h196V0H80v667Z" horiz-adv-x="394" vert-adv-y="1000"/><glyph glyph-name="uni4d" unicode="M" d="M164 0H60l140 717 232-518 234 518L792 0H688l-68 402L426-31 234 403 164 0Z" horiz-adv-x="852" vert-adv-y="1000"/><glyph glyph-name="uni4e" unicode="N" d="M182 0H80v712l484-507v462h102V-41L182 466V0Z" horiz-adv-x="746" vert-adv-y="1000"/><glyph glyph-name="uni4f" unicode="O" d="m147 580 49.5 49.5Q246 679 395 679t248-99q99-99 99-247T643 86q-99-99-248-99T147 86q-99 99-99 247t99 247m72-428.5 34.5-35.25Q288 81 395 81t176 70.5Q640 222 640 333t-69 181.5Q502 585 395 585t-176-70.5Q150 444 150 333t69-181.5Z" horiz-adv-x="790" vert-adv-y="1000"/><glyph glyph-name="uni50" unicode="P" d="M80 667h147q92 0 146-36 40-27 61.5-70.5T456 469q0-90-65-146-61-52-163-52h-46V0H80v667m102-94V365h46q64 0 97 28.5t33 76.5q0 17-4.5 32t-17 32.5Q324 552 296 562.5T227 573h-45Z" horiz-adv-x="480" vert-adv-y="1000"/><glyph glyph-name="uni51" unicode="Q" d="m632-13-50 50q-79-50-187-50-150 0-248.5 98.5T48 333q0 148 99 247t248 99q149 0 248-99.5T742 333q0-140-92-239L758-13H632M479 264l102-101q59 68 59 170 0 111-69 181.5T395 585q-107 0-176-70.5T150 333q0-111 69-181.5T395 81q65 0 115 26L352 264h127Z" horiz-adv-x="790" vert-adv-y="1000"/><glyph glyph-name="uni52" unicode="R" d="M80 667h119q118 0 176-39 79-53 79-157 0-71-40.5-121T306 285L514 0H391L200 273h-18V0H80v667m102-94V361h32q13 0 26 1t35.5 7q22.5 6 39 16.5t29 32.5q12.5 22 12.5 52 0 103-139 103h-35Z" horiz-adv-x="534" vert-adv-y="1000"/><glyph glyph-name="uni53" unicode="S" d="m450 567-82-48q-10 24-30 42-30 24-72 24-45 0-69.5-23T172 505q0-52 72-81l67-27q157-64 157-196 0-95-60.5-154.5T253-13q-97 0-157 67-49 55-56 130l101 22q0-48 28-85 32-40 87-40 47 0 78.5 31t31.5 81q0 46-26.5 71T270 307l-64 27Q70 391 70 503q0 72 52.5 124T265 679q81 0 134-45 31-28 51-67Z" horiz-adv-x="516" vert-adv-y="1000"/><glyph glyph-name="uni54" unicode="T" d="M418 571H265V0H163v571H10v96h408v-96Z" horiz-adv-x="428" vert-adv-y="1000"/><glyph glyph-name="uni55" unicode="U" d="M80 667h102V265q0-78 21-115 17-28 50-48.5T327 81q41 0 74 20.5t50 48.5q21 37 21 115v402h102V238q0-105-62-173-72-78-185-78T142 65q-62 68-62 173v429Z" horiz-adv-x="654" vert-adv-y="1000"/><glyph glyph-name="uni56" unicode="V" d="M4 667h110l186-465 186 465h110L300-43 4 667Z" horiz-adv-x="600" vert-adv-y="1000"/><glyph glyph-name="uni57" unicode="W" d="M4 667h110l176-446 180 478 174-478 182 446h110L638-43 464 430 288-43 4 667Z" horiz-adv-x="940" vert-adv-y="1000"/><glyph glyph-name="uni58" unicode="X" d="m10 0 210 348L36 667h114l130-226 133 226h114L335 348 536 0H422L276 255 124 0H10Z" horiz-adv-x="546" vert-adv-y="1000"/><glyph glyph-name="uni59" unicode="Y" d="M219 0v288L0 667h116l154-267 154 267h116L321 288V0H219Z" horiz-adv-x="540" vert-adv-y="1000"/><glyph glyph-name="uni5a" unicode="Z" d="M524 667 196 96h320V0H30l328 571H84v96h440Z" horiz-adv-x="554" vert-adv-y="1000"/><glyph glyph-name="uni5b" unicode="[" d="M270 639h-84V-87h84v-90H88v906h182v-90Z" horiz-adv-x="316" vert-adv-y="1000"/><glyph glyph-name="uni5c" unicode="\" d="m684-177-80-36L78 729l80 36 526-942Z" horiz-adv-x="684" vert-adv-y="1000"/><glyph glyph-name="uni5d" unicode="]" d="M46-87h84v726H46v90h182v-906H46v90Z" horiz-adv-x="316" vert-adv-y="1000"/><glyph glyph-name="uni5e" unicode="^" d="M250 590 120 350H16l171 317h126l171-317H380L250 590Z" horiz-adv-x="500" vert-adv-y="1000"/><glyph glyph-name="uni5f" unicode="_" d="M0-144v86h400v-86H0Z" horiz-adv-x="400" vert-adv-y="1000"/><glyph glyph-name="uni60" unicode="`" d="M241 485 85 629l90 46 120-156-54-34Z" horiz-adv-x="500" vert-adv-y="1000"/><glyph glyph-name="uni61" unicode="a" d="M370 372v49h98V0h-98v44q-49-57-126-57-93 0-148.5 66T40 211q0 100 59.5 160.5T245 432q79 0 125-60m-113-28q-52 0-84.5-39T140 209q0-56 32.5-95T257 75q50 0 84.5 35t34.5 98q0 65-34.5 100.5T257 344Z" horiz-adv-x="530" vert-adv-y="1000"/><glyph glyph-name="uni62" unicode="b" d="M160 729V372q46 60 125 60 86 0 145.5-60.5T490 211q0-92-55.5-158T286-13q-77 0-126 57V0H62v729h98m113-385q-50 0-84.5-35.5T154 208q0-63 34.5-98T273 75q52 0 84.5 39t32.5 95q0 57-32.5 96T273 344Z" horiz-adv-x="530" vert-adv-y="1000"/><glyph glyph-name="uni63" unicode="c" d="M388 402V292q-53 52-119 52-56 0-93-37-36-36-36-97 0-63 38-101 36-34 89-34 73 0 121 54V20q-53-33-128-33-101 0-160 62-60 62-60 158 0 99 64 163 62 62 169 62 61 0 115-30Z" horiz-adv-x="420" vert-adv-y="1000"/><glyph glyph-name="uni64" unicode="d" d="M370 372v357h98V0h-98v44q-49-57-126-57-93 0-148.5 66T40 211q0 100 59.5 160.5T245 432q79 0 125-60m-113-28q-52 0-84.5-39T140 209q0-56 32.5-95T257 75q50 0 84.5 35t34.5 98q0 65-34.5 100.5T257 344Z" horiz-adv-x="530" vert-adv-y="1000"/><glyph glyph-name="uni65" unicode="e" d="m357 142 82-46q-28-50-71-77-49-32-124-32-88 0-142 54-62 62-62 161 0 104 67 173 57 57 141 57 82 0 135-55 59-61 59-178v-12H140q4-53 36-85 27-27 75-27 39 0 67 21 23 18 39 46M147 267h195q-6 35-30 57-26 24-66 24-42 0-69-27-22-20-30-54Z" horiz-adv-x="482" vert-adv-y="1000"/><glyph glyph-name="uni66" unicode="f" d="M276 331H170V0H72v331H30v90h42v146q0 88 41 132 39 41 100 41 35 0 63-12v-97q-25 15-47 15-28 0-43-16-16-16-16-50V421h106v-90Z" horiz-adv-x="270" vert-adv-y="1000"/><glyph glyph-name="uni67" unicode="g" d="M370 375v46h98V34q0-82-14-133.5T399-185q-55-45-140-45-86 0-138 52-51 51-62 131h95q7-40 31-66 27-29 76-29t77 28q32 31 32 106v55q-47-60-128-60-85 0-139 57-63 66-63 167t62 163q57 58 143 58 77 0 125-57m-113-31q-45 0-74-28-43-40-43-107 0-69 42-106 32-28 75-28 49 0 82 34 37 40 37 99 0 68-40 106-30 30-79 30Z" horiz-adv-x="530" vert-adv-y="1000"/><glyph glyph-name="uni68" unicode="h" d="M62 0v729h98V385q46 47 113 47 84 0 124-57 27-39 27-117V0h-98v249q0 52-19 73-20 22-55 22-48 0-72-35-20-29-20-106V0H62Z" horiz-adv-x="486" vert-adv-y="1000"/><glyph glyph-name="uni69" unicode="i" d="M62 421h98V0H62v421m4 129-9 9q-9 9-9 36t18 45q18 18 45 18t45-18q18-18 18-45t-18-45q-18-18-45-18t-45 18Z" horiz-adv-x="222" vert-adv-y="1000"/><glyph glyph-name="uni6a" unicode="j" d="M62 421h98v-650H62v650m4 129-9 9q-9 9-9 36t18 45q18 18 45 18t45-18q18-18 18-45t-18-45q-18-18-45-18t-45 18Z" horiz-adv-x="222" vert-adv-y="1000"/><glyph glyph-name="uni6b" unicode="k" d="M62 729h98V280l137 141h130L246 246 440 0H316L178 180l-18-18V0H62v729Z" horiz-adv-x="442" vert-adv-y="1000"/><glyph glyph-name="uni6c" unicode="l" d="M62 729h98V0H62v729Z" horiz-adv-x="222" vert-adv-y="1000"/><glyph glyph-name="uni6d" unicode="m" d="M62 0v421h98v-39q41 50 104 50 73 0 109-62 43 62 125 62t120-66q22-39 22-106V0h-98v232q0 55-9 75-14 37-56 37-36 0-58-31-19-27-19-96V0h-98v232q0 55-9 75-14 37-56 37-36 0-58-31-19-27-19-96V0H62Z" horiz-adv-x="702" vert-adv-y="1000"/><glyph glyph-name="uni6e" unicode="n" d="M61 0v421h98v-39q45 50 114 50 83 0 124-57 26-37 26-117V0h-98v234q0 38-6 62t-19 33.5q-13 9.5-23.5 12T248 344q-21 0-33.5-3.5t-27-16Q173 312 166 281.5t-7-79.5V0H61Z" horiz-adv-x="485" vert-adv-y="1000"/><glyph glyph-name="uni6f" unicode="o" d="m104.5 369.5 32.25 31.25Q169 432 265 432t160.5-62.5Q490 307 490 210q0-96-64.5-159.5T265-13q-96 0-160.5 63.5T40 210q0 97 64.5 159.5m69.5-258 17-18.25Q208 75 265 75t91 36.5q34 36.5 34 97.5 0 67-36.5 101T265 344q-52 0-88.5-34T140 209q0-61 34-97.5Z" horiz-adv-x="530" vert-adv-y="1000"/><glyph glyph-name="uni70" unicode="p" d="M160 49v-278H62v650h98v-46q48 57 125 57 86 0 145.5-60.5T490 213q0-101-62-163.5T286-13q-75 0-126 62m113 295q-50 0-84.5-35.5T154 208q0-63 34.5-98T273 75q52 0 84.5 39t32.5 95q0 57-32.5 96T273 344Z" horiz-adv-x="530" vert-adv-y="1000"/><glyph glyph-name="uni71" unicode="q" d="M370 375v46h98v-650h-98V47q-49-60-126-60-94 0-149 66T40 211q0 100 59.5 160.5T245 432q77 0 125-57m-113-31q-52 0-84.5-39T140 209q0-56 32.5-95T257 75q50 0 84.5 35t34.5 98q0 65-34.5 100.5T257 344Z" horiz-adv-x="530" vert-adv-y="1000"/><glyph glyph-name="uni72" unicode="r" d="M62 0v421h98v-38q19 22 41 35 24 14 60 14 43 0 77-20l-40-89q-24 15-50 15-39 0-61-23-27-29-27-97V0H62Z" horiz-adv-x="332" vert-adv-y="1000"/><glyph glyph-name="uni73" unicode="s" d="m319 358-73-48q-22 36-60 36-19 0-30-11-9-9-9-22 0-15 14-24 3-2 6-3.5l11-5.5 16-8 50-25q42-21 59-39 31-31 31-78 0-56-37-96-43-47-118-47-56 0-91 27-38 28-54 77l80 38q10-29 23-40 16-16 43-16 26 0 40 14t14 33q0 18-13 32-14 14-42 26l-36 17q-42 20-58 36-30 29-30 71 0 53 35 90 38 40 103 40 45 0 78-22 30-19 48-52Z" horiz-adv-x="360" vert-adv-y="1000"/><glyph glyph-name="uni74" unicode="t" d="M238 331h-75V0H65v331H24v90h41v154h98V421h75v-90Z" horiz-adv-x="242" vert-adv-y="1000"/><glyph glyph-name="uni75" unicode="u" d="M62 421h98V180q0-53 18-76 22-29 64-29t64 29q18 23 18 76v241h98V177q0-93-45-138-52-52-137-52-82 0-133 52-45 45-45 138v244Z" horiz-adv-x="484" vert-adv-y="1000"/><glyph glyph-name="uni76" unicode="v" d="M6 421h110l108-240 108 240h110L224-30 6 421Z" horiz-adv-x="448" vert-adv-y="1000"/><glyph glyph-name="uni77" unicode="w" d="M6 421h110l109-241 118 277 118-277 109 241h110L461-30 343 239 225-30 6 421Z" horiz-adv-x="686" vert-adv-y="1000"/><glyph glyph-name="uni78" unicode="x" d="m6 0 186 228L42 421h116l93-123 94 123h120L310 228 490 0H372L251 157 126 0H6Z" horiz-adv-x="496" vert-adv-y="1000"/><glyph glyph-name="uni79" unicode="y" d="M31-229 186 66 6 421h118l120-246 122 246h110L141-229H31Z" horiz-adv-x="482" vert-adv-y="1000"/><glyph glyph-name="uni7a" unicode="z" d="M472 421 201 90h250V0H8l273 331H66v90h406Z" horiz-adv-x="480" vert-adv-y="1000"/><glyph glyph-name="uni7b" unicode="{" d="M288 565V397q0-49-12-74-16-32-50-47 34-15 50-47 12-25 12-74V-13q0-47 17-64 17-16 71-16h8v-84h-47q-71 0-103 24-44 33-44 115v191q0 73-56 83v80q56 10 56 83v191q0 82 44 115 31 24 103 24h47v-84h-8q-54 0-71-16-17-17-17-64Z" horiz-adv-x="500" vert-adv-y="1000"/><glyph glyph-name="uni7c" unicode="|" d="M202-250V750h96V-250h-96Z" horiz-adv-x="500" vert-adv-y="1000"/><glyph glyph-name="uni7d" unicode="}" d="M230 397v168q0 47-17 64-17 16-71 16h-8v84h47q71 0 103-24 44-33 44-115V399q0-73 56-83v-80q-56-10-56-83V-38q0-82-44-115-31-24-103-24h-47v84h8q54 0 71 16 17 17 17 64v168q0 49 12 74 16 32 50 47-34 15-50 47-12 25-12 74Z" horiz-adv-x="500" vert-adv-y="1000"/><glyph glyph-name="uni7e" unicode="~" d="m435 361 57-33q-26-61-66-93-36-28-83-28-36 0-112 32-61 26-87 26-31 0-51-22-18-18-29-45L8 234q21 51 50 83 37 42 92 42 38 0 110-31 65-28 93-28 29 0 49 18 20 17 33 43Z" horiz-adv-x="500" vert-adv-y="1000"/><glyph glyph-name="unia1" unicode="¡" d="M77 272h98v-502H77v502m91.5 159.5 8.75-8.75Q186 414 186 389t-17.5-42.5Q151 329 126 329t-42.5 17.5Q66 364 66 389t17.5 42.5Q101 449 126 449t42.5-17.5Z" horiz-adv-x="252" vert-adv-y="1000"/><glyph glyph-name="unia2" unicode="¢" d="M438 527V418q-48 51-122 51-53 0-87-34-39-37-39-100 0-64 38-100 37-35 92-35 70 0 118 54V145q-44-29-94-32V13h-74v103q-71 11-120 60-60 60-60 158 0 102 68 166 48 46 112 54v101h74v-99q49-4 94-29Z" horiz-adv-x="568" vert-adv-y="1000"/><glyph glyph-name="unia3" unicode="£" d="M516 444h-98v4q0 70-35 105-31 31-80 31-53 0-86-31-33-33-33-81 0-45 51-142h130v-72H264q12-36 12-65 0-34-14-65l53-19q60-20 76-20 48 0 69 63l82-48q-22-46-51-75-38-38-97-38-40 0-112 25-76 28-101 28-49 0-68-59L26 29q26 56 70 87 30 20 63 22 15 30 15 62 0 34-15 58H45v72h78q-41 86-41 141 0 87 57 144 65 63 165 63 95 0 151-56 61-61 61-173v-5Z" horiz-adv-x="568" vert-adv-y="1000"/><glyph glyph-name="unia4" unicode="¤" d="m92 660 99-99q59 48 143 48t143-48l99 99 54-54-99-99q45-58 45-140t-45-140l99-99-54-54-99 99q-59-48-143-48t-143 48L92 74l-54 54 99 99q-45 58-45 140t45 140l-99 99 54 54m133.5-405 21.75-22Q269 211 334 211t108.5 44Q486 299 486 367t-43.5 112Q399 523 334 523t-108.5-44Q182 435 182 367t43.5-112Z" horiz-adv-x="668" vert-adv-y="1000"/><glyph glyph-name="unia5" unicode="¥" d="M523 377H380l-41-74h184v-70H331V0h-94v233H45v70h184l-41 74H45v70h104L28 667h110l146-267 146 267h110L419 447h104v-70Z" horiz-adv-x="568" vert-adv-y="1000"/><glyph glyph-name="unia6" unicode="¦" d="M202 390v360h96V390h-96m0-640v360h96v-360h-96Z" horiz-adv-x="500" vert-adv-y="1000"/><glyph glyph-name="unia7" unicode="§" d="M484 525h-94q0 54-17 80-24 38-74 38-45 0-71-28-24-26-24-62 0-31 20-51 17-17 75-37 105-35 139-69 46-44 46-115 0-57-24-94-23-38-70-61 74-39 74-127 0-74-48-122-54-54-140-54t-139 53Q84-71 84 18h94q0-53 26-81 24-28 72-28 41 0 66 22 26 22 26 59 0 39-31 66-37 32-75 37-21 3-66.5 26T134 159q-44 45-44 118 0 56 27 95 24 37 69 57-33 17-55 48-23 33-23 76 0 72 47 121 53 55 143 55 86 0 137-52 49-50 49-147v-5M356 350q-27 27-69 27t-69-27q-28-28-28-71t27-70q28-28 70-28 41 0 70 29 27 27 27 69 0 41-28 71Z" horiz-adv-x="568" vert-adv-y="1000"/><glyph glyph-name="unia8" unicode="¨" d="m116 525-9 9q-9 9-9 35t18 44q18 18 44 18t44-18q18-18 18-44t-18-44q-18-18-44-18t-44 18m180 0-9 9q-9 9-9 35t18 44q18 18 44 18t44-18q18-18 18-44t-18-44q-18-18-44-18t-44 18Z" horiz-adv-x="500" vert-adv-y="1000"/><glyph glyph-name="unia9" unicode="©" d="m131 84.5-49 49.25Q33 183 33 333t98 248.5Q229 680 379 680t248-98.5Q725 483 725 333T627 84.5Q529-14 379-14T131 84.5m455.5 37 41.25 42.75Q669 207 669 333t-82 211.5Q505 630 379 630t-208-85.5Q89 459 89 333t82.5-211.5Q254 36 379 36t207.5 85.5M512 510v-87q-51 50-118 50-54 0-96.5-37T255 332q0-61 39-99.5T395 194q62 0 117 51v-88q-55-31-118-31-92 0-153.5 59T179 332q0 91 62.5 150T398 541q61 0 114-31Z" horiz-adv-x="758" vert-adv-y="1000"/><glyph glyph-name="uniaa" unicode="ª" d="M253 632v28h66V394h-66v25q-30-32-79-32-59 0-94 35-39 39-39 103t40 106q35 36 90 36t82-35m-21-40q-20 18-50 18t-50-18q-25-22-25-66 0-39 22-61t53-22q33 0 54 23 20 21 20 60 0 44-24 66M52 343h267v-52H52v52Z" horiz-adv-x="372" vert-adv-y="1000"/><glyph glyph-name="uniab" unicode="«" d="M140 219 267 54 202 7 40 219l162 212 65-47-127-165m186 0L453 54 388 7 226 219l162 212 65-47-127-165Z" horiz-adv-x="507" vert-adv-y="1000"/><glyph glyph-name="uniac" unicode="¬" d="M467 0h-98v179H33v88h434V0Z" horiz-adv-x="500" vert-adv-y="1000"/><glyph glyph-name="uniad" unicode="­" d="M50 162v102h240V162H50Z" horiz-adv-x="340" vert-adv-y="1000"/><glyph glyph-name="uniae" unicode="®" d="m131 84.5-49 49.25Q33 183 33 333t98 248.5Q229 680 379 680t248-98.5Q725 483 725 333T627 84.5Q529-14 379-14T131 84.5m455.5 37 41.25 42.75Q669 207 669 333t-82 211.5Q505 630 379 630t-208-85.5Q89 459 89 333t82.5-211.5Q254 36 379 36t207.5 85.5M548 153h-87L345 301V153h-71v374h99q42 0 71-12t41.5-31q12.5-19 17-35.5T507 415q0-41-22.5-68.5T424 309l124-156M345 464V360h14q78 0 78 53 0 51-76 51h-16Z" horiz-adv-x="758" vert-adv-y="1000"/><glyph glyph-name="uniaf" unicode="¯" d="M85 508v78h330v-78H85Z" horiz-adv-x="500" vert-adv-y="1000"/><glyph glyph-name="unib0" unicode="°" d="m146 419-21 21q-21 21-21 82t42 103q42 42 104 42t104-42q42-42 42-103t-42-103q-42-42-104-42t-104 42m44.5 165-12.25-12.5Q166 559 166 522t24.5-62q24.5-25 59.5-25t59.5 25q24.5 25 24.5 62t-24.5 62Q285 609 250 609t-59.5-25Z" horiz-adv-x="500" vert-adv-y="1000"/><glyph glyph-name="unib1" unicode="±" d="M33 350v90h170v163h94V440h170v-90H297V187h-94v163H33m0-290v90h434V60H33Z" horiz-adv-x="500" vert-adv-y="1000"/><glyph glyph-name="unib2" unicode="²" d="M314 333v-66H24l146 162q34 38 50 62 21 30 21 57t-17.5 43.5Q206 608 178 608q-32 0-51-22t-22-51H35q3 58 37 96 38 43 103 43t101.5-36q36.5-36 36.5-88 0-36-30-85-19-30-55-70l-55-62h141Z" horiz-adv-x="370" vert-adv-y="1000"/><glyph glyph-name="unib3" unicode="³" d="M115 553H45q3 41 23 70 33 51 110 51 63 0 95-32.5t32-79.5q0-62-52-84 11-4 21.5-10.5t24-28.5q13.5-22 13.5-52 0-53-36.5-90T171 260q-95 0-128 78-10 24-11 48h70q6-60 69-60 34 0 51.5 18t17.5 44q0 12-3.5 23t-20 23Q200 446 171 446h-24v66h24q63 0 63 47 0 24-16 36.5T176 608q-28 0-43.5-15T115 553Z" horiz-adv-x="370" vert-adv-y="1000"/><glyph glyph-name="unib4" unicode="´" d="m325 675 90-46-156-144-54 34 120 156Z" horiz-adv-x="500" vert-adv-y="1000"/><glyph glyph-name="unib5" unicode="µ" d="M160-229H62v650h98V216q0-59 17-91 26-49 84-49 55 0 83 50 20 35 20 96v199h98V0h-98v73q-12-39-40.5-62T258-12q-66 0-98 69v-286Z" horiz-adv-x="524" vert-adv-y="1000"/><glyph glyph-name="uni03BC" unicode="μ" d="M160-229H62v650h98V216q0-59 17-91 26-49 84-49 55 0 83 50 20 35 20 96v199h98V0h-98v73q-12-39-40.5-62T258-12q-66 0-98 69v-286Z" horiz-adv-x="524" vert-adv-y="1000"/><glyph glyph-name="unib6" unicode="¶" d="M301-95h-83v412h-13q-86 0-137 53-44 44-44 119 0 84 56 132 55 46 168 46h297v-76h-66V-95h-82v686h-96V-95Z" horiz-adv-x="616" vert-adv-y="1000"/><glyph glyph-name="unib7" unicode="·" d="m44.5 284.5-11.25 11.25Q22 307 22 340t22.5 55.5Q67 418 100 418t55.5-22.5Q178 373 178 340t-22.5-55.5Q133 262 100 262t-55.5 22.5Z" horiz-adv-x="200" vert-adv-y="1000"/><glyph glyph-name="unib8" unicode="¸" d="m258-53 82-32-102-134-64 32 84 134Z" horiz-adv-x="500" vert-adv-y="1000"/><glyph glyph-name="unib9" unicode="¹" d="M162 267v334H84l42 66h110V267h-74Z" horiz-adv-x="370" vert-adv-y="1000"/><glyph glyph-name="uniba" unicode="º" d="M188 386q-66 0-107 41-39 39-39 102 0 61 41 100 40 38 105 38 63 0 105-38 41-39 41-102 0-61-39-100-43-41-107-41m0 225q-33 0-54-21-25-25-25-63 0-36 23-61 21-23 56-23 33 0 55 22 24 26 24 61 0 39-25 64-23 21-54 21M52 343h272v-52H52v52Z" horiz-adv-x="376" vert-adv-y="1000"/><glyph glyph-name="unibb" unicode="»" d="M367 219 240 384l65 47 162-212L305 7l-65 47 127 165m-186 0L54 384l65 47 162-212L119 7 54 54l127 165Z" horiz-adv-x="507" vert-adv-y="1000"/><glyph glyph-name="unibc" unicode="¼" d="M162 267v334H84l42 66h108V267h-72m63-250 382 661 48-28L273-11l-48 28m500 413V142h43V76h-43V0h-72v76H444l281 354M575 138h78v103l-78-103Z" horiz-adv-x="800" vert-adv-y="1000"/><glyph glyph-name="unibd" unicode="½" d="M162 267v334H84l42 66h108V267h-72m3-250 382 661 48-28L213-11l-48 28m579 49V0H454l146 162q34 38 50 62 21 30 21 57t-17.5 43.5Q636 341 608 341q-32 0-51-22t-22-51h-70q3 58 37 96 38 43 103 43t101.5-36q36.5-36 36.5-88 0-36-30-85-19-30-55-70l-55-62h141Z" horiz-adv-x="800" vert-adv-y="1000"/><glyph glyph-name="unibe" unicode="¾" d="M32 386h70q1-28 19-43 18-17 50-17t52 18q17 15 17 44 0 27-15 40-18 18-54 18h-24v66h18q37 0 54 14 15 12 15 33 0 19-12 33-15 16-46 16-28 0-43-15-14-13-18-40H45q2 53 35 86 35 35 98 35t97-34q31-31 31-78 0-31-13-51-14-23-40-33 26-10 40-28 19-23 19-63 0-51-32-86-39-41-109-41-68 0-104 40-32 35-35 86M225 17l382 661 48-28L273-11l-48 28m350 121h78v103l-78-103m150 292V142h43V76h-43V0h-72v76H444l281 354Z" horiz-adv-x="800" vert-adv-y="1000"/><glyph glyph-name="unibf" unicode="¿" d="M276-48h102q2-23 2-34 0-75-45-118-44-42-117-42-75 0-121 44-43 41-43 112 0 81 59 123 21 15 70 35l30 12q30 12 40 22 15 15 15 36 0 25-17 39-12 10-30 10-24 0-38-15-16-17-16-53H69q0 70 44 116 42 42 109 42 62 0 105-41 41-41 41-106 0-51-32-86-24-26-87-51-59-23-73-35-22-21-22-50 0-30 17-47t46-17q30 0 46 18 17 17 17 53 0 13-4 33m-17.5 479.5 8.75-8.75Q276 414 276 389t-17.5-42.5Q241 329 216 329t-42.5 17.5Q156 364 156 389t17.5 42.5Q191 449 216 449t42.5-17.5Z" horiz-adv-x="434" vert-adv-y="1000"/><glyph glyph-name="unic0" unicode="À" d="m542 0-70 161H187L114 0H4l332 706L652 0H542M229 257h202l-99 226-103-226m115 470L168 846l86 60 138-139-48-40Z" horiz-adv-x="656" vert-adv-y="1000"/><glyph glyph-name="unic1" unicode="Á" d="m542 0-70 161H187L114 0H4l332 706L652 0H542M229 257h202l-99 226-103-226m83 470-48 40 138 139 86-60-176-119Z" horiz-adv-x="656" vert-adv-y="1000"/><glyph glyph-name="unic2" unicode="Â" d="m542 0-70 161H187L114 0H4l332 706L652 0H542M229 257h202l-99 226-103-226m101 555-99-82-66 56 165 134 165-134-66-56-99 82Z" horiz-adv-x="656" vert-adv-y="1000"/><glyph glyph-name="unic3" unicode="Ã" d="m542 0-70 161H187L114 0H4l332 706L652 0H542M229 257h202l-99 226-103-226m223 606 58-46q-41-84-116-84-27 0-55 13-12 6-20.5 10t-12 6q-3.5 2-9.5 4-25 9-37 9-36 0-51-42l-59 41q19 34 42 54 32 27 70 27 22 0 49-9 32-14 46-21 28-14 41-14 39 0 54 52Z" horiz-adv-x="656" vert-adv-y="1000"/><glyph glyph-name="unic4" unicode="Ä" d="m542 0-70 161H187L114 0H4l332 706L652 0H542M229 257h202l-99 226-103-226m-41 494-9 9q-9 9-9 35t18 44q18 18 44 18t44-18q18-18 18-44t-18-44q-18-18-44-18t-44 18m196 0-9 9q-9 9-9 35t18 44q18 18 44 18t44-18q18-18 18-44t-18-44q-18-18-44-18t-44 18Z" horiz-adv-x="656" vert-adv-y="1000"/><glyph glyph-name="unic5" unicode="Å" d="m542 0-70 161H187L114 0H4l332 706L652 0H542M229 257h202l-99 226-103-226m8 566q0 41 28.5 69t68.5 28q40 0 68.5-28t28.5-69q0-40-28-68.5T334 726q-40 0-68.5 28.5T237 823m66.5 30.5-6.25-6.25Q291 841 291 823t12.5-30.5Q316 780 334 780t30.5 12.5Q377 805 377 823t-12.5 30.5Q352 866 334 866t-30.5-12.5Z" horiz-adv-x="656" vert-adv-y="1000"/><glyph glyph-name="unic6" unicode="Æ" d="m546 0-70 159H193L120 0H10l320 667h295l42-96H402l70-159h258l42-96H514l95-220h265l42-96H546M238 255h198l-95 217-103-217Z" horiz-adv-x="926" vert-adv-y="1000"/><glyph glyph-name="unic7" unicode="Ç" d="M574 631V511q-82 74-181 74-108 0-175.5-71.5T150 331q0-107 69-178.5T394 81q99 0 180 77V37q-84-50-183-50-139 0-236 92Q48 179 48 331q0 160 107 261 92 87 241 87 103 0 178-48M350-53l86-38-112-133-64 32 90 139Z" horiz-adv-x="620" vert-adv-y="1000"/><glyph glyph-name="unic8" unicode="È" d="M448 667v-96H182V402h258v-96H182V96h266V0H80v667h368m-162 60L110 846l86 60 138-139-48-40Z" horiz-adv-x="500" vert-adv-y="1000"/><glyph glyph-name="unic9" unicode="É" d="M448 667v-96H182V402h258v-96H182V96h266V0H80v667h368m-214 60-48 40 138 139 86-60-176-119Z" horiz-adv-x="500" vert-adv-y="1000"/><glyph glyph-name="unica" unicode="Ê" d="M448 667v-96H182V402h258v-96H182V96h266V0H80v667h368M270 812l-99-82-66 56 165 134 165-134-66-56-99 82Z" horiz-adv-x="500" vert-adv-y="1000"/><glyph glyph-name="unicb" unicode="Ë" d="M448 667v-96H182V402h258v-96H182V96h266V0H80v667h368m-320 84-9 9q-9 9-9 35t18 44q18 18 44 18t44-18q18-18 18-44t-18-44q-18-18-44-18t-44 18m196 0-9 9q-9 9-9 35t18 44q18 18 44 18t44-18q18-18 18-44t-18-44q-18-18-44-18t-44 18Z" horiz-adv-x="500" vert-adv-y="1000"/><glyph glyph-name="unicc" unicode="Ì" d="M80 667h102V0H80v667m49 46L-10 874l98 35 98-169-57-27Z" horiz-adv-x="262" vert-adv-y="1000"/><glyph glyph-name="unicd" unicode="Í" d="M80 667h102V0H80v667m94 242 98-35-139-161-57 27 98 169Z" horiz-adv-x="262" vert-adv-y="1000"/><glyph glyph-name="unice" unicode="Î" d="M80 667h102V0H80v667m51 145-79-77-59 49 138 131 138-131-59-49-79 77Z" horiz-adv-x="262" vert-adv-y="1000"/><glyph glyph-name="unicf" unicode="Ï" d="M80 667h102V0H80v667m-51 88.5-7.5 8.25Q14 772 14 795t15 39.5Q44 851 64 851t35.5-17q15.5-17 15.5-39t-15.5-39Q84 739 64 739t-35 16.5m134 0-7.5 8.25Q148 772 148 795t15 39.5q15 16.5 35 16.5t35-16.5q15-16.5 15-39.5t-15-39.5Q218 739 198 739t-35 16.5Z" horiz-adv-x="262" vert-adv-y="1000"/><glyph glyph-name="unid0" unicode="Ð" d="M80 667h140q79 0 138-13.5T468 602q61-46 94.5-116T596 333q0-172-134-269-57-41-108-52.5T218 0H80v324H0v86h80v257m102-96V410h140v-86H182V96h44q114 0 177 47 91 69 91 190 0 62-25.5 113T404 525q-64 46-178 46h-44Z" horiz-adv-x="644" vert-adv-y="1000"/><glyph glyph-name="unid1" unicode="Ñ" d="M182 0H80v712l484-507v462h102V-41L182 466V0m320 863 58-46q-41-84-116-84-27 0-55 13-12 6-20.5 10t-12 6q-3.5 2-9.5 4-25 9-37 9-36 0-51-42l-59 41q19 34 42 54 32 27 70 27 22 0 49-9 32-14 46-21 28-14 41-14 39 0 54 52Z" horiz-adv-x="746" vert-adv-y="1000"/><glyph glyph-name="unid2" unicode="Ò" d="m147 580 49.5 49.5Q246 679 395 679t248-99q99-99 99-247T643 86q-99-99-248-99T147 86q-99 99-99 247t99 247m72-428.5 34.5-35.25Q288 81 395 81t176 70.5Q640 222 640 333t-69 181.5Q502 585 395 585t-176-70.5Q150 444 150 333t69-181.5M436 727 260 846l86 60 138-139-48-40Z" horiz-adv-x="790" vert-adv-y="1000"/><glyph glyph-name="unid3" unicode="Ó" d="m147 580 49.5 49.5Q246 679 395 679t248-99q99-99 99-247T643 86q-99-99-248-99T147 86q-99 99-99 247t99 247m72-428.5 34.5-35.25Q288 81 395 81t176 70.5Q640 222 640 333t-69 181.5Q502 585 395 585t-176-70.5Q150 444 150 333t69-181.5M354 727l-48 40 138 139 86-60-176-119Z" horiz-adv-x="790" vert-adv-y="1000"/><glyph glyph-name="unid4" unicode="Ô" d="m147 580 49.5 49.5Q246 679 395 679t248-99q99-99 99-247T643 86q-99-99-248-99T147 86q-99 99-99 247t99 247m72-428.5 34.5-35.25Q288 81 395 81t176 70.5Q640 222 640 333t-69 181.5Q502 585 395 585t-176-70.5Q150 444 150 333t69-181.5M395 812l-99-82-66 56 165 134 165-134-66-56-99 82Z" horiz-adv-x="790" vert-adv-y="1000"/><glyph glyph-name="unid5" unicode="Õ" d="m147 580 49.5 49.5Q246 679 395 679t248-99q99-99 99-247T643 86q-99-99-248-99T147 86q-99 99-99 247t99 247m72-428.5 34.5-35.25Q288 81 395 81t176 70.5Q640 222 640 333t-69 181.5Q502 585 395 585t-176-70.5Q150 444 150 333t69-181.5M517 863l58-46q-41-84-116-84-27 0-55 13-12 6-20.5 10t-12 6q-3.5 2-9.5 4-25 9-37 9-36 0-51-42l-59 41q19 34 42 54 32 27 70 27 22 0 49-9 32-14 46-21 28-14 41-14 39 0 54 52Z" horiz-adv-x="790" vert-adv-y="1000"/><glyph glyph-name="unid6" unicode="Ö" d="m147 580 49.5 49.5Q246 679 395 679t248-99q99-99 99-247T643 86q-99-99-248-99T147 86q-99 99-99 247t99 247m72-428.5 34.5-35.25Q288 81 395 81t176 70.5Q640 222 640 333t-69 181.5Q502 585 395 585t-176-70.5Q150 444 150 333t69-181.5M253 751l-9 9q-9 9-9 35t18 44q18 18 44 18t44-18q18-18 18-44t-18-44q-18-18-44-18t-44 18m196 0-9 9q-9 9-9 35t18 44q18 18 44 18t44-18q18-18 18-44t-18-44q-18-18-44-18t-44 18Z" horiz-adv-x="790" vert-adv-y="1000"/><glyph glyph-name="unid7" unicode="×" d="m44 193 142 143L44 479l63 63 143-142 143 142 63-63-142-143 142-143-63-63-143 142-143-142-63 63Z" horiz-adv-x="500" vert-adv-y="1000"/><glyph glyph-name="unid8" unicode="Ø" d="m23 27 94 93q-69 94-69 213 0 147 99 246.5T395 679q126 0 214-69l93 94 57-57-93-94q76-91 76-220 0-148-99-247T395-13q-130 0-222 75L80-30 23 27m571 461L245 130q63-49 150-49 107 0 176 70.5T640 333q0 91-46 155M190 188l346 355q-60 42-141 42-107 0-176-70.5T150 333q0-88 40-145Z" horiz-adv-x="790" vert-adv-y="1000"/><glyph glyph-name="unid9" unicode="Ù" d="M80 667h102V265q0-78 21-115 17-28 50-48.5T327 81q41 0 74 20.5t50 48.5q21 37 21 115v402h102V238q0-105-62-173-72-78-185-78T142 65q-62 68-62 173v429m263 60L167 846l86 60 138-139-48-40Z" horiz-adv-x="654" vert-adv-y="1000"/><glyph glyph-name="unida" unicode="Ú" d="M80 667h102V265q0-78 21-115 17-28 50-48.5T327 81q41 0 74 20.5t50 48.5q21 37 21 115v402h102V238q0-105-62-173-72-78-185-78T142 65q-62 68-62 173v429m231 60-48 40 138 139 86-60-176-119Z" horiz-adv-x="654" vert-adv-y="1000"/><glyph glyph-name="unidb" unicode="Û" d="M80 667h102V265q0-78 21-115 17-28 50-48.5T327 81q41 0 74 20.5t50 48.5q21 37 21 115v402h102V238q0-105-62-173-72-78-185-78T142 65q-62 68-62 173v429m247 145-99-82-66 56 165 134 165-134-66-56-99 82Z" horiz-adv-x="654" vert-adv-y="1000"/><glyph glyph-name="unidc" unicode="Ü" d="M80 667h102V265q0-78 21-115 17-28 50-48.5T327 81q41 0 74 20.5t50 48.5q21 37 21 115v402h102V238q0-105-62-173-72-78-185-78T142 65q-62 68-62 173v429m105 84-9 9q-9 9-9 35t18 44q18 18 44 18t44-18q18-18 18-44t-18-44q-18-18-44-18t-44 18m196 0-9 9q-9 9-9 35t18 44q18 18 44 18t44-18q18-18 18-44t-18-44q-18-18-44-18t-44 18Z" horiz-adv-x="654" vert-adv-y="1000"/><glyph glyph-name="unidd" unicode="Ý" d="M219 0v288L0 667h116l154-267 154 267h116L321 288V0H219m35 727-48 40 138 139 86-60-176-119Z" horiz-adv-x="540" vert-adv-y="1000"/><glyph glyph-name="unide" unicode="Þ" d="M80 667h102V567h45q92 0 146-36 40-27 61.5-70.5T456 369q0-90-65-146-61-52-163-52h-46V0H80v667m102-194V265h46q64 0 97 28.5t33 76.5q0 17-4.5 32t-17 32.5Q324 452 296 462.5T227 473h-45Z" horiz-adv-x="480" vert-adv-y="1000"/><glyph glyph-name="unidf" unicode="ß" d="M176 0H78v334H6v87h72v106q0 89 41 144 52 70 157 70 92 0 147-55 51-51 51-132 0-51-23-86-18-27-48-47 60-27 90-76 33-50 33-119 0-110-76-175-73-65-189-65v94q82 0 130 51 35 36 35 95 0 70-53 108-46 32-112 32v89h13q48 0 77 30 27 27 27 75 0 41-29 68-28 25-71 25-49 0-75-31-27-31-27-90V0Z" horiz-adv-x="568" vert-adv-y="1000"/><glyph glyph-name="unie0" unicode="à" d="M370 372v49h98V0h-98v44q-49-57-126-57-93 0-148.5 66T40 211q0 100 59.5 160.5T245 432q79 0 125-60m-113-28q-52 0-84.5-39T140 209q0-56 32.5-95T257 75q50 0 84.5 35t34.5 98q0 65-34.5 100.5T257 344m9 141L110 629l90 46 120-156-54-34Z" horiz-adv-x="530" vert-adv-y="1000"/><glyph glyph-name="unie1" unicode="á" d="M370 372v49h98V0h-98v44q-49-57-126-57-93 0-148.5 66T40 211q0 100 59.5 160.5T245 432q79 0 125-60m-113-28q-52 0-84.5-39T140 209q0-56 32.5-95T257 75q50 0 84.5 35t34.5 98q0 65-34.5 100.5T257 344m48 331 90-46-156-144-54 34 120 156Z" horiz-adv-x="530" vert-adv-y="1000"/><glyph glyph-name="unie2" unicode="â" d="M370 372v49h98V0h-98v44q-49-57-126-57-93 0-148.5 66T40 211q0 100 59.5 160.5T245 432q79 0 125-60m-113-28q-52 0-84.5-39T140 209q0-56 32.5-95T257 75q50 0 84.5 35t34.5 98q0 65-34.5 100.5T257 344m-7 227-88-86-66 52 154 138 154-138-66-52-88 86Z" horiz-adv-x="530" vert-adv-y="1000"/><glyph glyph-name="unie3" unicode="ã" d="M370 372v49h98V0h-98v44q-49-57-126-57-93 0-148.5 66T40 211q0 100 59.5 160.5T245 432q79 0 125-60m-113-28q-52 0-84.5-39T140 209q0-56 32.5-95T257 75q50 0 84.5 35t34.5 98q0 65-34.5 100.5T257 344m115 278 58-46q-39-86-116-86-23 0-55 16-9 5-16.5 9t-11.5 6q-4 2-7.5 4t-6.5 3q-22 10-37 10-36 0-51-46l-59 41q19 34 42 54 32 27 70 27 22 0 49-10 20-8 46-23 24-15 41-15 41 0 54 56Z" horiz-adv-x="530" vert-adv-y="1000"/><glyph glyph-name="unie4" unicode="ä" d="M370 372v49h98V0h-98v44q-49-57-126-57-93 0-148.5 66T40 211q0 100 59.5 160.5T245 432q79 0 125-60m-113-28q-52 0-84.5-39T140 209q0-56 32.5-95T257 75q50 0 84.5 35t34.5 98q0 65-34.5 100.5T257 344M116 525l-9 9q-9 9-9 35t18 44q18 18 44 18t44-18q18-18 18-44t-18-44q-18-18-44-18t-44 18m180 0-9 9q-9 9-9 35t18 44q18 18 44 18t44-18q18-18 18-44t-18-44q-18-18-44-18t-44 18Z" horiz-adv-x="530" vert-adv-y="1000"/><glyph glyph-name="unie5" unicode="å" d="M370 372v49h98V0h-98v44q-49-57-126-57-93 0-148.5 66T40 211q0 100 59.5 160.5T245 432q79 0 125-60m-113-28q-52 0-84.5-39T140 209q0-56 32.5-95T257 75q50 0 84.5 35t34.5 98q0 65-34.5 100.5T257 344m-73 169-14 14q-14 14-14 52t28 66q28 28 66 28t66-28q28-28 28-66t-28-66q-28-28-66-28t-66 28m35.5 96.5-6.25-6.25Q207 597 207 579t12.5-30.5Q232 536 250 536t30.5 12.5Q293 561 293 579t-12.5 30.5Q268 622 250 622t-30.5-12.5Z" horiz-adv-x="530" vert-adv-y="1000"/><glyph glyph-name="unie6" unicode="æ" d="M99 328v91q57 13 119 13 53 0 87-13 37-14 63-47 24 29 58 43 38 17 87 17 91 0 144-55 59-62 59-178v-12H414q4-52 36-85 27-27 75-27 39 0 67 21 23 18 39 46l82-46q-28-50-71-77-50-32-126-32-51 0-88 18-37 17-60 50-29-35-68-52-38-16-89-16-83 0-129 45-42 41-42 96 0 60 40 98 46 45 128 45 59 0 108-28 0 51-28 76-29 25-86 25-48 0-103-16m121-141q-46 0-69-21-17-16-17-37 0-22 20-39 23-19 66-19 38 0 63 16 27 17 27 44 0 26-31 43-25 13-59 13m201 80h195q-6 35-30 57-26 24-66 24t-69-27q-22-22-30-54Z" horiz-adv-x="756" vert-adv-y="1000"/><glyph glyph-name="unie7" unicode="ç" d="M388 402V292q-53 52-119 52-56 0-93-37-36-36-36-97 0-63 38-101 36-34 89-34 73 0 121 54V20q-53-33-128-33-101 0-160 62-60 62-60 158 0 99 64 163 62 62 169 62 61 0 115-30M218-53l82-32-102-134-64 32 84 134Z" horiz-adv-x="420" vert-adv-y="1000"/><glyph glyph-name="unie8" unicode="è" d="m357 142 82-46q-28-50-71-77-49-32-124-32-88 0-142 54-62 62-62 161 0 104 67 173 57 57 141 57 82 0 135-55 59-61 59-178v-12H140q4-53 36-85 27-27 75-27 39 0 67 21 23 18 39 46M147 267h195q-6 35-30 57-26 24-66 24-42 0-69-27-22-20-30-54m124 218L115 629l90 46 120-156-54-34Z" horiz-adv-x="482" vert-adv-y="1000"/><glyph glyph-name="unie9" unicode="é" d="m357 142 82-46q-28-50-71-77-49-32-124-32-88 0-142 54-62 62-62 161 0 104 67 173 57 57 141 57 82 0 135-55 59-61 59-178v-12H140q4-53 36-85 27-27 75-27 39 0 67 21 23 18 39 46M147 267h195q-6 35-30 57-26 24-66 24-42 0-69-27-22-20-30-54m138 408 90-46-156-144-54 34 120 156Z" horiz-adv-x="482" vert-adv-y="1000"/><glyph glyph-name="uniea" unicode="ê" d="m357 142 82-46q-28-50-71-77-49-32-124-32-88 0-142 54-62 62-62 161 0 104 67 173 57 57 141 57 82 0 135-55 59-61 59-178v-12H140q4-53 36-85 27-27 75-27 39 0 67 21 23 18 39 46M147 267h195q-6 35-30 57-26 24-66 24-42 0-69-27-22-20-30-54m89 304-88-86-66 52 154 138 154-138-66-52-88 86Z" horiz-adv-x="482" vert-adv-y="1000"/><glyph glyph-name="unieb" unicode="ë" d="m357 142 82-46q-28-50-71-77-49-32-124-32-88 0-142 54-62 62-62 161 0 104 67 173 57 57 141 57 82 0 135-55 59-61 59-178v-12H140q4-53 36-85 27-27 75-27 39 0 67 21 23 18 39 46M147 267h195q-6 35-30 57-26 24-66 24-42 0-69-27-22-20-30-54m-37 258-9 9q-9 9-9 35t18 44q18 18 44 18t44-18q18-18 18-44t-18-44q-18-18-44-18t-44 18m180 0-9 9q-9 9-9 35t18 44q18 18 44 18t44-18q18-18 18-44t-18-44q-18-18-44-18t-44 18Z" horiz-adv-x="482" vert-adv-y="1000"/><glyph glyph-name="uniec" unicode="ì" d="M62 421h98V0H62v421m48 54L-5 653l101 23 74-183-60-18Z" horiz-adv-x="222" vert-adv-y="1000"/><glyph glyph-name="unied" unicode="í" d="M62 421h98V0H62v421m64 255 101-23-115-178-60 18 74 183Z" horiz-adv-x="222" vert-adv-y="1000"/><glyph glyph-name="uniee" unicode="î" d="M62 421h98V0H62v421m49 147-70-73-54 46 124 125 124-125-54-46-70 73Z" horiz-adv-x="222" vert-adv-y="1000"/><glyph glyph-name="unief" unicode="ï" d="M62 421h98V0H62v421m-85 104-9 9q-9 9-9 35t18 44q18 18 44 18t44-18q18-18 18-44t-18-44q-18-18-44-18t-44 18m180 0-9 9q-9 9-9 35t18 44q18 18 44 18t44-18q18-18 18-44t-18-44q-18-18-44-18t-44 18Z" horiz-adv-x="222" vert-adv-y="1000"/><glyph glyph-name="unif0" unicode="ð" d="m85 601 29 72q114-14 203-69l131 43 20-61-98-30q46-37 75-94 45-88 45-213 0-104-37-165-59-97-186-97-97 0-159 59-68 66-68 168 0 96 64 160 58 58 150 58 69 0 123-47-22 84-101 139L98 465l-20 60 126 41q-54 28-119 35M265 75q55 0 89 34 36 36 36 100 0 65-35 100-33 35-90 35-52 0-86-32-39-37-39-103 0-62 36-100 32-34 89-34Z" horiz-adv-x="530" vert-adv-y="1000"/><glyph glyph-name="unif1" unicode="ñ" d="M61 0v421h98v-39q45 50 114 50 83 0 124-57 26-37 26-117V0h-98v234q0 38-6 62t-19 33.5q-13 9.5-23.5 12T248 344q-21 0-33.5-3.5t-27-16Q173 312 166 281.5t-7-79.5V0H61m304 622 58-46q-39-86-116-86-23 0-55 16-9 5-16.5 9t-11.5 6q-4 2-7.5 4t-6.5 3q-22 10-37 10-36 0-51-46l-59 41q19 34 42 54 32 27 70 27 22 0 49-10 20-8 46-23 24-15 41-15 41 0 54 56Z" horiz-adv-x="485" vert-adv-y="1000"/><glyph glyph-name="unif2" unicode="ò" d="m104.5 369.5 32.25 31.25Q169 432 265 432t160.5-62.5Q490 307 490 210q0-96-64.5-159.5T265-13q-96 0-160.5 63.5T40 210q0 97 64.5 159.5m69.5-258 17-18.25Q208 75 265 75t91 36.5q34 36.5 34 97.5 0 67-36.5 101T265 344q-52 0-88.5-34T140 209q0-61 34-97.5M271 485 115 629l90 46 120-156-54-34Z" horiz-adv-x="530" vert-adv-y="1000"/><glyph glyph-name="unif3" unicode="ó" d="m104.5 369.5 32.25 31.25Q169 432 265 432t160.5-62.5Q490 307 490 210q0-96-64.5-159.5T265-13q-96 0-160.5 63.5T40 210q0 97 64.5 159.5m69.5-258 17-18.25Q208 75 265 75t91 36.5q34 36.5 34 97.5 0 67-36.5 101T265 344q-52 0-88.5-34T140 209q0-61 34-97.5M320 675l90-46-156-144-54 34 120 156Z" horiz-adv-x="530" vert-adv-y="1000"/><glyph glyph-name="unif4" unicode="ô" d="m104.5 369.5 32.25 31.25Q169 432 265 432t160.5-62.5Q490 307 490 210q0-96-64.5-159.5T265-13q-96 0-160.5 63.5T40 210q0 97 64.5 159.5m69.5-258 17-18.25Q208 75 265 75t91 36.5q34 36.5 34 97.5 0 67-36.5 101T265 344q-52 0-88.5-34T140 209q0-61 34-97.5M265 571l-88-86-66 52 154 138 154-138-66-52-88 86Z" horiz-adv-x="530" vert-adv-y="1000"/><glyph glyph-name="unif5" unicode="õ" d="m104.5 369.5 32.25 31.25Q169 432 265 432t160.5-62.5Q490 307 490 210q0-96-64.5-159.5T265-13q-96 0-160.5 63.5T40 210q0 97 64.5 159.5m69.5-258 17-18.25Q208 75 265 75t91 36.5q34 36.5 34 97.5 0 67-36.5 101T265 344q-52 0-88.5-34T140 209q0-61 34-97.5M387 622l58-46q-39-86-116-86-23 0-55 16-9 5-16.5 9t-11.5 6q-4 2-7.5 4t-6.5 3q-22 10-37 10-36 0-51-46l-59 41q19 34 42 54 32 27 70 27 22 0 49-10 20-8 46-23 24-15 41-15 41 0 54 56Z" horiz-adv-x="530" vert-adv-y="1000"/><glyph glyph-name="unif6" unicode="ö" d="m104.5 369.5 32.25 31.25Q169 432 265 432t160.5-62.5Q490 307 490 210q0-96-64.5-159.5T265-13q-96 0-160.5 63.5T40 210q0 97 64.5 159.5m69.5-258 17-18.25Q208 75 265 75t91 36.5q34 36.5 34 97.5 0 67-36.5 101T265 344q-52 0-88.5-34T140 209q0-61 34-97.5M131 525l-9 9q-9 9-9 35t18 44q18 18 44 18t44-18q18-18 18-44t-18-44q-18-18-44-18t-44 18m180 0-9 9q-9 9-9 35t18 44q18 18 44 18t44-18q18-18 18-44t-18-44q-18-18-44-18t-44 18Z" horiz-adv-x="530" vert-adv-y="1000"/><glyph glyph-name="unif7" unicode="÷" d="m207.5 470.5-8.75 8.75Q190 488 190 513t17.5 42.5Q225 573 250 573t42.5-17.5Q310 538 310 513t-17.5-42.5Q275 453 250 453t-42.5 17.5m0-354-8.75 8.75Q190 134 190 159t17.5 42.5Q225 219 250 219t42.5-17.5Q310 184 310 159t-17.5-42.5Q275 99 250 99t-42.5 17.5M33 291v90h434v-90H33Z" horiz-adv-x="500" vert-adv-y="1000"/><glyph glyph-name="unif8" unicode="ø" d="m10 7 71 73q-41 54-41 130 0 97 64 159.5T265 432q81 0 132-41l71 70 44-46-68-66q46-60 46-139 0-96-64.5-159.5T265-13q-83 0-138 46L60-39 10 7m364 274L193 95q29-20 72-20 52 0 88.5 33.5T390 209q0 40-16 72M152 145l177 184q-30 15-64 15-52 0-88.5-34T140 209q0-31 12-64Z" horiz-adv-x="530" vert-adv-y="1000"/><glyph glyph-name="unif9" unicode="ù" d="M62 421h98V180q0-53 18-76 22-29 64-29t64 29q18 23 18 76v241h98V177q0-93-45-138-52-52-137-52-82 0-133 52-45 45-45 138v244m179 64L85 629l90 46 120-156-54-34Z" horiz-adv-x="484" vert-adv-y="1000"/><glyph glyph-name="unifa" unicode="ú" d="M62 421h98V180q0-53 18-76 22-29 64-29t64 29q18 23 18 76v241h98V177q0-93-45-138-52-52-137-52-82 0-133 52-45 45-45 138v244m243 254 90-46-156-144-54 34 120 156Z" horiz-adv-x="484" vert-adv-y="1000"/><glyph glyph-name="unifb" unicode="û" d="M62 421h98V180q0-53 18-76 22-29 64-29t64 29q18 23 18 76v241h98V177q0-93-45-138-52-52-137-52-82 0-133 52-45 45-45 138v244m180 150-88-86-66 52 154 138 154-138-66-52-88 86Z" horiz-adv-x="484" vert-adv-y="1000"/><glyph glyph-name="unifc" unicode="ü" d="M62 421h98V180q0-53 18-76 22-29 64-29t64 29q18 23 18 76v241h98V177q0-93-45-138-52-52-137-52-82 0-133 52-45 45-45 138v244m46 104-9 9q-9 9-9 35t18 44q18 18 44 18t44-18q18-18 18-44t-18-44q-18-18-44-18t-44 18m180 0-9 9q-9 9-9 35t18 44q18 18 44 18t44-18q18-18 18-44t-18-44q-18-18-44-18t-44 18Z" horiz-adv-x="484" vert-adv-y="1000"/><glyph glyph-name="unifd" unicode="ý" d="M31-229 186 66 6 421h118l120-246 122 246h110L141-229H31m285 904 90-46-156-144-54 34 120 156Z" horiz-adv-x="482" vert-adv-y="1000"/><glyph glyph-name="unife" unicode="þ" d="M160 47v-276H62v958h98V375q48 57 125 57 86 0 145.5-60.5T490 211q0-92-55-158T286-13q-77 0-126 60m113 28q52 0 84.5 39t32.5 95q0 57-32.5 96T273 344q-50 0-84.5-35.5T154 208q0-63 34.5-98T273 75Z" horiz-adv-x="530" vert-adv-y="1000"/><glyph glyph-name="uniff" unicode="ÿ" d="M31-229 186 66 6 421h118l120-246 122 246h110L141-229H31m76 754-9 9q-9 9-9 35t18 44q18 18 44 18t44-18q18-18 18-44t-18-44q-18-18-44-18t-44 18m180 0-9 9q-9 9-9 35t18 44q18 18 44 18t44-18q18-18 18-44t-18-44q-18-18-44-18t-44 18Z" horiz-adv-x="482" vert-adv-y="1000"/><glyph glyph-name="uni0100" unicode="Ā" d="m542 0-70 161H187L114 0H4l332 706L652 0H542M229 257h202l-99 226-103-226m-75 476v80h360v-80H154Z" horiz-adv-x="656" vert-adv-y="1000"/><glyph glyph-name="uni0101" unicode="ā" d="M370 372v49h98V0h-98v44q-49-57-126-57-93 0-148.5 66T40 211q0 100 59.5 160.5T245 432q79 0 125-60m-113-28q-52 0-84.5-39T140 209q0-56 32.5-95T257 75q50 0 84.5 35t34.5 98q0 65-34.5 100.5T257 344M85 508v78h330v-78H85Z" horiz-adv-x="530" vert-adv-y="1000"/><glyph glyph-name="uni0102" unicode="Ă" d="m542 0-70 161H187L114 0H4l332 706L652 0H542M229 257h202l-99 226-103-226m193 617h82q-9-49-40-86-48-58-130-58t-130 58q-31 37-40 86h82q9-33 34-49 22-15 54-15t54 15q25 16 34 49Z" horiz-adv-x="656" vert-adv-y="1000"/><glyph glyph-name="uni0103" unicode="ă" d="M370 372v49h98V0h-98v44q-49-57-126-57-93 0-148.5 66T40 211q0 100 59.5 160.5T245 432q79 0 125-60m-113-28q-52 0-84.5-39T140 209q0-56 32.5-95T257 75q50 0 84.5 35t34.5 98q0 65-34.5 100.5T257 344m76 294h79q-13-60-38-85-40-50-122-50-83 0-125 49-30 36-39 86h79q10-33 30-49 19-16 52-16t53 15q23 18 31 50Z" horiz-adv-x="530" vert-adv-y="1000"/><glyph glyph-name="uni0104" unicode="Ą" d="M334 709 652 0h-32q-30-17-47-34-25-23-25-50 0-14 10-24 10-9 33-9 25 0 49 9l-9-70q-30-15-62-15-50 0-79 28-24 24-24 60 0 35 26 64 19 22 50 41l-70 161H187L114 0H4l330 709M229 257h202l-99 226-103-226Z" horiz-adv-x="656" vert-adv-y="1000"/><glyph glyph-name="uni0105" unicode="ą" d="M370 372v49h98V0h-25q-30-17-51-38-21-22-21-45 0-15 11-25 10-9 30-9 28 0 51 9l-9-62q-29-19-64-19-46 0-75 29-22 22-22 55 0 34 26 64 20 23 51 41v44q-49-57-126-57-84 0-141 57-63 65-63 167 0 105 67 168 55 53 135 53 81 0 128-60m-30-61q-35 33-83 33t-80-34q-37-40-37-101 0-62 37-101 31-33 82-33 50 0 82 34 35 37 35 102 0 56-36 100Z" horiz-adv-x="530" vert-adv-y="1000"/><glyph glyph-name="uni0106" unicode="Ć" d="M574 631V511q-82 74-181 74-108 0-175.5-71.5T150 331q0-107 69-178.5T394 81q99 0 180 77V37q-84-50-183-50-139 0-236 92Q48 179 48 331q0 160 107 261 92 87 241 87 103 0 178-48m-210 96-48 40 138 139 86-60-176-119Z" horiz-adv-x="620" vert-adv-y="1000"/><glyph glyph-name="uni0107" unicode="ć" d="M388 402V292q-53 52-119 52-56 0-93-37-36-36-36-97 0-63 38-101 36-34 89-34 73 0 121 54V20q-53-33-128-33-101 0-160 62-60 62-60 158 0 99 64 163 62 62 169 62 61 0 115-30m-83 273 90-46-156-144-54 34 120 156Z" horiz-adv-x="420" vert-adv-y="1000"/><glyph glyph-name="uni0108" unicode="Ĉ" d="M574 631V511q-82 74-181 74-108 0-175.5-71.5T150 331q0-107 69-178.5T394 81q99 0 180 77V37q-84-50-183-50-139 0-236 92Q48 179 48 331q0 160 107 261 92 87 241 87 103 0 178-48M390 812l-99-82-66 56 165 134 165-134-66-56-99 82Z" horiz-adv-x="620" vert-adv-y="1000"/><glyph glyph-name="uni0109" unicode="ĉ" d="M388 402V292q-53 52-119 52-56 0-93-37-36-36-36-97 0-63 38-101 36-34 89-34 73 0 121 54V20q-53-33-128-33-101 0-160 62-60 62-60 158 0 99 64 163 62 62 169 62 61 0 115-30M260 571l-88-86-66 52 154 138 154-138-66-52-88 86Z" horiz-adv-x="420" vert-adv-y="1000"/><glyph glyph-name="uni010A" unicode="Ċ" d="M574 631V511q-82 74-181 74-108 0-175.5-71.5T150 331q0-107 69-178.5T394 81q99 0 180 77V37q-84-50-183-50-139 0-236 92Q48 179 48 331q0 160 107 261 92 87 241 87 103 0 178-48M341 753l-9.5 9.5Q322 772 322 801t19 48q19 19 48 19t48-19q19-19 19-48t-19-48q-19-19-48-19t-48 19Z" horiz-adv-x="620" vert-adv-y="1000"/><glyph glyph-name="uni010B" unicode="ċ" d="M388 402V292q-53 52-119 52-56 0-93-37-36-36-36-97 0-63 38-101 36-34 89-34 73 0 121 54V20q-53-33-128-33-101 0-160 62-60 62-60 158 0 99 64 163 62 62 169 62 61 0 115-30M218 504l-9.5 9.5Q199 523 199 550t19 46q19 19 46 19t46-19q19-19 19-46t-19-46q-19-19-46-19t-46 19Z" horiz-adv-x="420" vert-adv-y="1000"/><glyph glyph-name="uni010C" unicode="Č" d="M574 631V511q-82 74-181 74-108 0-175.5-71.5T150 331q0-107 69-178.5T394 81q99 0 180 77V37q-84-50-183-50-139 0-236 92Q48 179 48 331q0 160 107 261 92 87 241 87 103 0 178-48M390 838l99 82 66-56-165-134-165 134 66 56 99-82Z" horiz-adv-x="620" vert-adv-y="1000"/><glyph glyph-name="uni010D" unicode="č" d="M388 402V292q-53 52-119 52-56 0-93-37-36-36-36-97 0-63 38-101 36-34 89-34 73 0 121 54V20q-53-33-128-33-101 0-160 62-60 62-60 158 0 99 64 163 62 62 169 62 61 0 115-30M260 589l88 86 66-52-154-138-154 138 66 52 88-86Z" horiz-adv-x="420" vert-adv-y="1000"/><glyph glyph-name="uni010E" unicode="Ď" d="M80 667h140q79 0 138-13.5T468 602q61-46 94.5-116T596 333q0-175-134-269-54-38-110-51T218 0H80v667m102-96V96h44q114 0 177 47 91 69 91 190 0 62-25.5 113T404 525q-64 46-178 46h-44m68 267 99 82 66-56-165-134L85 864l66 56 99-82Z" horiz-adv-x="644" vert-adv-y="1000"/><glyph glyph-name="uni010F" unicode="ď" d="M370 372v357h98V0h-98v44q-49-57-126-57-93 0-148.5 66T40 211q0 100 59.5 160.5T245 432q79 0 125-60m-113-28q-52 0-84.5-39T140 209q0-56 32.5-95T257 75q50 0 84.5 35t34.5 98q0 65-34.5 100.5T257 344m244 134 82 212 88-34-104-206-66 28Z" horiz-adv-x="640" vert-adv-y="1000"/><glyph glyph-name="uni0110" unicode="Đ" d="M80 667h140q79 0 138-13.5T468 602q61-46 94.5-116T596 333q0-172-134-269-57-41-108-52.5T218 0H80v324H0v86h80v257m102-96V410h140v-86H182V96h44q114 0 177 47 91 69 91 190 0 62-25.5 113T404 525q-64 46-178 46h-44Z" horiz-adv-x="644" vert-adv-y="1000"/><glyph glyph-name="uni0111" unicode="đ" d="M370 372v180H150v76h220v101h98V628h72v-76h-72V0h-98v44q-49-57-126-57-93 0-148.5 66T40 211q0 100 59.5 160.5T245 432q79 0 125-60m-113-28q-52 0-84.5-39T140 209q0-56 32.5-95T257 75q50 0 84.5 35t34.5 98q0 67-34.5 101.5T257 344Z" horiz-adv-x="530" vert-adv-y="1000"/><glyph glyph-name="uni0112" unicode="Ē" d="M448 667v-96H182V402h258v-96H182V96h266V0H80v667h368M80 733v80h360v-80H80Z" horiz-adv-x="500" vert-adv-y="1000"/><glyph glyph-name="uni0113" unicode="ē" d="m357 142 82-46q-28-50-71-77-49-32-124-32-88 0-142 54-62 62-62 161 0 104 67 173 57 57 141 57 82 0 135-55 59-61 59-178v-12H140q4-53 36-85 27-27 75-27 39 0 67 21 23 18 39 46M147 267h195q-6 35-30 57-26 24-66 24-42 0-69-27-22-20-30-54M79 508v78h330v-78H79Z" horiz-adv-x="482" vert-adv-y="1000"/><glyph glyph-name="uni0116" unicode="Ė" d="M448 667v-96H182V402h258v-96H182V96h266V0H80v667h368m-225.5 86-9.75 9.5Q203 772 203 801t19.5 48q19.5 19 47.5 19t47.5-19q19.5-19 19.5-48t-19.5-48Q298 734 270 734t-47.5 19Z" horiz-adv-x="500" vert-adv-y="1000"/><glyph glyph-name="uni0117" unicode="ė" d="m357 142 82-46q-28-50-71-77-49-32-124-32-88 0-142 54-62 62-62 161 0 104 67 173 57 57 141 57 82 0 135-55 59-61 59-178v-12H140q4-53 36-85 27-27 75-27 39 0 67 21 23 18 39 46M147 267h195q-6 35-30 57-26 24-66 24-42 0-69-27-22-20-30-54m51 237-9.5 9.5Q179 523 179 550t19 46q19 19 46 19t46-19q19-19 19-46t-19-46q-19-19-46-19t-46 19Z" horiz-adv-x="482" vert-adv-y="1000"/><glyph glyph-name="uni0118" unicode="Ę" d="M448 667v-96H182V412h258v-96H182V96h266V0h-40q-30-17-47-34-25-23-25-50 0-14 10-24 10-9 33-9 25 0 49 9l-9-70q-30-15-62-15-50 0-79 28-24 24-24 60 0 35 26 64 19 22 50 41H80v667h368Z" horiz-adv-x="500" vert-adv-y="1000"/><glyph glyph-name="uni0119" unicode="ę" d="m357 142 82-46q-21-39-56-65-30-23-62-40t-46-32q-20-22-20-42 0-15 11-25 10-9 30-9 28 0 51 9l-9-62q-30-19-61-19-51 0-78 29-22 23-22 55 0 27 20 56 13 19 38 36-82 3-133 54-62 60-62 161 0 106 67 173 57 57 141 57 82 0 135-55 59-61 59-178v-12H140q4-53 36-85 27-27 75-27 39 0 67 21 23 18 39 46M147 267h195q-6 35-30 57-26 24-66 24-42 0-69-27-22-20-30-54Z" horiz-adv-x="482" vert-adv-y="1000"/><glyph glyph-name="uni011A" unicode="Ě" d="M448 667v-96H182V402h258v-96H182V96h266V0H80v667h368M270 838l99 82 66-56-165-134-165 134 66 56 99-82Z" horiz-adv-x="500" vert-adv-y="1000"/><glyph glyph-name="uni011B" unicode="ě" d="m357 142 82-46q-28-50-71-77-49-32-124-32-88 0-142 54-62 62-62 161 0 104 67 173 57 57 141 57 82 0 135-55 59-61 59-178v-12H140q4-53 36-85 27-27 75-27 39 0 67 21 23 18 39 46M147 267h195q-6 35-30 57-26 24-66 24-42 0-69-27-22-20-30-54m97 322 88 86 66-52-154-138L90 623l66 52 88-86Z" horiz-adv-x="482" vert-adv-y="1000"/><glyph glyph-name="uni011C" unicode="Ĝ" d="M425 253v94h275v-5q0-174-99-270-88-85-227-85T147 78Q48 180 48 330q0 75 27 140.5T145 579q45 45 110.5 72.5T396 679q99 0 174-42 69-39 108-100l-81-57q-36 50-82 76-49 29-118 29-107 0-176-69-33-33-52-83t-19-104q0-107 69-181 63-67 167-67 89 0 149 59 49 48 56 113H425m-31 559-99-82-66 56 165 134 165-134-66-56-99 82Z" horiz-adv-x="748" vert-adv-y="1000"/><glyph glyph-name="uni011D" unicode="ĝ" d="M370 375v46h98V34q0-82-14-133.5T399-185q-55-45-140-45-86 0-138 52-51 51-62 131h95q7-40 31-66 27-29 76-29t77 28q32 31 32 106v55q-47-60-128-60-85 0-139 57-63 66-63 167t62 163q57 58 143 58 77 0 125-57m-113-31q-45 0-74-28-43-40-43-107 0-69 42-106 32-28 75-28 49 0 82 34 37 40 37 99 0 68-40 106-30 30-79 30m-7 227-88-86-66 52 154 138 154-138-66-52-88 86Z" horiz-adv-x="530" vert-adv-y="1000"/><glyph glyph-name="uni011E" unicode="Ğ" d="M425 253v94h275v-5q0-174-99-270-88-85-227-85T147 78Q48 180 48 330q0 75 27 140.5T145 579q45 45 110.5 72.5T396 679q99 0 174-42 69-39 108-100l-81-57q-36 50-82 76-49 29-118 29-107 0-176-69-33-33-52-83t-19-104q0-107 69-181 63-67 167-67 89 0 149 59 49 48 56 113H425m57 621h82q-9-49-40-86-48-58-130-58t-130 58q-31 37-40 86h82q9-33 34-49 22-15 54-15t54 15q25 16 34 49Z" horiz-adv-x="748" vert-adv-y="1000"/><glyph glyph-name="uni011F" unicode="ğ" d="M370 375v46h98V34q0-82-14-133.5T399-185q-55-45-140-45-86 0-138 52-51 51-62 131h95q7-40 31-66 27-29 76-29t77 28q32 31 32 106v55q-47-60-128-60-85 0-139 57-63 66-63 167t62 163q57 58 143 58 77 0 125-57m-113-31q-45 0-74-28-43-40-43-107 0-69 42-106 32-28 75-28 49 0 82 34 37 40 37 99 0 68-40 106-30 30-79 30m76 294h79q-13-60-38-85-40-50-122-50-83 0-125 49-30 36-39 86h79q10-33 30-49 19-16 52-16t53 15q23 18 31 50Z" horiz-adv-x="530" vert-adv-y="1000"/><glyph glyph-name="uni0120" unicode="Ġ" d="M425 253v94h275v-5q0-174-99-270-88-85-227-85T147 78Q48 180 48 330q0 75 27 140.5T145 579q45 45 110.5 72.5T396 679q99 0 174-42 69-39 108-100l-81-57q-36 50-82 76-49 29-118 29-107 0-176-69-33-33-52-83t-19-104q0-107 69-181 63-67 167-67 89 0 149 59 49 48 56 113H425m-78 500-9.5 9.5Q328 772 328 801t19 48q19 19 48 19t48-19q19-19 19-48t-19-48q-19-19-48-19t-48 19Z" horiz-adv-x="748" vert-adv-y="1000"/><glyph glyph-name="uni0121" unicode="ġ" d="M370 375v46h98V34q0-82-14-133.5T399-185q-55-45-140-45-86 0-138 52-51 51-62 131h95q7-40 31-66 27-29 76-29t77 28q32 31 32 106v55q-47-60-128-60-85 0-139 57-63 66-63 167t62 163q57 58 143 58 77 0 125-57m-113-31q-45 0-74-28-43-40-43-107 0-69 42-106 32-28 75-28 49 0 82 34 37 40 37 99 0 68-40 106-30 30-79 30m-52 160-9.5 9.5Q186 523 186 550t19 46q19 19 46 19t46-19q19-19 19-46t-19-46q-19-19-46-19t-46 19Z" horiz-adv-x="530" vert-adv-y="1000"/><glyph glyph-name="uni0122" unicode="Ģ" d="M425 253v94h275v-5q0-174-99-270-88-85-227-85T147 78Q48 180 48 330q0 75 27 140.5T145 579q45 45 110.5 72.5T396 679q99 0 174-42 69-39 108-100l-81-57q-36 50-82 76-49 29-118 29-107 0-176-69-33-33-52-83t-19-104q0-107 69-181 63-67 167-67 89 0 149 59 49 48 56 113H425M280-242l72 192 88-34-90-186-70 28Z" horiz-adv-x="748" vert-adv-y="1000"/><glyph glyph-name="uni0123" unicode="ģ" d="M370 375v46h98V34q0-82-14-133.5T399-185q-55-45-140-45-86 0-138 52-51 51-62 131h95q7-40 31-66 27-29 76-29t77 28q32 31 32 106v55q-47-60-128-60-85 0-139 57-63 66-63 167t62 163q57 58 143 58 77 0 125-57m-113-31q-45 0-74-28-43-40-43-107 0-69 42-106 32-28 75-28 49 0 82 34 37 40 37 99 0 68-40 106-30 30-79 30m108 327-72-192-88 34 90 186 70-28Z" horiz-adv-x="530" vert-adv-y="1000"/><glyph glyph-name="uni0124" unicode="Ĥ" d="M182 667V403h286v264h102V0H468v307H182V0H80v667h102m143 145-99-82-66 56 165 134 165-134-66-56-99 82Z" horiz-adv-x="650" vert-adv-y="1000"/><glyph glyph-name="uni0125" unicode="ĥ" d="M62 0v729h98V385q46 47 113 47 84 0 124-57 27-39 27-117V0h-98v249q0 52-19 73-20 22-55 22-48 0-72-35-20-29-20-106V0H62m48 811-88-86-66 52 154 138 154-138-66-52-88 86Z" horiz-adv-x="486" vert-adv-y="1000"/><glyph glyph-name="uni0126" unicode="Ħ" d="M182 667v-53h286v53h102v-53h60v-84h-60V0H468v307H182V0H80v530H20v84h60v53h102m286-137H182V403h286v127Z" horiz-adv-x="650" vert-adv-y="1000"/><glyph glyph-name="uni0127" unicode="ħ" d="M62 0v552h-72v76h72v101h98V628h200v-76H160V385q46 47 113 47 84 0 124-57 27-39 27-117V0h-98v249q0 52-19 73-20 22-55 22-48 0-72-35-20-29-20-106V0H62Z" horiz-adv-x="486" vert-adv-y="1000"/><glyph glyph-name="uni012A" unicode="Ī" d="M80 667h102V0H80v667m-90 66v80h282v-80H-10Z" horiz-adv-x="262" vert-adv-y="1000"/><glyph glyph-name="uni012B" unicode="ī" d="M62 421h98V0H62v421m-72 87v78h242v-78H-10Z" horiz-adv-x="222" vert-adv-y="1000"/><glyph glyph-name="uni012E" unicode="Į" d="M80 667h102V0q-31-17-51-39-21-23-21-45 0-31 40-31 20 0 52 7l-9-70q-33-15-65-15-42 0-71 24.5T28-105q0 34 26 64 19 22 50 41H80v667Z" horiz-adv-x="262" vert-adv-y="1000"/><glyph glyph-name="uni012F" unicode="į" d="M62 421h98V0q-31-17-51-39-21-23-21-45 0-31 40-31 24 0 52 7l-9-62q-27-19-62-19-41 0-70 23.5T10-105q0 34 26 64Q56-18 87 0H62v421m4 129-9 9q-9 9-9 36t18 45q18 18 45 18t45-18q18-18 18-45t-18-45q-18-18-45-18t-45 18Z" horiz-adv-x="222" vert-adv-y="1000"/><glyph glyph-name="uni0130" unicode="İ" d="M80 667h102V0H80v667m3 86-9.5 9.5Q64 772 64 801t19 48q19 19 48 19t48-19q19-19 19-48t-19-48q-19-19-48-19t-48 19Z" horiz-adv-x="262" vert-adv-y="1000"/><glyph glyph-name="uni0131" unicode="ı" d="M62 421h98V0H62v421Z" horiz-adv-x="222" vert-adv-y="1000"/><glyph glyph-name="uni0134" unicode="Ĵ" d="M180 667h102V235q0-102-25-152-48-96-157-96-66 0-118 34l50 86q28-24 70-24 49 0 67 45 11 28 11 107v432m50 145-99-82-66 56 165 134 165-134-66-56-99 82Z" horiz-adv-x="362" vert-adv-y="1000"/><glyph glyph-name="uni0135" unicode="ĵ" d="M62 421h98v-650H62v650m49 150-88-86-66 52 154 138 154-138-66-52-88 86Z" horiz-adv-x="222" vert-adv-y="1000"/><glyph glyph-name="uni0136" unicode="Ķ" d="M182 667V401l258 266h134L273 365 576 0H440L202 296l-20-20V0H80v667h102m8-909 72 192 88-34-90-186-70 28Z" horiz-adv-x="586" vert-adv-y="1000"/><glyph glyph-name="uni0137" unicode="ķ" d="M62 729h98V280l137 141h130L246 246 440 0H316L178 180l-18-18V0H62v729m68-971 72 192 88-34-90-186-70 28Z" horiz-adv-x="442" vert-adv-y="1000"/><glyph glyph-name="uni0139" unicode="Ĺ" d="M80 667h102V96h196V0H80v667m74 60-48 40 138 139 86-60-176-119Z" horiz-adv-x="394" vert-adv-y="1000"/><glyph glyph-name="uni013A" unicode="ĺ" d="M62 729h98V0H62v729m113 206 90-46-156-144-54 34 120 156Z" horiz-adv-x="222" vert-adv-y="1000"/><glyph glyph-name="uni013B" unicode="Ļ" d="M80 667h102V96h196V0H80v667m50-909 72 192 88-34-90-186-70 28Z" horiz-adv-x="394" vert-adv-y="1000"/><glyph glyph-name="uni013C" unicode="ļ" d="M62 729h98V0H62v729M20-242 92-50l88-34-90-186-70 28Z" horiz-adv-x="222" vert-adv-y="1000"/><glyph glyph-name="uni013D" unicode="Ľ" d="M80 667h102V96h196V0H80v667m150-199 82 212 88-34-104-206-66 28Z" horiz-adv-x="394" vert-adv-y="1000"/><glyph glyph-name="uni013E" unicode="ľ" d="M62 729h98V0H62v729m128-251 82 212 88-34-104-206-66 28Z" horiz-adv-x="330" vert-adv-y="1000"/><glyph glyph-name="uni013F" unicode="Ŀ" d="M80 667h102V96h196V0H80v667m194.5-380.5-9.75 9.75Q255 306 255 334t19.5 47.5Q294 401 322 401t47.5-19.5Q389 362 389 334t-19.5-47.5Q350 267 322 267t-47.5 19.5Z" horiz-adv-x="394" vert-adv-y="1000"/><glyph glyph-name="uni0140" unicode="ŀ" d="M62 729h98V0H62v729m179-412-9.5 9.5Q222 336 222 363t19 46q19 19 46 19t46-19q19-19 19-46t-19-46q-19-19-46-19t-46 19Z" horiz-adv-x="352" vert-adv-y="1000"/><glyph glyph-name="uni0141" unicode="Ł" d="M80 667h102V416l120 77v-84l-120-77V96h196V0H80v287L0 236v84l80 51v296Z" horiz-adv-x="394" vert-adv-y="1000"/><glyph glyph-name="uni0142" unicode="ł" d="M62 729h98V514l62 48v-80l-62-48V0H62v374L0 326v80l62 48v275Z" horiz-adv-x="222" vert-adv-y="1000"/><glyph glyph-name="uni0143" unicode="Ń" d="M182 0H80v712l484-507v462h102V-41L182 466V0m175 727-48 40 138 139 86-60-176-119Z" horiz-adv-x="746" vert-adv-y="1000"/><glyph glyph-name="uni0144" unicode="ń" d="M61 0v421h98v-39q45 50 114 50 83 0 124-57 26-37 26-117V0h-98v234q0 38-6 62t-19 33.5q-13 9.5-23.5 12T248 344q-21 0-33.5-3.5t-27-16Q173 312 166 281.5t-7-79.5V0H61m257 675 90-46-156-144-54 34 120 156Z" horiz-adv-x="485" vert-adv-y="1000"/><glyph glyph-name="uni0145" unicode="Ņ" d="M182 0H80v712l484-507v462h102V-41L182 466V0m98-242 72 192 88-34-90-186-70 28Z" horiz-adv-x="746" vert-adv-y="1000"/><glyph glyph-name="uni0146" unicode="ņ" d="M61 0v421h98v-39q45 50 114 50 83 0 124-57 26-37 26-117V0h-98v234q0 38-6 62t-19 33.5q-13 9.5-23.5 12T248 344q-21 0-33.5-3.5t-27-16Q173 312 166 281.5t-7-79.5V0H61m79-242 72 192 88-34-90-186-70 28Z" horiz-adv-x="485" vert-adv-y="1000"/><glyph glyph-name="uni0147" unicode="Ň" d="M182 0H80v712l484-507v462h102V-41L182 466V0m191 838 99 82 66-56-165-134-165 134 66 56 99-82Z" horiz-adv-x="746" vert-adv-y="1000"/><glyph glyph-name="uni0148" unicode="ň" d="M61 0v421h98v-39q45 50 114 50 83 0 124-57 26-37 26-117V0h-98v234q0 38-6 62t-19 33.5q-13 9.5-23.5 12T248 344q-21 0-33.5-3.5t-27-16Q173 312 166 281.5t-7-79.5V0H61m199 589 88 86 66-52-154-138-154 138 66 52 88-86Z" horiz-adv-x="485" vert-adv-y="1000"/><glyph glyph-name="uni014C" unicode="Ō" d="m147 580 49.5 49.5Q246 679 395 679t248-99q99-99 99-247T643 86q-99-99-248-99T147 86q-99 99-99 247t99 247m72-428.5 34.5-35.25Q288 81 395 81t176 70.5Q640 222 640 333t-69 181.5Q502 585 395 585t-176-70.5Q150 444 150 333t69-181.5M215 733v80h360v-80H215Z" horiz-adv-x="790" vert-adv-y="1000"/><glyph glyph-name="uni014D" unicode="ō" d="m104.5 369.5 32.25 31.25Q169 432 265 432t160.5-62.5Q490 307 490 210q0-96-64.5-159.5T265-13q-96 0-160.5 63.5T40 210q0 97 64.5 159.5m69.5-258 17-18.25Q208 75 265 75t91 36.5q34 36.5 34 97.5 0 67-36.5 101T265 344q-52 0-88.5-34T140 209q0-61 34-97.5M100 508v78h330v-78H100Z" horiz-adv-x="530" vert-adv-y="1000"/><glyph glyph-name="uni014E" unicode="Ŏ" d="m147 580 49.5 49.5Q246 679 395 679t248-99q99-99 99-247T643 86q-99-99-248-99T147 86q-99 99-99 247t99 247m72-428.5 34.5-35.25Q288 81 395 81t176 70.5Q640 222 640 333t-69 181.5Q502 585 395 585t-176-70.5Q150 444 150 333t69-181.5M483 874h82q-9-49-40-86-48-58-130-58t-130 58q-31 37-40 86h82q9-33 34-49 22-15 54-15t54 15q25 16 34 49Z" horiz-adv-x="790" vert-adv-y="1000"/><glyph glyph-name="uni014F" unicode="ŏ" d="m104.5 369.5 32.25 31.25Q169 432 265 432t160.5-62.5Q490 307 490 210q0-96-64.5-159.5T265-13q-96 0-160.5 63.5T40 210q0 97 64.5 159.5m69.5-258 17-18.25Q208 75 265 75t91 36.5q34 36.5 34 97.5 0 67-36.5 101T265 344q-52 0-88.5-34T140 209q0-61 34-97.5M348 638h79q-13-60-38-85-40-50-122-50-83 0-125 49-30 36-39 86h79q10-33 30-49 19-16 52-16t53 15q23 18 31 50Z" horiz-adv-x="530" vert-adv-y="1000"/><glyph glyph-name="uni0150" unicode="Ő" d="m147 580 49.5 49.5Q246 679 395 679t248-99q99-99 99-247T643 86q-99-99-248-99T147 86q-99 99-99 247t99 247m72-428.5 34.5-35.25Q288 81 395 81t176 70.5Q640 222 640 333t-69 181.5Q502 585 395 585t-176-70.5Q150 444 150 333t69-181.5M377 906l78-52-156-127-44 36 122 143m200 0 78-52-156-127-44 36 122 143Z" horiz-adv-x="790" vert-adv-y="1000"/><glyph glyph-name="uni0151" unicode="ő" d="m104.5 369.5 32.25 31.25Q169 432 265 432t160.5-62.5Q490 307 490 210q0-96-64.5-159.5T265-13q-96 0-160.5 63.5T40 210q0 97 64.5 159.5m69.5-258 17-18.25Q208 75 265 75t91 36.5q34 36.5 34 97.5 0 67-36.5 101T265 344q-52 0-88.5-34T140 209q0-61 34-97.5M247 675l82-46-146-144-42 34 106 156m180 0 82-46-146-144-42 34 106 156Z" horiz-adv-x="530" vert-adv-y="1000"/><glyph glyph-name="uni0152" unicode="Œ" d="M1006 667v-96H740V412h258v-96H740V96h266V0H638v92Q549-13 395-13 246-13 147 87T48 333q0 148 99 247t248 99q152 0 243-108v96h368M571 514.5l-34.5 35.25Q502 585 395 585t-176-70.5Q150 444 150 333t69-181.5Q288 81 395 81t176 70.5Q640 222 640 333t-69 181.5Z" horiz-adv-x="1058" vert-adv-y="1000"/><glyph glyph-name="uni0153" unicode="œ" d="m713 142 82-46q-28-50-71-77-51-32-121-32-59 0-100 22-42 22-64 59-33-41-76-61-45-20-104-20-94 0-155 64-64 66-64 164 0 86 57 147 68 70 168 70 57 0 102-21t72-60q25 38 66 60 42 21 99 21 83 0 135-55 59-61 59-178v-12H496q4-52 36-85 27-27 75-27 39 0 67 21 23 18 39 46M265 75q51 0 87 33 38 36 38 101 0 63-33 98-35 37-92 37-54 0-88-34-37-37-37-102 0-63 38-101 32-32 87-32m238 192h195q-6 35-30 57-26 24-66 24-42 0-69-27-22-20-30-54Z" horiz-adv-x="838" vert-adv-y="1000"/><glyph glyph-name="uni0154" unicode="Ŕ" d="M80 667h119q118 0 176-39 79-53 79-157 0-71-40.5-121T306 285L514 0H391L200 273h-18V0H80v667m102-94V361h32q13 0 26 1t35.5 7q22.5 6 39 16.5t29 32.5q12.5 22 12.5 52 0 103-139 103h-35m52 154-48 40 138 139 86-60-176-119Z" horiz-adv-x="534" vert-adv-y="1000"/><glyph glyph-name="uni0155" unicode="ŕ" d="M62 0v421h98v-38q19 22 41 35 24 14 60 14 43 0 77-20l-40-89q-24 15-50 15-39 0-61-23-27-29-27-97V0H62m223 675 90-46-156-144-54 34 120 156Z" horiz-adv-x="332" vert-adv-y="1000"/><glyph glyph-name="uni0156" unicode="Ŗ" d="M80 667h119q118 0 176-39 79-53 79-157 0-71-40.5-121T306 285L514 0H391L200 273h-18V0H80v667m102-94V361h32q13 0 26 1t35.5 7q22.5 6 39 16.5t29 32.5q12.5 22 12.5 52 0 103-139 103h-35m-2-815 72 192 88-34-90-186-70 28Z" horiz-adv-x="534" vert-adv-y="1000"/><glyph glyph-name="uni0157" unicode="ŗ" d="M62 0v421h98v-38q19 22 41 35 24 14 60 14 43 0 77-20l-40-89q-24 15-50 15-39 0-61-23-27-29-27-97V0H62m8-242 72 192 88-34-90-186-70 28Z" horiz-adv-x="332" vert-adv-y="1000"/><glyph glyph-name="uni0158" unicode="Ř" d="M80 667h119q118 0 176-39 79-53 79-157 0-71-40.5-121T306 285L514 0H391L200 273h-18V0H80v667m102-94V361h32q13 0 26 1t35.5 7q22.5 6 39 16.5t29 32.5q12.5 22 12.5 52 0 103-139 103h-35m58 265 99 82 66-56-165-134L75 864l66 56 99-82Z" horiz-adv-x="534" vert-adv-y="1000"/><glyph glyph-name="uni0159" unicode="ř" d="M62 0v421h98v-38q19 22 41 35 24 14 60 14 43 0 77-20l-40-89q-24 15-50 15-39 0-61-23-27-29-27-97V0H62m148 589 88 86 66-52-154-138L56 623l66 52 88-86Z" horiz-adv-x="332" vert-adv-y="1000"/><glyph glyph-name="uni015A" unicode="Ś" d="m450 567-82-48q-10 24-30 42-30 24-72 24-45 0-69.5-23T172 505q0-52 72-81l67-27q157-64 157-196 0-95-60.5-154.5T253-13q-97 0-157 67-49 55-56 130l101 22q0-48 28-85 32-40 87-40 47 0 78.5 31t31.5 81q0 46-26.5 71T270 307l-64 27Q70 391 70 503q0 72 52.5 124T265 679q81 0 134-45 31-28 51-67M242 727l-48 40 138 139 86-60-176-119Z" horiz-adv-x="516" vert-adv-y="1000"/><glyph glyph-name="uni015B" unicode="ś" d="m319 358-73-48q-22 36-60 36-19 0-30-11-9-9-9-22 0-15 14-24 3-2 6-3.5l11-5.5 16-8 50-25q42-21 59-39 31-31 31-78 0-56-37-96-43-47-118-47-56 0-91 27-38 28-54 77l80 38q10-29 23-40 16-16 43-16 26 0 40 14t14 33q0 18-13 32-14 14-42 26l-36 17q-42 20-58 36-30 29-30 71 0 53 35 90 38 40 103 40 45 0 78-22 30-19 48-52m-64 317 90-46-156-144-54 34 120 156Z" horiz-adv-x="360" vert-adv-y="1000"/><glyph glyph-name="uni015C" unicode="Ŝ" d="m450 567-82-48q-10 24-30 42-30 24-72 24-45 0-69.5-23T172 505q0-52 72-81l67-27q157-64 157-196 0-95-60.5-154.5T253-13q-97 0-157 67-49 55-56 130l101 22q0-48 28-85 32-40 87-40 47 0 78.5 31t31.5 81q0 46-26.5 71T270 307l-64 27Q70 391 70 503q0 72 52.5 124T265 679q81 0 134-45 31-28 51-67M260 812l-99-82-66 56 165 134 165-134-66-56-99 82Z" horiz-adv-x="516" vert-adv-y="1000"/><glyph glyph-name="uni015D" unicode="ŝ" d="m319 358-73-48q-22 36-60 36-19 0-30-11-9-9-9-22 0-15 14-24 3-2 6-3.5l11-5.5 16-8 50-25q42-21 59-39 31-31 31-78 0-56-37-96-43-47-118-47-56 0-91 27-38 28-54 77l80 38q10-29 23-40 16-16 43-16 26 0 40 14t14 33q0 18-13 32-14 14-42 26l-36 17q-42 20-58 36-30 29-30 71 0 53 35 90 38 40 103 40 45 0 78-22 30-19 48-52M180 571l-88-86-66 52 154 138 154-138-66-52-88 86Z" horiz-adv-x="360" vert-adv-y="1000"/><glyph glyph-name="uni015E" unicode="Ş" d="m450 567-82-48q-10 24-30 42-30 24-72 24-45 0-69.5-23T172 505q0-52 72-81l67-27q157-64 157-196 0-95-60.5-154.5T253-13q-97 0-157 67-49 55-56 130l101 22q0-48 28-85 32-40 87-40 47 0 78.5 31t31.5 81q0 46-26.5 71T270 307l-64 27Q70 391 70 503q0 72 52.5 124T265 679q81 0 134-45 31-28 51-67M240-53l86-38-112-133-64 32 90 139Z" horiz-adv-x="516" vert-adv-y="1000"/><glyph glyph-name="uni015F" unicode="ş" d="m319 358-73-48q-22 36-60 36-19 0-30-11-9-9-9-22 0-15 14-24 3-2 6-3.5l11-5.5 16-8 50-25q42-21 59-39 31-31 31-78 0-56-37-96-43-47-118-47-56 0-91 27-38 28-54 77l80 38q10-29 23-40 16-16 43-16 26 0 40 14t14 33q0 18-13 32-14 14-42 26l-36 17q-42 20-58 36-30 29-30 71 0 53 35 90 38 40 103 40 45 0 78-22 30-19 48-52M168-53l82-32-102-134-64 32 84 134Z" horiz-adv-x="360" vert-adv-y="1000"/><glyph glyph-name="uni0160" unicode="Š" d="m450 567-82-48q-10 24-30 42-30 24-72 24-45 0-69.5-23T172 505q0-52 72-81l67-27q157-64 157-196 0-95-60.5-154.5T253-13q-97 0-157 67-49 55-56 130l101 22q0-48 28-85 32-40 87-40 47 0 78.5 31t31.5 81q0 46-26.5 71T270 307l-64 27Q70 391 70 503q0 72 52.5 124T265 679q81 0 134-45 31-28 51-67M260 838l99 82 66-56-165-134L95 864l66 56 99-82Z" horiz-adv-x="516" vert-adv-y="1000"/><glyph glyph-name="uni0161" unicode="š" d="m319 358-73-48q-22 36-60 36-19 0-30-11-9-9-9-22 0-15 14-24 3-2 6-3.5l11-5.5 16-8 50-25q42-21 59-39 31-31 31-78 0-56-37-96-43-47-118-47-56 0-91 27-38 28-54 77l80 38q10-29 23-40 16-16 43-16 26 0 40 14t14 33q0 18-13 32-14 14-42 26l-36 17q-42 20-58 36-30 29-30 71 0 53 35 90 38 40 103 40 45 0 78-22 30-19 48-52M180 589l88 86 66-52-154-138L26 623l66 52 88-86Z" horiz-adv-x="360" vert-adv-y="1000"/><glyph glyph-name="uni0162" unicode="Ţ" d="M418 571H265V0H163v571H10v96h408v-96M200-53l86-38-112-133-64 32 90 139Z" horiz-adv-x="428" vert-adv-y="1000"/><glyph glyph-name="uni0163" unicode="ţ" d="M238 331h-75V0H65v331H24v90h41v154h98V421h75v-90M98-53l82-32L78-219l-64 32L98-53Z" horiz-adv-x="242" vert-adv-y="1000"/><glyph glyph-name="uni0164" unicode="Ť" d="M418 571H265V0H163v571H10v96h408v-96M214 838l99 82 66-56-165-134L49 864l66 56 99-82Z" horiz-adv-x="428" vert-adv-y="1000"/><glyph glyph-name="uni0165" unicode="ť" d="M238 331h-75V0H65v331H24v90h41v154h98V421h75v-90m-38 147 82 212 88-34-104-206-66 28Z" horiz-adv-x="340" vert-adv-y="1000"/><glyph glyph-name="uni0168" unicode="Ũ" d="M80 667h102V265q0-78 21-115 17-28 50-48.5T327 81q41 0 74 20.5t50 48.5q21 37 21 115v402h102V238q0-105-62-173-72-78-185-78T142 65q-62 68-62 173v429m369 165 58-46q-39-86-116-86-23 0-55 16-9 5-16.5 9t-11.5 6q-4 2-7.5 4t-6.5 3q-22 10-37 10-36 0-51-46l-59 41q19 34 42 54 32 27 70 27 22 0 49-10 20-8 46-23 24-15 41-15 41 0 54 56Z" horiz-adv-x="654" vert-adv-y="1000"/><glyph glyph-name="uni0169" unicode="ũ" d="M62 421h98V180q0-53 18-76 22-29 64-29t64 29q18 23 18 76v241h98V177q0-93-45-138-52-52-137-52-82 0-133 52-45 45-45 138v244m302 201 58-46q-39-86-116-86-23 0-55 16-9 5-16.5 9t-11.5 6q-4 2-7.5 4t-6.5 3q-22 10-37 10-36 0-51-46l-59 41q19 34 42 54 32 27 70 27 22 0 49-10 20-8 46-23 24-15 41-15 41 0 54 56Z" horiz-adv-x="484" vert-adv-y="1000"/><glyph glyph-name="uni016A" unicode="Ū" d="M80 667h102V265q0-78 21-115 17-28 50-48.5T327 81q41 0 74 20.5t50 48.5q21 37 21 115v402h102V238q0-105-62-173-72-78-185-78T142 65q-62 68-62 173v429m67 66v80h360v-80H147Z" horiz-adv-x="654" vert-adv-y="1000"/><glyph glyph-name="uni016B" unicode="ū" d="M62 421h98V180q0-53 18-76 22-29 64-29t64 29q18 23 18 76v241h98V177q0-93-45-138-52-52-137-52-82 0-133 52-45 45-45 138v244m15 87v78h330v-78H77Z" horiz-adv-x="484" vert-adv-y="1000"/><glyph glyph-name="uni016C" unicode="Ŭ" d="M80 667h102V265q0-78 21-115 17-28 50-48.5T327 81q41 0 74 20.5t50 48.5q21 37 21 115v402h102V238q0-105-62-173-72-78-185-78T142 65q-62 68-62 173v429m335 207h82q-9-49-40-86-48-58-130-58t-130 58q-31 37-40 86h82q9-33 34-49 22-15 54-15t54 15q25 16 34 49Z" horiz-adv-x="654" vert-adv-y="1000"/><glyph glyph-name="uni016D" unicode="ŭ" d="M62 421h98V180q0-53 18-76 22-29 64-29t64 29q18 23 18 76v241h98V177q0-93-45-138-52-52-137-52-82 0-133 52-45 45-45 138v244m263 217h79q-13-60-38-85-40-50-122-50-83 0-125 49-30 36-39 86h79q10-33 30-49 19-16 52-16t53 15q23 18 31 50Z" horiz-adv-x="484" vert-adv-y="1000"/><glyph glyph-name="uni016E" unicode="Ů" d="M80 667h102V265q0-78 21-115 17-28 50-48.5T327 81q41 0 74 20.5t50 48.5q21 37 21 115v402h102V238q0-105-62-173-72-78-185-78T142 65q-62 68-62 173v429m150 156q0 41 28.5 69t68.5 28q41 0 69-28t28-69q0-40-28-68.5T327 726q-40 0-68.5 28.5T230 823m66.5 30.5-6.25-6.25Q284 841 284 823t12.5-30.5Q309 780 327 780t30.5 12.5Q370 805 370 823t-12.5 30.5Q345 866 327 866t-30.5-12.5Z" horiz-adv-x="654" vert-adv-y="1000"/><glyph glyph-name="uni016F" unicode="ů" d="M62 421h98V180q0-53 18-76 22-29 64-29t64 29q18 23 18 76v241h98V177q0-93-45-138-52-52-137-52-82 0-133 52-45 45-45 138v244m114 92-14 14q-14 14-14 52t28 66q28 28 66 28t66-28q28-28 28-66t-28-66q-28-28-66-28t-66 28m35.5 96.5-6.25-6.25Q199 597 199 579t12.5-30.5Q224 536 242 536t30.5 12.5Q285 561 285 579t-12.5 30.5Q260 622 242 622t-30.5-12.5Z" horiz-adv-x="484" vert-adv-y="1000"/><glyph glyph-name="uni0170" unicode="Ű" d="M80 667h102V265q0-78 21-115 17-28 50-48.5T327 81q41 0 74 20.5t50 48.5q21 37 21 115v402h102V238q0-105-62-173-72-78-185-78T142 65q-62 68-62 173v429m229 239 78-52-156-127-44 36 122 143m200 0 78-52-156-127-44 36 122 143Z" horiz-adv-x="654" vert-adv-y="1000"/><glyph glyph-name="uni0171" unicode="ű" d="M62 421h98V180q0-53 18-76 22-29 64-29t64 29q18 23 18 76v241h98V177q0-93-45-138-52-52-137-52-82 0-133 52-45 45-45 138v244m162 254 82-46-146-144-42 34 106 156m180 0 82-46-146-144-42 34 106 156Z" horiz-adv-x="484" vert-adv-y="1000"/><glyph glyph-name="uni0172" unicode="Ų" d="M80 667h102V265q0-79 21-115 17-28 50-48.5T327 81q41 0 74 20.5t50 48.5q21 36 21 115v402h102V238q0-96-46-155-32-41-91-75-9-5-25-13.5t-26.5-15Q375-27 366-34q-27-22-27-50 0-16 12-25 10-8 28-8 28 0 52 9l-9-70q-30-15-65-15-50 0-79 31-21 23-21 57 0 31 22 59 12 16 38 36-108 0-175 75-62 68-62 173v429Z" horiz-adv-x="654" vert-adv-y="1000"/><glyph glyph-name="uni0173" unicode="ų" d="M62 421h98V179q0-52 18-76 22-28 64-28t64 28q18 24 18 76v242h98V177q0-28-2-47t-12.5-45Q397 59 377 39q-17-17-64-45-39-24-49-35-20-21-20-42 0-17 10-25 10-9 34-9t48 9l-9-62q-30-19-61-19-51 0-78 29-22 22-22 55 0 29 19 54 18 23 39 39-71 5-117 51-29 29-37 61.5T62 177v244Z" horiz-adv-x="484" vert-adv-y="1000"/><glyph glyph-name="uni0178" unicode="Ÿ" d="M219 0v288L0 667h116l154-267 154 267h116L321 288V0H219m-91 751-9 9q-9 9-9 35t18 44q18 18 44 18t44-18q18-18 18-44t-18-44q-18-18-44-18t-44 18m196 0-9 9q-9 9-9 35t18 44q18 18 44 18t44-18q18-18 18-44t-18-44q-18-18-44-18t-44 18Z" horiz-adv-x="540" vert-adv-y="1000"/><glyph glyph-name="uni0179" unicode="Ź" d="M524 667 196 96h320V0H30l328 571H84v96h440m-250 60-48 40 138 139 86-60-176-119Z" horiz-adv-x="554" vert-adv-y="1000"/><glyph glyph-name="uni017A" unicode="ź" d="M472 421 201 90h250V0H8l273 331H66v90h406M315 675l90-46-156-144-54 34 120 156Z" horiz-adv-x="480" vert-adv-y="1000"/><glyph glyph-name="uni017B" unicode="Ż" d="M524 667 196 96h320V0H30l328 571H84v96h440m-281.5 86-9.75 9.5Q223 772 223 801t19.5 48q19.5 19 47.5 19t47.5-19q19.5-19 19.5-48t-19.5-48Q318 734 290 734t-47.5 19Z" horiz-adv-x="554" vert-adv-y="1000"/><glyph glyph-name="uni017C" unicode="ż" d="M472 421 201 90h250V0H8l273 331H66v90h406m-258 83-9.5 9.5Q195 523 195 550t19 46q19 19 46 19t46-19q19-19 19-46t-19-46q-19-19-46-19t-46 19Z" horiz-adv-x="480" vert-adv-y="1000"/><glyph glyph-name="uni017D" unicode="Ž" d="M524 667 196 96h320V0H30l328 571H84v96h440M290 838l99 82 66-56-165-134-165 134 66 56 99-82Z" horiz-adv-x="554" vert-adv-y="1000"/><glyph glyph-name="uni017E" unicode="ž" d="M472 421 201 90h250V0H8l273 331H66v90h406M260 589l88 86 66-52-154-138-154 138 66 52 88-86Z" horiz-adv-x="480" vert-adv-y="1000"/><glyph glyph-name="uni018F" unicode="Ə" d="m149 478-72 66q31 42 73 71 89 64 203 64 154 0 252-102 95-99 95-244 0-147-102-249-97-97-239-97-160 0-248 124-63 89-63 215v31h549q-7 102-77.5 165T353 585q-126 0-204-107m440-215H157q6-64 44-111 58-71 159-71 110 0 177 77 38 44 52 105Z" horiz-adv-x="748" vert-adv-y="1000"/><glyph glyph-name="uni0192" unicode="ƒ" d="m508 731-18-93q-21 10-44 10-32 0-51-21-18-21-28-74l-24-132h112l-14-78H329L278 64q-9-48-14.5-72t-21-59.5Q227-103 206-123q-64-62-186-53l16 93h6q63 0 90 27 27 26 44 119l51 280h-85l14 78h85l26 144q16 90 58 132 43 43 115 43 36 0 68-9Z" horiz-adv-x="568" vert-adv-y="1000"/><glyph glyph-name="uni01CF" unicode="Ǐ" d="M80 667h102V0H80v667m51 171 79 77 59-49-138-131L-7 866l59 49 79-77Z" horiz-adv-x="262" vert-adv-y="1000"/><glyph glyph-name="uni01D0" unicode="ǐ" d="M62 421h98V0H62v421m49 172 70 73 54-46-124-125-124 125 54 46 70-73Z" horiz-adv-x="222" vert-adv-y="1000"/><glyph glyph-name="uni01DD" unicode="ǝ" d="m133 292-89 30q24 51 73 80 50 30 117 30 93 0 149-52 65-61 65-174 0-104-64-166-54-53-142-53-84 0-135 50-67 65-67 180v25h306q-5 49-35 76-28 26-78 26-38 0-63-16-19-11-37-36m206-130H144q6-45 30-68 23-23 66-23 42 0 68 26 27 27 31 65Z" horiz-adv-x="488" vert-adv-y="1000"/><glyph glyph-name="uni01E6" unicode="Ǧ" d="M425 253v94h275v-5q0-174-99-270-88-85-227-85T147 78Q48 180 48 330q0 75 27 140.5T145 579q45 45 110.5 72.5T396 679q99 0 174-42 69-39 108-100l-81-57q-36 50-82 76-49 29-118 29-107 0-176-69-33-33-52-83t-19-104q0-107 69-181 63-67 167-67 89 0 149 59 49 48 56 113H425m-51 585 99 82 66-56-165-134-165 134 66 56 99-82Z" horiz-adv-x="748" vert-adv-y="1000"/><glyph glyph-name="uni01E7" unicode="ǧ" d="M370 375v46h98V34q0-82-14-133.5T399-185q-55-45-140-45-86 0-138 52-51 51-62 131h95q7-40 31-66 27-29 76-29t77 28q32 31 32 106v55q-47-60-128-60-85 0-139 57-63 66-63 167t62 163q57 58 143 58 77 0 125-57m-113-31q-45 0-74-28-43-40-43-107 0-69 42-106 32-28 75-28 49 0 82 34 37 40 37 99 0 68-40 106-30 30-79 30m8 245 88 86 66-52-154-138-154 138 66 52 88-86Z" horiz-adv-x="530" vert-adv-y="1000"/><glyph glyph-name="uni01FC" unicode="Ǽ" d="m546 0-70 159H193L120 0H10l320 667h295l42-96H402l70-159h258l42-96H514l95-220h265l42-96H546M238 255h198l-95 217-103-217m209 472-48 40 138 139 86-60-176-119Z" horiz-adv-x="926" vert-adv-y="1000"/><glyph glyph-name="uni01FD" unicode="ǽ" d="M99 328v91q57 13 119 13 53 0 87-13 37-14 63-47 24 29 58 43 38 17 87 17 91 0 144-55 59-62 59-178v-12H414q4-52 36-85 27-27 75-27 39 0 67 21 23 18 39 46l82-46q-28-50-71-77-50-32-126-32-51 0-88 18-37 17-60 50-29-35-68-52-38-16-89-16-83 0-129 45-42 41-42 96 0 60 40 98 46 45 128 45 59 0 108-28 0 51-28 76-29 25-86 25-48 0-103-16m121-141q-46 0-69-21-17-16-17-37 0-22 20-39 23-19 66-19 38 0 63 16 27 17 27 44 0 26-31 43-25 13-59 13m201 80h195q-6 35-30 57-26 24-66 24t-69-27q-22-22-30-54m32 408 90-46-156-144-54 34 120 156Z" horiz-adv-x="756" vert-adv-y="1000"/><glyph glyph-name="uni0218" unicode="Ș" d="m450 567-82-48q-10 24-30 42-30 24-72 24-45 0-69.5-23T172 505q0-52 72-81l67-27q157-64 157-196 0-95-60.5-154.5T253-13q-97 0-157 67-49 55-56 130l101 22q0-48 28-85 32-40 87-40 47 0 78.5 31t31.5 81q0 46-26.5 71T270 307l-64 27Q70 391 70 503q0 72 52.5 124T265 679q81 0 134-45 31-28 51-67M160-242l72 192 88-34-90-186-70 28Z" horiz-adv-x="516" vert-adv-y="1000"/><glyph glyph-name="uni0219" unicode="ș" d="m319 358-73-48q-22 36-60 36-19 0-30-11-9-9-9-22 0-15 14-24 3-2 6-3.5l11-5.5 16-8 50-25q42-21 59-39 31-31 31-78 0-56-37-96-43-47-118-47-56 0-91 27-38 28-54 77l80 38q10-29 23-40 16-16 43-16 26 0 40 14t14 33q0 18-13 32-14 14-42 26l-36 17q-42 20-58 36-30 29-30 71 0 53 35 90 38 40 103 40 45 0 78-22 30-19 48-52M80-242l72 192 88-34-90-186-70 28Z" horiz-adv-x="360" vert-adv-y="1000"/><glyph glyph-name="uni021A" unicode="Ț" d="M418 571H265V0H163v571H10v96h408v-96M130-242l72 192 88-34-90-186-70 28Z" horiz-adv-x="428" vert-adv-y="1000"/><glyph glyph-name="uni021B" unicode="ț" d="M238 331h-75V0H65v331H24v90h41v154h98V421h75v-90M30-242l72 192 88-34-90-186-70 28Z" horiz-adv-x="242" vert-adv-y="1000"/><glyph glyph-name="uni0228" unicode="Ȩ" d="M448 667v-96H182V402h258v-96H182V96h266V0H80v667h368M260-53l86-38-112-133-64 32 90 139Z" horiz-adv-x="500" vert-adv-y="1000"/><glyph glyph-name="uni0229" unicode="ȩ" d="m357 142 82-46q-28-50-71-77-49-32-124-32-88 0-142 54-62 62-62 161 0 104 67 173 57 57 141 57 82 0 135-55 59-61 59-178v-12H140q4-53 36-85 27-27 75-27 39 0 67 21 23 18 39 46M147 267h195q-6 35-30 57-26 24-66 24-42 0-69-27-22-20-30-54M249-53l82-32-102-134-64 32 84 134Z" horiz-adv-x="482" vert-adv-y="1000"/><glyph glyph-name="uni0237" unicode="ȷ" d="M62 421h98v-650H62v650Z" horiz-adv-x="222" vert-adv-y="1000"/><glyph glyph-name="uni0259" unicode="ə" d="m133 292-89 30q24 51 73 80 50 30 117 30 93 0 149-52 65-61 65-174 0-104-64-166-54-53-142-53-84 0-135 50-67 65-67 180v25h306q-5 49-35 76-28 26-78 26-38 0-63-16-19-11-37-36m206-130H144q6-45 30-68 23-23 66-23 42 0 68 26 27 27 31 65Z" horiz-adv-x="488" vert-adv-y="1000"/><glyph glyph-name="uni02BC" unicode="ʼ" d="m160 478 82 212 88-34-104-206-66 28Z" horiz-adv-x="500" vert-adv-y="1000"/><glyph glyph-name="uni02C6" unicode="ˆ" d="m250 571-88-86-66 52 154 138 154-138-66-52-88 86Z" horiz-adv-x="500" vert-adv-y="1000"/><glyph glyph-name="uni02C7" unicode="ˇ" d="m250 589 88 86 66-52-154-138L96 623l66 52 88-86Z" horiz-adv-x="500" vert-adv-y="1000"/><glyph glyph-name="uni02C9" unicode="ˉ" d="M85 508v78h330v-78H85Z" horiz-adv-x="500" vert-adv-y="1000"/><glyph glyph-name="uni02D8" unicode="˘" d="M333 638h79q-13-60-38-85-40-50-122-50-83 0-125 49-30 36-39 86h79q10-33 30-49 19-16 52-16t53 15q23 18 31 50Z" horiz-adv-x="500" vert-adv-y="1000"/><glyph glyph-name="uni02D9" unicode="˙" d="m204 504-9.5 9.5Q185 523 185 550t19 46q19 19 46 19t46-19q19-19 19-46t-19-46q-19-19-46-19t-46 19Z" horiz-adv-x="500" vert-adv-y="1000"/><glyph glyph-name="uni02DA" unicode="˚" d="m184 513-14 14q-14 14-14 52t28 66q28 28 66 28t66-28q28-28 28-66t-28-66q-28-28-66-28t-66 28m35.5 96.5-6.25-6.25Q207 597 207 579t12.5-30.5Q232 536 250 536t30.5 12.5Q293 561 293 579t-12.5 30.5Q268 622 250 622t-30.5-12.5Z" horiz-adv-x="500" vert-adv-y="1000"/><glyph glyph-name="uni02DB" unicode="˛" d="M249 0h73q-31-17-51-39-21-23-21-45 0-31 40-31 24 0 52 7l-9-62q-30-19-62-19-41 0-70 23t-29 61q0 34 26 64 20 23 51 41Z" horiz-adv-x="500" vert-adv-y="1000"/><glyph glyph-name="uni02DC" unicode="˜" d="m372 622 58-46q-39-86-116-86-23 0-55 16-9 5-16.5 9t-11.5 6q-4 2-7.5 4t-6.5 3q-22 10-37 10-36 0-51-46l-59 41q19 34 42 54 32 27 70 27 22 0 49-10 20-8 46-23 24-15 41-15 41 0 54 56Z" horiz-adv-x="500" vert-adv-y="1000"/><glyph glyph-name="uni02DD" unicode="˝" d="m232 675 82-46-146-144-42 34 106 156m180 0 82-46-146-144-42 34 106 156Z" horiz-adv-x="500" vert-adv-y="1000"/><glyph glyph-name="uni0301" unicode="́" d="m-173 675 90-46-156-144-54 34 120 156Z" horiz-adv-x="2" vert-adv-y="1000"/><glyph glyph-name="uni0394" unicode="Δ" d="M644 0H24l256 667h104L644 0M332 529 172 96h320L332 529Z" horiz-adv-x="668" vert-adv-y="1000"/><glyph glyph-name="uni2206" unicode="∆" d="M644 0H24l256 667h104L644 0M332 529 172 96h320L332 529Z" horiz-adv-x="668" vert-adv-y="1000"/><glyph glyph-name="uni03A9" unicode="Ω" d="M374 0v108q71 30 114 90 48 65 48 153 0 112-69 179-58 55-134 55-77 0-134-55-69-67-69-179 0-88 48-153 43-60 114-90V0H28v96h161q-80 40-124 117-37 63-37 144 0 150 93 241 82 81 212 81t212-81q93-91 93-241 0-81-37-144-44-77-124-117h161V0H374Z" horiz-adv-x="666" vert-adv-y="1000"/><glyph glyph-name="uni2126" unicode="Ω" d="M374 0v108q71 30 114 90 48 65 48 153 0 112-69 179-58 55-134 55-77 0-134-55-69-67-69-179 0-88 48-153 43-60 114-90V0H28v96h161q-80 40-124 117-37 63-37 144 0 150 93 241 82 81 212 81t212-81q93-91 93-241 0-81-37-144-44-77-124-117h161V0H374Z" horiz-adv-x="666" vert-adv-y="1000"/><glyph glyph-name="uni03C0" unicode="π" d="M195 0H97v331H22v90h510v-90h-75V0h-98v331H195V0Z" horiz-adv-x="554" vert-adv-y="1000"/><glyph glyph-name="uni0401" unicode="Ё" d="M448 667v-96H182V402h258v-96H182V96h266V0H80v667h368m-326 84-9 9q-9 9-9 35t18 44q18 18 44 18t44-18q18-18 18-44t-18-44q-18-18-44-18t-44 18m196 0-9 9q-9 9-9 35t18 44q18 18 44 18t44-18q18-18 18-44t-18-44q-18-18-44-18t-44 18Z" horiz-adv-x="500" vert-adv-y="1000"/><glyph glyph-name="uni0402" unicode="Ђ" d="M486 571H266V385q71 23 137 23 80 0 130-30 87-51 87-179 0-116-73-168Q496-6 407-6q-27 0-67 6v94q27-6 64-6 51 0 78 21 34 28 34 89 0 71-53 100-31 16-77 16-68 0-120-23V0H164v571H10v96h476v-96Z" horiz-adv-x="668" vert-adv-y="1000"/><glyph glyph-name="uni0403" unicode="Ѓ" d="M80 0v667h334v-96H182V0H80m154 727-48 40 138 139 86-60-176-119Z" horiz-adv-x="428" vert-adv-y="1000"/><glyph glyph-name="uni0404" unicode="Є" d="M574 631V511q-81 74-181 74-115 0-178-70-47-51-59-125h328v-96H153q7-81 61-139 67-74 180-74 99 0 180 77V37q-84-50-183-50-139 0-236 92Q48 179 48 331q0 160 107 261 92 87 241 87 103 0 178-48Z" horiz-adv-x="620" vert-adv-y="1000"/><glyph glyph-name="uni0405" unicode="Ѕ" d="m450 567-82-48q-10 24-30 42-30 24-72 24-45 0-69.5-23T172 505q0-52 72-81l67-27q157-64 157-196 0-95-60.5-154.5T253-13q-97 0-157 67-49 55-56 130l101 22q0-48 28-85 32-40 87-40 47 0 78.5 31t31.5 81q0 46-26.5 71T270 307l-64 27Q70 391 70 503q0 72 52.5 124T265 679q81 0 134-45 31-28 51-67Z" horiz-adv-x="516" vert-adv-y="1000"/><glyph glyph-name="uni0406" unicode="І" d="M80 667h102V0H80v667Z" horiz-adv-x="262" vert-adv-y="1000"/><glyph glyph-name="uni0407" unicode="Ї" d="M80 667h102V0H80v667m-51 88.5-7.5 8.25Q14 772 14 795t15 39.5Q44 851 64 851t35.5-17q15.5-17 15.5-39t-15.5-39Q84 739 64 739t-35 16.5m134 0-7.5 8.25Q148 772 148 795t15 39.5q15 16.5 35 16.5t35-16.5q15-16.5 15-39.5t-15-39.5Q218 739 198 739t-35 16.5Z" horiz-adv-x="262" vert-adv-y="1000"/><glyph glyph-name="uni0408" unicode="Ј" d="M180 667h102V235q0-102-25-152-48-96-157-96-66 0-118 34l50 86q28-24 70-24 49 0 67 45 11 28 11 107v432Z" horiz-adv-x="362" vert-adv-y="1000"/><glyph glyph-name="uni0409" unicode="Љ" d="M144 667h426V398h76q107 0 167-53 63-55 63-147 0-48-21.5-91.5T793 36Q739 0 647 0H468v571H246V239q0-48-3-77.5T224.5 95Q209 58 180 34 131-6 59-6 38-6 14 0v94q20-6 37-6 37 0 60 23 16 15 23.5 45.5T143 207q1 20 1 62v398m426-365V96h72q134 0 134 101 0 44-29.5 74.5T644 302h-74Z" horiz-adv-x="900" vert-adv-y="1000"/><glyph glyph-name="uni040A" unicode="Њ" d="M182 667V403h286v264h102V403h76q107 0 167-53 63-55 63-147 0-113-83-167Q739 0 647 0H468v307H182V0H80v667h102m388-360V96h72q76 0 108 32 26 26 26 74t-28 74q-33 31-104 31h-74Z" horiz-adv-x="900" vert-adv-y="1000"/><glyph glyph-name="uni040B" unicode="Ћ" d="M486 571H266V393q62 7 129 7 118 0 170-41 65-51 65-162V0H528v182q0 75-36 103-27 21-106 21-55 0-120-7V0H164v571H10v96h476v-96Z" horiz-adv-x="690" vert-adv-y="1000"/><glyph glyph-name="uni040C" unicode="Ќ" d="M182 667V401l258 266h134L273 365 576 0H440L202 296l-20-20V0H80v667h102m95 60-48 40 138 139 86-60-176-119Z" horiz-adv-x="586" vert-adv-y="1000"/><glyph glyph-name="uni040E" unicode="Ў" d="M6 667h124l172-356 156 356h106L263 0H157l86 189L6 667m123 165 80 36q6-19 18.5-31.5t28-17q15.5-4.5 23.5-6t15-1.5q7 0 15 1.5t23.5 6q15.5 4.5 28 17T379 868l80-36q-23-56-69.5-79T294 730q-49 0-95.5 23T129 832Z" horiz-adv-x="570" vert-adv-y="1000"/><glyph glyph-name="uni040F" unicode="Џ" d="M80 0v667h102V96h276v571h102V0H368v-166h-96V0H80Z" horiz-adv-x="640" vert-adv-y="1000"/><glyph glyph-name="uni0410" unicode="А" d="m542 0-70 161H187L114 0H4l332 706L652 0H542M229 257h202l-99 226-103-226Z" horiz-adv-x="656" vert-adv-y="1000"/><glyph glyph-name="uni0411" unicode="Б" d="M80 0v667h334v-96H182V398h66q107 0 167-53 63-55 63-147 0-48-21.5-91.5T395 36Q341 0 249 0H80m102 302V96h62q134 0 134 101 0 44-29.5 74.5T246 302h-64Z" horiz-adv-x="526" vert-adv-y="1000"/><glyph glyph-name="uni0412" unicode="В" d="M80 667h101q68 0 110-11t74-41q53-50 53-132 0-47-20-79-18-31-50-46 52-13 86-48 44-46 44-125 0-73-44-120Q372 0 247 0H80v667m102-96V380h31q56 0 83 26 26 25 26 76 0 41-24 64-26 25-81 25h-35m0-275V96h62q69 0 101 26 33 26 33 74 0 43-27 70-31 30-105 30h-64Z" horiz-adv-x="526" vert-adv-y="1000"/><glyph glyph-name="uni0413" unicode="Г" d="M80 0v667h334v-96H182V0H80Z" horiz-adv-x="428" vert-adv-y="1000"/><glyph glyph-name="uni0414" unicode="Д" d="M144 667h416V96h76v-246h-96V0H110v-150H14V96q34-1 62 24.5t44 65.5q24 61 24 175v306m102-96V361q0-125-23-186-18-46-52-79h287v475H246Z" horiz-adv-x="650" vert-adv-y="1000"/><glyph glyph-name="uni0415" unicode="Е" d="M448 667v-96H182V402h258v-96H182V96h266V0H80v667h368Z" horiz-adv-x="500" vert-adv-y="1000"/><glyph glyph-name="uni0416" unicode="Ж" d="M372 667h102V398l238 269h124L561 361 842 0H716L490 294l-16-18V0H372v276l-16 18L130 0H4l281 361L10 667h124l238-269v269Z" horiz-adv-x="846" vert-adv-y="1000"/><glyph glyph-name="uni0417" unicode="З" d="m137 516-67 65q37 49 86 72 50 25 121 25 100 0 155-53 48-47 48-117 0-48-22-83-21-36-60-58 55-14 90-59 34-43 34-113 0-90-67-149-68-58-180-58-95 0-164 52-54 42-85 108l90 46q20-51 62-81 44-31 110-31t102 36q32 32 32 82 0 52-39 78-37 26-121 26h-60v96h54q64 0 96 27 30 25 30 68 0 45-32 69-26 20-77 20-48 0-81-19-32-18-55-49Z" horiz-adv-x="570" vert-adv-y="1000"/><glyph glyph-name="uni0418" unicode="И" d="M530 0v449L80-30v697h102V216l450 479V0H530Z" horiz-adv-x="712" vert-adv-y="1000"/><glyph glyph-name="uni0419" unicode="Й" d="M530 0v449L80-30v697h102V216l450 479V0H530M191 832l80 36q6-19 18.5-31.5t28-17q15.5-4.5 23.5-6t15-1.5q7 0 15 1.5t23.5 6q15.5 4.5 28 17T441 868l80-36q-23-56-69.5-79T356 730q-49 0-95.5 23T191 832Z" horiz-adv-x="712" vert-adv-y="1000"/><glyph glyph-name="uni041A" unicode="К" d="M182 667V401l258 266h134L273 365 576 0H440L202 296l-20-20V0H80v667h102Z" horiz-adv-x="586" vert-adv-y="1000"/><glyph glyph-name="uni041B" unicode="Л" d="M144 667h426V0H468v571H246V239q0-48-3-77.5T224.5 95Q209 58 180 34 131-6 59-6 38-6 14 0v94q20-6 37-6 37 0 60 23 16 15 23.5 45.5T143 207q1 20 1 62v398Z" horiz-adv-x="650" vert-adv-y="1000"/><glyph glyph-name="uni041C" unicode="М" d="M164 0H60l140 717 232-518 234 518L792 0H688l-68 402L426-31 234 403 164 0Z" horiz-adv-x="852" vert-adv-y="1000"/><glyph glyph-name="uni041D" unicode="Н" d="M182 667V403h286v264h102V0H468v307H182V0H80v667h102Z" horiz-adv-x="650" vert-adv-y="1000"/><glyph glyph-name="uni041E" unicode="О" d="m147 580 49.5 49.5Q246 679 395 679t248-99q99-99 99-247T643 86q-99-99-248-99T147 86q-99 99-99 247t99 247m72-428.5 34.5-35.25Q288 81 395 81t176 70.5Q640 222 640 333t-69 181.5Q502 585 395 585t-176-70.5Q150 444 150 333t69-181.5Z" horiz-adv-x="790" vert-adv-y="1000"/><glyph glyph-name="uni041F" unicode="П" d="M80 667h490V0H468v571H182V0H80v667Z" horiz-adv-x="650" vert-adv-y="1000"/><glyph glyph-name="uni0420" unicode="Р" d="M80 667h147q92 0 146-36 40-27 61.5-70.5T456 469q0-90-65-146-61-52-163-52h-46V0H80v667m102-94V365h46q64 0 97 28.5t33 76.5q0 17-4.5 32t-17 32.5Q324 552 296 562.5T227 573h-45Z" horiz-adv-x="480" vert-adv-y="1000"/><glyph glyph-name="uni0421" unicode="С" d="M574 631V511q-82 74-181 74-108 0-175.5-71.5T150 331q0-107 69-178.5T394 81q99 0 180 77V37q-84-50-183-50-139 0-236 92Q48 179 48 331q0 160 107 261 92 87 241 87 103 0 178-48Z" horiz-adv-x="620" vert-adv-y="1000"/><glyph glyph-name="uni0422" unicode="Т" d="M418 571H265V0H163v571H10v96h408v-96Z" horiz-adv-x="428" vert-adv-y="1000"/><glyph glyph-name="uni0423" unicode="У" d="M6 667h124l172-356 156 356h106L263 0H157l86 189L6 667Z" horiz-adv-x="570" vert-adv-y="1000"/><glyph glyph-name="uni0424" unicode="Ф" d="M362 0v94h-18q-148 0-222 72.5T48 354q0 115 74 187.5T344 614h18v80h102v-80h18q148 0 222-72.5T778 354q0-115-74-187.5T482 94h-18V0H362m0 188v332h-20q-96 0-144-45.5T150 354q0-75 48-120.5T342 188h20m102 332V188h20q96 0 144 45.5T676 354q0 75-48 120.5T484 520h-20Z" horiz-adv-x="826" vert-adv-y="1000"/><glyph glyph-name="uni0425" unicode="Х" d="m10 0 210 348L36 667h114l130-226 133 226h114L335 348 536 0H422L276 255 124 0H10Z" horiz-adv-x="546" vert-adv-y="1000"/><glyph glyph-name="uni0426" unicode="Ц" d="M80 0v667h102V96h276v571h102V96h86v-246h-96V0H80Z" horiz-adv-x="660" vert-adv-y="1000"/><glyph glyph-name="uni0427" unicode="Ч" d="M424 0v274q-91-7-136-7-111 0-163 41-65 51-65 162v197h102V485q0-75 36-103 27-21 106-21 57 0 120 7v299h102V0H424Z" horiz-adv-x="606" vert-adv-y="1000"/><glyph glyph-name="uni0428" unicode="Ш" d="M80 0v667h102V96h236v571h102V96h236v571h102V0H80Z" horiz-adv-x="938" vert-adv-y="1000"/><glyph glyph-name="uni0429" unicode="Щ" d="M80 0v667h102V96h236v571h102V96h236v571h102V96h86v-246h-96V0H80Z" horiz-adv-x="958" vert-adv-y="1000"/><glyph glyph-name="uni042A" unicode="Ъ" d="M160 0v571H10v96h252V398h76q107 0 167-53 63-55 63-147 0-48-21.5-91.5T485 36Q431 0 339 0H160m102 302V96h72q134 0 134 101 0 44-29.5 74.5T336 302h-74Z" horiz-adv-x="592" vert-adv-y="1000"/><glyph glyph-name="uni042B" unicode="Ы" d="M80 0v667h102V398h76q107 0 167-53 63-55 63-147 0-48-21.5-91.5T405 36Q351 0 259 0H80m102 302V96h72q134 0 134 101 0 44-29.5 74.5T256 302h-74m376 365h102V0H558v667Z" horiz-adv-x="740" vert-adv-y="1000"/><glyph glyph-name="uni042C" unicode="Ь" d="M80 0v667h102V398h76q107 0 167-53 63-55 63-147 0-48-21.5-91.5T405 36Q351 0 259 0H80m102 302V96h72q134 0 134 101 0 44-29.5 74.5T256 302h-74Z" horiz-adv-x="512" vert-adv-y="1000"/><glyph glyph-name="uni042D" unicode="Э" d="M48 511v120q84 48 193 48 146 0 234-87 99-98 99-258 0-157-99-256-91-91-237-91-106 0-190 50v121q76-77 190-77 102 0 162 60t68 149H138v96h328q-9 81-61 135-62 64-166 64-108 0-191-74Z" horiz-adv-x="622" vert-adv-y="1000"/><glyph glyph-name="uni042E" unicode="Ю" d="M182 402h100q17 104 89 178 97 99 244 99 146 0 241.5-99T952 333q0-148-96-247T615-13q-166 0-261 117-69 86-72 202H182V0H80v667h102V402m264-250 33-35.5Q512 81 615 81t169 71q66 71 66 181t-66 181q-66 71-169 71t-169-71q-66-71-66-181t66-181Z" horiz-adv-x="1000" vert-adv-y="1000"/><glyph glyph-name="uni042F" unicode="Я" d="m20 0 198 278q-59 7-103 45-57 50-57 142 0 84 51 139 27 29 64 44t60 17q23 2 57 2h164V0H352v267h-24L146 0H20m332 573h-50q-82 0-114-31-32-30-32-77 0-54 38-80 36-24 102-24h56v212Z" horiz-adv-x="534" vert-adv-y="1000"/><glyph glyph-name="uni0430" unicode="а" d="M370 372v49h98V0h-98v44q-49-57-126-57-93 0-148.5 66T40 211q0 100 59.5 160.5T245 432q79 0 125-60m-113-28q-52 0-84.5-39T140 209q0-56 32.5-95T257 75q50 0 84.5 35t34.5 98q0 65-34.5 100.5T257 344Z" horiz-adv-x="530" vert-adv-y="1000"/><glyph glyph-name="uni0431" unicode="б" d="M380 710h100q-11-52-46-90t-86-52l-66-18q-26-7-40-12t-34.5-18.5Q187 506 173 487q-33-44-35-114h1q44 59 143 59 89 0 147-60 61-63 61-160 0-98-64.5-161.5T265-13q-96 0-154 56-32 30-49 74t-19.5 72.5Q40 218 40 259q0 196 64 289 48 71 126 90l70 17q69 17 80 55M174 111.5l17-18.25Q208 75 265 75t91 36.5q34 36.5 34 97.5 0 67-36.5 101T265 344q-52 0-88.5-34T140 209q0-61 34-97.5Z" horiz-adv-x="530" vert-adv-y="1000"/><glyph glyph-name="uni0432" unicode="в" d="M62 421h165q63 0 96-25 39-31 39-81 0-57-50-82 32-6 57-28 33-30 33-81 0-61-46-96-38-28-97-28H62v421m98-164h50q26 0 39 9 19 12 19 34 0 21-17 33-12 8-43 8h-48v-84m0-177h73q33 0 51 12 20 13 20 37 0 26-19 37-17 11-49 11h-76V80Z" horiz-adv-x="442" vert-adv-y="1000"/><glyph glyph-name="uni0433" unicode="г" d="M62 0v421h258v-90H160V0H62Z" horiz-adv-x="328" vert-adv-y="1000"/><glyph glyph-name="uni0434" unicode="д" d="M98 421h316V90h64v-210h-90V0H94v-120H4V90q51 3 77 55 17 37 17 111v165M316 90v241H192V219q0-91-49-129h173Z" horiz-adv-x="486" vert-adv-y="1000"/><glyph glyph-name="uni0435" unicode="е" d="m357 142 82-46q-28-50-71-77-49-32-124-32-88 0-142 54-62 62-62 161 0 104 67 173 57 57 141 57 82 0 135-55 59-61 59-178v-12H140q4-53 36-85 27-27 75-27 39 0 67 21 23 18 39 46M147 267h195q-6 35-30 57-26 24-66 24-42 0-69-27-22-20-30-54Z" horiz-adv-x="482" vert-adv-y="1000"/><glyph glyph-name="uni0436" unicode="ж" d="M263 421h98V265l127 156h118L443 229 622 0H500L373 169l-12-14V0h-98v155l-12 14L124 0H2l179 229L18 421h118l127-156v156Z" horiz-adv-x="624" vert-adv-y="1000"/><glyph glyph-name="uni0437" unicode="з" d="m119 312-63 55q24 29 64 47 42 18 99 18 66 0 107-29 44-32 44-86 0-35-18-58-15-20-40-30 38-8 61-31 27-27 27-70 0-57-36-93-48-48-148-48-67 0-110 25-45 26-66 75l78 40q14-30 37-44 25-16 63-16 46 0 67 21 15 17 15 37 0 21-13 34-17 18-70 18h-44v80h37q32 0 48 11 18 14 18 37 0 24-18 36-15 11-47 11-30 0-55-12-21-10-37-28Z" horiz-adv-x="440" vert-adv-y="1000"/><glyph glyph-name="uni0438" unicode="и" d="M62 421h98V182l288 277V0h-98v245L62-32v453Z" horiz-adv-x="510" vert-adv-y="1000"/><glyph glyph-name="uni0439" unicode="й" d="M62 421h98V182l288 277V0h-98v245L62-32v453m32 182 80 23q19-65 82-65 62 0 82 65l80-23q-16-57-64.5-87.5T256 485q-49 0-97.5 30.5T94 603Z" horiz-adv-x="510" vert-adv-y="1000"/><glyph glyph-name="uni043A" unicode="к" d="M62 421h98V271l140 150h130L246 237 440 0H316L176 173l-16-16V0H62v421Z" horiz-adv-x="442" vert-adv-y="1000"/><glyph glyph-name="uni043B" unicode="л" d="M408 421V0h-98v331H186V164q0-78-40-121Q95-14 8 0v90q43-10 69 19 15 18 15 55v257h316Z" horiz-adv-x="470" vert-adv-y="1000"/><glyph glyph-name="uni043C" unicode="м" d="m14 0 102 459 174-321 174 321L566 0H466l-42 211L290-32 156 211 114 0H14Z" horiz-adv-x="580" vert-adv-y="1000"/><glyph glyph-name="uni043D" unicode="н" d="M62 0v421h98V265h174v156h98V0h-98v175H160V0H62Z" horiz-adv-x="494" vert-adv-y="1000"/><glyph glyph-name="uni043E" unicode="о" d="m104.5 369.5 32.25 31.25Q169 432 265 432t160.5-62.5Q490 307 490 210q0-96-64.5-159.5T265-13q-96 0-160.5 63.5T40 210q0 97 64.5 159.5m69.5-258 17-18.25Q208 75 265 75t91 36.5q34 36.5 34 97.5 0 67-36.5 101T265 344q-52 0-88.5-34T140 209q0-61 34-97.5Z" horiz-adv-x="530" vert-adv-y="1000"/><glyph glyph-name="uni043F" unicode="п" d="M62 421h366V0h-98v331H160V0H62v421Z" horiz-adv-x="490" vert-adv-y="1000"/><glyph glyph-name="uni0440" unicode="р" d="M160 49v-278H62v650h98v-46q48 57 125 57 86 0 145.5-60.5T490 213q0-101-62-163.5T286-13q-75 0-126 62m113 295q-50 0-84.5-35.5T154 208q0-63 34.5-98T273 75q52 0 84.5 39t32.5 95q0 57-32.5 96T273 344Z" horiz-adv-x="530" vert-adv-y="1000"/><glyph glyph-name="uni0441" unicode="с" d="M388 402V292q-53 52-119 52-56 0-93-37-36-36-36-97 0-63 38-101 36-34 89-34 73 0 121 54V20q-53-33-128-33-101 0-160 62-60 62-60 158 0 99 64 163 62 62 169 62 61 0 115-30Z" horiz-adv-x="420" vert-adv-y="1000"/><glyph glyph-name="uni0442" unicode="т" d="M352 331H229V0h-98v331H8v90h344v-90Z" horiz-adv-x="360" vert-adv-y="1000"/><glyph glyph-name="uni0443" unicode="у" d="M31-229 186 66 6 421h118l120-246 122 246h110L141-229H31Z" horiz-adv-x="482" vert-adv-y="1000"/><glyph glyph-name="uni0444" unicode="ф" d="M286-229V-7Q178-8 113 48q-71 60-71 163 0 102 70 162 64 55 174 55v239h98V428q110 0 174-55 70-60 70-162 0-103-71-163Q492-8 384-7v-222h-98m0 310v259q-58 0-92-22-52-31-52-107 0-71 49-105 38-27 95-25m98 259V81q57-2 95 25 49 34 49 105 0 76-52 107-34 22-92 22Z" horiz-adv-x="670" vert-adv-y="1000"/><glyph glyph-name="uni0445" unicode="х" d="m6 0 186 228L42 421h116l93-123 94 123h120L310 228 490 0H372L251 157 126 0H6Z" horiz-adv-x="496" vert-adv-y="1000"/><glyph glyph-name="uni0446" unicode="ц" d="M62 0v421h98V90h166v331h98V90h70v-210h-90V0H62Z" horiz-adv-x="502" vert-adv-y="1000"/><glyph glyph-name="uni0447" unicode="ч" d="M290 0v163q-45-9-86-9-72 0-111 31-41 33-41 101v135h98V306q0-43 25-58 17-10 49-10 36 0 66 11v172h98V0h-98Z" horiz-adv-x="450" vert-adv-y="1000"/><glyph glyph-name="uni0448" unicode="ш" d="M62 0v421h98V90h140v331h98V90h140v331h98V0H62Z" horiz-adv-x="698" vert-adv-y="1000"/><glyph glyph-name="uni0449" unicode="щ" d="M62 0v421h98V90h140v331h98V90h140v331h98V90h70v-210h-90V0H62Z" horiz-adv-x="714" vert-adv-y="1000"/><glyph glyph-name="uni044A" unicode="ъ" d="M98 0v331H8v90h188V272h56q27 0 44-1.5t41-11.5q24-10 42-30 33-37 33-92 0-63-38-101-17-17-40.5-25.5t-39-9.5Q279 0 251 0H98m98 84h45q36 0 51 9 22 16 22 43 0 28-21 42-16 10-51 10h-46V84Z" horiz-adv-x="436" vert-adv-y="1000"/><glyph glyph-name="uni044B" unicode="ы" d="M62 0v421h98V272h56q27 0 44-1.5t41-11.5q24-10 42-30 33-37 33-92 0-63-38-101-17-17-40.5-25.5t-39-9.5Q243 0 215 0H62m98 84h45q36 0 51 9 22 16 22 43 0 28-21 42-16 10-51 10h-46V84M420 0v421h98V0h-98Z" horiz-adv-x="580" vert-adv-y="1000"/><glyph glyph-name="uni044C" unicode="ь" d="M62 0v421h98V272h56q27 0 44-1.5t41-11.5q24-10 42-30 33-37 33-92 0-63-38-101-17-17-40.5-25.5t-39-9.5Q243 0 215 0H62m98 84h45q36 0 51 9 22 16 22 43 0 28-21 42-16 10-51 10h-46V84Z" horiz-adv-x="400" vert-adv-y="1000"/><glyph glyph-name="uni044D" unicode="э" d="M40 317v93q56 22 119 22 106 0 168-62 61-61 61-159T326 50q-60-63-157-63-68 0-129 24v93q51-29 115-29 61 0 95 34 25 25 31 65H86v82h192q-8 45-42 67-30 21-81 21-60 0-115-27Z" horiz-adv-x="428" vert-adv-y="1000"/><glyph glyph-name="uni044E" unicode="ю" d="M160 265h67q10 59 55 105 62 62 157 62 94 0 157.5-62.5T660 210q0-96-63.5-159.5T439-13q-100 0-162 67-46 50-52 121h-65V0H62v421h98V265m365 45-17.5 17Q490 344 439 344t-86-34q-35-34-35-101t35-100.5Q388 75 439 75t86 33.5Q560 142 560 209t-35 101Z" horiz-adv-x="700" vert-adv-y="1000"/><glyph glyph-name="uni044F" unicode="я" d="m8 0 132 167q-39 6-67 32-35 34-35 87 0 60 39 97 40 38 122 38h157V0h-98v155h-20L123 0H8m250 235v102h-57q-35 0-51-9-24-15-24-42t20-41q15-10 54-10h58Z" horiz-adv-x="418" vert-adv-y="1000"/><glyph glyph-name="uni0451" unicode="ё" d="m357 142 82-46q-28-50-71-77-49-32-124-32-88 0-142 54-62 62-62 161 0 104 67 173 57 57 141 57 82 0 135-55 59-61 59-178v-12H140q4-53 36-85 27-27 75-27 39 0 67 21 23 18 39 46M147 267h195q-6 35-30 57-26 24-66 24-42 0-69-27-22-20-30-54m-27 258-9 9q-9 9-9 35t18 44q18 18 44 18t44-18q18-18 18-44t-18-44q-18-18-44-18t-44 18m180 0-9 9q-9 9-9 35t18 44q18 18 44 18t44-18q18-18 18-44t-18-44q-18-18-44-18t-44 18Z" horiz-adv-x="482" vert-adv-y="1000"/><glyph glyph-name="uni0452" unicode="ђ" d="M62 0v512h-72v76h72v141h98V588h200v-76H160V345q46 47 113 47 84 0 124-57 27-39 27-117V-86q0-83-44-117-34-27-90-27-42 0-66 9v88q22-9 47-9 33 0 46 22 9 15 9 60v269q0 52-19 73-20 22-55 22-48 0-72-35-20-29-20-106V0H62Z" horiz-adv-x="486" vert-adv-y="1000"/><glyph glyph-name="uni0453" unicode="ѓ" d="M62 0v421h258v-90H160V0H62m203 675 90-46-156-144-54 34 120 156Z" horiz-adv-x="328" vert-adv-y="1000"/><glyph glyph-name="uni0454" unicode="є" d="M388 404V300q-47 44-117 44-50 0-82-27-27-22-39-60h192v-80H147q4-44 35-71 36-31 91-31 66 0 115 46V17q-46-30-128-30-97 0-160 64-60 61-60 159 0 102 68 165 61 57 161 57 67 0 119-28Z" horiz-adv-x="428" vert-adv-y="1000"/><glyph glyph-name="uni0455" unicode="ѕ" d="m319 358-73-48q-22 36-60 36-19 0-30-11-9-9-9-22 0-15 14-24 3-2 6-3.5l11-5.5 16-8 50-25q42-21 59-39 31-31 31-78 0-56-37-96-43-47-118-47-56 0-91 27-38 28-54 77l80 38q10-29 23-40 16-16 43-16 26 0 40 14t14 33q0 18-13 32-14 14-42 26l-36 17q-42 20-58 36-30 29-30 71 0 53 35 90 38 40 103 40 45 0 78-22 30-19 48-52Z" horiz-adv-x="360" vert-adv-y="1000"/><glyph glyph-name="uni0456" unicode="і" d="M62 421h98V0H62v421m4 129-9 9q-9 9-9 36t18 45q18 18 45 18t45-18q18-18 18-45t-18-45q-18-18-45-18t-45 18Z" horiz-adv-x="222" vert-adv-y="1000"/><glyph glyph-name="uni0457" unicode="ї" d="M67 421h98V0H67v421m75 220.5 7.5 8.25Q157 658 176 658t34-16.5q15-16.5 15-45.5t-15-45.5Q195 534 176 534t-34 16.5Q127 567 127 596t15 45.5m-120 0 7.5 8.25Q37 658 56 658t34-16.5q15-16.5 15-45.5t-15-45.5Q75 534 56 534t-34 16.5Q7 567 7 596t15 45.5Z" horiz-adv-x="232" vert-adv-y="1000"/><glyph glyph-name="uni0458" unicode="ј" d="M62 421h98v-650H62v650m4 129-9 9q-9 9-9 36t18 45q18 18 45 18t45-18q18-18 18-45t-18-45q-18-18-45-18t-45 18Z" horiz-adv-x="222" vert-adv-y="1000"/><glyph glyph-name="uni0459" unicode="љ" d="M408 421V272h56q27 0 44-1.5t41-11.5q24-10 42-30 33-37 33-92 0-63-38-101-17-17-40.5-25.5t-39-9.5Q491 0 463 0H310v331H186V164q0-78-40-121Q104-2 33-2 24-2 8 0v90q12-2 19-2 32 0 50 21 15 18 15 55v257h316m0-337h45q36 0 51 9 22 16 22 43 0 28-21 42-16 10-51 10h-46V84Z" horiz-adv-x="648" vert-adv-y="1000"/><glyph glyph-name="uni045A" unicode="њ" d="M62 0v421h98V272h174v149h98V272h56q27 0 44-1.5t41-11.5q24-10 42-30 33-37 33-92 0-63-38-101-17-17-40.5-25.5t-39-9.5Q515 0 487 0H334v188H160V0H62m370 84h45q36 0 51 9 22 16 22 43 0 28-21 42-16 10-51 10h-46V84Z" horiz-adv-x="672" vert-adv-y="1000"/><glyph glyph-name="uni045B" unicode="ћ" d="M62 0v512h-72v76h72v141h98V588h200v-76H160V345q46 47 113 47 84 0 124-57 27-39 27-117V0h-98v209q0 52-19 73-20 22-55 22-48 0-72-35-20-29-20-106V0H62Z" horiz-adv-x="486" vert-adv-y="1000"/><glyph glyph-name="uni045C" unicode="ќ" d="M62 421h98V271l140 150h130L246 237 440 0H316L176 173l-16-16V0H62v421m234 254 90-46-156-144-54 34 120 156Z" horiz-adv-x="442" vert-adv-y="1000"/><glyph glyph-name="uni045E" unicode="ў" d="M31-229 186 66 6 421h118l120-246 122 246h110L141-229H31m52 832 80 23q19-65 82-65 62 0 82 65l80-23q-16-57-64.5-87.5T245 485q-49 0-97.5 30.5T83 603Z" horiz-adv-x="482" vert-adv-y="1000"/><glyph glyph-name="uni045F" unicode="џ" d="M62 0v421h98V90h166v331h98V0H288v-130h-90V0H62Z" horiz-adv-x="486" vert-adv-y="1000"/><glyph glyph-name="uni0462" unicode="Ѣ" d="M160 0v503H10v94h150v97h102v-97h180v-94H262V398h76q107 0 167-53 63-56 63-146 0-49-21-92.5T485 36Q431 0 339 0H160m102 302V96h72q75 0 108 33 26 26 26 68 0 46-28 73-33 32-104 32h-74Z" horiz-adv-x="592" vert-adv-y="1000"/><glyph glyph-name="uni0463" unicode="ѣ" d="M8 421h90v246h98V421h120v-84H196v-65h56q27 0 44-1.5t41-11.5q24-10 42-30 33-37 33-92 0-63-38-101-17-17-40.5-25.5t-39-9.5Q279 0 251 0H98v337H8v84M196 84h45q36 0 51 9 22 16 22 43 0 28-21 42-16 10-51 10h-46V84Z" horiz-adv-x="436" vert-adv-y="1000"/><glyph glyph-name="uni0472" unicode="Ѳ" d="m147 580 49.5 49.5Q246 679 395 679t248-99q99-99 99-247T643 86q-99-99-248-99T147 86q-99 99-99 247t99 247m490-293H153q12-88 78.5-147T395 81q97 0 163.5 59T637 287m-484 96h484q-12 85-78.5 143.5T395 585q-97 0-163.5-58.5T153 383Z" horiz-adv-x="790" vert-adv-y="1000"/><glyph glyph-name="uni0473" unicode="ѳ" d="m104.5 369.5 32.25 31.25Q169 432 265 432t160.5-62.5Q490 307 490 210q0-96-64.5-159.5T265-13q-96 0-160.5 63.5T40 210q0 97 64.5 159.5M386 173H144q8-47 41.5-72.5T265 75q46 0 79.5 25.5T386 173m-242 80h242q-9 41-40.5 66T265 344q-49 0-80.5-25T144 253Z" horiz-adv-x="530" vert-adv-y="1000"/><glyph glyph-name="uni0474" unicode="Ѵ" d="M4 667h110l186-465 186 465h110L300-43 4 667Z" horiz-adv-x="600" vert-adv-y="1000"/><glyph glyph-name="uni0475" unicode="ѵ" d="M6 421h110l108-240 108 240h110L224-30 6 421Z" horiz-adv-x="448" vert-adv-y="1000"/><glyph glyph-name="uni0490" unicode="Ґ" d="M80 0v667h238v150h96V571H182V0H80Z" horiz-adv-x="428" vert-adv-y="1000"/><glyph glyph-name="uni0491" unicode="ґ" d="M62 0v421h168v120h90V331H160V0H62Z" horiz-adv-x="328" vert-adv-y="1000"/><glyph glyph-name="uni0492" unicode="Ғ" d="M80 0v322h-90v86h90v259h334v-96H182V408h150v-86H182V0H80Z" horiz-adv-x="428" vert-adv-y="1000"/><glyph glyph-name="uni0493" unicode="ғ" d="M62 0v168h-72v80h72v173h258v-90H160v-83h100v-80H160V0H62Z" horiz-adv-x="328" vert-adv-y="1000"/><glyph glyph-name="uni0494" unicode="Ҕ" d="M402 571H182V385q71 23 137 23 80 0 130-30 87-51 87-179 0-116-73-168Q412-6 323-6q-27 0-67 6v94q27-6 64-6 51 0 78 21 34 28 34 89 0 71-53 100-31 16-77 16-68 0-120-23V0H80v667h322v-96Z" horiz-adv-x="584" vert-adv-y="1000"/><glyph glyph-name="uni0495" unicode="ҕ" d="M62 0v421h258v-90H160v-95h30q98 0 153-52 57-53 57-147 0-109-77-180-60-55-143-65v90q47 7 78 41 42 44 42 113 0 57-33 86-29 26-86 26h-21V0H62Z" horiz-adv-x="440" vert-adv-y="1000"/><glyph glyph-name="uni0496" unicode="Җ" d="M372 667h102V398l238 269h124L561 361 767 96h75v-246h-96V0h-30L490 294l-16-18V0H372v276l-16 18L130 0H4l281 361L10 667h124l238-269v269Z" horiz-adv-x="856" vert-adv-y="1000"/><glyph glyph-name="uni0497" unicode="җ" d="M263 421h98V265l127 156h118L443 229 552 90h70v-210h-90V0h-32L373 169l-12-14V0h-98v155l-12 14L124 0H2l179 229L18 421h118l127-156v156Z" horiz-adv-x="630" vert-adv-y="1000"/><glyph glyph-name="uni0498" unicode="Ҙ" d="m137 516-67 65q37 49 86 72 50 25 121 25 100 0 155-53 48-47 48-117 0-48-22-83-21-36-60-58 55-14 90-59 34-43 34-113 0-90-67-149Q407 4 343-6v-160h-96v156q-76 5-136 50-55 41-85 108l90 46q20-51 62-81 44-31 110-31t102 36q32 32 32 82 0 52-39 78-37 26-121 26h-60v96h54q64 0 96 27 30 25 30 68 0 45-32 69-26 20-77 20-48 0-81-19-32-18-55-49Z" horiz-adv-x="570" vert-adv-y="1000"/><glyph glyph-name="uni0499" unicode="ҙ" d="m119 312-63 55q24 29 64 47 42 18 99 18 66 0 107-29 44-32 44-86 0-35-18-58-15-20-40-30 38-8 61-31 27-27 27-70 0-57-36-93T276-7v-123h-90V-9q-50 1-91 29-37 25-55 67l78 40q14-30 37-44 25-16 63-16 46 0 67 21 15 17 15 37 0 21-13 34-17 18-70 18h-44v80h37q32 0 48 11 18 14 18 37 0 24-18 36-15 11-47 11-30 0-55-12-21-10-37-28Z" horiz-adv-x="440" vert-adv-y="1000"/><glyph glyph-name="uni049A" unicode="Қ" d="M80 667h102V401l258 266h134L273 365 496 96h80v-246h-96V0h-40L202 296l-20-20V0H80v667Z" horiz-adv-x="590" vert-adv-y="1000"/><glyph glyph-name="uni049B" unicode="қ" d="M62 421h98V271l140 150h130L246 237 367 90h73v-210h-90V0h-34L176 173l-16-16V0H62v421Z" horiz-adv-x="448" vert-adv-y="1000"/><glyph glyph-name="uni049C" unicode="Ҝ" d="M80 667h102V403h86v140h90V403l192 264h120L443 365 670 0H550L358 313V163h-90v150h-86V0H80v667Z" horiz-adv-x="680" vert-adv-y="1000"/><glyph glyph-name="uni049D" unicode="ҝ" d="M62 421h98V269h60v100h80V263l114 158h110L386 235 524 0H414L300 195V79h-80v110h-60V0H62v421Z" horiz-adv-x="526" vert-adv-y="1000"/><glyph glyph-name="uni04A0" unicode="Ҡ" d="M194 0v571H10v96h286V401l258 266h134L387 365 690 0H554L316 296l-20-20V0H194Z" horiz-adv-x="700" vert-adv-y="1000"/><glyph glyph-name="uni04A1" unicode="ҡ" d="M130 0v331H8v90h220V271l140 150h130L314 237 508 0H384L244 173l-16-16V0h-98Z" horiz-adv-x="510" vert-adv-y="1000"/><glyph glyph-name="uni04A2" unicode="Ң" d="M80 0v667h102V403h286v264h102V96h86v-246h-96V0h-92v307H182V0H80Z" horiz-adv-x="670" vert-adv-y="1000"/><glyph glyph-name="uni04A3" unicode="ң" d="M62 0v421h98V265h174v156h98V90h70v-210h-90V0h-78v175H160V0H62Z" horiz-adv-x="510" vert-adv-y="1000"/><glyph glyph-name="uni04A4" unicode="Ҥ" d="M80 0v667h102V403h286v264h334v-96H570V0H468v307H182V0H80Z" horiz-adv-x="816" vert-adv-y="1000"/><glyph glyph-name="uni04A5" unicode="ҥ" d="M62 0v421h98V265h174v156h258v-90H432V0h-98v175H160V0H62Z" horiz-adv-x="600" vert-adv-y="1000"/><glyph glyph-name="uni04AA" unicode="Ҫ" d="M574 631V511q-76 74-181 74-102 0-166-61-36-35-56.5-86.5T150 331q0-107 67-177 69-73 177-73 100 0 180 77V37Q512 0 443-9v-157h-96V-7Q238 2 155 79 48 178 48 331q0 160 107 261 92 87 240 87 103 0 179-48Z" horiz-adv-x="620" vert-adv-y="1000"/><glyph glyph-name="uni04AB" unicode="ҫ" d="M388 402V292q-53 52-119 52-56 0-93-37-36-36-36-97 0-63 38-101 36-34 89-34 73 0 121 54V20Q350-5 309-8v-122h-90v120q-68 7-119 59-60 62-60 158 0 99 64 163 62 62 169 62 61 0 115-30Z" horiz-adv-x="420" vert-adv-y="1000"/><glyph glyph-name="uni04AE" unicode="Ү" d="M219 0v288L0 667h116l154-267 154 267h116L321 288V0H219Z" horiz-adv-x="540" vert-adv-y="1000"/><glyph glyph-name="uni04AF" unicode="ү" d="M6 421h110l108-237 108 237h110L273 71v-300h-98V71L6 421Z" horiz-adv-x="448" vert-adv-y="1000"/><glyph glyph-name="uni04B0" unicode="Ұ" d="M219 0v202H29v86h190L0 667h116l154-267 154 267h116L321 288h190v-86H321V0H219Z" horiz-adv-x="540" vert-adv-y="1000"/><glyph glyph-name="uni04B1" unicode="ұ" d="M6 421h110l108-237 108 237h110L273 71V20h130v-86H273v-163h-98v163H45v86h130v51L6 421Z" horiz-adv-x="448" vert-adv-y="1000"/><glyph glyph-name="uni04B2" unicode="Ҳ" d="m10 0 210 348L36 667h114l130-226 133 226h114L335 348 480 96h76v-246h-96V0h-38L276 255 124 0H10Z" horiz-adv-x="570" vert-adv-y="1000"/><glyph glyph-name="uni04B3" unicode="ҳ" d="m6 0 186 228L42 421h116l93-123 94 123h120L310 228 419 90h71v-210h-90V0h-28L251 157 126 0H6Z" horiz-adv-x="498" vert-adv-y="1000"/><glyph glyph-name="uni04B6" unicode="Ҷ" d="M424 0v274q-91-7-136-7-111 0-163 41-65 51-65 162v197h102V485q0-75 36-103 27-21 106-21 57 0 120 7v299h102V96h86v-246h-96V0h-92Z" horiz-adv-x="626" vert-adv-y="1000"/><glyph glyph-name="uni04B7" unicode="ҷ" d="M290 0v163q-45-9-86-9-72 0-111 31-41 33-41 101v135h98V306q0-43 25-58 17-10 49-10 36 0 66 11v172h98V90h70v-210h-90V0h-78Z" horiz-adv-x="466" vert-adv-y="1000"/><glyph glyph-name="uni04B8" unicode="Ҹ" d="M458 0v274q-48-6-98-6V130h-90v138q-88 3-139 40-71 52-71 162v197h102V485q0-74 41-103 25-18 67-20v148h90V362q50 0 98 6v299h102V0H458Z" horiz-adv-x="640" vert-adv-y="1000"/><glyph glyph-name="uni04B9" unicode="ҹ" d="M370 0v161q-39-7-68-8V65h-80v88q-83 0-124 30-46 33-46 103v135h98V306q0-44 32-58 17-7 40-7v114h80V241q33 0 68 8v172h98V0h-98Z" horiz-adv-x="530" vert-adv-y="1000"/><glyph glyph-name="uni04BA" unicode="Һ" d="M182 667V403q62 7 129 7 118 0 170-41 65-51 65-162V0H444v192q0 75-36 103-27 21-106 21-55 0-120-7V0H80v667h102Z" horiz-adv-x="606" vert-adv-y="1000"/><glyph glyph-name="uni04BB" unicode="һ" d="M62 0v729h98V385q46 47 113 47 84 0 124-57 27-39 27-117V0h-98v249q0 52-19 73-20 22-55 22-48 0-72-35-20-29-20-106V0H62Z" horiz-adv-x="486" vert-adv-y="1000"/><glyph glyph-name="uni04C0" unicode="Ӏ" d="M80 667h102V0H80v667Z" horiz-adv-x="262" vert-adv-y="1000"/><glyph glyph-name="uni04C1" unicode="Ӂ" d="M372 667h102V398l238 269h124L561 361 842 0H716L490 294l-16-18V0H372v276l-16 18L130 0H4l281 361L10 667h124l238-269v269M256 832l80 36q6-19 18.5-31.5t28-17q15.5-4.5 23.5-6t15-1.5q7 0 15 1.5t23.5 6q15.5 4.5 28 17T506 868l80-36q-23-56-69.5-79T421 730q-49 0-95.5 23T256 832Z" horiz-adv-x="846" vert-adv-y="1000"/><glyph glyph-name="uni04C2" unicode="ӂ" d="M263 421h98V265l127 156h118L443 229 622 0H500L373 169l-12-14V0h-98v155l-12 14L124 0H2l179 229L18 421h118l127-156v156M148 603l80 23q19-65 82-65 62 0 82 65l80-23q-16-57-64.5-87.5T310 485q-49 0-97.5 30.5T148 603Z" horiz-adv-x="624" vert-adv-y="1000"/><glyph glyph-name="uni04C3" unicode="Ӄ" d="M80 667h102V393l258 274h134L307 399q51 0 103.5-19.5T499 324q69-70 69-208 0-148-63-217-54-59-158-59-55 0-105 21l24 93q38-20 79-20 48 0 78 30 43 44 43 145t-51 154q-47 49-145 49-42 0-88-11V0H80v667Z" horiz-adv-x="616" vert-adv-y="1000"/><glyph glyph-name="uni04C4" unicode="ӄ" d="M62 421h98V271l140 150h130L240 229q67-7 111-53 49-53 49-141 0-109-77-178-60-54-143-65v90q47 7 78 41 42 44 42 113 0 51-29 82-29 30-92 30h-19V0H62v421Z" horiz-adv-x="440" vert-adv-y="1000"/><glyph glyph-name="uni04C7" unicode="Ӈ" d="M80 0v667h102V403h286v264h102V-86q0-82-44-117-33-27-94-27-36 0-66 9v92q23-9 47-9 33 0 46 22 9 15 9 60v363H182V0H80Z" horiz-adv-x="650" vert-adv-y="1000"/><glyph glyph-name="uni04C8" unicode="ӈ" d="M62 0v421h98V265h174v156h98V-86q0-83-44-117-34-27-90-27-42 0-66 9v88q23-9 47-9 33 0 46 22 9 15 9 60v235H160V0H62Z" horiz-adv-x="494" vert-adv-y="1000"/><glyph glyph-name="uni04D0" unicode="Ӑ" d="m542 0-70 161H187L114 0H4l332 706L652 0H542M229 257h202l-99 226-103-226m-62 575 80 36q6-19 18.5-31.5t28-17q15.5-4.5 23.5-6t15-1.5q7 0 15 1.5t23.5 6q15.5 4.5 28 17T417 868l80-36q-23-56-69.5-79T332 730q-49 0-95.5 23T167 832Z" horiz-adv-x="656" vert-adv-y="1000"/><glyph glyph-name="uni04D1" unicode="ӑ" d="M370 372v49h98V0h-98v44q-49-57-126-57-93 0-148.5 66T40 211q0 100 59.5 160.5T245 432q79 0 125-60m-113-28q-52 0-84.5-39T140 209q0-56 32.5-95T257 75q50 0 84.5 35t34.5 98q0 65-34.5 100.5T257 344M88 603l80 23q19-65 82-65 62 0 82 65l80-23q-16-57-64.5-87.5T250 485q-49 0-97.5 30.5T88 603Z" horiz-adv-x="530" vert-adv-y="1000"/><glyph glyph-name="uni04D2" unicode="Ӓ" d="m542 0-70 161H187L114 0H4l332 706L652 0H542M229 257h202l-99 226-103-226m-39 494-9 9q-9 9-9 35t18 44q18 18 44 18t44-18q18-18 18-44t-18-44q-18-18-44-18t-44 18m196 0-9 9q-9 9-9 35t18 44q18 18 44 18t44-18q18-18 18-44t-18-44q-18-18-44-18t-44 18Z" horiz-adv-x="656" vert-adv-y="1000"/><glyph glyph-name="uni04D3" unicode="ӓ" d="M370 372v49h98V0h-98v44q-49-57-126-57-93 0-148.5 66T40 211q0 100 59.5 160.5T245 432q79 0 125-60m-113-28q-52 0-84.5-39T140 209q0-56 32.5-95T257 75q50 0 84.5 35t34.5 98q0 65-34.5 100.5T257 344M116 525l-9 9q-9 9-9 35t18 44q18 18 44 18t44-18q18-18 18-44t-18-44q-18-18-44-18t-44 18m180 0-9 9q-9 9-9 35t18 44q18 18 44 18t44-18q18-18 18-44t-18-44q-18-18-44-18t-44 18Z" horiz-adv-x="530" vert-adv-y="1000"/><glyph glyph-name="uni04D4" unicode="Ӕ" d="m546 0-70 159H193L120 0H10l320 667h295l42-96H402l70-159h258l42-96H514l95-220h265l42-96H546M238 255h198l-95 217-103-217Z" horiz-adv-x="926" vert-adv-y="1000"/><glyph glyph-name="uni04D5" unicode="ӕ" d="M99 328v91q57 13 119 13 53 0 87-13 37-14 63-47 24 29 58 43 38 17 87 17 91 0 144-55 59-62 59-178v-12H414q4-52 36-85 27-27 75-27 39 0 67 21 23 18 39 46l82-46q-28-50-71-77-50-32-126-32-51 0-88 18-37 17-60 50-29-35-68-52-38-16-89-16-83 0-129 45-42 41-42 96 0 60 40 98 46 45 128 45 59 0 108-28 0 51-28 76-29 25-86 25-48 0-103-16m121-141q-46 0-69-21-17-16-17-37 0-22 20-39 23-19 66-19 38 0 63 16 27 17 27 44 0 26-31 43-25 13-59 13m201 80h195q-6 35-30 57-26 24-66 24t-69-27q-22-22-30-54Z" horiz-adv-x="756" vert-adv-y="1000"/><glyph glyph-name="uni04D6" unicode="Ӗ" d="M448 667v-96H182V402h258v-96H182V96h266V0H80v667h368M100 832l80 36q6-19 18.5-31.5t28-17q15.5-4.5 23.5-6t15-1.5q7 0 15 1.5t23.5 6q15.5 4.5 28 17T350 868l80-36q-23-56-69.5-79T265 730q-49 0-95.5 23T100 832Z" horiz-adv-x="500" vert-adv-y="1000"/><glyph glyph-name="uni04D7" unicode="ӗ" d="m357 142 82-46q-28-50-71-77-49-32-124-32-88 0-142 54-62 62-62 161 0 104 67 173 57 57 141 57 82 0 135-55 59-61 59-178v-12H140q4-53 36-85 27-27 75-27 39 0 67 21 23 18 39 46M147 267h195q-6 35-30 57-26 24-66 24-42 0-69-27-22-20-30-54M79 603l80 23q19-65 82-65 62 0 82 65l80-23q-16-57-64.5-87.5T241 485q-49 0-97.5 30.5T79 603Z" horiz-adv-x="482" vert-adv-y="1000"/><glyph glyph-name="uni04D8" unicode="Ә" d="m149 478-72 66q31 42 73 71 89 64 203 64 154 0 252-102 95-99 95-244 0-147-102-249-97-97-239-97-160 0-248 124-63 89-63 215v31h549q-7 102-77.5 165T353 585q-126 0-204-107m440-215H157q6-64 44-111 58-71 159-71 110 0 177 77 38 44 52 105Z" horiz-adv-x="748" vert-adv-y="1000"/><glyph glyph-name="uni04D9" unicode="ә" d="m133 292-89 30q24 51 73 80 50 30 117 30 93 0 149-52 65-61 65-174 0-104-64-166-54-53-142-53-84 0-135 50-67 65-67 180v25h306q-5 49-35 76-28 26-78 26-38 0-63-16-19-11-37-36m206-130H144q6-45 30-68 23-23 66-23 42 0 68 26 27 27 31 65Z" horiz-adv-x="488" vert-adv-y="1000"/><glyph glyph-name="uni04DA" unicode="Ӛ" d="m149 478-72 66q31 42 73 71 89 64 203 64 154 0 252-102 95-99 95-244 0-147-102-249-97-97-239-97-160 0-248 124-63 89-63 215v31h549q-7 102-77.5 165T353 585q-126 0-204-107m440-215H157q6-64 44-111 58-71 159-71 110 0 177 77 38 44 52 105M232 751l-9 9q-9 9-9 35t18 44q18 18 44 18t44-18q18-18 18-44t-18-44q-18-18-44-18t-44 18m196 0-9 9q-9 9-9 35t18 44q18 18 44 18t44-18q18-18 18-44t-18-44q-18-18-44-18t-44 18Z" horiz-adv-x="748" vert-adv-y="1000"/><glyph glyph-name="uni04DB" unicode="ӛ" d="m133 292-89 30q24 51 73 80 50 30 117 30 93 0 149-52 65-61 65-174 0-104-64-166-54-53-142-53-84 0-135 50-67 65-67 180v25h306q-5 49-35 76-28 26-78 26-38 0-63-16-19-11-37-36m206-130H144q6-45 30-68 23-23 66-23 42 0 68 26 27 27 31 65M110 525l-9 9q-9 9-9 35t18 44q18 18 44 18t44-18q18-18 18-44t-18-44q-18-18-44-18t-44 18m180 0-9 9q-9 9-9 35t18 44q18 18 44 18t44-18q18-18 18-44t-18-44q-18-18-44-18t-44 18Z" horiz-adv-x="488" vert-adv-y="1000"/><glyph glyph-name="uni04DC" unicode="Ӝ" d="M372 667h102V398l238 269h124L561 361 842 0H716L490 294l-16-18V0H372v276l-16 18L130 0H4l281 361L10 667h124l238-269v269m-91 84-9 9q-9 9-9 35t18 44q18 18 44 18t44-18q18-18 18-44t-18-44q-18-18-44-18t-44 18m196 0-9 9q-9 9-9 35t18 44q18 18 44 18t44-18q18-18 18-44t-18-44q-18-18-44-18t-44 18Z" horiz-adv-x="846" vert-adv-y="1000"/><glyph glyph-name="uni04DD" unicode="ӝ" d="M263 421h98V265l127 156h118L443 229 622 0H500L373 169l-12-14V0h-98v155l-12 14L124 0H2l179 229L18 421h118l127-156v156m-85 104-9 9q-9 9-9 35t18 44q18 18 44 18t44-18q18-18 18-44t-18-44q-18-18-44-18t-44 18m180 0-9 9q-9 9-9 35t18 44q18 18 44 18t44-18q18-18 18-44t-18-44q-18-18-44-18t-44 18Z" horiz-adv-x="624" vert-adv-y="1000"/><glyph glyph-name="uni04DE" unicode="Ӟ" d="m137 516-67 65q37 49 86 72 50 25 121 25 100 0 155-53 48-47 48-117 0-48-22-83-21-36-60-58 55-14 90-59 34-43 34-113 0-90-67-149-68-58-180-58-95 0-164 52-54 42-85 108l90 46q20-51 62-81 44-31 110-31t102 36q32 32 32 82 0 52-39 78-37 26-121 26h-60v96h54q64 0 96 27 30 25 30 68 0 45-32 69-26 20-77 20-48 0-81-19-32-18-55-49m1 235-9 9q-9 9-9 35t18 44q18 18 44 18t44-18q18-18 18-44t-18-44q-18-18-44-18t-44 18m196 0-9 9q-9 9-9 35t18 44q18 18 44 18t44-18q18-18 18-44t-18-44q-18-18-44-18t-44 18Z" horiz-adv-x="570" vert-adv-y="1000"/><glyph glyph-name="uni04DF" unicode="ӟ" d="m119 312-63 55q24 29 64 47 42 18 99 18 66 0 107-29 44-32 44-86 0-35-18-58-15-20-40-30 38-8 61-31 27-27 27-70 0-57-36-93-48-48-148-48-67 0-110 25-45 26-66 75l78 40q14-30 37-44 25-16 63-16 46 0 67 21 15 17 15 37 0 21-13 34-17 18-70 18h-44v80h37q32 0 48 11 18 14 18 37 0 24-18 36-15 11-47 11-30 0-55-12-21-10-37-28M96 525l-9 9q-9 9-9 35t18 44q18 18 44 18t44-18q18-18 18-44t-18-44q-18-18-44-18t-44 18m180 0-9 9q-9 9-9 35t18 44q18 18 44 18t44-18q18-18 18-44t-18-44q-18-18-44-18t-44 18Z" horiz-adv-x="440" vert-adv-y="1000"/><glyph glyph-name="uni04E2" unicode="Ӣ" d="M530 0v449L80-30v697h102V216l450 479V0H530M184 733v80h360v-80H184Z" horiz-adv-x="712" vert-adv-y="1000"/><glyph glyph-name="uni04E3" unicode="ӣ" d="M62 421h98V182l288 277V0h-98v245L62-32v453m28 87v78h330v-78H90Z" horiz-adv-x="510" vert-adv-y="1000"/><glyph glyph-name="uni04E4" unicode="Ӥ" d="M530 0v449L80-30v697h102V216l450 479V0H530M222 751l-9 9q-9 9-9 35t18 44q18 18 44 18t44-18q18-18 18-44t-18-44q-18-18-44-18t-44 18m196 0-9 9q-9 9-9 35t18 44q18 18 44 18t44-18q18-18 18-44t-18-44q-18-18-44-18t-44 18Z" horiz-adv-x="712" vert-adv-y="1000"/><glyph glyph-name="uni04E5" unicode="ӥ" d="M62 421h98V182l288 277V0h-98v245L62-32v453m59 104-9 9q-9 9-9 35t18 44q18 18 44 18t44-18q18-18 18-44t-18-44q-18-18-44-18t-44 18m180 0-9 9q-9 9-9 35t18 44q18 18 44 18t44-18q18-18 18-44t-18-44q-18-18-44-18t-44 18Z" horiz-adv-x="510" vert-adv-y="1000"/><glyph glyph-name="uni04E6" unicode="Ӧ" d="m147 580 49.5 49.5Q246 679 395 679t248-99q99-99 99-247T643 86q-99-99-248-99T147 86q-99 99-99 247t99 247m72-428.5 34.5-35.25Q288 81 395 81t176 70.5Q640 222 640 333t-69 181.5Q502 585 395 585t-176-70.5Q150 444 150 333t69-181.5M253 751l-9 9q-9 9-9 35t18 44q18 18 44 18t44-18q18-18 18-44t-18-44q-18-18-44-18t-44 18m196 0-9 9q-9 9-9 35t18 44q18 18 44 18t44-18q18-18 18-44t-18-44q-18-18-44-18t-44 18Z" horiz-adv-x="790" vert-adv-y="1000"/><glyph glyph-name="uni04E7" unicode="ӧ" d="m104.5 369.5 32.25 31.25Q169 432 265 432t160.5-62.5Q490 307 490 210q0-96-64.5-159.5T265-13q-96 0-160.5 63.5T40 210q0 97 64.5 159.5m69.5-258 17-18.25Q208 75 265 75t91 36.5q34 36.5 34 97.5 0 67-36.5 101T265 344q-52 0-88.5-34T140 209q0-61 34-97.5M131 525l-9 9q-9 9-9 35t18 44q18 18 44 18t44-18q18-18 18-44t-18-44q-18-18-44-18t-44 18m180 0-9 9q-9 9-9 35t18 44q18 18 44 18t44-18q18-18 18-44t-18-44q-18-18-44-18t-44 18Z" horiz-adv-x="530" vert-adv-y="1000"/><glyph glyph-name="uni04E8" unicode="Ө" d="m147 580 49.5 49.5Q246 679 395 679t248-99q99-99 99-247T643 86q-99-99-248-99T147 86q-99 99-99 247t99 247m490-293H153q12-88 78.5-147T395 81q97 0 163.5 59T637 287m-484 96h484q-12 85-78.5 143.5T395 585q-97 0-163.5-58.5T153 383Z" horiz-adv-x="790" vert-adv-y="1000"/><glyph glyph-name="uni04E9" unicode="ө" d="m104.5 369.5 32.25 31.25Q169 432 265 432t160.5-62.5Q490 307 490 210q0-96-64.5-159.5T265-13q-96 0-160.5 63.5T40 210q0 97 64.5 159.5M386 173H144q8-47 41.5-72.5T265 75q46 0 79.5 25.5T386 173m-242 80h242q-9 41-40.5 66T265 344q-49 0-80.5-25T144 253Z" horiz-adv-x="530" vert-adv-y="1000"/><glyph glyph-name="uni04EA" unicode="Ӫ" d="m147 580 49.5 49.5Q246 679 395 679t248-99q99-99 99-247T643 86q-99-99-248-99T147 86q-99 99-99 247t99 247m490-293H153q12-88 78.5-147T395 81q97 0 163.5 59T637 287m-484 96h484q-12 85-78.5 143.5T395 585q-97 0-163.5-58.5T153 383m100 368-9 9q-9 9-9 35t18 44q18 18 44 18t44-18q18-18 18-44t-18-44q-18-18-44-18t-44 18m196 0-9 9q-9 9-9 35t18 44q18 18 44 18t44-18q18-18 18-44t-18-44q-18-18-44-18t-44 18Z" horiz-adv-x="790" vert-adv-y="1000"/><glyph glyph-name="uni04EB" unicode="ӫ" d="m104.5 369.5 32.25 31.25Q169 432 265 432t160.5-62.5Q490 307 490 210q0-96-64.5-159.5T265-13q-96 0-160.5 63.5T40 210q0 97 64.5 159.5M386 173H144q8-47 41.5-72.5T265 75q46 0 79.5 25.5T386 173m-242 80h242q-9 41-40.5 66T265 344q-49 0-80.5-25T144 253m-13 272-9 9q-9 9-9 35t18 44q18 18 44 18t44-18q18-18 18-44t-18-44q-18-18-44-18t-44 18m180 0-9 9q-9 9-9 35t18 44q18 18 44 18t44-18q18-18 18-44t-18-44q-18-18-44-18t-44 18Z" horiz-adv-x="530" vert-adv-y="1000"/><glyph glyph-name="uni04EE" unicode="Ӯ" d="M6 667h124l172-356 156 356h106L263 0H157l86 189L6 667m108 66v80h360v-80H114Z" horiz-adv-x="570" vert-adv-y="1000"/><glyph glyph-name="uni04EF" unicode="ӯ" d="M31-229 186 66 6 421h118l120-246 122 246h110L141-229H31m45 737v78h330v-78H76Z" horiz-adv-x="482" vert-adv-y="1000"/><glyph glyph-name="uni04F0" unicode="Ӱ" d="M6 667h124l172-356 156 356h106L263 0H157l86 189L6 667m146 84-9 9q-9 9-9 35t18 44q18 18 44 18t44-18q18-18 18-44t-18-44q-18-18-44-18t-44 18m196 0-9 9q-9 9-9 35t18 44q18 18 44 18t44-18q18-18 18-44t-18-44q-18-18-44-18t-44 18Z" horiz-adv-x="570" vert-adv-y="1000"/><glyph glyph-name="uni04F1" unicode="ӱ" d="M31-229 186 66 6 421h118l120-246 122 246h110L141-229H31m76 754-9 9q-9 9-9 35t18 44q18 18 44 18t44-18q18-18 18-44t-18-44q-18-18-44-18t-44 18m180 0-9 9q-9 9-9 35t18 44q18 18 44 18t44-18q18-18 18-44t-18-44q-18-18-44-18t-44 18Z" horiz-adv-x="482" vert-adv-y="1000"/><glyph glyph-name="uni04F2" unicode="Ӳ" d="M6 667h124l172-356 156 356h106L263 0H157l86 189L6 667m270 239 78-52-156-127-44 36 122 143m200 0 78-52-156-127-44 36 122 143Z" horiz-adv-x="570" vert-adv-y="1000"/><glyph glyph-name="uni04F3" unicode="ӳ" d="M31-229 186 66 6 421h118l120-246 122 246h110L141-229H31m192 904 82-46-146-144-42 34 106 156m180 0 82-46-146-144-42 34 106 156Z" horiz-adv-x="482" vert-adv-y="1000"/><glyph glyph-name="uni04F4" unicode="Ӵ" d="M424 0v274q-91-7-136-7-111 0-163 41-65 51-65 162v197h102V485q0-75 36-103 27-21 106-21 57 0 120 7v299h102V0H424M161 751l-9 9q-9 9-9 35t18 44q18 18 44 18t44-18q18-18 18-44t-18-44q-18-18-44-18t-44 18m196 0-9 9q-9 9-9 35t18 44q18 18 44 18t44-18q18-18 18-44t-18-44q-18-18-44-18t-44 18Z" horiz-adv-x="606" vert-adv-y="1000"/><glyph glyph-name="uni04F5" unicode="ӵ" d="M290 0v163q-45-9-86-9-72 0-111 31-41 33-41 101v135h98V306q0-43 25-58 17-10 49-10 36 0 66 11v172h98V0h-98M91 525l-9 9q-9 9-9 35t18 44q18 18 44 18t44-18q18-18 18-44t-18-44q-18-18-44-18t-44 18m180 0-9 9q-9 9-9 35t18 44q18 18 44 18t44-18q18-18 18-44t-18-44q-18-18-44-18t-44 18Z" horiz-adv-x="450" vert-adv-y="1000"/><glyph glyph-name="uni04F8" unicode="Ӹ" d="M80 0v667h102V398h76q107 0 167-53 63-55 63-147 0-48-21.5-91.5T405 36Q351 0 259 0H80m102 302V96h72q134 0 134 101 0 44-29.5 74.5T256 302h-74m376 365h102V0H558v667m-335 84-9 9q-9 9-9 35t18 44q18 18 44 18t44-18q18-18 18-44t-18-44q-18-18-44-18t-44 18m196 0-9 9q-9 9-9 35t18 44q18 18 44 18t44-18q18-18 18-44t-18-44q-18-18-44-18t-44 18Z" horiz-adv-x="740" vert-adv-y="1000"/><glyph glyph-name="uni04F9" unicode="ӹ" d="M62 0v421h98V272h56q27 0 44-1.5t41-11.5q24-10 42-30 33-37 33-92 0-63-38-101-17-17-40.5-25.5t-39-9.5Q243 0 215 0H62m98 84h45q36 0 51 9 22 16 22 43 0 28-21 42-16 10-51 10h-46V84M420 0v421h98V0h-98M161 525l-9 9q-9 9-9 35t18 44q18 18 44 18t44-18q18-18 18-44t-18-44q-18-18-44-18t-44 18m180 0-9 9q-9 9-9 35t18 44q18 18 44 18t44-18q18-18 18-44t-18-44q-18-18-44-18t-44 18Z" horiz-adv-x="580" vert-adv-y="1000"/><glyph glyph-name="uni1E9E" unicode="ẞ" d="M80 0v480q0 91 69 151 56 48 135 48 74 0 124-37 69-51 73-137L365 390q69-16 110-60 44-47 44-127 0-90-80-153-63-49-172-64v96q67 2 108 37 44 36 44 91 0 58-46 89-38 27-106 31v60l106 114q-4 39-27 60-25 23-68 23-41 0-67-26-29-29-29-75V0H80Z" horiz-adv-x="567" vert-adv-y="1000"/><glyph glyph-name="uni2010" unicode="‐" d="M50 162v102h240V162H50Z" horiz-adv-x="340" vert-adv-y="1000"/><glyph glyph-name="uni2011" unicode="‑" d="M50 162v102h240V162H50Z" horiz-adv-x="340" vert-adv-y="1000"/><glyph glyph-name="uni2012" unicode="‒" d="M70 294v90h480v-90H70Z" horiz-adv-x="620" vert-adv-y="1000"/><glyph glyph-name="uni2013" unicode="–" d="M70 168v90h480v-90H70Z" horiz-adv-x="620" vert-adv-y="1000"/><glyph glyph-name="uni2014" unicode="—" d="M70 168v90h700v-90H70Z" horiz-adv-x="840" vert-adv-y="1000"/><glyph glyph-name="uni2015" unicode="―" d="M70 168v90h700v-90H70Z" horiz-adv-x="840" vert-adv-y="1000"/><glyph glyph-name="uni2018" unicode="‘" d="M240 667 138 413l-88 34 124 247 66-27Z" horiz-adv-x="290" vert-adv-y="1000"/><glyph glyph-name="uni2019" unicode="’" d="m50 447 102 254 88-34-124-247-66 27Z" horiz-adv-x="290" vert-adv-y="1000"/><glyph glyph-name="uni201A" unicode="‚" d="m50-129 102 254 88-34-124-247-66 27Z" horiz-adv-x="340" vert-adv-y="1000"/><glyph glyph-name="uni201C" unicode="“" d="M412 667 310 413l-86 34 123 247 65-27m-174 0L136 413l-86 34 123 247 65-27Z" horiz-adv-x="462" vert-adv-y="1000"/><glyph glyph-name="uni201D" unicode="”" d="m50 447 102 254 86-34-123-247-65 27m174 0 102 254 86-34-123-247-65 27Z" horiz-adv-x="462" vert-adv-y="1000"/><glyph glyph-name="uni201E" unicode="„" d="m50-129 102 254 86-34-123-247-65 27m174 0 102 254 86-34-123-247-65 27Z" horiz-adv-x="512" vert-adv-y="1000"/><glyph glyph-name="uni2020" unicode="†" d="M235 516v213h98V516h138v-94H333v-599h-98v599H97v94h138Z" horiz-adv-x="568" vert-adv-y="1000"/><glyph glyph-name="uni2021" unicode="‡" d="M235 516v213h98V516h138v-94H333V171h138V77H333v-254h-98V77H97v94h138v251H97v94h138Z" horiz-adv-x="568" vert-adv-y="1000"/><glyph glyph-name="uni2022" unicode="•" d="m401 241-20.5 20.5Q360 282 360 340t41 99q41 41 99 41t99-41q41-41 41-99t-41-99q-41-41-99-41t-99 41Z" horiz-adv-x="1000" vert-adv-y="1000"/><glyph glyph-name="uni2026" unicode="…" d="m97.5 5.5-8.75 8.75Q80 23 80 48t17.5 42.5Q115 108 140 108t42.5-17.5Q200 73 200 48T182.5 5.5Q165-12 140-12T97.5 5.5m260 0-8.75 8.75Q340 23 340 48t17.5 42.5Q375 108 400 108t42.5-17.5Q460 73 460 48T442.5 5.5Q425-12 400-12T357.5 5.5m260 0-8.75 8.75Q600 23 600 48t17.5 42.5Q635 108 660 108t42.5-17.5Q720 73 720 48T702.5 5.5Q685-12 660-12T617.5 5.5Z" horiz-adv-x="800" vert-adv-y="1000"/><glyph glyph-name="uni2030" unicode="‰" d="m80.5 626.5 23.75 23.25Q128 673 194 673t113.5-46.5Q355 580 355 516t-47.5-110.5Q260 359 194 359T80.5 405.5Q33 452 33 516t47.5 110.5m52.5-169 11-13.25Q155 431 194 431t61 26.5q22 26.5 22 58.5t-22 58.5Q233 601 194 601t-61-26.5Q111 548 111 516t22-58.5M191 18l381 660 47-27L238-11l-47 29m311.5 242.5 23.75 23.25Q550 307 616 307t113.5-46.5Q777 214 777 150T729.5 39.5Q682-7 616-7T502.5 39.5Q455 86 455 150t47.5 110.5m52.5-169 11-13.25Q577 65 616 65t61 26.5q22 26.5 22 58.5t-22 58.5Q655 235 616 235t-61-26.5Q533 182 533 150t22-58.5m337.5 169 23.75 23.25Q940 307 1006 307t113.5-46.5Q1167 214 1167 150t-47.5-110.5Q1072-7 1006-7T892.5 39.5Q845 86 845 150t47.5 110.5m52.5-169 11-13.25Q967 65 1006 65t61 26.5q22 26.5 22 58.5t-22 58.5q-22 26.5-61 26.5t-61-26.5Q923 182 923 150t22-58.5Z" horiz-adv-x="1200" vert-adv-y="1000"/><glyph glyph-name="uni2039" unicode="‹" d="M140 219 267 54 202 7 40 219l162 212 65-47-127-165Z" horiz-adv-x="321" vert-adv-y="1000"/><glyph glyph-name="uni203A" unicode="›" d="M181 219 54 384l65 47 162-212L119 7 54 54l127 165Z" horiz-adv-x="321" vert-adv-y="1000"/><glyph glyph-name="uni2044" unicode="⁄" d="m-100 17 382 661 48-28L-52-11l-48 28Z" horiz-adv-x="230" vert-adv-y="1000"/><glyph glyph-name="uni2070" unicode="⁰" d="M283 304q-41-44-98-44t-98 44q-55 60-55 163t55 163q41 44 98 44t98-44q55-60 55-163t-55-163m-45 274q-22 30-53 30t-53-30q-28-38-28-111t28-111q22-30 53-30t53 30q28 38 28 111t-28 111Z" horiz-adv-x="370" vert-adv-y="1000"/><glyph glyph-name="uni2074" unicode="⁴" d="M295 697V390h43v-66h-43v-57h-72v57H14l281 373M139 390h84v114l-84-114Z" horiz-adv-x="370" vert-adv-y="1000"/><glyph glyph-name="uni2075" unicode="⁵" d="M299 667v-66H173l-17-61q6 1 19 1 57 0 95-29 48-38 48-105 0-66-44-106.5T160 260q-91 0-140 85l56 39q25-58 85-58 40 0 62.5 22t22.5 56q0 34-22.5 55.5T161 481q-48 0-76-34H58l66 220h175Z" horiz-adv-x="370" vert-adv-y="1000"/><glyph glyph-name="uni2076" unicode="⁶" d="m212 691 61-43-89-128q6 1 18 1 52 0 90-30.5t38-92.5q0-60-40-99t-105-39q-69 0-107 38.5T40 389q0 54 33 102l139 200m-28-234q-31 0-51.5-18.5T112 391q0-29 21-48t52-19q31 0 52 19t21 48q0 29-21 47.5T184 457Z" horiz-adv-x="370" vert-adv-y="1000"/><glyph glyph-name="uni2077" unicode="⁷" d="m34 283 194 318H36v66h318L102 253l-68 30Z" horiz-adv-x="370" vert-adv-y="1000"/><glyph glyph-name="uni2078" unicode="⁸" d="m93 640 17 17q17 17 75 17t92-34q34-34 34-80 0-54-44-85 55-25 55-94 0-55-40-88t-97-33q-57 0-97 33t-40 88q0 69 55 94-44 31-44 85 0 46 34 80m135-46-7.5 8q-7.5 8-35.5 8t-43-16q-15-16-15-37 0-20 15-35.5t43-15.5q27 0 42.5 15t15.5 36q0 21-15 37m5-169.5-8.5 8.75Q216 442 185 442t-48-17.5Q120 407 120 383q0-23 17-41t48-18q31 0 48 18t17 41q0 24-17 41.5Z" horiz-adv-x="370" vert-adv-y="1000"/><glyph glyph-name="uni2079" unicode="⁹" d="m158 243-61 43 89 128q-6-1-17-1-51 0-90 32t-39 90q0 61 40 100t105 39q69 0 107-38.5t38-90.5q0-56-33-102L158 243m28 234q31 0 51.5 18.5T258 543q0 29-21 48t-52 19q-31 0-52-19t-21-48q0-29 21-47.5t53-18.5Z" horiz-adv-x="370" vert-adv-y="1000"/><glyph glyph-name="uni2080" unicode="₀" d="M283 37Q242-7 185-7T87 37Q32 97 32 200q0 102 55 163 41 44 98 44t98-44q55-61 55-163 0-103-55-163m-45 274q-22 30-53 30t-53-30q-28-38-28-111t28-111q22-30 53-30t53 30q28 38 28 111t-28 111Z" horiz-adv-x="370" vert-adv-y="1000"/><glyph glyph-name="uni2081" unicode="₁" d="M162 0v334H84l42 66h110V0h-74Z" horiz-adv-x="370" vert-adv-y="1000"/><glyph glyph-name="uni2082" unicode="₂" d="M314 66V0H24l146 162q34 38 50 62 21 30 21 57t-17.5 43.5Q206 341 178 341q-32 0-51-22t-22-51H35q3 58 37 96 38 43 103 43t101.5-36q36.5-36 36.5-88 0-36-30-85-19-30-55-70l-55-62h141Z" horiz-adv-x="370" vert-adv-y="1000"/><glyph glyph-name="uni2083" unicode="₃" d="M115 286H45q3 41 23 70 33 51 110 51 63 0 95-32.5t32-79.5q0-62-52-84 11-4 21.5-10.5t24-28.5q13.5-22 13.5-52 0-53-36.5-90T171-7Q76-7 43 71q-10 24-11 48h70q6-60 69-60 34 0 51.5 18t17.5 44q0 12-3.5 23t-20 23Q200 179 171 179h-24v66h24q63 0 63 47 0 24-16 36.5T176 341q-28 0-43.5-15T115 286Z" horiz-adv-x="370" vert-adv-y="1000"/><glyph glyph-name="uni2084" unicode="₄" d="M295 430V123h43V57h-43V0h-72v57H14l281 373M139 123h84v114l-84-114Z" horiz-adv-x="370" vert-adv-y="1000"/><glyph glyph-name="uni2085" unicode="₅" d="M299 400v-66H173l-17-61q6 1 19 1 57 0 95-29 48-38 48-105 0-66-44-106.5T160-7Q69-7 20 78l56 39q25-58 85-58 40 0 62.5 22t22.5 56q0 34-22.5 55.5T161 214q-48 0-76-34H58l66 220h175Z" horiz-adv-x="370" vert-adv-y="1000"/><glyph glyph-name="uni2086" unicode="₆" d="m212 424 61-43-89-128q6 1 18 1 52 0 90-30.5t38-92.5q0-61-40-99.5T185-7Q116-7 78 31.5T40 122q0 54 33 102l139 200m-28-234q-31 0-51.5-18.5T112 124q0-29 21-48t52-19q31 0 52 19t21 48q0 29-21 47.5T184 190Z" horiz-adv-x="370" vert-adv-y="1000"/><glyph glyph-name="uni2087" unicode="₇" d="m34 16 194 318H36v66h318L102-14 34 16Z" horiz-adv-x="370" vert-adv-y="1000"/><glyph glyph-name="uni2088" unicode="₈" d="m93 373 17 17q17 17 75 17t92-34q34-34 34-80 0-54-44-85 55-25 55-94 0-55-40-88T185-7q-57 0-97 33t-40 88q0 69 55 94-44 31-44 85 0 46 34 80m135-46-7.5 8q-7.5 8-35.5 8t-43-16q-15-16-15-37 0-20 15-35.5t43-15.5q27 0 42.5 15.5T243 290q0 21-15 37m5-169.5-8.5 8.75Q216 175 185 175t-48-17.5Q120 140 120 116q0-23 17-41t48-18q31 0 48 18t17 41q0 24-17 41.5Z" horiz-adv-x="370" vert-adv-y="1000"/><glyph glyph-name="uni2089" unicode="₉" d="M158-24 97 19l89 128q-6-1-17-1-51 0-90 32t-39 90q0 61 40 100t105 39q69 0 107-38.5t38-90.5q0-56-33-102L158-24m28 234q31 0 51.5 18.5T258 276q0 29-21 48t-52 19q-31 0-52-19t-21-48q0-29 21-47.5t53-18.5Z" horiz-adv-x="370" vert-adv-y="1000"/><glyph glyph-name="uni20AC" unicode="€" d="m542 641-43-89q-48 33-118 33-79 0-135.5-36.5T167 446h291l-30-70H153q-5-39-1-74h247l-30-70H162q17-70 75-110.5T372 81q87 0 160 57V29q-81-42-163-42-144 0-229 82-68 64-82 163h-68l30 70h30q-4 35 1 74h-61l30 70h41q22 86 82 146 88 87 241 87 92 0 158-38Z" horiz-adv-x="568" vert-adv-y="1000"/><glyph glyph-name="uni20B4" unicode="₴" d="M80 567q36 48 83 76 58 36 133 36 76 0 120-36 44-35 44-90 0-57-47-106h111v-70H360l-72-74h236v-70H227q-41-35-41-83 0-29 22-49 24-20 68-20 54 0 93 31 33 27 47 62l85-40q-22-55-72-95-65-52-161-52-78 0-124 33-60 42-60 114 0 55 39 99H40v70h138l72 74H40v70h269q49 35 49 80 0 26-16 41-18 17-55 17-38 0-73-20-34-20-52-46l-82 48Z" horiz-adv-x="568" vert-adv-y="1000"/><glyph glyph-name="uni20B6" unicode="₶" d="M281 667q92 0 146-36 41-26 62-69t21-87q0-84-53-137-61-61-175-61h-46v-74h158v-70H236V0H134v133H61v70h73v74H61v88h73v302h147m-45-94V365h46q70 0 104 34 26 26 26 71 0 44-28 72-32 31-103 31h-45Z" horiz-adv-x="568" vert-adv-y="1000"/><glyph glyph-name="uni20B7" unicode="₷" d="M281 667q92 0 146-36 41-26 62-69t21-87q0-84-53-137-61-61-175-61h-46v-74h158v-70H236V0H134v133H61v70h73v74H61v88h73v302h147m-45-94V365h46q70 0 104 34 26 26 26 71 0 44-28 72-32 31-103 31h-45Z" horiz-adv-x="568" vert-adv-y="1000"/><glyph glyph-name="uni20B9" unicode="₹" d="M281 667q92 0 146-36 41-26 62-69t21-87q0-84-53-137-61-61-175-61h-46v-74h158v-70H236V0H134v133H61v70h73v74H61v88h73v302h147m-45-94V365h46q70 0 104 34 26 26 26 71 0 44-28 72-32 31-103 31h-45Z" horiz-adv-x="568" vert-adv-y="1000"/><glyph glyph-name="uni20BA" unicode="₺" d="M281 667q92 0 146-36 41-26 62-69t21-87q0-84-53-137-61-61-175-61h-46v-74h158v-70H236V0H134v133H61v70h73v74H61v88h73v302h147m-45-94V365h46q70 0 104 34 26 26 26 71 0 44-28 72-32 31-103 31h-45Z" horiz-adv-x="568" vert-adv-y="1000"/><glyph glyph-name="uni20BB" unicode="₻" d="M281 667q92 0 146-36 41-26 62-69t21-87q0-84-53-137-61-61-175-61h-46v-74h158v-70H236V0H134v133H61v70h73v74H61v88h73v302h147m-45-94V365h46q70 0 104 34 26 26 26 71 0 44-28 72-32 31-103 31h-45Z" horiz-adv-x="568" vert-adv-y="1000"/><glyph glyph-name="uni20BC" unicode="₼" d="M281 667q92 0 146-36 41-26 62-69t21-87q0-84-53-137-61-61-175-61h-46v-74h158v-70H236V0H134v133H61v70h73v74H61v88h73v302h147m-45-94V365h46q70 0 104 34 26 26 26 71 0 44-28 72-32 31-103 31h-45Z" horiz-adv-x="568" vert-adv-y="1000"/><glyph glyph-name="uni20BD" unicode="₽" d="M281 667q92 0 146-36 41-26 62-69t21-87q0-84-53-137-61-61-175-61h-46v-74h158v-70H236V0H134v133H61v70h73v74H61v88h73v302h147m-45-94V365h46q70 0 104 34 26 26 26 71 0 44-28 72-32 31-103 31h-45Z" horiz-adv-x="568" vert-adv-y="1000"/><glyph glyph-name="uni20BE" unicode="₾" d="M281 667q92 0 146-36 41-26 62-69t21-87q0-84-53-137-61-61-175-61h-46v-74h158v-70H236V0H134v133H61v70h73v74H61v88h73v302h147m-45-94V365h46q70 0 104 34 26 26 26 71 0 44-28 72-32 31-103 31h-45Z" horiz-adv-x="568" vert-adv-y="1000"/><glyph glyph-name="uni20BF" unicode="₿" d="M281 667q92 0 146-36 41-26 62-69t21-87q0-84-53-137-61-61-175-61h-46v-74h158v-70H236V0H134v133H61v70h73v74H61v88h73v302h147m-45-94V365h46q70 0 104 34 26 26 26 71 0 44-28 72-32 31-103 31h-45Z" horiz-adv-x="568" vert-adv-y="1000"/><glyph glyph-name="uni20C0" unicode="⃀" d="M281 667q92 0 146-36 41-26 62-69t21-87q0-84-53-137-61-61-175-61h-46v-74h158v-70H236V0H134v133H61v70h73v74H61v88h73v302h147m-45-94V365h46q70 0 104 34 26 26 26 71 0 44-28 72-32 31-103 31h-45Z" horiz-adv-x="568" vert-adv-y="1000"/><glyph glyph-name="uni20C1" unicode="⃁" d="M281 667q92 0 146-36 41-26 62-69t21-87q0-84-53-137-61-61-175-61h-46v-74h158v-70H236V0H134v133H61v70h73v74H61v88h73v302h147m-45-94V365h46q70 0 104 34 26 26 26 71 0 44-28 72-32 31-103 31h-45Z" horiz-adv-x="568" vert-adv-y="1000"/><glyph glyph-name="uni20C2" unicode="⃂" d="M281 667q92 0 146-36 41-26 62-69t21-87q0-84-53-137-61-61-175-61h-46v-74h158v-70H236V0H134v133H61v70h73v74H61v88h73v302h147m-45-94V365h46q70 0 104 34 26 26 26 71 0 44-28 72-32 31-103 31h-45Z" horiz-adv-x="568" vert-adv-y="1000"/><glyph glyph-name="uni20C3" unicode="⃃" d="M281 667q92 0 146-36 41-26 62-69t21-87q0-84-53-137-61-61-175-61h-46v-74h158v-70H236V0H134v133H61v70h73v74H61v88h73v302h147m-45-94V365h46q70 0 104 34 26 26 26 71 0 44-28 72-32 31-103 31h-45Z" horiz-adv-x="568" vert-adv-y="1000"/><glyph glyph-name="uni20C4" unicode="⃄" d="M281 667q92 0 146-36 41-26 62-69t21-87q0-84-53-137-61-61-175-61h-46v-74h158v-70H236V0H134v133H61v70h73v74H61v88h73v302h147m-45-94V365h46q70 0 104 34 26 26 26 71 0 44-28 72-32 31-103 31h-45Z" horiz-adv-x="568" vert-adv-y="1000"/><glyph glyph-name="uni20C5" unicode="⃅" d="M281 667q92 0 146-36 41-26 62-69t21-87q0-84-53-137-61-61-175-61h-46v-74h158v-70H236V0H134v133H61v70h73v74H61v88h73v302h147m-45-94V365h46q70 0 104 34 26 26 26 71 0 44-28 72-32 31-103 31h-45Z" horiz-adv-x="568" vert-adv-y="1000"/><glyph glyph-name="uni20C6" unicode="⃆" d="M281 667q92 0 146-36 41-26 62-69t21-87q0-84-53-137-61-61-175-61h-46v-74h158v-70H236V0H134v133H61v70h73v74H61v88h73v302h147m-45-94V365h46q70 0 104 34 26 26 26 71 0 44-28 72-32 31-103 31h-45Z" horiz-adv-x="568" vert-adv-y="1000"/><glyph glyph-name="uni20C7" unicode="⃇" d="M281 667q92 0 146-36 41-26 62-69t21-87q0-84-53-137-61-61-175-61h-46v-74h158v-70H236V0H134v133H61v70h73v74H61v88h73v302h147m-45-94V365h46q70 0 104 34 26 26 26 71 0 44-28 72-32 31-103 31h-45Z" horiz-adv-x="568" vert-adv-y="1000"/><glyph glyph-name="uni20C8" unicode="⃈" d="M281 667q92 0 146-36 41-26 62-69t21-87q0-84-53-137-61-61-175-61h-46v-74h158v-70H236V0H134v133H61v70h73v74H61v88h73v302h147m-45-94V365h46q70 0 104 34 26 26 26 71 0 44-28 72-32 31-103 31h-45Z" horiz-adv-x="568" vert-adv-y="1000"/><glyph glyph-name="uni20C9" unicode="⃉" d="M281 667q92 0 146-36 41-26 62-69t21-87q0-84-53-137-61-61-175-61h-46v-74h158v-70H236V0H134v133H61v70h73v74H61v88h73v302h147m-45-94V365h46q70 0 104 34 26 26 26 71 0 44-28 72-32 31-103 31h-45Z" horiz-adv-x="568" vert-adv-y="1000"/><glyph glyph-name="uni20CA" unicode="⃊" d="M281 667q92 0 146-36 41-26 62-69t21-87q0-84-53-137-61-61-175-61h-46v-74h158v-70H236V0H134v133H61v70h73v74H61v88h73v302h147m-45-94V365h46q70 0 104 34 26 26 26 71 0 44-28 72-32 31-103 31h-45Z" horiz-adv-x="568" vert-adv-y="1000"/><glyph glyph-name="uni20CB" unicode="⃋" d="M281 667q92 0 146-36 41-26 62-69t21-87q0-84-53-137-61-61-175-61h-46v-74h158v-70H236V0H134v133H61v70h73v74H61v88h73v302h147m-45-94V365h46q70 0 104 34 26 26 26 71 0 44-28 72-32 31-103 31h-45Z" horiz-adv-x="568" vert-adv-y="1000"/><glyph glyph-name="uni20CC" unicode="⃌" d="M281 667q92 0 146-36 41-26 62-69t21-87q0-84-53-137-61-61-175-61h-46v-74h158v-70H236V0H134v133H61v70h73v74H61v88h73v302h147m-45-94V365h46q70 0 104 34 26 26 26 71 0 44-28 72-32 31-103 31h-45Z" horiz-adv-x="568" vert-adv-y="1000"/><glyph glyph-name="uni20CD" unicode="⃍" d="M281 667q92 0 146-36 41-26 62-69t21-87q0-84-53-137-61-61-175-61h-46v-74h158v-70H236V0H134v133H61v70h73v74H61v88h73v302h147m-45-94V365h46q70 0 104 34 26 26 26 71 0 44-28 72-32 31-103 31h-45Z" horiz-adv-x="568" vert-adv-y="1000"/><glyph glyph-name="uni20CE" unicode="⃎" d="M281 667q92 0 146-36 41-26 62-69t21-87q0-84-53-137-61-61-175-61h-46v-74h158v-70H236V0H134v133H61v70h73v74H61v88h73v302h147m-45-94V365h46q70 0 104 34 26 26 26 71 0 44-28 72-32 31-103 31h-45Z" horiz-adv-x="568" vert-adv-y="1000"/><glyph glyph-name="uni20CF" unicode="⃏" d="M281 667q92 0 146-36 41-26 62-69t21-87q0-84-53-137-61-61-175-61h-46v-74h158v-70H236V0H134v133H61v70h73v74H61v88h73v302h147m-45-94V365h46q70 0 104 34 26 26 26 71 0 44-28 72-32 31-103 31h-45Z" horiz-adv-x="568" vert-adv-y="1000"/><glyph glyph-name="uni20B8" unicode="₸" d="M488 441H335V0H233v441H80v96h408v-96m0 140H80v86h408v-86Z" horiz-adv-x="568" vert-adv-y="1000"/><glyph glyph-name="uni2116" unicode="№" d="M182 0H80v712l444-483v438h102V-41L182 442V0m561.5 620.5 23.75 23.25Q791 667 857 667t113.5-46.5Q1018 574 1018 510t-47.5-110.5Q923 353 857 353t-113.5 46.5Q696 446 696 510t47.5 110.5m52.5-169 11-13.25Q818 425 857 425t61 26.5q22 26.5 22 58.5t-22 58.5Q896 595 857 595t-61-26.5Q774 542 774 510t22-58.5M716 203v80h282v-80H716Z" horiz-adv-x="1060" vert-adv-y="1000"/><glyph glyph-name="uni2117" unicode="℗" d="M274 527h109q62 0 94-31 30-28 30-80 0-51-28-80-33-35-112-35h-22V153h-71v374m71-63V360h14q40 0 60 15 18 14 18 41 0 25-19 39-14 9-49 9h-24m240 82-42 42q-42 42-164 42t-206-84q-84-84-84-213t84-213q84-84 206-84t206 84q84 84 84 213t-84 213m42 36 49-49q49-49 49-200T627 84q-98-98-248-98T131 84q-98 98-98 249t98 249q98 98 248 98t248-98Z" horiz-adv-x="758" vert-adv-y="1000"/><glyph glyph-name="uni2122" unicode="™" d="M238 601h-84V287H84v314H0v66h238v-66m93-314h-71l82 414 126-280 127 280 81-414h-71l-35 206-102-213-102 213-35-206Z" horiz-adv-x="710" vert-adv-y="1000"/><glyph glyph-name="uni2202" unicode="∂" d="m96 586 18 87q123-15 213-76 78-54 118-135 45-89 45-212 0-137-66-204-59-59-157-59-100 0-162 63-65 66-65 160 0 100 64 164 58 58 142 58 78 0 131-47-27 96-114 148-76 46-167 53M265 75q56 0 86 30 39 37 39 104t-40 104q-35 31-85 31-52 0-85-31-40-40-40-104 0-69 40-105 33-29 85-29Z" horiz-adv-x="530" vert-adv-y="1000"/><glyph glyph-name="uni220F" unicode="∏" d="M38 654v96h638v-96h-80v-808h80v-96H413v96h81v808H221v-808h80v-96H38v96h81v808H38Z" horiz-adv-x="714" vert-adv-y="1000"/><glyph glyph-name="uni2211" unicode="∑" d="M32 750h598V505h-94v149H172l220-382-220-426h372V-7h94v-243H32v46l252 476L32 704v46Z" horiz-adv-x="700" vert-adv-y="1000"/><glyph glyph-name="uni2212" unicode="−" d="M33 291v90h434v-90H33Z" horiz-adv-x="500" vert-adv-y="1000"/><glyph glyph-name="uni2215" unicode="∕" d="m0-177 526 942 80-36L80-213 0-177Z" horiz-adv-x="684" vert-adv-y="1000"/><glyph glyph-name="uni2219" unicode="∙" d="m44.5 284.5-11.25 11.25Q22 307 22 340t22.5 55.5Q67 418 100 418t55.5-22.5Q178 373 178 340t-22.5-55.5Q133 262 100 262t-55.5 22.5Z" horiz-adv-x="200" vert-adv-y="1000"/><glyph glyph-name="uni221A" unicode="√" d="M394 827h274v-88H478L285 0H159L88 286H0v88h168l50-251h8l168 704Z" horiz-adv-x="668" vert-adv-y="1000"/><glyph glyph-name="uni221E" unicode="∞" d="M335 275q-67-93-162-93-68 0-111.5 44T18 339q0 70 43.5 114.5T174 498q98 0 161-93 63 93 161 93 69 0 112.5-44.5T652 339q0-69-43.5-113T497 182q-95 0-162 93m147 135q-27 0-53.5-20.5T384 340q17-30 44-50t54-20q31 0 51 20t20 50q0 29-21 49.5T482 410M188 270q27 0 54 20t44 50q-18 29-44.5 49.5T188 410q-29 0-50-20.5T117 340q0-30 20-50t51-20Z" horiz-adv-x="670" vert-adv-y="1000"/><glyph glyph-name="uni222B" unicode="∫" d="m75-239 18 86q24-13 53-13 26 0 40 15t14 87v618q0 37 1 55.5t8.5 47Q217 685 233 704q40 46 117 46 41 0 75-11l-18-86q-24 13-53 13-26 0-40-15t-14-87V-54q0-37-1-55.5t-8.5-47Q283-185 267-204q-40-46-117-46-41 0-75 11Z" horiz-adv-x="500" vert-adv-y="1000"/><glyph glyph-name="uni2248" unicode="≈" d="m435 505 57-33q-26-62-66-93-36-28-83-28-36 0-112 32-61 26-87 26-31 0-51-22-18-18-29-45L8 378q21 51 50 83 37 42 92 42 38 0 110-31 65-28 93-28 29 0 49 18 20 17 33 43m0-182 57-33q-26-61-66-93-36-28-83-28-36 0-112 32-61 26-87 26-31 0-51-22-18-18-29-45L8 196q21 51 50 83 37 42 92 42 38 0 110-31 65-28 93-28 29 0 49 18 20 17 33 43Z" horiz-adv-x="500" vert-adv-y="1000"/><glyph glyph-name="uni2260" unicode="≠" d="M33 380v84h238l52 110h78l-52-110h118v-84H309l-37-78h195v-84H232l-55-116H99l55 116H33v84h161l37 78H33Z" horiz-adv-x="500" vert-adv-y="1000"/><glyph glyph-name="uni2264" unicode="≤" d="m137 391 330-149v-92L33 350v82l434 200v-92L137 391M467 32H33v90h434V32Z" horiz-adv-x="500" vert-adv-y="1000"/><glyph glyph-name="uni2265" unicode="≥" d="M363 391 33 540v92l434-200v-82L33 150v92l330 149M467 32H33v90h434V32Z" horiz-adv-x="500" vert-adv-y="1000"/><glyph glyph-name="uni22C5" unicode="⋅" d="m44.5 284.5-11.25 11.25Q22 307 22 340t22.5 55.5Q67 418 100 418t55.5-22.5Q178 373 178 340t-22.5-55.5Q133 262 100 262t-55.5 22.5Z" horiz-adv-x="200" vert-adv-y="1000"/><glyph glyph-name="uni25CA" unicode="◊" d="m90 334 260 360 260-360L350-26 90 334m406 0L350 536 204 334l146-202 146 202Z" horiz-adv-x="700" vert-adv-y="1000"/><glyph glyph-name="uni25E6" unicode="◦" d="m146 419-21 21q-21 21-21 82t42 103q42 42 104 42t104-42q42-42 42-103t-42-103q-42-42-104-42t-104 42m44.5 165-12.25-12.5Q166 559 166 522t24.5-62q24.5-25 59.5-25t59.5 25q24.5 25 24.5 62t-24.5 62Q285 609 250 609t-59.5-25Z" horiz-adv-x="500" vert-adv-y="1000"/><glyph glyph-name="uniF400" unicode="" d="m-173 675 90-46-156-144-54 34 120 156Z" horiz-adv-x="2" vert-adv-y="1000"/><glyph glyph-name="uniF401" unicode="" d="m-314 727-48 40 138 139 86-60-176-119Z" horiz-adv-x="2" vert-adv-y="1000"/><glyph glyph-name="uniF406" unicode="" d="M338 874h82q-9-49-40-86-48-58-130-58t-130 58q-31 37-40 86h82q9-33 34-49 22-15 54-15t54 15q25 16 34 49Z" horiz-adv-x="500" vert-adv-y="1000"/><glyph glyph-name="uniF407" unicode="" d="m290-53 86-38-112-133-64 32 90 139Z" horiz-adv-x="500" vert-adv-y="1000"/><glyph glyph-name="uniF408" unicode="" d="m250 812-99-82-66 56 165 134 165-134-66-56-99 82Z" horiz-adv-x="500" vert-adv-y="1000"/><glyph glyph-name="uniF409" unicode="" d="m170-242 72 192 88-34-90-186-70 28Z" horiz-adv-x="500" vert-adv-y="1000"/><glyph glyph-name="uniF40A" unicode="" d="m150 468 82 212 88-34-104-206-66 28Z" horiz-adv-x="500" vert-adv-y="1000"/><glyph glyph-name="uniF40B" unicode="" d="m202.5 753-9.75 9.5Q183 772 183 801t19.5 48q19.5 19 47.5 19t47.5-19q19.5-19 19.5-48t-19.5-48Q278 734 250 734t-47.5 19Z" horiz-adv-x="500" vert-adv-y="1000"/><glyph glyph-name="uniF40C" unicode="" d="M153 823q0 41 28.5 69t68.5 28q40 0 68.5-28t28.5-69q0-40-28-68.5T250 726q-40 0-68.5 28.5T153 823m66.5 30.5-6.25-6.25Q207 841 207 823t12.5-30.5Q232 780 250 780t30.5 12.5Q293 805 293 823t-12.5 30.5Q268 866 250 866t-30.5-12.5Z" horiz-adv-x="500" vert-adv-y="1000"/><glyph glyph-name="uniF40D" unicode="" d="m372 863 58-46q-41-84-116-84-27 0-55 13-12 6-20.5 10t-12 6q-3.5 2-9.5 4-25 9-37 9-36 0-51-42l-59 41q19 34 42 54 32 27 70 27 22 0 49-9 32-14 46-21 28-14 41-14 39 0 54 52Z" horiz-adv-x="500" vert-adv-y="1000"/><glyph glyph-name="uniF40E" unicode="" d="M246 0h78q-31-17-51-39-21-23-21-45 0-31 40-31 24 0 52 7l-9-70q-31-15-66-15-41 0-70 24t-29 64q0 34 26 64 19 22 50 41Z" horiz-adv-x="500" vert-adv-y="1000"/><glyph glyph-name="uniF460" unicode="" d="m542 0-70 161H187L114 0H4l332 706L652 0H542M229 257h202l-99 226-103-226m83 470-48 40 138 139 86-60-176-119Z" horiz-adv-x="656" vert-adv-y="1000"/><glyph glyph-name="uniF461" unicode="" d="M448 667v-96H182V402h258v-96H182V96h266V0H80v667h368m-214 60-48 40 138 139 86-60-176-119Z" horiz-adv-x="500" vert-adv-y="1000"/><glyph glyph-name="uniF462" unicode="" d="M530 0v449L80-30v697h102V216l450 479V0H530M340 727l-48 40 138 139 86-60-176-119Z" horiz-adv-x="712" vert-adv-y="1000"/><glyph glyph-name="uniF463" unicode="" d="m147 580 49.5 49.5Q246 679 395 679t248-99q99-99 99-247T643 86q-99-99-248-99T147 86q-99 99-99 247t99 247m72-428.5 34.5-35.25Q288 81 395 81t176 70.5Q640 222 640 333t-69 181.5Q502 585 395 585t-176-70.5Q150 444 150 333t69-181.5M379 727l-48 40 138 139 86-60-176-119Z" horiz-adv-x="790" vert-adv-y="1000"/><glyph glyph-name="uniF464" unicode="" d="M6 667h124l172-356 156 356h106L263 0H157l86 189L6 667m263 60-48 40 138 139 86-60-176-119Z" horiz-adv-x="570" vert-adv-y="1000"/><glyph glyph-name="uniF465" unicode="" d="M80 0v667h102V398h76q107 0 167-53 63-55 63-147 0-48-21.5-91.5T405 36Q351 0 259 0H80m102 302V96h72q134 0 134 101 0 44-29.5 74.5T256 302h-74m376 365h102V0H558v667m-204 60-48 40 138 139 86-60-176-119Z" horiz-adv-x="740" vert-adv-y="1000"/><glyph glyph-name="uniF466" unicode="" d="M48 511v120q84 48 193 48 146 0 234-87 99-98 99-258 0-157-99-256-91-91-237-91-106 0-190 50v121q76-77 190-77 102 0 162 60t68 149H138v96h328q-9 81-61 135-62 64-166 64-108 0-191-74m191 216-48 40 138 139 86-60-176-119Z" horiz-adv-x="622" vert-adv-y="1000"/><glyph glyph-name="uniF467" unicode="" d="M182 402h100q17 104 89 178 97 99 244 99 146 0 241.5-99T952 333q0-148-96-247T615-13q-166 0-261 117-69 86-72 202H182V0H80v667h102V402m264-250 33-35.5Q512 81 615 81t169 71q66 71 66 181t-66 181q-66 71-169 71t-169-71q-66-71-66-181t66-181m38 575-48 40 138 139 86-60-176-119Z" horiz-adv-x="1000" vert-adv-y="1000"/><glyph glyph-name="uniF468" unicode="" d="m20 0 198 278q-59 7-103 45-57 50-57 142 0 84 51 139 27 29 64 44t60 17q23 2 57 2h164V0H352v267h-24L146 0H20m332 573h-50q-82 0-114-31-32-30-32-77 0-54 38-80 36-24 102-24h56v212M251 727l-48 40 138 139 86-60-176-119Z" horiz-adv-x="534" vert-adv-y="1000"/><glyph glyph-name="uniF469" unicode="" d="M448 667v-96H182V402h258v-96H182V96h266V0H80v667h368m-229 71-33 29 111 139 63-46-141-122M63 802q0 19 15 37t41 18q24 0 40-16t16-39q0-24-16-40t-40-16q-26 0-41 18t-15 38m290 0q0 23 16 39t40 16q26 0 41-18t15-37q0-20-15-38t-41-18q-24 0-40 16t-16 40Z" horiz-adv-x="500" vert-adv-y="1000"/><glyph glyph-name="uniF46A" unicode="" d="M370 372v49h98V0h-98v44q-49-57-126-57-93 0-148.5 66T40 211q0 100 59.5 160.5T245 432q79 0 125-60m-113-28q-52 0-84.5-39T140 209q0-56 32.5-95T257 75q50 0 84.5 35t34.5 98q0 65-34.5 100.5T257 344m83 331 90-46-156-144-54 34 120 156Z" horiz-adv-x="530" vert-adv-y="1000"/><glyph glyph-name="uniF46B" unicode="" d="m357 142 82-46q-28-50-71-77-49-32-124-32-88 0-142 54-62 62-62 161 0 104 67 173 57 57 141 57 82 0 135-55 59-61 59-178v-12H140q4-53 36-85 27-27 75-27 39 0 67 21 23 18 39 46M147 267h195q-6 35-30 57-26 24-66 24-42 0-69-27-22-20-30-54m171 408 90-46-156-144-54 34 120 156Z" horiz-adv-x="482" vert-adv-y="1000"/><glyph glyph-name="uniF46C" unicode="" d="M62 421h98V182l288 277V0h-98v245L62-32v453m268 254 90-46-156-144-54 34 120 156Z" horiz-adv-x="510" vert-adv-y="1000"/><glyph glyph-name="uniF46D" unicode="" d="m104.5 369.5 32.25 31.25Q169 432 265 432t160.5-62.5Q490 307 490 210q0-96-64.5-159.5T265-13q-96 0-160.5 63.5T40 210q0 97 64.5 159.5m69.5-258 17-18.25Q208 75 265 75t91 36.5q34 36.5 34 97.5 0 67-36.5 101T265 344q-52 0-88.5-34T140 209q0-61 34-97.5M340 675l90-46-156-144-54 34 120 156Z" horiz-adv-x="530" vert-adv-y="1000"/><glyph glyph-name="uniF46E" unicode="" d="M31-229 186 66 6 421h118l120-246 122 246h110L141-229H31m285 904 90-46-156-144-54 34 120 156Z" horiz-adv-x="482" vert-adv-y="1000"/><glyph glyph-name="uniF46F" unicode="" d="M62 0v421h98V272h56q27 0 44-1.5t41-11.5q24-10 42-30 33-37 33-92 0-63-38-101-17-17-40.5-25.5t-39-9.5Q243 0 215 0H62m98 84h45q36 0 51 9 22 16 22 43 0 28-21 42-16 10-51 10h-46V84M420 0v421h98V0h-98m-55 675 90-46-156-144-54 34 120 156Z" horiz-adv-x="580" vert-adv-y="1000"/><glyph glyph-name="uniF470" unicode="" d="M40 317v93q56 22 119 22 106 0 168-62 61-61 61-159T326 50q-60-63-157-63-68 0-129 24v93q51-29 115-29 61 0 95 34 25 25 31 65H86v82h192q-8 45-42 67-30 21-81 21-60 0-115-27m183 358 90-46-156-144-54 34 120 156Z" horiz-adv-x="428" vert-adv-y="1000"/><glyph glyph-name="uniF471" unicode="" d="M160 265h67q10 59 55 105 62 62 157 62 94 0 157.5-62.5T660 210q0-96-63.5-159.5T439-13q-100 0-162 67-46 50-52 121h-65V0H62v421h98V265m365 45-17.5 17Q490 344 439 344t-86-34q-35-34-35-101t35-100.5Q388 75 439 75t86 33.5Q560 142 560 209t-35 101M425 675l90-46-156-144-54 34 120 156Z" horiz-adv-x="700" vert-adv-y="1000"/><glyph glyph-name="uniF472" unicode="" d="m8 0 132 167q-39 6-67 32-35 34-35 87 0 60 39 97 40 38 122 38h157V0h-98v155h-20L123 0H8m250 235v102h-57q-35 0-51-9-24-15-24-42t20-41q15-10 54-10h58m26 440 90-46-156-144-54 34 120 156Z" horiz-adv-x="418" vert-adv-y="1000"/><glyph glyph-name="uniF473" unicode="" d="m357 142 82-46q-28-50-71-77-49-32-124-32-88 0-142 54-62 62-62 161 0 104 67 173 57 57 141 57 82 0 135-55 59-61 59-178v-12H140q4-53 36-85 27-27 75-27 39 0 67 21 23 18 39 46M147 267h195q-6 35-30 57-26 24-66 24-42 0-69-27-22-20-30-54m118 408 74-37-144-144-38 25 108 156M52 575q0 24 15.5 40t39.5 16q24 0 40-16t16-40q0-26-18-41t-38-15q-20 0-37.5 15.5T52 575m270 0q0 24 16 40t40 16q26 0 41-18t15-38q0-23-17-39.5T378 519q-20 0-38 15t-18 41Z" horiz-adv-x="482" vert-adv-y="1000"/><glyph glyph-name="uniF4C6" unicode="" d="M60 667h102V485q0-75 36-103 27-21 106-21 57 0 120 7v299h102V-86q0-82-44-117-33-27-94-27-36 0-66 9v92q23-9 47-9 33 0 46 22 9 15 9 60v330q-91-7-136-7-111 0-163 41-65 51-65 162v197Z" horiz-adv-x="606" vert-adv-y="1000"/><glyph glyph-name="uniF4C7" unicode="" d="M290 421h98V-86q0-83-44-117-35-27-90-27-42 0-66 9v88q22-9 47-9 33 0 46 22 9 15 9 60v223q-45-9-86-9-72 0-111 31-41 33-41 101v135h98V306q0-43 25-58 17-10 49-10 36 0 66 11v172Z" horiz-adv-x="450" vert-adv-y="1000"/><glyph glyph-name="uniF4CC" unicode="" d="M6 667h124l172-356 156 356h106L263 0H157l86 189L6 667m266 60-48 40 138 139 86-60-176-119Z" horiz-adv-x="570" vert-adv-y="1000"/><glyph glyph-name="uniF4CD" unicode="" d="M31-229 186 66 6 421h118l120-246 122 246h110L141-229H31m285 904 90-46-156-144-54 34 120 156Z" horiz-adv-x="482" vert-adv-y="1000"/><glyph glyph-name="uniF5F5" unicode="" d="m422 567-82-48q-10 24-30 42-28 24-72 24-47 0-74-27-20-20-20-51 0-34 26-56 20-17 63-34l50-20q76-31 111-70 46-51 46-126 0-90-58-152Q336 0 272-9v-101h-74v98Q121-6 68 54q-49 55-56 130l101 22q0-48 28-85 32-40 87-40 48 0 79 32 31 31 31 80 0 43-29 73-19 20-67 41l-64 27q-58 25-94 61-42 43-42 102 0 80 51 129 43 41 105 50v89h74v-88q48-4 87-33 41-32 63-77Z" horiz-adv-x="455" vert-adv-y="1000"/><glyph glyph-name="uniF5F6" unicode="" d="m568 641-43-89q-48 33-118 33-79 0-135.5-36.5T193 446h291l-30-70H179q-5-39-1-74h247l-30-70H188q17-70 75-110.5T398 81q87 0 160 57V29q-81-42-163-42-144 0-229 82-68 64-82 163H16l30 70h30q-4 35 1 74H16l30 70h41q22 86 82 146 88 87 241 87 92 0 158-38Z" horiz-adv-x="598" vert-adv-y="1000"/><glyph glyph-name="uniF5F7" unicode="" d="M359 527V418q-48 51-122 51-53 0-87-34-39-37-39-100 0-64 38-100 37-35 92-35 70 0 118 54V145q-44-29-94-32V13h-74v103q-71 11-120 60-60 60-60 158 0 102 68 166 48 46 112 54v101h74v-99q49-4 94-29Z" horiz-adv-x="377" vert-adv-y="1000"/><glyph glyph-name="uniF5F8" unicode="" d="M512 444h-98v4q0 70-35 105-31 31-80 31-53 0-86-31-33-33-33-81 0-45 51-142h130v-72H260q12-36 12-65 0-34-14-65l53-19q60-20 76-20 48 0 69 63l82-48q-22-46-51-75-38-38-97-38-40 0-112 25-76 28-101 28-49 0-68-59L22 29q26 56 70 87 30 20 63 22 15 30 15 62 0 34-15 58H41v72h78q-41 86-41 141 0 87 57 144 65 63 165 63 95 0 151-56 61-61 61-173v-5Z" horiz-adv-x="560" vert-adv-y="1000"/><glyph glyph-name="uniF5F9" unicode="" d="M510 377H367l-41-74h184v-70H318V0h-94v233H32v70h184l-41 74H32v70h104L15 667h110l146-267 146 267h110L406 447h104v-70Z" horiz-adv-x="542" vert-adv-y="1000"/><glyph glyph-name="uniF5FA" unicode="" d="m494 731-18-93q-21 10-44 10-32 0-51-21-18-21-28-74l-24-132h112l-14-78H315L264 64q-9-48-14.5-72t-21-59.5Q213-103 192-123q-64-62-186-53l16 93h6q63 0 90 27 27 26 44 119l51 280h-85l14 78h85l26 144q16 90 58 132 43 43 115 43 36 0 68-9Z" horiz-adv-x="500" vert-adv-y="1000"/><glyph glyph-name="uniF5FB" unicode="" d="M60 567q36 48 83 76 58 36 133 36 76 0 120-36 44-35 44-90 0-57-47-106h111v-70H340l-72-74h236v-70H207q-41-35-41-83 0-29 22-49 24-20 68-20 54 0 93 31 33 27 47 62l85-40q-22-55-72-95-65-52-161-52-78 0-124 33-60 42-60 114 0 55 39 99H20v70h138l72 74H20v70h269q49 35 49 80 0 26-16 41-18 17-55 17-38 0-73-20-34-20-52-46l-82 48Z" horiz-adv-x="523" vert-adv-y="1000"/><glyph glyph-name="uniF5FC" unicode="" d="M240 667q92 0 146-36 41-26 62-69t21-87q0-84-53-137-61-61-175-61h-46v-74h158v-70H195V0H93v133H20v70h73v74H20v88h73v302h147m-45-94V365h46q70 0 104 34 26 26 26 71 0 44-28 72-32 31-103 31h-45Z" horiz-adv-x="480" vert-adv-y="1000"/><glyph glyph-name="uniF5FD" unicode="" d="M420 441H267V0H165v441H12v96h408v-96m0 140H12v86h408v-86Z" horiz-adv-x="432" vert-adv-y="1000"/><glyph glyph-name="uniF639" unicode="" d="M412 61q-63-72-151-72T110 61q-85 97-85 272 0 176 85 273 63 72 151 72t151-72q85-97 85-273 0-175-85-272m-61 472q-36 55-90 55t-90-55q-46-68-46-199 0-130 46-200 36-55 90-55t90 55q46 70 46 200 0 131-46 199Z" horiz-adv-x="522" vert-adv-y="1000"/><glyph glyph-name="uniF63A" unicode="" d="M469 94V0H21l231 280q52 63 80 104 35 52 35 96 0 45-29 76.5T256 588q-53 0-84-35t-34-86H40q4 88 56 146 58 65 156 65 101 0 158-59t57-142q0-69-48-140-26-39-95-120L220 94h249Z" horiz-adv-x="496" vert-adv-y="1000"/><glyph glyph-name="uniF63B" unicode="" d="M138 497H40q4 79 57 130t146 51q91 0 144-55 48-49 48-127 0-50-23-88-23-36-60-56 42-16 66-53 28-41 28-103 0-92-57-149-58-58-163-58-97 0-149 56-49 52-57 136h98q8-45 36-72 32-30 81-30 47 0 78 28 35 33 35 94 0 50-30 79-31 30-86 30h-20v86h14q56 0 85 29 26 26 26 71 0 41-26 67-26 25-71 25-48 0-74-27-10-11-17-26.5t-9-24.5q-2-9-2-13Z" horiz-adv-x="472" vert-adv-y="1000"/><glyph glyph-name="uniF63C" unicode="" d="M429 716V220h72v-94h-72V0h-98v126H1l428 590M179 218h152v215L179 218Z" horiz-adv-x="522" vert-adv-y="1000"/><glyph glyph-name="uniF63D" unicode="" d="M463 667v-94H257l-33-111q20 2 31 2 94 0 154-59 65-63 65-171 0-109-68-177-69-68-185-68-76 0-128 30-48 29-79 77l77 64q14-34 51-58 34-23 87-23 63 0 102 37 43 43 43 113t-40 108q-39 37-109 37-40 0-78-14-34-13-59-30l99 337h276Z" horiz-adv-x="500" vert-adv-y="1000"/><glyph glyph-name="uniF63E" unicode="" d="m313 690 74-55-159-201q20 4 42 4 94 0 154-62 59-62 59-156 0-103-66-168-64-63-172-63-109 0-172 65-58 61-58 151 0 66 32 128 7 14 14.5 26.5t17 26.5Q88 400 93 406.5t18.5 24Q125 448 128 452l185 238m31-376q-37 37-94 37t-96-37q-39-37-39-99t39-99q39-37 96-37t94 37q39 39 39 99t-39 99Z" horiz-adv-x="502" vert-adv-y="1000"/><glyph glyph-name="uniF63F" unicode="" d="m27 27 332 546H31v94h496L107-23 27 27Z" horiz-adv-x="529" vert-adv-y="1000"/><glyph glyph-name="uniF640" unicode="" d="m314 272-15.5 15.5Q283 303 235 303t-79-31q-31-31-31-81 0-45 30-78 30-34 80-34t80 34q30 33 30 78 0 50-31 81m-6 289q-29 27-73 27t-73-27q-28-28-28-74 0-43 27-70 28-30 74-30t74 30q27 27 27 70 0 46-28 74m37-214q45-19 70-54 30-40 30-100 0-87-53-142-58-62-157-62T78 51q-53 55-53 142 0 60 30 100 25 35 70 54-36 15-59 50-24 38-24 91 0 85 56 139 54 51 137 51t137-51q56-54 56-139 0-53-24-91-23-35-59-50Z" horiz-adv-x="470" vert-adv-y="1000"/><glyph glyph-name="uniF641" unicode="" d="m189-23-74 55 157 201q-17-4-36-4-94 0-156 62-61 61-61 152 0 99 66 167t172 68q108 0 172-66 58-60 58-151 0-65-32-127-7-14-14.5-26.5t-17-26.5q-9.5-14-14.5-20.5t-18.5-24Q377 219 374 215L189-23m63 339q57 0 96 40 39 41 39 99t-39 95q-40 38-95 38t-95-38q-39-39-39-98 0-60 39-99 39-37 94-37Z" horiz-adv-x="501" vert-adv-y="1000"/><glyph glyph-name="uniF6BA" unicode="" d="M50 288v102h240V288H50Z" horiz-adv-x="340" vert-adv-y="1000"/><glyph glyph-name="uniF6BB" unicode="" d="M70 294v90h480v-90H70Z" horiz-adv-x="620" vert-adv-y="1000"/><glyph glyph-name="uniF6BC" unicode="" d="M70 294v90h700v-90H70Z" horiz-adv-x="840" vert-adv-y="1000"/><glyph glyph-name="uniF6C3" unicode="" d="m170-242 72 192 88-34-90-186-70 28Z" horiz-adv-x="500" vert-adv-y="1000"/><glyph glyph-name="uniF6C9" unicode="" d="m234 727-48 40 138 139 86-60-176-119Z" horiz-adv-x="500" vert-adv-y="1000"/><glyph glyph-name="uniF6CA" unicode="" d="m250 838 99 82 66-56-165-134L85 864l66 56 99-82Z" horiz-adv-x="500" vert-adv-y="1000"/><glyph glyph-name="uniF6CB" unicode="" d="m108 751-9 9q-9 9-9 35t18 44q18 18 44 18t44-18q18-18 18-44t-18-44q-18-18-44-18t-44 18m196 0-9 9q-9 9-9 35t18 44q18 18 44 18t44-18q18-18 18-44t-18-44q-18-18-44-18t-44 18Z" horiz-adv-x="500" vert-adv-y="1000"/><glyph glyph-name="uniF6CE" unicode="" d="M266 727 90 846l86 60 138-139-48-40Z" horiz-adv-x="500" vert-adv-y="1000"/><glyph glyph-name="uniF6CF" unicode="" d="m232 906 78-52-156-127-44 36 122 143m200 0 78-52-156-127-44 36 122 143Z" horiz-adv-x="500" vert-adv-y="1000"/><glyph glyph-name="uniF6D0" unicode="" d="M70 733v80h360v-80H70Z" horiz-adv-x="500" vert-adv-y="1000"/><glyph glyph-name="uniF6D1" unicode="" d="m85 832 80 36q6-19 18.5-31.5t28-17q15.5-4.5 23.5-6t15-1.5q7 0 15 1.5t23.5 6q15.5 4.5 28 17T335 868l80-36q-23-56-69.5-79T250 730q-49 0-95.5 23T85 832Z" horiz-adv-x="500" vert-adv-y="1000"/><glyph glyph-name="uniF6D4" unicode="" d="m88 603 80 23q19-65 82-65 62 0 82 65l80-23q-16-57-64.5-87.5T250 485q-49 0-97.5 30.5T88 603Z" horiz-adv-x="500" vert-adv-y="1000"/><glyph glyph-name="uniF6DC" unicode="" d="M121 0v573H5l56 94h162V0H121Z" horiz-adv-x="259" vert-adv-y="1000"/><glyph glyph-name="uniF6DE" unicode="" d="M52 168v90h525v-90H52Z" horiz-adv-x="630" vert-adv-y="1000"/><glyph glyph-name="uniFB01" unicode="ﬁ" d="M268 331H162V0H64v331H30v90h34v140q0 78 26 115 46 65 146 65 104 0 146-65 26-42 26-115v-29h-98v18q0 45-12 65-19 32-62 32-44 0-62-32-12-19-12-65V421h106v-90m42 90h98V0h-98v421Z" horiz-adv-x="470" vert-adv-y="1000"/><glyph glyph-name="uniFB02" unicode="ﬂ" d="M268 331H162V0H64v331H30v90h34v140q0 78 26 115 46 65 146 65 104 0 146-65 26-40 26-115V0h-98v550q0 43-12 65-18 32-62 32t-62-32q-12-19-12-65V421h106v-90Z" horiz-adv-x="470" vert-adv-y="1000"/></font>
</defs>
</svg>
