<svg width="34" height="24" fill="none" xmlns="http://www.w3.org/2000/svg"><rect x=".3" y=".3" width="33.4" height="23.4" rx="3.7" fill="#fff" stroke="#DCE4F1" stroke-width=".6"/><path d="M15.096 16.459h-2.264l1.416-8.4h2.263l-1.415 8.4Zm8.206-8.193a5.785 5.785 0 0 0-2.03-.358c-2.236 0-3.81 1.144-3.82 2.78-.018 1.206 1.127 1.876 1.984 2.278.876.411 1.174.68 1.174 1.046-.01.563-.708.822-1.36.822-.903 0-1.388-.133-2.123-.447l-.299-.134-.316 1.886c.53.232 1.509.438 2.524.447 2.375 0 3.922-1.126 3.94-2.869.01-.956-.596-1.689-1.9-2.287-.792-.385-1.277-.644-1.277-1.037.01-.358.41-.724 1.304-.724a3.985 3.985 0 0 1 1.686.322l.205.089.308-1.814Z" fill="#15195A"/><path fill-rule="evenodd" clip-rule="evenodd" d="M27.354 8.059h1.751l1.826 8.4h-2.096s-.205-.965-.27-1.26H25.66l-.475 1.26H22.81l3.362-7.703c.233-.546.643-.697 1.183-.697Zm-.14 3.074-.903 2.35h1.881c-.093-.42-.521-2.43-.521-2.43l-.159-.725a44.558 44.558 0 0 1-.297.805ZM3.024 8.059h3.642c.493.017.894.17 1.024.706l.792 3.859v.001l.242 1.162 2.217-5.728h2.393L9.777 16.45H7.383l-2.018-7.3a9.452 9.452 0 0 0-2.379-.922l.038-.17Z" fill="#15195A"/></svg>