<svg><defs><font id="FuturaPT-Book" horiz-adv-x="1060" vert-adv-y="1060"><font-face font-family="Futura PT Book" font-weight="400" ascent="982" descent="-300"/><glyph glyph-name="uni21" unicode="!" d="M176 135h-72v532h72V135M105 5l-7.5 7.5Q90 20 90 40t15 35q15 15 35 15t35-15q15-15 15-35T175 5q-15-15-35-15T105 5Z" horiz-adv-x="280" vert-adv-y="1000"/><glyph glyph-name="uni22" unicode="&quot;" d="m134 667-13-268H67L54 667h80m142 0-13-268h-54l-13 268h80Z" horiz-adv-x="330" vert-adv-y="1000"/><glyph glyph-name="uni23" unicode="#" d="M394 0h-73l32 207H217L185 0h-73l32 207H34l10 66h110l20 133H64l10 66h110l30 195h73l-30-195h136l30 195h73l-30-195h110l-10-66H456l-20-133h110l-10-66H426L394 0m-31 273 20 133H247l-20-133h136Z" horiz-adv-x="600" vert-adv-y="1000"/><glyph glyph-name="uni24" unicode="$" d="m467 574-59-39q-15 30-38 50-19 17-43 21V384q79-31 117-70 47-48 47-121 0-72-44-130.5T327-8v-93h-60v89q-75 3-128 54-46 46-62 118l72 20q7-53 40-85 34-35 78-37v274q-72 29-110 65-46 43-46 109 0 70 45 117t111 53v87h60v-87q42-4 76-28 40-28 64-74M327 304V62q40 11 64 48t24 80q0 47-32 79-21 21-56 35m-60 107v195q-39-6-60.5-34T185 507q0-35 25-60 22-22 57-36Z" horiz-adv-x="568" vert-adv-y="1000"/><glyph glyph-name="uni25" unicode="%" d="m75 631 21 21q21 21 82 21t103-42q42-42 42-103t-42-103q-42-42-103-42T75 425q-42 42-42 103t42 103m103-193q36 0 60.5 26.5T263 528q0 37-24.5 63.5T178 618q-35 0-60-26.5T93 528q0-37 25-63.5t60-26.5M141 10l389 670 39-22L180-13l-39 23m288 231 21 21q21 21 82 21t103-42q42-42 42-103T635 35Q593-7 532-7T429 35q-42 42-42 103t42 103M532 48q36 0 60.5 26.5T617 138q0 37-24.5 63.5T532 228q-35 0-60-26.5T447 138q0-37 25-63.5T532 48Z" horiz-adv-x="710" vert-adv-y="1000"/><glyph glyph-name="uni26" unicode="&amp;" d="m545 289 54-45q-33-45-85-99L626 0h-92l-72 93q-46-46-103.5-75.5T247-12q-82 0-137.5 53T54 173q0 78 60 138 31 31 112 83-66 85-66 143 0 57 38.5 99T305 678q66 0 103.5-40t37.5-94q0-67-62-121-7-6-18.5-14.5T330 380l139-179q51 54 76 88M417 148 269 339q-53-33-94-69-47-42-47-96 0-50 33.5-84T246 56q75 0 171 92M257 475l30-41 44 34q45 36 45 77 0 33-21.5 51T304 614q-31 0-52.5-21T230 541q0-29 27-66Z" horiz-adv-x="636" vert-adv-y="1000"/><glyph glyph-name="uni27" unicode="'" d="m134 667-13-268H67L54 667h80Z" horiz-adv-x="188" vert-adv-y="1000"/><glyph glyph-name="uni28" unicode="(" d="m167 740 63-29q-33-87-51-173-25-121-25-252 0-130 24-244 18-88 52-183l-63-29Q121-49 101 56 80 167 80 288q0 138 28 260 22 94 59 192Z" horiz-adv-x="294" vert-adv-y="1000"/><glyph glyph-name="uni29" unicode=")" d="m64 711 63 29q37-98 59-192 28-122 28-260 0-121-21-232-20-105-66-226l-63 29q34 95 52 183 24 114 24 244 0 131-25 252-18 86-51 173Z" horiz-adv-x="294" vert-adv-y="1000"/><glyph glyph-name="uni2a" unicode="*" d="m139 648 116-43-5 124h68l-5-124 116 43 21-63-120-34 77-97-54-39-69 103-69-103-54 39 77 97-120 34 21 63Z" horiz-adv-x="568" vert-adv-y="1000"/><glyph glyph-name="uni2b" unicode="+" d="M33 300v66h181v172h72V366h181v-66H286V128h-72v172H33Z" horiz-adv-x="500" vert-adv-y="1000"/><glyph glyph-name="uni2c" unicode="," d="m24-133 82 231 66-24L71-152l-47 19Z" horiz-adv-x="274" vert-adv-y="1000"/><glyph glyph-name="uni2d" unicode="-" d="M50 176v74h220v-74H50Z" horiz-adv-x="320" vert-adv-y="1000"/><glyph glyph-name="uni2e" unicode="." d="m79 5-7.5 7.5Q64 20 64 40t15 35q15 15 35 15t35-15q15-15 15-35T149 5q-15-15-35-15T79 5Z" horiz-adv-x="228" vert-adv-y="1000"/><glyph glyph-name="uni2f" unicode="/" d="m0-170 514 929 58-30L58-198 0-170Z" horiz-adv-x="592" vert-adv-y="1000"/><glyph glyph-name="uni30" unicode="0" d="M455 88Q386-12 284-12T113 88q-67 97-67 245t67 245q69 100 171 100t171-100q67-97 67-245T455 88m-56 448q-46 74-115 74t-115-74q-49-78-49-203t49-203q46-74 115-74t115 74q49 78 49 203t-49 203Z" horiz-adv-x="568" vert-adv-y="1000"/><glyph glyph-name="uni31" unicode="1" d="M266 0v597H154l39 70h147V0h-74Z" horiz-adv-x="568" vert-adv-y="1000"/><glyph glyph-name="uni32" unicode="2" d="M481 0H50l243 281q62 73 78 97 37 53 37 102 0 57-37 93.5T275 610q-72 0-111-59-21-32-22-79H68q4 85 50 138 60 68 158 68 89 0 147.5-56.5T482 479q0-67-53-143-27-37-91-111L199 68h282V0Z" horiz-adv-x="568" vert-adv-y="1000"/><glyph glyph-name="uni33" unicode="3" d="M160 502H86q3 53 31 98 50 78 155 78 89 0 138.5-53T460 498q0-105-86-148 13-5 25.5-13.5T430 310q18-18 29-49.5t11-71.5q0-91-58.5-146T265-12q-59 0-110 27.5T79 103q-13 32-15 70h74q5-41 24-67 34-50 103-50 55 0 93 39.5t38 95.5q0 82-66 112-33 16-76 14v66q43-3 76 14 56 29 56 99 0 49-28 81.5T272 610q-56 0-86-38-23-30-26-70Z" horiz-adv-x="568" vert-adv-y="1000"/><glyph glyph-name="uni34" unicode="4" d="M436 704V194h82v-68h-82V0h-74v126H20l416 578M151 194h211v295L151 194Z" horiz-adv-x="568" vert-adv-y="1000"/><glyph glyph-name="uni35" unicode="5" d="M479 667v-68H265l-43-144q17 4 42 4 99 0 159.5-66T484 228q0-108-70.5-174T241-12q-86 0-149 52-36 31-58 68l59 42q15-30 45-54 49-40 108-40 70 0 117 50t47 121q0 72-46.5 118T246 391q-63 0-129-46l97 322h265Z" horiz-adv-x="568" vert-adv-y="1000"/><glyph glyph-name="uni36" unicode="6" d="m336 683 56-42-153-213q28 9 59 9 95 0 155.5-63T514 217q0-100-64.5-164.5T285-12q-74 0-128.5 35.5t-78.5 86Q54 160 54 215q0 76 55 153l227 315M284 56q68 0 112 45.5T440 215q0 67-44.5 110.5T283 369q-68 0-111.5-44T128 215q0-68 43.5-113.5T284 56Z" horiz-adv-x="568" vert-adv-y="1000"/><glyph glyph-name="uni37" unicode="7" d="m52 23 379 576H66v68h490L110-16 52 23Z" horiz-adv-x="568" vert-adv-y="1000"/><glyph glyph-name="uni38" unicode="8" d="M387 347q101-45 101-163 0-83-53.5-139.5T284-12q-97 0-150.5 56.5T80 184q0 118 101 163-81 47-81 146 0 76 49 130.5T284 678q86 0 135-54.5T468 493q0-99-81-146m-184.5 63 16.25-16.5Q235 377 284 377t81.5 33q32.5 33 32.5 82 0 53-33.5 85.5T284 610q-47 0-80.5-32.5T170 492q0-49 32.5-82M190 92.5l18-18.25Q226 56 284 56t94 36.5q36 36.5 36 93.5 0 56-36.5 91.5T284 313q-57 0-93.5-35.5T154 186q0-57 36-93.5Z" horiz-adv-x="568" vert-adv-y="1000"/><glyph glyph-name="uni39" unicode="9" d="m232-16-56 41 153 213q-29-9-59-9-95 0-155.5 63T54 449q0 100 64.5 164.5T283 678q74 0 128.5-35.5t78.5-86Q514 506 514 451q0-77-55-153L232-16m52 626q-68 0-112-45.5T128 451q0-67 44.5-110.5T285 297q68 0 111.5 44T440 451q0 68-43.5 113.5T284 610Z" horiz-adv-x="568" vert-adv-y="1000"/><glyph glyph-name="uni3a" unicode=":" d="m79 340-7.5 7.5Q64 355 64 375t15 35q15 15 35 15t35-15q15-15 15-35t-15-35q-15-15-35-15t-35 15M79 3l-7.5 7.5Q64 18 64 38t15 35q15 15 35 15t35-15q15-15 15-35T149 3q-15-15-35-15T79 3Z" horiz-adv-x="228" vert-adv-y="1000"/><glyph glyph-name="uni3b" unicode=";" d="m93 340-7.5 7.5Q78 355 78 375t15 35q15 15 35 15t35-15q15-15 15-35t-15-35q-15-15-35-15t-35 15M24-133l82 231 66-24L71-152l-47 19Z" horiz-adv-x="274" vert-adv-y="1000"/><glyph glyph-name="uni3c" unicode="&lt;" d="m110 330 357-162V96L33 299v62l434 203v-72L110 330Z" horiz-adv-x="500" vert-adv-y="1000"/><glyph glyph-name="uni3d" unicode="=" d="M33 384v66h434v-66H33m0-154v66h434v-66H33Z" horiz-adv-x="500" vert-adv-y="1000"/><glyph glyph-name="uni3e" unicode="&gt;" d="M390 330 33 492v72l434-203v-62L33 96v72l357 162Z" horiz-adv-x="500" vert-adv-y="1000"/><glyph glyph-name="uni3f" unicode="?" d="M289 289h72q0-70-41-113-38-40-103-40-64 0-104 40T73 279q0 86 84 124 20 9 49.5 17.5T241 431q64 23 64 88 0 46-26 70-23 21-61 21-41 0-63-21-26-25-26-67 0-22 6-42H61q-4 19-4 44 0 68 38 108 42 46 122 46 75 0 118-43 44-44 44-118 0-59-34-98-28-32-77-50-8-3-22.5-7.5T219 353q-12-4-23-9-49-23-49-70 0-32 20-52 18-18 49-18t49 18q24 24 24 67M183 3l-7.5 7.5Q168 18 168 38t15 35q15 15 35 15t35-15q15-15 15-35T253 3q-15-15-35-15T183 3Z" horiz-adv-x="436" vert-adv-y="1000"/><glyph glyph-name="uni40" unicode="@" d="m480 427 13 64h52q-38-161-47-249v-8q3-46 37-46 39 0 76 54t37 137q0 111-77.5 180T381 628q-124 0-210.5-86.5T84 330q0-51 16-100t50-94q34-45 96-73t144-28q110 0 209 46l15-46Q514-13 389-13q-156 0-256 96T33 331q0 145 100.5 245T380 676q131 0 223.5-82.5T696 380q0-100-50.5-168T533 144q-31 0-51 18.5T460 211q-46-71-125-71-63 0-101.5 46T195 301q0 83 49.5 143T370 504q43 0 70.5-21.5T480 427M346 194q51 0 83 47.5T461 353q0 49-25 73t-61 24q-51 0-86.5-44.5T253 303q0-51 27.5-80t65.5-29Z" horiz-adv-x="733" vert-adv-y="1000"/><glyph glyph-name="uni41" unicode="A" d="m532 0-78 188H170L90 0H8l307 699L614 0h-82M199 258h226L313 525 199 258Z" horiz-adv-x="622" vert-adv-y="1000"/><glyph glyph-name="uni42" unicode="B" d="M86 667h120q100 0 153-42 60-46 60-138 0-86-66-131 64-16 95.5-64.5T480 188q0-45-19.5-83T412 44Q356 0 252 0H86v667m74-70V374h56q15 0 29 1.5t33.5 8q19.5 6.5 34 17.5t24.5 33q10 22 10 51 0 31-12 53.5T308 572q-15 11-36 17t-32 7q-11 1-22 1h-58m0-289V70h85q81 0 117 28 44 32 44 92 0 67-57 98-36 20-113 20h-76Z" horiz-adv-x="530" vert-adv-y="1000"/><glyph glyph-name="uni43" unicode="C" d="M596 612v-92q-40 40-87 62-57 26-115 26-115 0-191.5-80.5T126 330q0-126 83.5-199T395 58q64 0 124 31 42 21 77 56V53q-91-65-201-65-148 0-246.5 99T50 331q0 149 99.5 248T399 678q110 0 197-66Z" horiz-adv-x="646" vert-adv-y="1000"/><glyph glyph-name="uni44" unicode="D" d="M86 0v667h136q154 0 246-78 114-95 114-256 0-156-117-256-48-41-103-59T221 0H86m74 597V70h65q119 0 191 60 90 76 90 203 0 120-77 192t-204 72h-65Z" horiz-adv-x="632" vert-adv-y="1000"/><glyph glyph-name="uni45" unicode="E" d="M432 667v-70H160V399h264v-70H160V70h272V0H86v667h346Z" horiz-adv-x="482" vert-adv-y="1000"/><glyph glyph-name="uni46" unicode="F" d="M390 667v-70H160V400h222v-70H160V0H86v667h304Z" horiz-adv-x="434" vert-adv-y="1000"/><glyph glyph-name="uni47" unicode="G" d="M430 265v70h278v-16q0-124-64-211Q555-12 396-12q-148 0-247 99.5T50 333q0 146 99.5 245.5T398 678q118 0 204-66 44-34 77-79l-55-50q-29 41-63 69-69 56-162 56-119 0-196-79t-77-197q0-86 42-150.5t102.5-94Q331 58 397 58t120.5 30.5Q572 119 601 170q25 43 27 95H430Z" horiz-adv-x="758" vert-adv-y="1000"/><glyph glyph-name="uni48" unicode="H" d="M160 667V396h342v271h74V0h-74v326H160V0H86v667h74Z" horiz-adv-x="662" vert-adv-y="1000"/><glyph glyph-name="uni49" unicode="I" d="M86 667h74V0H86v667Z" horiz-adv-x="246" vert-adv-y="1000"/><glyph glyph-name="uni4a" unicode="J" d="M146 667h74V187q0-36-1.5-57.5t-11-50.5Q198 50 179 30 140-12 73-12-3-12-46 37l41 58q34-37 76-37 31 0 50 19 25 25 25 108v482Z" horiz-adv-x="306" vert-adv-y="1000"/><glyph glyph-name="uni4b" unicode="K" d="M160 667V381l284 286h100L232 356 554 0H452L179 306l-19-19V0H86v667h74Z" horiz-adv-x="568" vert-adv-y="1000"/><glyph glyph-name="uni4c" unicode="L" d="M86 667h74V70h184V0H86v667Z" horiz-adv-x="358" vert-adv-y="1000"/><glyph glyph-name="uni4d" unicode="M" d="M139 0H63l111 704 256-563 261 564L795 0h-76l-63 464L429-28 205 464 139 0Z" horiz-adv-x="863" vert-adv-y="1000"/><glyph glyph-name="uni4e" unicode="N" d="M160 0H86v695l520-545v517h74V-30L160 515V0Z" horiz-adv-x="766" vert-adv-y="1000"/><glyph glyph-name="uni4f" unicode="O" d="m643.5 87-50.25-49.5Q543-12 397-12T150.5 87Q50 186 50 333q0 148 101 246.5T397 678q145 0 246-98.5T744 333q0-147-100.5-246M589 528l-39.5 40Q510 608 397 608t-192-80q-79-80-79-195t79-195q79-80 192-80t192 80q79 80 79 195t-79 195Z" horiz-adv-x="794" vert-adv-y="1000"/><glyph glyph-name="uni50" unicode="P" d="M86 667h121q114 0 168-47 61-52 61-143 0-78-52.5-132.5T225 290h-65V0H86v667m74-70V360h61q66 0 103.5 32t37.5 89q0 116-147 116h-55Z" horiz-adv-x="456" vert-adv-y="1000"/><glyph glyph-name="uni51" unicode="Q" d="m652-7-54 56q-90-61-201-61-145 0-246 99T50 333q0 148 101 246.5T397 678q145 0 246-98.5T744 333q0-140-94-239L748-7h-96M480 268l117-120q71 77 71 185 0 114-79.5 194.5T397 608q-113 0-192-80t-79-195q0-115 79-195t192-80q81 0 148 44L384 268h96Z" horiz-adv-x="794" vert-adv-y="1000"/><glyph glyph-name="uni52" unicode="R" d="M86 667h107q108 0 162-37 73-49 73-148 0-77-46.5-128T260 298L472 0h-90L179 292h-19V0H86v667m74-70V358h47q69 0 108 32t39 90q0 68-53 98-34 19-96 19h-45Z" horiz-adv-x="502" vert-adv-y="1000"/><glyph glyph-name="uni53" unicode="S" d="m443 574-59-39q-16 31-39 50-30 23-75 23-50 0-81-28.5T158 505q0-34 25-58 20-20 70-42l64-28q71-31 103-63 48-48 48-121 0-91-60-148T257-12q-90 0-145 54-45 44-62 118l72 20q7-50 40-85 37-37 96-37 64 0 99 38.5t35 93.5q0 48-33 78-19 18-80 46l-60 28q-61 28-89 55-46 44-46 109 0 77 52.5 124.5T271 678q62 0 107-30 41-27 65-74Z" horiz-adv-x="518" vert-adv-y="1000"/><glyph glyph-name="uni54" unicode="T" d="M412 597H250V0h-74v597H14v70h398v-70Z" horiz-adv-x="426" vert-adv-y="1000"/><glyph glyph-name="uni55" unicode="U" d="M160 667V258q0-38 1.5-59t14-51.5Q188 117 213 96q45-38 110-38t110 38q25 21 37.5 51.5t14 51.5q1.5 21 1.5 59v409h74V238q0-102-42-160-31-42-81.5-66T323-12q-63 0-113.5 24T128 78q-42 58-42 160v429h74Z" horiz-adv-x="646" vert-adv-y="1000"/><glyph glyph-name="uni56" unicode="V" d="M8 667h82l188-509 188 509h82L278-40 8 667Z" horiz-adv-x="556" vert-adv-y="1000"/><glyph glyph-name="uni57" unicode="W" d="M8 667h82l176-500 209 534 198-534 195 500h82L670-35 474 499 264-35 8 667Z" horiz-adv-x="958" vert-adv-y="1000"/><glyph glyph-name="uni58" unicode="X" d="m14 0 197 345L32 667h84l138-251 142 251h84L297 345 490 0h-84L253 274 98 0H14Z" horiz-adv-x="504" vert-adv-y="1000"/><glyph glyph-name="uni59" unicode="Y" d="M227 0v287L8 667h86l170-298 172 298h86L301 287V0h-74Z" horiz-adv-x="530" vert-adv-y="1000"/><glyph glyph-name="uni5a" unicode="Z" d="M512 667 148 70h354V0H24l364 597H71v70h441Z" horiz-adv-x="536" vert-adv-y="1000"/><glyph glyph-name="uni5b" unicode="[" d="M248 663h-96v-767h96v-66H80v899h168v-66Z" horiz-adv-x="290" vert-adv-y="1000"/><glyph glyph-name="uni5c" unicode="\" d="m597-170-58-28L20 729l58 30 519-929Z" horiz-adv-x="597" vert-adv-y="1000"/><glyph glyph-name="uni5d" unicode="]" d="M42-104h96v767H42v66h168v-899H42v66Z" horiz-adv-x="290" vert-adv-y="1000"/><glyph glyph-name="uni5e" unicode="^" d="M250 612 104 365H26l177 302h94l177-302h-78L250 612Z" horiz-adv-x="500" vert-adv-y="1000"/><glyph glyph-name="uni5f" unicode="_" d="M0-132v64h500v-64H0Z" horiz-adv-x="500" vert-adv-y="1000"/><glyph glyph-name="uni60" unicode="`" d="M249 497 114 632l74 34 105-145-44-24Z" horiz-adv-x="500" vert-adv-y="1000"/><glyph glyph-name="uni61" unicode="a" d="M386 356v59h72V0h-72v58q-54-70-142-70-84 0-143 58T42 208q0 102 58.5 159.5T244 425q90 0 142-69m-134 5q-57 0-96.5-40.5T116 208q0-69 36.5-112.5T252 52q63 0 100.5 45T390 207q0 74-42 114t-96 40Z" horiz-adv-x="526" vert-adv-y="1000"/><glyph glyph-name="uni62" unicode="b" d="M140 58V0H68v729h72V357q55 68 142 68 93 0 147.5-65.5T484 205q0-90-54-153.5T285-12q-91 0-145 70m135-6q61 0 98 44.5T410 205q0 72-41 114t-95 42q-54 0-96-42t-42-113q0-65 38.5-109.5T275 52Z" horiz-adv-x="526" vert-adv-y="1000"/><glyph glyph-name="uni63" unicode="c" d="M393 385v-86q-49 62-130 62-61 0-104-41.5T116 206q0-72 43-113t103-41q80 0 134 65V31q-59-43-132-43-97 0-159.5 61.5T42 205q0 95 63 157.5T264 425q72 0 129-40Z" horiz-adv-x="438" vert-adv-y="1000"/><glyph glyph-name="uni64" unicode="d" d="M386 356v373h72V0h-72v58q-54-70-142-70-84 0-143 58T42 208q0 102 58.5 159.5T244 425q90 0 142-69m-134 5q-57 0-96.5-40.5T116 208q0-69 36.5-112.5T252 52q63 0 100.5 45T390 207q0 74-42 114t-96 40Z" horiz-adv-x="526" vert-adv-y="1000"/><glyph glyph-name="uni65" unicode="e" d="m376 139 60-33q-21-40-51-67-57-51-138-51-84 0-144.5 54.5T42 205q0 95 54.5 157.5T243 425q104 0 157-76 42-60 39-156H116q1-63 39-102t93-39q49 0 85 30 28 24 43 57M121 253h244q-9 49-42.5 78.5T243 361q-45 0-79.5-30.5T121 253Z" horiz-adv-x="481" vert-adv-y="1000"/><glyph glyph-name="uni66" unicode="f" d="M244 349H142V0H70v349H30v66h40v181q0 83 40 117 32 27 83 27 27 0 51-9v-70q-22 9-47 9-33 0-46-22-9-15-9-60V415h102v-66Z" horiz-adv-x="240" vert-adv-y="1000"/><glyph glyph-name="uni67" unicode="g" d="M386 356v59h72V10q0-109-40-163-57-77-166-77-92 0-148 56-54 54-54 134h71q0-50 32-86 36-40 100-40 75 0 110 58 23 37 23 106v60q-54-70-142-70-86 0-142 56-60 60-60 164 0 101 60 161 58 56 142 56 89 0 142-69m-134 5q-55 0-94-39-42-43-42-114 0-79 47-122 37-34 89-34 56 0 91 35 47 45 47 120t-44 117q-37 37-94 37Z" horiz-adv-x="526" vert-adv-y="1000"/><glyph glyph-name="uni68" unicode="h" d="M68 0v729h72V367q44 58 119 58 80 0 119-57 24-35 24-111V0h-72v255q0 51-19 76-23 30-68 30-46 0-73-32-30-35-30-112V0H68Z" horiz-adv-x="470" vert-adv-y="1000"/><glyph glyph-name="uni69" unicode="i" d="M68 415h72V0H68v415m0 121-7.5 7.5Q53 551 53 572t15 36q15 15 36 15t36-15q15-15 15-36t-15-36q-15-15-36-15t-36 15Z" horiz-adv-x="208" vert-adv-y="1000"/><glyph glyph-name="uni6a" unicode="j" d="M68 415h72v-645H68v645m0 121-7.5 7.5Q53 551 53 572t15 36q15 15 36 15t36-15q15-15 15-36t-15-36q-15-15-36-15t-36 15Z" horiz-adv-x="208" vert-adv-y="1000"/><glyph glyph-name="uni6b" unicode="k" d="M68 729h72V261l152 154h94L208 237 418 0h-94L158 189l-18-18V0H68v729Z" horiz-adv-x="422" vert-adv-y="1000"/><glyph glyph-name="uni6c" unicode="l" d="M68 729h72V0H68v729Z" horiz-adv-x="208" vert-adv-y="1000"/><glyph glyph-name="uni6d" unicode="m" d="M68 0v415h72v-44q37 54 103 54 75 0 113-67 43 67 125 67 135 0 135-162V0h-72v252q0 30-3.5 50.5t-21 39.5Q502 361 470 361q-92 0-92-130V0h-72v246q0 115-75 115-91 0-91-135V0H68Z" horiz-adv-x="685" vert-adv-y="1000"/><glyph glyph-name="uni6e" unicode="n" d="M68 0v415h72v-48q44 58 119 58 80 0 119-57 24-35 24-111V0h-72v255q0 51-19 76-23 30-68 30-46 0-73-32-30-35-30-112V0H68Z" horiz-adv-x="470" vert-adv-y="1000"/><glyph glyph-name="uni6f" unicode="o" d="m419.5 50-31.25-31Q357-12 262-12T104.5 50Q42 112 42 206q0 95 62.5 157T262 425q95 0 157.5-62T482 206q0-94-62.5-156m-54 270-21.25 20.5Q323 361 262 361t-103.5-41.5Q116 278 116 206t43-113q43-41 103-41t103 41q43 41 43 113 0 73-42.5 114Z" horiz-adv-x="524" vert-adv-y="1000"/><glyph glyph-name="uni70" unicode="p" d="M140 58v-288H68v645h72v-58q55 68 142 68 93 0 147.5-65.5T484 205q0-90-54-153.5T285-12q-91 0-145 70m135-6q61 0 98 44.5T410 205q0 72-41 114t-95 42q-54 0-96-42t-42-113q0-65 38.5-109.5T275 52Z" horiz-adv-x="526" vert-adv-y="1000"/><glyph glyph-name="uni71" unicode="q" d="M386 356v59h72v-645h-72V58q-54-70-142-70-84 0-143 58T42 208q0 102 58.5 159.5T244 425q90 0 142-69m-134 5q-57 0-96.5-40.5T116 208q0-69 36.5-112.5T252 52q63 0 100.5 45T390 207q0 74-42 114t-96 40Z" horiz-adv-x="526" vert-adv-y="1000"/><glyph glyph-name="uni72" unicode="r" d="M68 0v415h72v-45q35 55 94 55 30 0 64-17l-34-65q-20 14-42 14-38 0-58-26-24-32-24-112V0H68Z" horiz-adv-x="296" vert-adv-y="1000"/><glyph glyph-name="uni73" unicode="s" d="m298 350-59-31q-17 42-58 42-21 0-35.5-12T131 314q0-21 13.5-31.5T198 255q79-33 104-64 22-27 22-67 0-63-40.5-99.5T181-12q-12 0-26 2.5t-38.5 11Q92 10 70 34T36 94l62 26q25-68 84-68 33 0 50.5 20t17.5 46q0 14-4.5 24.5t-15 18.5q-10.5 8-20 13T183 187q-80 35-101 61-19 24-19 61 0 54 33.5 85t87.5 31q79 0 114-75Z" horiz-adv-x="352" vert-adv-y="1000"/><glyph glyph-name="uni74" unicode="t" d="M214 349h-72V0H70v349H26v66h44v150h72V415h72v-66Z" horiz-adv-x="214" vert-adv-y="1000"/><glyph glyph-name="uni75" unicode="u" d="M140 415V173q0-63 20-89 25-32 73-32t73 32q20 26 20 89v242h72V165q0-84-38-125-49-52-127-52T106 40Q68 81 68 165v250h72Z" horiz-adv-x="466" vert-adv-y="1000"/><glyph glyph-name="uni76" unicode="v" d="M8 415h80l124-280 124 280h80L212-27 8 415Z" horiz-adv-x="424" vert-adv-y="1000"/><glyph glyph-name="uni77" unicode="w" d="M8 415h80l123-282 130 314 129-314 124 282h80L468-29 340 281 212-29 8 415Z" horiz-adv-x="682" vert-adv-y="1000"/><glyph glyph-name="uni78" unicode="x" d="m8 0 177 222L34 415h88l107-141 109 141h88L274 221 446 0h-88L227 169 96 0H8Z" horiz-adv-x="454" vert-adv-y="1000"/><glyph glyph-name="uni79" unicode="y" d="M67-230 199 39 8 415h82l147-297 135 297h80L147-230H67Z" horiz-adv-x="460" vert-adv-y="1000"/><glyph glyph-name="uni7a" unicode="z" d="M452 415 152 66h288V0H8l300 349H66v66h386Z" horiz-adv-x="460" vert-adv-y="1000"/><glyph glyph-name="uni7b" unicode="{" d="M275 581V393q0-48-13-71-16-27-48-42 32-15 48-42 13-23 13-71V-22q0-51 19-69t62-18h15v-61h-27q-63 0-93 20-48 32-48 116v196q0 39-13 61-16 26-44 28v58q28 2 44 28 13 22 13 61v195q0 84 48 116 30 20 93 20h27v-61h-15q-43 0-62-18t-19-69Z" horiz-adv-x="501" vert-adv-y="1000"/><glyph glyph-name="uni7c" unicode="|" d="M214-250V750h72V-250h-72Z" horiz-adv-x="500" vert-adv-y="1000"/><glyph glyph-name="uni7d" unicode="}" d="M226 393v188q0 51-19 69t-62 18h-15v61h27q63 0 93-20 48-32 48-116V398q0-39 13-61 16-26 44-28v-58q-28-2-44-28-13-22-13-61V-34q0-84-48-116-30-20-93-20h-27v61h15q43 0 62 18t19 69v189q0 48 13 71 16 27 48 42-32 15-48 42-13 23-13 71Z" horiz-adv-x="501" vert-adv-y="1000"/><glyph glyph-name="uni7e" unicode="~" d="m446 361 44-26q-19-44-50-73-39-39-96-39-34 0-108 34-69 32-95 32-29 0-52-20-19-16-35-52l-44 26q23 49 48 78 34 38 87 38 42 0 113-34 69-32 95-32 37 0 61 24 19 17 32 44Z" horiz-adv-x="500" vert-adv-y="1000"/><glyph glyph-name="unia1" unicode="¡" d="M104 302h72v-532h-72v532m71 130 7.5-7.5Q190 417 190 397t-15-35q-15-15-35-15t-35 15q-15 15-15 35t15 35q15 15 35 15t35-15Z" horiz-adv-x="280" vert-adv-y="1000"/><glyph glyph-name="unia2" unicode="¢" d="M344 655v-97q58-7 105-39v-86q-45 54-105 61V188q62 7 108 63v-86q-48-35-108-42V14h-60v111q-76 11-127 61-59 57-59 153t62 158q49 49 124 59v99h60m-60-466v302q-40-5-69-34-43-43-43-117 0-71 44-115 27-27 68-36Z" horiz-adv-x="568" vert-adv-y="1000"/><glyph glyph-name="unia3" unicode="£" d="M498 458h-73v10q0 70-36 106-32 32-85 32-52 0-83-31-37-35-37-88 0-12 2.5-25t5-22.5q2.5-9.5 9-24.5t10.5-22.5q4-7.5 13-25.5l13-26 14-28h126v-56H276q11-29 11-61 0-48-29-94l59-22q54-21 70-21 30 0 53 22 20 20 31 47l61-36q-18-42-49-68-41-35-89-35-40 0-86 18l-39 15q-50 19-75 19-30 0-53-18-22-17-30-36L54 26q24 36 47 55 36 30 82 30 28 42 28 86 0 30-13 60H86v56h86l-20 37q-44 81-44 139 0 81 53 134t144 53q83 0 133-50 60-58 60-159v-9Z" horiz-adv-x="568" vert-adv-y="1000"/><glyph glyph-name="unia4" unicode="¤" d="m53 636 95-94q59 51 145 51 85 0 145-51l95 94 40-40-95-95q51-60 51-142 0-83-51-142l94-94-40-40-94 93q-60-51-145-51-86 0-145 51L54 83l-40 40 94 94q-51 59-51 142t51 142l-95 95 40 40m120-399 24-24q24-24 96-24t120 48q48 48 48 122t-48 122q-48 48-120 48t-120-48q-48-48-48-122t48-122Z" horiz-adv-x="586" vert-adv-y="1000"/><glyph glyph-name="unia5" unicode="¥" d="M518 384H377l-51-88h192v-56H320V0h-74v240H51v56h189l-51 88H51v56h106L26 667h87l170-298 172 298h87L409 440h109v-56Z" horiz-adv-x="568" vert-adv-y="1000"/><glyph glyph-name="unia6" unicode="¦" d="M214 390v360h72V390h-72m0-640v360h72v-360h-72Z" horiz-adv-x="500" vert-adv-y="1000"/><glyph glyph-name="unia7" unicode="§" d="M464 540h-72v5q0 63-33 94-25 24-65 24-46 0-75-28-29-26-29-66 0-36 26-62 25-25 87-48 2-1 16.5-6t18.5-7q4-2 17-7t19-8.5q6-3.5 16-9t18-11.5q8-6 15-13 44-43 44-111 0-59-28-99-28-39-73-62 42-20 64-55 21-32 21-74 0-71-46-117-49-49-129-49-82 0-128 50-13 14-21.5 30.5t-13 33.5q-4.5 17-6 29T105-.5Q104 14 104 15h72q0-59 31-92 25-27 71-27 45 0 71 26 28 26 28 71 0 35-24 61-18 19-91 47-35 13-49.5 19.5t-35 19Q157 152 143 167q-42 44-42 116 0 48 27 91 29 43 74 61-33 19-55 45-29 36-29 81 0 76 51 123 48 45 124 45 71 0 118-44 33-31 43-64t10-76v-5M361 359q-30 30-77 30t-78-31q-31-31-31-78 0-49 31-78 33-31 78-31 49 0 78 31 31 31 31 78t-32 79Z" horiz-adv-x="568" vert-adv-y="1000"/><glyph glyph-name="unia8" unicode="¨" d="m128 515-7.5 7.5Q113 530 113 550t15 35q15 15 35 15t35-15q15-15 15-35t-15-35q-15-15-35-15t-35 15m174 0-7.5 7.5Q287 530 287 550t15 35q15 15 35 15t35-15q15-15 15-35t-15-35q-15-15-35-15t-35 15Z" horiz-adv-x="500" vert-adv-y="1000"/><glyph glyph-name="unia9" unicode="©" d="M25 333q0 143 101.5 244T370 678q142 0 243.5-101T715 333q0-142-101.5-243T370-11Q228-11 126.5 90T25 333m634 0q0 120-84.5 204.5T370 622q-120 0-204.5-84.5T81 333q0-119 84.5-203.5T370 45q120 0 204.5 84.5T659 333M514 497v-80q-24 30-58 44t-64 14q-57 0-97.5-39.5T254 329q0-68 41-106t96-38q75 0 126 61v-81q-55-40-124-40-90 0-149 57t-59 146q0 88 59.5 147.5T393 535q69 0 121-38Z" horiz-adv-x="740" vert-adv-y="1000"/><glyph glyph-name="uniaa" unicode="ª" d="M264 627v34h51V395h-51v32q-15-18-35-28-24-12-54-12-59 0-97 38T40 527q0 66 39 105 35 35 98 35 28 0 51-11 24-12 36-29m-85-4q-37 0-62-26-27-29-27-71t28-70q26-25 62-25 35 0 61 26t26 70q0 42-27 71-25 25-61 25M50 333h265v-42H50v42Z" horiz-adv-x="373" vert-adv-y="1000"/><glyph glyph-name="uniab" unicode="«" d="M112 212 232 66l-46-36L36 212l150 188 46-37-120-151m148 0L380 66l-46-36-150 182 150 188 46-37-120-151Z" horiz-adv-x="430" vert-adv-y="1000"/><glyph glyph-name="uniac" unicode="¬" d="M467 0h-70v203H33v64h434V0Z" horiz-adv-x="500" vert-adv-y="1000"/><glyph glyph-name="uniad" unicode="­" d="M50 176v74h220v-74H50Z" horiz-adv-x="320" vert-adv-y="1000"/><glyph glyph-name="uniae" unicode="®" d="m125 87-49 49q-49 49-49 196t98 245q98 98 245 98t245-98q98-98 98-245T615 87q-98-98-245-98T125 87m450 40 41 41q41 41 41 164t-82 205q-82 82-205 82t-205-82q-82-82-82-205t82-205q82-82 205-82t205 82m-66 18h-68L319 303V145h-54v374h68q144 0 144-107 0-42-27-70.5T380 308l129-163M319 471V351h22q82 0 82 59 0 17-6 29t-13.5 18q-7.5 6-20.5 9.5t-22 4q-9 .5-22 .5h-20Z" horiz-adv-x="740" vert-adv-y="1000"/><glyph glyph-name="uniaf" unicode="¯" d="M99 513v60h302v-60H99Z" horiz-adv-x="500" vert-adv-y="1000"/><glyph glyph-name="unib0" unicode="°" d="m147.5 432.5-19.75 19.75Q108 472 108 531t39.5 98.5Q187 669 246 669t98.5-39.5Q384 590 384 531t-39.5-98.5Q305 393 246 393t-98.5 39.5m38 166-13.75-12.25Q158 574 158 531t27.5-67.5Q213 439 246 439t60.5 24.5Q334 488 334 531t-27.5 67.5Q279 623 246 623t-60.5-24.5Z" horiz-adv-x="493" vert-adv-y="1000"/><glyph glyph-name="unib1" unicode="±" d="M33 345v66h181v171h72V411h181v-66H286V174h-72v171H33m0-278v66h434V67H33Z" horiz-adv-x="500" vert-adv-y="1000"/><glyph glyph-name="unib2" unicode="²" d="M297 267H32l146 169q35 41 46 58 22 32 22 61 0 30-20.5 51T170 627q-45 0-65-34-12-21-12-48H43q3 54 30 87 35 41 96 41 57 0 93-33t36-86q0-39-32-85-15-22-55-67l-77-89h163v-46Z" horiz-adv-x="350" vert-adv-y="1000"/><glyph glyph-name="unib3" unicode="³" d="M102 563H52q2 37 19 64 30 46 97 46 61 0 88.5-33.5T284 566q0-65-52-89 58-22 58-97 0-51-34.5-85.5T163 260q-46 0-74.5 20T48 329q-8 20-10 47h50q1-22 14-40 22-30 59-30 34 0 55.5 21.5T238 382q0 48-39 65-19 9-46 7v46q26-2 46 8 33 17 33 57 0 26-16 44t-48 18q-34 0-51-21-13-16-15-43Z" horiz-adv-x="350" vert-adv-y="1000"/><glyph glyph-name="unib4" unicode="´" d="m312 666 74-34-134-135-45 24 105 145Z" horiz-adv-x="500" vert-adv-y="1000"/><glyph glyph-name="unib5" unicode="µ" d="M140-230H68v645h72V208q0-80 30-118t88-38q66 0 101 59 24 39 24 106v198h72V0h-72v86q-16-44-49-71t-78-27q-34 0-62 17t-37.5 30Q147 48 140 61v-291Z" horiz-adv-x="523" vert-adv-y="1000"/><glyph glyph-name="uni03BC" unicode="μ" d="M140-230H68v645h72V208q0-80 30-118t88-38q66 0 101 59 24 39 24 106v198h72V0h-72v86q-16-44-49-71t-78-27q-34 0-62 17t-37.5 30Q147 48 140 61v-291Z" horiz-adv-x="523" vert-adv-y="1000"/><glyph glyph-name="unib6" unicode="¶" d="M282-95h-62v409h-15q-39 0-77 14t-61 37q-45 45-45 120 0 88 56 135 55 47 164 47h268v-58h-60V-95h-62v704H282V-95Z" horiz-adv-x="580" vert-adv-y="1000"/><glyph glyph-name="unib7" unicode="·" d="m55 295-9.5 9.5Q36 314 36 340t19 45q19 19 45 19t45-19q19-19 19-45t-19-45q-19-19-45-19t-45 19Z" horiz-adv-x="200" vert-adv-y="1000"/><glyph glyph-name="unib8" unicode="¸" d="m266-52 66-27-101-128-49 24 84 131Z" horiz-adv-x="500" vert-adv-y="1000"/><glyph glyph-name="unib9" unicode="¹" d="M166 267v354H88l24 46h106V267h-52Z" horiz-adv-x="350" vert-adv-y="1000"/><glyph glyph-name="uniba" unicode="º" d="M187 667q65 0 108-43 38-40 38-97 0-56-37-95-41-43-109-43-65 0-105 40-41 39-41 99 0 54 37 94 43 45 109 45M52 333h271v-42H52v42m203 265q-25 25-68 25t-70-27q-26-26-26-69 0-41 27-68 26-26 69-26t71 28q25 27 25 67 0 44-28 70Z" horiz-adv-x="374" vert-adv-y="1000"/><glyph glyph-name="unibb" unicode="»" d="M170 218 50 364l46 36 150-182L96 30 50 67l120 151m148 0L198 364l46 36 150-182L244 30l-46 37 120 151Z" horiz-adv-x="430" vert-adv-y="1000"/><glyph glyph-name="unibc" unicode="¼" d="M166 267v354H88l24 46h106V267h-52m21-257 388 670 38-22L225-13l-38 23m492 412V122h49V76h-49V0h-50v76H424l255 346M516 122h113v155L516 122Z" horiz-adv-x="760" vert-adv-y="1000"/><glyph glyph-name="unibd" unicode="½" d="M166 267v354H88l24 46h106V267h-52M147 10l388 670 38-22L185-13l-38 23M707 0H442l146 169q35 41 46 58 22 32 22 61 0 30-20.5 51T580 360q-45 0-65-34-12-21-12-48h-50q3 54 30 87 35 41 96 41 57 0 93-33t36-86q0-39-32-85-15-22-55-67l-77-89h163V0Z" horiz-adv-x="760" vert-adv-y="1000"/><glyph glyph-name="unibe" unicode="¾" d="M38 376h50q3-28 20-47 22-23 58-23 32 0 51 20 21 21 21 56 0 37-25 57-19 15-56 15h-4v46h4q37 0 56 18 19 17 19 47t-19 47q-17 15-45 15-30 0-45-15-19-16-21-49H52q1 47 32 79 29 31 86 31 55 0 85-32 29-31 29-75 0-31-12-52-13-24-40-37 29-14 43-36 15-23 15-61 0-50-33-84-35-36-93-36-61 0-95 36-30 31-31 80M207 10l388 670 38-22L245-13l-38 23m472 412V122h49V76h-49V0h-50v76H424l255 346M516 122h113v155L516 122Z" horiz-adv-x="760" vert-adv-y="1000"/><glyph glyph-name="unibf" unicode="¿" d="M147 147H75q0 70 41 113 38 40 103 40 64 0 104-40t40-103q0-86-84-124-20-9-49.5-17.5T195 5q-64-23-64-88 0-46 26-70 23-21 61-21 41 0 63 21 26 25 26 67 0 22-6 42h74q4-19 4-44 0-68-38-108-42-46-122-46-75 0-118 43-44 44-44 118 0 59 34 98 28 32 77 50 8 3 22.5 7.5T217 83q12 4 23 9 49 23 49 70 0 32-20 52-18 18-49 18t-49-18q-24-24-24-67m106 285 7.5-7.5Q268 417 268 397t-15-35q-15-15-35-15t-35 15q-15 15-15 35t15 35q15 15 35 15t35-15Z" horiz-adv-x="436" vert-adv-y="1000"/><glyph glyph-name="unic0" unicode="À" d="m532 0-78 188H170L90 0H8l307 699L614 0h-82M199 258h226L313 525 199 258m122 462L168 837l70 45 126-130-43-32Z" horiz-adv-x="622" vert-adv-y="1000"/><glyph glyph-name="unic1" unicode="Á" d="m532 0-78 188H170L90 0H8l307 699L614 0h-82M199 258h226L313 525 199 258m194 624 70-45-153-117-43 32 126 130Z" horiz-adv-x="622" vert-adv-y="1000"/><glyph glyph-name="unic2" unicode="Â" d="m532 0-78 188H170L90 0H8l307 699L614 0h-82M199 258h226L313 525 199 258m115 539-88-76-52 41 140 119 140-119-52-41-88 76Z" horiz-adv-x="622" vert-adv-y="1000"/><glyph glyph-name="unic3" unicode="Ã" d="m532 0-78 188H170L90 0H8l307 699L614 0h-82M199 258h226L313 525 199 258m224 584 43-35q-9-24-26-41-30-31-70-31-23 0-67 22-42 20-56 20-17 0-30-13-13-15-17-31l-44 36q10 26 30 45 27 27 63 27 26 0 68-21 40-21 56-21 18 0 32 14 12 12 18 29Z" horiz-adv-x="622" vert-adv-y="1000"/><glyph glyph-name="unic4" unicode="Ä" d="m532 0-78 188H170L90 0H8l307 699L614 0h-82M199 258h226L313 525 199 258m-16 490-7.5 7.5Q168 763 168 784t15 36q15 15 36 15t36-15q15-15 15-36t-15-36q-15-15-36-15t-36 15m190 0-7.5 7.5Q358 763 358 784t15 36q15 15 36 15t36-15q15-15 15-36t-15-36q-15-15-36-15t-36 15Z" horiz-adv-x="622" vert-adv-y="1000"/><glyph glyph-name="unic5" unicode="Å" d="m532 0-78 188H170L90 0H8l307 699L614 0h-82M199 258h226L313 525 199 258m54 498-13 13q-13 13-13 49t26 62q26 26 62 26t62-26q26-26 26-62t-26-62q-26-26-62-26t-62 26m32.5 92.5-6.25-6.25Q273 836 273 819t12.5-29.5Q298 777 315 777t29.5 12.5Q357 802 357 819t-12.5 29.5Q332 861 315 861t-29.5-12.5Z" horiz-adv-x="622" vert-adv-y="1000"/><glyph glyph-name="unic6" unicode="Æ" d="m538 0-79 187H175L96 0H14l297 667h293l29-70H364l83-198h264l29-70H478L586 70h271l29-70H538M207 257h223L320 518 207 257Z" horiz-adv-x="900" vert-adv-y="1000"/><glyph glyph-name="unic7" unicode="Ç" d="M596 612v-92q-40 40-87 62-57 26-115 26-115 0-191.5-80.5T126 330q0-126 83.5-199T395 58q64 0 124 31 42 21 77 56V53q-91-65-201-65-148 0-246.5 99T50 331q0 149 99.5 248T399 678q110 0 197-66M364-52l70-30-104-128-50 26 84 132Z" horiz-adv-x="646" vert-adv-y="1000"/><glyph glyph-name="unic8" unicode="È" d="M432 667v-70H160V399h264v-70H160V70h272V0H86v667h346m-161 53L118 837l70 45 126-130-43-32Z" horiz-adv-x="482" vert-adv-y="1000"/><glyph glyph-name="unic9" unicode="É" d="M432 667v-70H160V399h264v-70H160V70h272V0H86v667h346M332 882l70-45-153-117-43 32 126 130Z" horiz-adv-x="482" vert-adv-y="1000"/><glyph glyph-name="unica" unicode="Ê" d="M432 667v-70H160V399h264v-70H160V70h272V0H86v667h346M260 797l-88-76-52 41 140 119 140-119-52-41-88 76Z" horiz-adv-x="482" vert-adv-y="1000"/><glyph glyph-name="unicb" unicode="Ë" d="M432 667v-70H160V399h264v-70H160V70h272V0H86v667h346m-303 81-7.5 7.5Q114 763 114 784t15 36q15 15 36 15t36-15q15-15 15-36t-15-36q-15-15-36-15t-36 15m190 0-7.5 7.5Q304 763 304 784t15 36q15 15 36 15t36-15q15-15 15-36t-15-36q-15-15-36-15t-36 15Z" horiz-adv-x="482" vert-adv-y="1000"/><glyph glyph-name="unicc" unicode="Ì" d="M86 667h74V0H86v667m39 53L-28 837l70 45 126-130-43-32Z" horiz-adv-x="246" vert-adv-y="1000"/><glyph glyph-name="unicd" unicode="Í" d="M86 667h74V0H86v667m127 215 70-45-153-117-43 32 126 130Z" horiz-adv-x="246" vert-adv-y="1000"/><glyph glyph-name="unice" unicode="Î" d="M85 667h74V0H85v667m38 130-88-76-52 41 140 119 140-119-52-41-88 76Z" horiz-adv-x="246" vert-adv-y="1000"/><glyph glyph-name="unicf" unicode="Ï" d="M86 667h74V0H86v667m-58 81-6.5 7.5Q15 763 15 784t13 36q13 15 32 15t32-15q13-15 13-36t-13-36q-13-15-32-15t-32 15m126 0-6.5 7.5Q141 763 141 784t13 36q13 15 32 15t32-15q13-15 13-36t-13-36q-13-15-32-15t-32 15Z" horiz-adv-x="246" vert-adv-y="1000"/><glyph glyph-name="unid0" unicode="Ð" d="M86 0v336H0v64h86v267h136q154 0 246-78 114-95 114-256 0-156-117-256-48-41-103-59T221 0H86m74 597V400h136v-64H160V70h65q119 0 191 60 90 76 90 203 0 120-77 192t-204 72h-65Z" horiz-adv-x="632" vert-adv-y="1000"/><glyph glyph-name="unid1" unicode="Ñ" d="M160 0H86v695l520-545v517h74V-30L160 515V0m335 842 43-35q-9-24-26-41-30-31-70-31-23 0-67 22-42 20-56 20-17 0-30-13-13-15-17-31l-44 36q10 26 30 45 27 27 63 27 26 0 68-21 40-21 56-21 18 0 32 14 12 12 18 29Z" horiz-adv-x="766" vert-adv-y="1000"/><glyph glyph-name="unid2" unicode="Ò" d="m643.5 87-50.25-49.5Q543-12 397-12T150.5 87Q50 186 50 333q0 148 101 246.5T397 678q145 0 246-98.5T744 333q0-147-100.5-246M589 528l-39.5 40Q510 608 397 608t-192-80q-79-80-79-195t79-195q79-80 192-80t192 80q79 80 79 195t-79 195M411 720 258 837l70 45 126-130-43-32Z" horiz-adv-x="794" vert-adv-y="1000"/><glyph glyph-name="unid3" unicode="Ó" d="m643.5 87-50.25-49.5Q543-12 397-12T150.5 87Q50 186 50 333q0 148 101 246.5T397 678q145 0 246-98.5T744 333q0-147-100.5-246M589 528l-39.5 40Q510 608 397 608t-192-80q-79-80-79-195t79-195q79-80 192-80t192 80q79 80 79 195t-79 195M462 882l70-45-153-117-43 32 126 130Z" horiz-adv-x="794" vert-adv-y="1000"/><glyph glyph-name="unid4" unicode="Ô" d="m643.5 87-50.25-49.5Q543-12 397-12T150.5 87Q50 186 50 333q0 148 101 246.5T397 678q145 0 246-98.5T744 333q0-147-100.5-246M589 528l-39.5 40Q510 608 397 608t-192-80q-79-80-79-195t79-195q79-80 192-80t192 80q79 80 79 195t-79 195M397 797l-88-76-52 41 140 119 140-119-52-41-88 76Z" horiz-adv-x="794" vert-adv-y="1000"/><glyph glyph-name="unid5" unicode="Õ" d="m643.5 87-50.25-49.5Q543-12 397-12T150.5 87Q50 186 50 333q0 148 101 246.5T397 678q145 0 246-98.5T744 333q0-147-100.5-246M589 528l-39.5 40Q510 608 397 608t-192-80q-79-80-79-195t79-195q79-80 192-80t192 80q79 80 79 195t-79 195m-80 314 43-35q-9-24-26-41-30-31-70-31-23 0-67 22-42 20-56 20-17 0-30-13-13-15-17-31l-44 36q10 26 30 45 27 27 63 27 26 0 68-21 40-21 56-21 18 0 32 14 12 12 18 29Z" horiz-adv-x="794" vert-adv-y="1000"/><glyph glyph-name="unid6" unicode="Ö" d="m643.5 87-50.25-49.5Q543-12 397-12T150.5 87Q50 186 50 333q0 148 101 246.5T397 678q145 0 246-98.5T744 333q0-147-100.5-246M589 528l-39.5 40Q510 608 397 608t-192-80q-79-80-79-195t79-195q79-80 192-80t192 80q79 80 79 195t-79 195M266 748l-7.5 7.5Q251 763 251 784t15 36q15 15 36 15t36-15q15-15 15-36t-15-36q-15-15-36-15t-36 15m190 0-7.5 7.5Q441 763 441 784t15 36q15 15 36 15t36-15q15-15 15-36t-15-36q-15-15-36-15t-36 15Z" horiz-adv-x="794" vert-adv-y="1000"/><glyph glyph-name="unid7" unicode="×" d="m60 190 143 143L54 482l47 47 149-149 149 149 47-47-149-149 143-143-47-47-143 143-143-143-47 47Z" horiz-adv-x="500" vert-adv-y="1000"/><glyph glyph-name="unid8" unicode="Ø" d="m744 635-79-80q79-94 79-222 0-147-101-246T397-12q-129 0-223 78L94-13 44 37l80 79q-74 94-74 217 0 148 101 246.5T397 678q123 0 218-73l79 80 50-50M182 166l375 389q-69 53-160 53-113 0-192-80t-79-195q0-95 56-167m426 340L231 115q74-57 166-57 112 0 191.5 80.5T668 333q0 99-60 173Z" horiz-adv-x="794" vert-adv-y="1000"/><glyph glyph-name="unid9" unicode="Ù" d="M160 667V258q0-38 1.5-59t14-51.5Q188 117 213 96q45-38 110-38t110 38q25 21 37.5 51.5t14 51.5q1.5 21 1.5 59v409h74V238q0-102-42-160-31-42-81.5-66T323-12q-63 0-113.5 24T128 78q-42 58-42 160v429h74m171 53L178 837l70 45 126-130-43-32Z" horiz-adv-x="646" vert-adv-y="1000"/><glyph glyph-name="unida" unicode="Ú" d="M160 667V258q0-38 1.5-59t14-51.5Q188 117 213 96q45-38 110-38t110 38q25 21 37.5 51.5t14 51.5q1.5 21 1.5 59v409h74V238q0-102-42-160-31-42-81.5-66T323-12q-63 0-113.5 24T128 78q-42 58-42 160v429h74m238 215 70-45-153-117-43 32 126 130Z" horiz-adv-x="646" vert-adv-y="1000"/><glyph glyph-name="unidb" unicode="Û" d="M160 667V258q0-38 1.5-59t14-51.5Q188 117 213 96q45-38 110-38t110 38q25 21 37.5 51.5t14 51.5q1.5 21 1.5 59v409h74V238q0-102-42-160-31-42-81.5-66T323-12q-63 0-113.5 24T128 78q-42 58-42 160v429h74m163 130-88-76-52 41 140 119 140-119-52-41-88 76Z" horiz-adv-x="646" vert-adv-y="1000"/><glyph glyph-name="unidc" unicode="Ü" d="M160 667V258q0-38 1.5-59t14-51.5Q188 117 213 96q45-38 110-38t110 38q25 21 37.5 51.5t14 51.5q1.5 21 1.5 59v409h74V238q0-102-42-160-31-42-81.5-66T323-12q-63 0-113.5 24T128 78q-42 58-42 160v429h74m32 81-7.5 7.5Q177 763 177 784t15 36q15 15 36 15t36-15q15-15 15-36t-15-36q-15-15-36-15t-36 15m190 0-7.5 7.5Q367 763 367 784t15 36q15 15 36 15t36-15q15-15 15-36t-15-36q-15-15-36-15t-36 15Z" horiz-adv-x="646" vert-adv-y="1000"/><glyph glyph-name="unidd" unicode="Ý" d="M227 0v287L8 667h86l170-298 172 298h86L301 287V0h-74m120 882 70-45-153-117-43 32 126 130Z" horiz-adv-x="530" vert-adv-y="1000"/><glyph glyph-name="unide" unicode="Þ" d="M86 667h74V567h47q114 0 168-47 61-52 61-143 0-78-52.5-132.5T225 190h-65V0H86v667m74-170V260h61q66 0 103.5 32t37.5 89q0 116-147 116h-55Z" horiz-adv-x="456" vert-adv-y="1000"/><glyph glyph-name="unidf" unicode="ß" d="M148 0H76v349H6v66h70v134q0 94 49 144 46 48 126 48 79 0 128-50 45-46 45-118 0-55-22-90-20-33-55-50 55-19 88-55 55-57 55-144 0-98-66-166-74-76-187-80v70q82 6 133 59 44 46 44 113 0 71-48 117-49 47-129 49v64q55 0 88 34 25 27 25 74 0 58-30 86-25 23-69 23-53 0-80-38-23-32-23-118V0Z" horiz-adv-x="532" vert-adv-y="1000"/><glyph glyph-name="unie0" unicode="à" d="M386 356v59h72V0h-72v58q-54-70-142-70-84 0-143 58T42 208q0 102 58.5 159.5T244 425q90 0 142-69m-134 5q-57 0-96.5-40.5T116 208q0-69 36.5-112.5T252 52q63 0 100.5 45T390 207q0 74-42 114t-96 40m-3 136L114 632l74 34 105-145-44-24Z" horiz-adv-x="526" vert-adv-y="1000"/><glyph glyph-name="unie1" unicode="á" d="M386 356v59h72V0h-72v58q-54-70-142-70-84 0-143 58T42 208q0 102 58.5 159.5T244 425q90 0 142-69m-134 5q-57 0-96.5-40.5T116 208q0-69 36.5-112.5T252 52q63 0 100.5 45T390 207q0 74-42 114t-96 40m60 305 74-34-134-135-45 24 105 145Z" horiz-adv-x="526" vert-adv-y="1000"/><glyph glyph-name="unie2" unicode="â" d="M386 356v59h72V0h-72v58q-54-70-142-70-84 0-143 58T42 208q0 102 58.5 159.5T244 425q90 0 142-69m-134 5q-57 0-96.5-40.5T116 208q0-69 36.5-112.5T252 52q63 0 100.5 45T390 207q0 74-42 114t-96 40m4 217-92-81-46 36 138 121 138-121-46-36-92 81Z" horiz-adv-x="526" vert-adv-y="1000"/><glyph glyph-name="unie3" unicode="ã" d="M386 356v59h72V0h-72v58q-54-70-142-70-84 0-143 58T42 208q0 102 58.5 159.5T244 425q90 0 142-69m-134 5q-57 0-96.5-40.5T116 208q0-69 36.5-112.5T252 52q63 0 100.5 45T390 207q0 74-42 114t-96 40m-88 136-42 34q17 27 34 45 25 24 57 24 30 0 70-20 38-20 56-20t29 12q13 15 21 31l41-34q-8-21-26-39-29-30-66-30-25 0-69 21-41 19-55 19-15 0-29-14-11-11-21-29Z" horiz-adv-x="526" vert-adv-y="1000"/><glyph glyph-name="unie4" unicode="ä" d="M386 356v59h72V0h-72v58q-54-70-142-70-84 0-143 58T42 208q0 102 58.5 159.5T244 425q90 0 142-69m-134 5q-57 0-96.5-40.5T116 208q0-69 36.5-112.5T252 52q63 0 100.5 45T390 207q0 74-42 114t-96 40M145 515l-7.5 7.5Q130 530 130 550t15 35q15 15 35 15t35-15q15-15 15-35t-15-35q-15-15-35-15t-35 15m174 0-7.5 7.5Q304 530 304 550t15 35q15 15 35 15t35-15q15-15 15-35t-15-35q-15-15-35-15t-35 15Z" horiz-adv-x="526" vert-adv-y="1000"/><glyph glyph-name="unie5" unicode="å" d="M386 356v59h72V0h-72v58q-54-70-142-70-84 0-143 58T42 208q0 102 58.5 159.5T244 425q90 0 142-69m-134 5q-57 0-96.5-40.5T116 208q0-69 36.5-112.5T252 52q63 0 100.5 45T390 207q0 74-42 114t-96 40m-44.5 161.5-12.75 12.75Q182 548 182 583t25.5 60.5Q233 669 268 669t60.5-25.5Q354 618 354 583t-25.5-60.5Q303 497 268 497t-60.5 25.5m31.5 90-6.5-6.25Q226 600 226 583t13-29.5q13-12.5 29-12.5t29 12.5q13 12.5 13 29.5t-13 29.5Q284 625 268 625t-29-12.5Z" horiz-adv-x="526" vert-adv-y="1000"/><glyph glyph-name="unie6" unicode="æ" d="m667 140 60-36Q666-12 540-12q-107 0-163 83-47-83-156-83-77 0-128 35T42 123q0 65 49 101t124 36q70 0 119-35 2 54-19 88-28 48-99 48-56 0-128-26v68q67 22 129 22 117 0 157-84 52 84 160 84 91 0 144.5-61.5T732 200v-7H408q2-61 39.5-101T539 52q41 0 75 25t53 63M413 253h245q-7 50-41 79t-82 29q-46 0-80-29t-42-79m-192-57q-51 0-79-20.5T114 123q0-28 24.5-49.5T219 52q57 0 84 22.5t27 51.5q0 26-26.5 48T221 196Z" horiz-adv-x="774" vert-adv-y="1000"/><glyph glyph-name="unie7" unicode="ç" d="M393 385v-86q-49 62-130 62-61 0-104-41.5T116 206q0-72 43-113t103-41q80 0 134 65V31q-59-43-132-43-97 0-159.5 61.5T42 205q0 95 63 157.5T264 425q72 0 129-40M246-52l66-27-101-128-49 24 84 131Z" horiz-adv-x="438" vert-adv-y="1000"/><glyph glyph-name="unie8" unicode="è" d="m376 139 60-33q-21-40-51-67-57-51-138-51-84 0-144.5 54.5T42 205q0 95 54.5 157.5T243 425q104 0 157-76 42-60 39-156H116q1-63 39-102t93-39q49 0 85 30 28 24 43 57M121 253h244q-9 49-42.5 78.5T243 361q-45 0-79.5-30.5T121 253m128 244L114 632l74 34 105-145-44-24Z" horiz-adv-x="481" vert-adv-y="1000"/><glyph glyph-name="unie9" unicode="é" d="m376 139 60-33q-21-40-51-67-57-51-138-51-84 0-144.5 54.5T42 205q0 95 54.5 157.5T243 425q104 0 157-76 42-60 39-156H116q1-63 39-102t93-39q49 0 85 30 28 24 43 57M121 253h244q-9 49-42.5 78.5T243 361q-45 0-79.5-30.5T121 253m171 413 74-34-134-135-45 24 105 145Z" horiz-adv-x="481" vert-adv-y="1000"/><glyph glyph-name="uniea" unicode="ê" d="m376 139 60-33q-21-40-51-67-57-51-138-51-84 0-144.5 54.5T42 205q0 95 54.5 157.5T243 425q104 0 157-76 42-60 39-156H116q1-63 39-102t93-39q49 0 85 30 28 24 43 57M121 253h244q-9 49-42.5 78.5T243 361q-45 0-79.5-30.5T121 253m121 325-92-81-46 36 138 121 138-121-46-36-92 81Z" horiz-adv-x="481" vert-adv-y="1000"/><glyph glyph-name="unieb" unicode="ë" d="m376 139 60-33q-21-40-51-67-57-51-138-51-84 0-144.5 54.5T42 205q0 95 54.5 157.5T243 425q104 0 157-76 42-60 39-156H116q1-63 39-102t93-39q49 0 85 30 28 24 43 57M121 253h244q-9 49-42.5 78.5T243 361q-45 0-79.5-30.5T121 253m-1 262-7.5 7.5Q105 530 105 550t15 35q15 15 35 15t35-15q15-15 15-35t-15-35q-15-15-35-15t-35 15m174 0-7.5 7.5Q279 530 279 550t15 35q15 15 35 15t35-15q15-15 15-35t-15-35q-15-15-35-15t-35 15Z" horiz-adv-x="481" vert-adv-y="1000"/><glyph glyph-name="uniec" unicode="ì" d="M68 415h72V0H68v415m41 78L-14 640l77 27 91-153-45-21Z" horiz-adv-x="208" vert-adv-y="1000"/><glyph glyph-name="unied" unicode="í" d="M68 415h72V0H68v415m77 252 77-27L99 493l-47 21 93 153Z" horiz-adv-x="208" vert-adv-y="1000"/><glyph glyph-name="uniee" unicode="î" d="M68 415h72V0H68v415m36 157-75-67-43 35 118 106 118-106-43-35-75 67Z" horiz-adv-x="208" vert-adv-y="1000"/><glyph glyph-name="unief" unicode="ï" d="M68 415h72V0H68v415m-86 100-7.5 7.5Q-33 530-33 550t15 35q15 15 35 15t35-15q15-15 15-35t-15-35q-15-15-35-15t-35 15m174 0-7.5 7.5Q141 530 141 550t15 35q15 15 35 15t35-15q15-15 15-35t-15-35q-15-15-35-15t-35 15Z" horiz-adv-x="208" vert-adv-y="1000"/><glyph glyph-name="unif0" unicode="ð" d="m83 612 17 61q116-10 211-71l129 42 18-54-95-31q45-40 74-97 45-90 45-210 0-96-35-158Q386-12 262-12q-95 0-159 64-61 63-61 160 0 102 65 167 58 58 149 58 80 0 135-49-11 40-37 79-27 39-64 68l-179-59-18 54 134 44q-62 29-144 38m325-394q0 76-48 120-37 35-95 35-59 0-101-40-48-45-48-123 0-72 46-117 42-41 100-41t97 39q49 48 49 127Z" horiz-adv-x="524" vert-adv-y="1000"/><glyph glyph-name="unif1" unicode="ñ" d="M68 0v415h72v-48q44 58 119 58 80 0 119-57 24-35 24-111V0h-72v255q0 51-19 76-23 30-68 30-46 0-73-32-30-35-30-112V0H68m50 497-42 34q17 27 34 45 25 24 57 24 30 0 70-20 38-20 56-20t29 12q13 15 21 31l41-34q-8-21-26-39-29-30-66-30-25 0-69 21-41 19-55 19-15 0-29-14-11-11-21-29Z" horiz-adv-x="470" vert-adv-y="1000"/><glyph glyph-name="unif2" unicode="ò" d="m419.5 50-31.25-31Q357-12 262-12T104.5 50Q42 112 42 206q0 95 62.5 157T262 425q95 0 157.5-62T482 206q0-94-62.5-156m-54 270-21.25 20.5Q323 361 262 361t-103.5-41.5Q116 278 116 206t43-113q43-41 103-41t103 41q43 41 43 113 0 73-42.5 114M261 497 126 632l74 34 105-145-44-24Z" horiz-adv-x="524" vert-adv-y="1000"/><glyph glyph-name="unif3" unicode="ó" d="m419.5 50-31.25-31Q357-12 262-12T104.5 50Q42 112 42 206q0 95 62.5 157T262 425q95 0 157.5-62T482 206q0-94-62.5-156m-54 270-21.25 20.5Q323 361 262 361t-103.5-41.5Q116 278 116 206t43-113q43-41 103-41t103 41q43 41 43 113 0 73-42.5 114M324 666l74-34-134-135-45 24 105 145Z" horiz-adv-x="524" vert-adv-y="1000"/><glyph glyph-name="unif4" unicode="ô" d="m419.5 50-31.25-31Q357-12 262-12T104.5 50Q42 112 42 206q0 95 62.5 157T262 425q95 0 157.5-62T482 206q0-94-62.5-156m-54 270-21.25 20.5Q323 361 262 361t-103.5-41.5Q116 278 116 206t43-113q43-41 103-41t103 41q43 41 43 113 0 73-42.5 114M262 578l-92-81-46 36 138 121 138-121-46-36-92 81Z" horiz-adv-x="524" vert-adv-y="1000"/><glyph glyph-name="unif5" unicode="õ" d="m419.5 50-31.25-31Q357-12 262-12T104.5 50Q42 112 42 206q0 95 62.5 157T262 425q95 0 157.5-62T482 206q0-94-62.5-156m-54 270-21.25 20.5Q323 361 262 361t-103.5-41.5Q116 278 116 206t43-113q43-41 103-41t103 41q43 41 43 113 0 73-42.5 114M150 497l-42 34q16 27 34 45 25 24 57 24 30 0 70-20 38-20 56-20t29 12q13 15 21 31l41-34q-8-21-26-39-29-30-66-30-25 0-69 21-41 19-55 19-15 0-29-14-11-11-21-29Z" horiz-adv-x="524" vert-adv-y="1000"/><glyph glyph-name="unif6" unicode="ö" d="m419.5 50-31.25-31Q357-12 262-12T104.5 50Q42 112 42 206q0 95 62.5 157T262 425q95 0 157.5-62T482 206q0-94-62.5-156m-54 270-21.25 20.5Q323 361 262 361t-103.5-41.5Q116 278 116 206t43-113q43-41 103-41t103 41q43 41 43 113 0 73-42.5 114M140 515l-7.5 7.5Q125 530 125 550t15 35q15 15 35 15t35-15q15-15 15-35t-15-35q-15-15-35-15t-35 15m174 0-7.5 7.5Q299 530 299 550t15 35q15 15 35 15t35-15q15-15 15-35t-15-35q-15-15-35-15t-35 15Z" horiz-adv-x="524" vert-adv-y="1000"/><glyph glyph-name="unif7" unicode="÷" d="m215.5 480.5-7.25 7.25Q201 495 201 515t14.5 34.5Q230 564 250 564t34.5-14.5Q299 535 299 515t-14.5-34.5Q270 466 250 466t-34.5 14.5m0-364-7.25 7.25Q201 131 201 151t14.5 34.5Q230 200 250 200t34.5-14.5Q299 171 299 151t-14.5-34.5Q270 102 250 102t-34.5 14.5M33 300v66h434v-66H33Z" horiz-adv-x="500" vert-adv-y="1000"/><glyph glyph-name="unif8" unicode="ø" d="m497 400-59-59q44-55 44-135 0-95-62.5-156.5T262-12q-77 0-134 42L67-30 21 15l61 60q-40 56-40 131 0 95 62.5 157T262 425q77 0 130-40l61 60 44-45M135 124l207 214q-35 23-80 23-61 0-103.5-41T116 206q0-44 19-82m251 168L179 78q36-26 83-26 60 0 103 40.5T408 206q0 47-22 86Z" horiz-adv-x="524" vert-adv-y="1000"/><glyph glyph-name="unif9" unicode="ù" d="M140 415V173q0-63 20-89 25-32 73-32t73 32q20 26 20 89v242h72V165q0-84-38-125-49-52-127-52T106 40Q68 81 68 165v250h72m99 82L104 632l74 34 105-145-44-24Z" horiz-adv-x="466" vert-adv-y="1000"/><glyph glyph-name="unifa" unicode="ú" d="M140 415V173q0-63 20-89 25-32 73-32t73 32q20 26 20 89v242h72V165q0-84-38-125-49-52-127-52T106 40Q68 81 68 165v250h72m146 251 74-34-134-135-45 24 105 145Z" horiz-adv-x="466" vert-adv-y="1000"/><glyph glyph-name="unifb" unicode="û" d="M140 415V173q0-63 20-89 25-32 73-32t73 32q20 26 20 89v242h72V165q0-84-38-125-49-52-127-52T106 40Q68 81 68 165v250h72m93 163-92-81-46 36 138 121 138-121-46-36-92 81Z" horiz-adv-x="466" vert-adv-y="1000"/><glyph glyph-name="unifc" unicode="ü" d="M140 415V173q0-63 20-89 25-32 73-32t73 32q20 26 20 89v242h72V165q0-84-38-125-49-52-127-52T106 40Q68 81 68 165v250h72m-29 100-7.5 7.5Q96 530 96 550t15 35q15 15 35 15t35-15q15-15 15-35t-15-35q-15-15-35-15t-35 15m174 0-7.5 7.5Q270 530 270 550t15 35q15 15 35 15t35-15q15-15 15-35t-15-35q-15-15-35-15t-35 15Z" horiz-adv-x="466" vert-adv-y="1000"/><glyph glyph-name="unifd" unicode="ý" d="M67-230 199 39 8 415h82l147-297 135 297h80L147-230H67m225 896 74-34-134-135-45 24 105 145Z" horiz-adv-x="460" vert-adv-y="1000"/><glyph glyph-name="unife" unicode="þ" d="M140 58v-288H68v959h72V357q55 68 142 68 93 0 147.5-65.5T484 205q0-90-54-153.5T285-12q-91 0-145 70m135-6q61 0 98 44.5T410 205q0 72-41 114t-95 42q-54 0-96-42t-42-113q0-65 38.5-109.5T275 52Z" horiz-adv-x="526" vert-adv-y="1000"/><glyph glyph-name="uniff" unicode="ÿ" d="M67-230 199 39 8 415h82l147-297 135 297h80L147-230H67m51 745-7.5 7.5Q103 530 103 550t15 35q15 15 35 15t35-15q15-15 15-35t-15-35q-15-15-35-15t-35 15m174 0-7.5 7.5Q277 530 277 550t15 35q15 15 35 15t35-15q15-15 15-35t-15-35q-15-15-35-15t-35 15Z" horiz-adv-x="460" vert-adv-y="1000"/><glyph glyph-name="uni0100" unicode="Ā" d="m532 0-78 188H170L90 0H8l307 699L614 0h-82M199 258h226L313 525 199 258m-44 475v64h320v-64H155Z" horiz-adv-x="622" vert-adv-y="1000"/><glyph glyph-name="uni0101" unicode="ā" d="M386 356v59h72V0h-72v58q-54-70-142-70-84 0-143 58T42 208q0 102 58.5 159.5T244 425q90 0 142-69m-134 5q-57 0-96.5-40.5T116 208q0-69 36.5-112.5T252 52q63 0 100.5 45T390 207q0 74-42 114t-96 40M113 513v60h302v-60H113Z" horiz-adv-x="526" vert-adv-y="1000"/><glyph glyph-name="uni0102" unicode="Ă" d="m532 0-78 188H170L90 0H8l307 699L614 0h-82M199 258h226L313 525 199 258m205 583h66q-7-39-31-67-46-53-124-53t-124 53q-24 28-31 67h66q7-22 25-36 26-20 64-20t64 20q18 14 25 36Z" horiz-adv-x="622" vert-adv-y="1000"/><glyph glyph-name="uni0103" unicode="ă" d="M386 356v59h72V0h-72v58q-54-70-142-70-84 0-143 58T42 208q0 102 58.5 159.5T244 425q90 0 142-69m-134 5q-57 0-96.5-40.5T116 208q0-69 36.5-112.5T252 52q63 0 100.5 45T390 207q0 74-42 114t-96 40M123 617h61q7-23 24-39 24-21 60-21t60 21q17 16 24 39h61q-6-32-29-67-41-53-116-53t-116 53q-23 35-29 67Z" horiz-adv-x="526" vert-adv-y="1000"/><glyph glyph-name="uni0104" unicode="Ą" d="M315 699 614 0h-20q-31-19-50-41-20-25-20-48 0-17 12-29 14-12 38-12 27 0 50 13l-8-59q-27-14-55-14-47 0-78 29-23 21-23 57 0 33 23 63 20 25 49 41l-78 188H170L90 0H8l307 699M199 258h226L313 525 199 258Z" horiz-adv-x="622" vert-adv-y="1000"/><glyph glyph-name="uni0105" unicode="ą" d="M386 356v59h72V0h-14q-24-14-47-39-23-26-23-51 0-19 12-29 12-11 40-11 27 0 48 13l-8-55q-24-14-56-14-46 0-74 28-22 22-22 56 0 60 72 102v58q-26-30-56-48-38-22-86-22-86 0-143 57-59 62-59 163 0 102 60 162 55 55 142 55 89 0 142-69m-134 5q-57 0-95-40-41-45-41-117 0-76 44-117 38-35 94-35 54 0 91 37 45 47 45 118 0 69-39 112-39 42-99 42Z" horiz-adv-x="526" vert-adv-y="1000"/><glyph glyph-name="uni0106" unicode="Ć" d="M596 612v-92q-40 40-87 62-57 26-115 26-115 0-191.5-80.5T126 330q0-126 83.5-199T395 58q64 0 124 31 42 21 77 56V53q-91-65-201-65-148 0-246.5 99T50 331q0 149 99.5 248T399 678q110 0 197-66M452 882l70-45-153-117-43 32 126 130Z" horiz-adv-x="646" vert-adv-y="1000"/><glyph glyph-name="uni0107" unicode="ć" d="M393 385v-86q-49 62-130 62-61 0-104-41.5T116 206q0-72 43-113t103-41q80 0 134 65V31q-59-43-132-43-97 0-159.5 61.5T42 205q0 95 63 157.5T264 425q72 0 129-40M292 666l74-34-134-135-45 24 105 145Z" horiz-adv-x="438" vert-adv-y="1000"/><glyph glyph-name="uni0108" unicode="Ĉ" d="M596 612v-92q-40 40-87 62-57 26-115 26-115 0-191.5-80.5T126 330q0-126 83.5-199T395 58q64 0 124 31 42 21 77 56V53q-91-65-201-65-148 0-246.5 99T50 331q0 149 99.5 248T399 678q110 0 197-66M400 797l-88-76-52 41 140 119 140-119-52-41-88 76Z" horiz-adv-x="646" vert-adv-y="1000"/><glyph glyph-name="uni0109" unicode="ĉ" d="M393 385v-86q-49 62-130 62-61 0-104-41.5T116 206q0-72 43-113t103-41q80 0 134 65V31q-59-43-132-43-97 0-159.5 61.5T42 205q0 95 63 157.5T264 425q72 0 129-40M260 578l-92-81-46 36 138 121 138-121-46-36-92 81Z" horiz-adv-x="438" vert-adv-y="1000"/><glyph glyph-name="uni010A" unicode="Ċ" d="M596 612v-92q-40 40-87 62-57 26-115 26-115 0-191.5-80.5T126 330q0-126 83.5-199T395 58q64 0 124 31 42 21 77 56V53q-91-65-201-65-148 0-246.5 99T50 331q0 149 99.5 248T399 678q110 0 197-66M353.5 744.5l-7.75 7.75Q338 760 338 784t15.5 39.5Q369 839 393 839t39.5-15.5Q448 808 448 784t-15.5-39.5Q417 729 393 729t-39.5 15.5Z" horiz-adv-x="646" vert-adv-y="1000"/><glyph glyph-name="uni010B" unicode="ċ" d="M393 385v-86q-49 62-130 62-61 0-104-41.5T116 206q0-72 43-113t103-41q80 0 134 65V31q-59-43-132-43-97 0-159.5 61.5T42 205q0 95 63 157.5T264 425q72 0 129-40M226.5 515l-7.75 7.5Q211 530 211 553t15.5 38q15.5 15 37.5 15t37.5-15q15.5-15 15.5-38t-15.5-38Q286 500 264 500t-37.5 15Z" horiz-adv-x="438" vert-adv-y="1000"/><glyph glyph-name="uni010C" unicode="Č" d="M596 612v-92q-40 40-87 62-57 26-115 26-115 0-191.5-80.5T126 330q0-126 83.5-199T395 58q64 0 124 31 42 21 77 56V53q-91-65-201-65-148 0-246.5 99T50 331q0 149 99.5 248T399 678q110 0 197-66M400 805l88 76 52-41-140-119-140 119 52 41 88-76Z" horiz-adv-x="646" vert-adv-y="1000"/><glyph glyph-name="uni010D" unicode="č" d="M393 385v-86q-49 62-130 62-61 0-104-41.5T116 206q0-72 43-113t103-41q80 0 134 65V31q-59-43-132-43-97 0-159.5 61.5T42 205q0 95 63 157.5T264 425q72 0 129-40M260 573l92 81 46-36-138-121-138 121 46 36 92-81Z" horiz-adv-x="438" vert-adv-y="1000"/><glyph glyph-name="uni010E" unicode="Ď" d="M86 0v667h136q154 0 246-78 114-95 114-256 0-156-117-256-48-41-103-59T221 0H86m74 597V70h65q119 0 191 60 90 76 90 203 0 120-77 192t-204 72h-65m120 208 88 76 52-41-140-119-140 119 52 41 88-76Z" horiz-adv-x="632" vert-adv-y="1000"/><glyph glyph-name="uni010F" unicode="ď" d="M386 356v373h72V0h-72v58q-54-70-142-70-84 0-143 58T42 208q0 102 58.5 159.5T244 425q90 0 142-69m-134 5q-57 0-96.5-40.5T116 208q0-69 36.5-112.5T252 52q63 0 100.5 45T390 207q0 74-42 114t-96 40m248 169 52 160 64-24-70-156-46 20Z" horiz-adv-x="596" vert-adv-y="1000"/><glyph glyph-name="uni0110" unicode="Đ" d="M86 0v336H0v64h86v267h136q154 0 246-78 114-95 114-256 0-156-117-256-48-41-103-59T221 0H86m74 597V400h136v-64H160V70h65q119 0 191 60 90 76 90 203 0 120-77 192t-204 72h-65Z" horiz-adv-x="632" vert-adv-y="1000"/><glyph glyph-name="uni0111" unicode="đ" d="M386 356v198H186v60h200v115h72V614h68v-60h-68V0h-72v58q-54-70-142-70-84 0-143 58T42 208q0 102 58.5 159.5T244 425q90 0 142-69m-134 5q-57 0-96.5-40.5T116 208q0-69 36.5-112.5T252 52q63 0 100.5 45T390 207q0 76-41 115t-97 39Z" horiz-adv-x="526" vert-adv-y="1000"/><glyph glyph-name="uni0112" unicode="Ē" d="M432 667v-70H160V399h264v-70H160V70h272V0H86v667h346m-332 66v64h320v-64H100Z" horiz-adv-x="482" vert-adv-y="1000"/><glyph glyph-name="uni0113" unicode="ē" d="m376 139 60-33q-21-40-51-67-57-51-138-51-84 0-144.5 54.5T42 205q0 95 54.5 157.5T243 425q104 0 157-76 42-60 39-156H116q1-63 39-102t93-39q49 0 85 30 28 24 43 57M121 253h244q-9 49-42.5 78.5T243 361q-45 0-79.5-30.5T121 253M91 513v60h302v-60H91Z" horiz-adv-x="481" vert-adv-y="1000"/><glyph glyph-name="uni0116" unicode="Ė" d="M432 667v-70H160V399h264v-70H160V70h272V0H86v667h346m-211.5 77.5-7.75 7.75Q205 760 205 784t15.5 39.5Q236 839 260 839t39.5-15.5Q315 808 315 784t-15.5-39.5Q284 729 260 729t-39.5 15.5Z" horiz-adv-x="482" vert-adv-y="1000"/><glyph glyph-name="uni0117" unicode="ė" d="m376 139 60-33q-21-40-51-67-57-51-138-51-84 0-144.5 54.5T42 205q0 95 54.5 157.5T243 425q104 0 157-76 42-60 39-156H116q1-63 39-102t93-39q49 0 85 30 28 24 43 57M121 253h244q-9 49-42.5 78.5T243 361q-45 0-79.5-30.5T121 253m83.5 262-7.75 7.5Q189 530 189 553t15.5 38q15.5 15 37.5 15t37.5-15q15.5-15 15.5-38t-15.5-38Q264 500 242 500t-37.5 15Z" horiz-adv-x="481" vert-adv-y="1000"/><glyph glyph-name="uni0118" unicode="Ę" d="M432 667v-70H160V399h264v-70H160V70h272V0h-40q-31-19-50-41-20-25-20-48 0-17 12-29 14-12 38-12 27 0 50 13l-8-59q-27-14-55-14-47 0-78 29-23 21-23 57 0 35 23 63 14 18 45 41H86v667h346Z" horiz-adv-x="482" vert-adv-y="1000"/><glyph glyph-name="uni0119" unicode="ę" d="m377 139 60-33q-17-36-51-66-20-17-62-42-31-18-51-38-23-24-23-50 0-16 11-27 13-13 41-13 23 0 48 13l-8-55q-25-14-56-14-46 0-73 27-23 21-23 57 0 29 18 54 13 19 35 36-83 0-140 55-61 59-61 162 0 104 62 166 54 54 140 54 87 0 139-54 57-58 57-178H116q2-64 40-104 35-37 93-37 49 0 85 30 25 21 43 57M122 253h244q-8 46-38 74-35 34-84 34-52 0-85-35-28-30-37-73Z" horiz-adv-x="482" vert-adv-y="1000"/><glyph glyph-name="uni011A" unicode="Ě" d="M432 667v-70H160V399h264v-70H160V70h272V0H86v667h346M260 805l88 76 52-41-140-119-140 119 52 41 88-76Z" horiz-adv-x="482" vert-adv-y="1000"/><glyph glyph-name="uni011B" unicode="ě" d="m376 139 60-33q-21-40-51-67-57-51-138-51-84 0-144.5 54.5T42 205q0 95 54.5 157.5T243 425q104 0 157-76 42-60 39-156H116q1-63 39-102t93-39q49 0 85 30 28 24 43 57M121 253h244q-9 49-42.5 78.5T243 361q-45 0-79.5-30.5T121 253m121 320 92 81 46-36-138-121-138 121 46 36 92-81Z" horiz-adv-x="481" vert-adv-y="1000"/><glyph glyph-name="uni011C" unicode="Ĝ" d="M430 265v70h278v-16q0-124-64-211Q555-12 396-12q-148 0-247 99.5T50 333q0 146 99.5 245.5T398 678q118 0 204-66 44-34 77-79l-55-50q-29 41-63 69-69 56-162 56-119 0-196-79t-77-197q0-86 42-150.5t102.5-94Q331 58 397 58t120.5 30.5Q572 119 601 170q25 43 27 95H430m-34 532-88-76-52 41 140 119 140-119-52-41-88 76Z" horiz-adv-x="758" vert-adv-y="1000"/><glyph glyph-name="uni011D" unicode="ĝ" d="M386 356v59h72V10q0-109-40-163-57-77-166-77-92 0-148 56-54 54-54 134h71q0-50 32-86 36-40 100-40 75 0 110 58 23 37 23 106v60q-54-70-142-70-86 0-142 56-60 60-60 164 0 101 60 161 58 56 142 56 89 0 142-69m-134 5q-55 0-94-39-42-43-42-114 0-79 47-122 37-34 89-34 56 0 91 35 47 45 47 120t-44 117q-37 37-94 37m11 217-92-81-46 36 138 121 138-121-46-36-92 81Z" horiz-adv-x="526" vert-adv-y="1000"/><glyph glyph-name="uni011E" unicode="Ğ" d="M430 265v70h278v-16q0-124-64-211Q555-12 396-12q-148 0-247 99.5T50 333q0 146 99.5 245.5T398 678q118 0 204-66 44-34 77-79l-55-50q-29 41-63 69-69 56-162 56-119 0-196-79t-77-197q0-86 42-150.5t102.5-94Q331 58 397 58t120.5 30.5Q572 119 601 170q25 43 27 95H430m55 576h66q-7-39-31-67-46-53-124-53t-124 53q-24 28-31 67h66q7-22 25-36 26-20 64-20t64 20q18 14 25 36Z" horiz-adv-x="758" vert-adv-y="1000"/><glyph glyph-name="uni011F" unicode="ğ" d="M386 356v59h72V10q0-109-40-163-57-77-166-77-92 0-148 56-54 54-54 134h71q0-50 32-86 36-40 100-40 75 0 110 58 23 37 23 106v60q-54-70-142-70-86 0-142 56-60 60-60 164 0 101 60 161 58 56 142 56 89 0 142-69m-134 5q-55 0-94-39-42-43-42-114 0-79 47-122 37-34 89-34 56 0 91 35 47 45 47 120t-44 117q-37 37-94 37M118 617h61q7-23 24-39 24-21 60-21t60 21q17 16 24 39h61q-6-32-29-67-41-53-116-53t-116 53q-23 35-29 67Z" horiz-adv-x="526" vert-adv-y="1000"/><glyph glyph-name="uni0120" unicode="Ġ" d="M430 265v70h278v-16q0-124-64-211Q555-12 396-12q-148 0-247 99.5T50 333q0 146 99.5 245.5T398 678q118 0 204-66 44-34 77-79l-55-50q-29 41-63 69-69 56-162 56-119 0-196-79t-77-197q0-86 42-150.5t102.5-94Q331 58 397 58t120.5 30.5Q572 119 601 170q25 43 27 95H430m-70.5 479.5-7.75 7.75Q344 760 344 784t15.5 39.5Q375 839 399 839t39.5-15.5Q454 808 454 784t-15.5-39.5Q423 729 399 729t-39.5 15.5Z" horiz-adv-x="758" vert-adv-y="1000"/><glyph glyph-name="uni0121" unicode="ġ" d="M386 356v59h72V10q0-109-40-163-57-77-166-77-92 0-148 56-54 54-54 134h71q0-50 32-86 36-40 100-40 75 0 110 58 23 37 23 106v60q-54-70-142-70-86 0-142 56-60 60-60 164 0 101 60 161 58 56 142 56 89 0 142-69m-134 5q-55 0-94-39-42-43-42-114 0-79 47-122 37-34 89-34 56 0 91 35 47 45 47 120t-44 117q-37 37-94 37m-43.5 154-7.75 7.5Q193 530 193 553t15.5 38q15.5 15 37.5 15t37.5-15q15.5-15 15.5-38t-15.5-38Q268 500 246 500t-37.5 15Z" horiz-adv-x="526" vert-adv-y="1000"/><glyph glyph-name="uni0122" unicode="Ģ" d="M430 265v70h278v-16q0-124-64-211Q555-12 396-12q-148 0-247 99.5T50 333q0 146 99.5 245.5T398 678q118 0 204-66 44-34 77-79l-55-50q-29 41-63 69-69 56-162 56-119 0-196-79t-77-197q0-86 42-150.5t102.5-94Q331 58 397 58t120.5 30.5Q572 119 601 170q25 43 27 95H430M318-210l56 160 64-24-70-156-50 20Z" horiz-adv-x="758" vert-adv-y="1000"/><glyph glyph-name="uni0123" unicode="ģ" d="M386 356v59h72V10q0-109-40-163-57-77-166-77-92 0-148 56-54 54-54 134h71q0-50 32-86 36-40 100-40 75 0 110 58 23 37 23 106v60q-54-70-142-70-86 0-142 56-60 60-60 164 0 101 60 161 58 56 142 56 89 0 142-69m-134 5q-55 0-94-39-42-43-42-114 0-79 47-122 37-34 89-34 56 0 91 35 47 45 47 120t-44 117q-37 37-94 37m63 289-56-160-64 24 70 156 50-20Z" horiz-adv-x="526" vert-adv-y="1000"/><glyph glyph-name="uni0124" unicode="Ĥ" d="M160 667V396h342v271h74V0h-74v326H160V0H86v667h74m171 130-88-76-52 41 140 119 140-119-52-41-88 76Z" horiz-adv-x="662" vert-adv-y="1000"/><glyph glyph-name="uni0125" unicode="ĥ" d="M68 0v729h72V367q44 58 119 58 80 0 119-57 24-35 24-111V0h-72v255q0 51-19 76-23 30-68 30-46 0-73-32-30-35-30-112V0H68m38 818-92-81-46 36 138 121 138-121-46-36-92 81Z" horiz-adv-x="470" vert-adv-y="1000"/><glyph glyph-name="uni0126" unicode="Ħ" d="M160 667v-53h342v53h74v-53h60v-62h-60V0h-74v326H160V0H86v552H26v62h60v53h74m342-115H160V396h342v156Z" horiz-adv-x="662" vert-adv-y="1000"/><glyph glyph-name="uni0127" unicode="ħ" d="M68 0v554H0v60h68v115h72V614h200v-60H140V367q44 58 119 58 80 0 119-57 24-35 24-111V0h-72v255q0 51-19 76-23 30-68 30-46 0-73-32-30-35-30-112V0H68Z" horiz-adv-x="470" vert-adv-y="1000"/><glyph glyph-name="uni012A" unicode="Ī" d="M86 667h74V0H86v667M0 733v64h246v-64H0Z" horiz-adv-x="246" vert-adv-y="1000"/><glyph glyph-name="uni012B" unicode="ī" d="M68 415h72V0H68v415M0 513v60h208v-60H0Z" horiz-adv-x="208" vert-adv-y="1000"/><glyph glyph-name="uni012E" unicode="Į" d="M86 667h74V0q-32-21-47-39-23-28-23-51 0-40 52-40 26 0 48 13l-8-59q-28-14-59-14-39 0-68 23.5T26-103q0 34 24 64Q68-16 98 0H86v667Z" horiz-adv-x="246" vert-adv-y="1000"/><glyph glyph-name="uni012F" unicode="į" d="M68 415h72V0q-32-21-47-39-23-28-23-51 0-40 52-40 26 0 48 13l-8-55q-27-14-56-14-39 0-67.5 23T10-103q0 34 24 64Q53-14 82 0H68v415m0 121-7.5 7.5Q53 551 53 572t15 36q15 15 36 15t36-15q15-15 15-36t-15-36q-15-15-36-15t-36 15Z" horiz-adv-x="208" vert-adv-y="1000"/><glyph glyph-name="uni0130" unicode="İ" d="M86 667h74V0H86v667m-2.5 77.5-7.75 7.75Q68 760 68 784t15.5 39.5Q99 839 123 839t39.5-15.5Q178 808 178 784t-15.5-39.5Q147 729 123 729t-39.5 15.5Z" horiz-adv-x="246" vert-adv-y="1000"/><glyph glyph-name="uni0131" unicode="ı" d="M68 415h72V0H68v415Z" horiz-adv-x="208" vert-adv-y="1000"/><glyph glyph-name="uni0134" unicode="Ĵ" d="M146 667h74V187q0-36-1.5-57.5t-11-50.5Q198 50 179 30 140-12 73-12-3-12-46 37l41 58q34-37 76-37 31 0 50 19 25 25 25 108v482m34 130-88-76-52 41 140 119 140-119-52-41-88 76Z" horiz-adv-x="306" vert-adv-y="1000"/><glyph glyph-name="uni0135" unicode="ĵ" d="M68 415h72v-645H68v645m36 157-75-67-43 35 118 106 118-106-43-35-75 67Z" horiz-adv-x="208" vert-adv-y="1000"/><glyph glyph-name="uni0136" unicode="Ķ" d="M160 667V381l284 286h100L232 356 554 0H452L179 306l-19-19V0H86v667h74m42-877 56 160 64-24-70-156-50 20Z" horiz-adv-x="568" vert-adv-y="1000"/><glyph glyph-name="uni0137" unicode="ķ" d="M68 729h72V261l152 154h94L208 237 418 0h-94L158 189l-18-18V0H68v729m63-939 56 160 64-24-70-156-50 20Z" horiz-adv-x="422" vert-adv-y="1000"/><glyph glyph-name="uni0139" unicode="Ĺ" d="M86 667h74V70h184V0H86v667m156 215 70-45-153-117-43 32 126 130Z" horiz-adv-x="358" vert-adv-y="1000"/><glyph glyph-name="uni013A" unicode="ĺ" d="M68 729h72V0H68v729m104 197 74-34-134-135-45 24 105 145Z" horiz-adv-x="208" vert-adv-y="1000"/><glyph glyph-name="uni013B" unicode="Ļ" d="M86 667h74V70h184V0H86v667m52-877 56 160 64-24-70-156-50 20Z" horiz-adv-x="358" vert-adv-y="1000"/><glyph glyph-name="uni013C" unicode="ļ" d="M68 729h72V0H68v729M24-210 80-50l64-24-70-156-50 20Z" horiz-adv-x="208" vert-adv-y="1000"/><glyph glyph-name="uni013D" unicode="Ľ" d="M86 667h74V70h184V0H86v667m164-147 52 160 64-24-70-156-46 20Z" horiz-adv-x="358" vert-adv-y="1000"/><glyph glyph-name="uni013E" unicode="ľ" d="M68 729h72V0H68v729m114-199 52 160 64-24-70-156-46 20Z" horiz-adv-x="278" vert-adv-y="1000"/><glyph glyph-name="uni013F" unicode="Ŀ" d="M86 667h74V70h184V0H86v667m171.5-372.5-7.75 7.75Q242 310 242 334t15.5 39.5Q273 389 297 389t39.5-15.5Q352 358 352 334t-15.5-39.5Q321 279 297 279t-39.5 15.5Z" horiz-adv-x="357" vert-adv-y="1000"/><glyph glyph-name="uni0140" unicode="ŀ" d="M68 729h72V0H68v729m155-402-7.5 7.5Q208 342 208 365t15 38q15 15 38 15t38-15q15-15 15-38t-15-38q-15-15-38-15t-38 15Z" horiz-adv-x="314" vert-adv-y="1000"/><glyph glyph-name="uni0141" unicode="Ł" d="M86 667h74V406l100 64v-64l-100-64V70h184V0H86v305L0 250v64l86 55v298Z" horiz-adv-x="358" vert-adv-y="1000"/><glyph glyph-name="uni0142" unicode="ł" d="M68 729h72V499l68 53v-60l-68-53V0H68v393L0 340v60l68 53v276Z" horiz-adv-x="208" vert-adv-y="1000"/><glyph glyph-name="uni0143" unicode="Ń" d="M160 0H86v695l520-545v517h74V-30L160 515V0m305 882 70-45-153-117-43 32 126 130Z" horiz-adv-x="766" vert-adv-y="1000"/><glyph glyph-name="uni0144" unicode="ń" d="M68 0v415h72v-48q44 58 119 58 80 0 119-57 24-35 24-111V0h-72v255q0 51-19 76-23 30-68 30-46 0-73-32-30-35-30-112V0H68m244 666 74-34-134-135-45 24 105 145Z" horiz-adv-x="470" vert-adv-y="1000"/><glyph glyph-name="uni0145" unicode="Ņ" d="M160 0H86v695l520-545v517h74V-30L160 515V0m148-210 56 160 64-24-70-156-50 20Z" horiz-adv-x="766" vert-adv-y="1000"/><glyph glyph-name="uni0146" unicode="ņ" d="M68 0v415h72v-48q44 58 119 58 80 0 119-57 24-35 24-111V0h-72v255q0 51-19 76-23 30-68 30-46 0-73-32-30-35-30-112V0H68m87-210 56 160 64-24-70-156-50 20Z" horiz-adv-x="470" vert-adv-y="1000"/><glyph glyph-name="uni0147" unicode="Ň" d="M160 0H86v695l520-545v517h74V-30L160 515V0m223 805 88 76 52-41-140-119-140 119 52 41 88-76Z" horiz-adv-x="766" vert-adv-y="1000"/><glyph glyph-name="uni0148" unicode="ň" d="M68 0v415h72v-48q44 58 119 58 80 0 119-57 24-35 24-111V0h-72v255q0 51-19 76-23 30-68 30-46 0-73-32-30-35-30-112V0H68m182 573 92 81 46-36-138-121-138 121 46 36 92-81Z" horiz-adv-x="470" vert-adv-y="1000"/><glyph glyph-name="uni014C" unicode="Ō" d="m643.5 87-50.25-49.5Q543-12 397-12T150.5 87Q50 186 50 333q0 148 101 246.5T397 678q145 0 246-98.5T744 333q0-147-100.5-246M589 528l-39.5 40Q510 608 397 608t-192-80q-79-80-79-195t79-195q79-80 192-80t192 80q79 80 79 195t-79 195M237 733v64h320v-64H237Z" horiz-adv-x="794" vert-adv-y="1000"/><glyph glyph-name="uni014D" unicode="ō" d="m419.5 50-31.25-31Q357-12 262-12T104.5 50Q42 112 42 206q0 95 62.5 157T262 425q95 0 157.5-62T482 206q0-94-62.5-156m-54 270-21.25 20.5Q323 361 262 361t-103.5-41.5Q116 278 116 206t43-113q43-41 103-41t103 41q43 41 43 113 0 73-42.5 114M111 513v60h302v-60H111Z" horiz-adv-x="524" vert-adv-y="1000"/><glyph glyph-name="uni014E" unicode="Ŏ" d="m643.5 87-50.25-49.5Q543-12 397-12T150.5 87Q50 186 50 333q0 148 101 246.5T397 678q145 0 246-98.5T744 333q0-147-100.5-246M589 528l-39.5 40Q510 608 397 608t-192-80q-79-80-79-195t79-195q79-80 192-80t192 80q79 80 79 195t-79 195M486 841h66q-7-39-31-67-46-53-124-53t-124 53q-24 28-31 67h66q7-22 25-36 26-20 64-20t64 20q18 14 25 36Z" horiz-adv-x="794" vert-adv-y="1000"/><glyph glyph-name="uni014F" unicode="ŏ" d="m419.5 50-31.25-31Q357-12 262-12T104.5 50Q42 112 42 206q0 95 62.5 157T262 425q95 0 157.5-62T482 206q0-94-62.5-156m-54 270-21.25 20.5Q323 361 262 361t-103.5-41.5Q116 278 116 206t43-113q43-41 103-41t103 41q43 41 43 113 0 73-42.5 114M117 617h61q7-23 24-39 24-21 60-21t60 21q17 16 24 39h61q-6-32-29-67-41-53-116-53t-116 53q-23 35-29 67Z" horiz-adv-x="524" vert-adv-y="1000"/><glyph glyph-name="uni0150" unicode="Ő" d="m643.5 87-50.25-49.5Q543-12 397-12T150.5 87Q50 186 50 333q0 148 101 246.5T397 678q145 0 246-98.5T744 333q0-147-100.5-246M589 528l-39.5 40Q510 608 397 608t-192-80q-79-80-79-195t79-195q79-80 192-80t192 80q79 80 79 195t-79 195M401 882l70-40-147-122-43 26 120 136m150 0 70-40-147-122-43 26 120 136Z" horiz-adv-x="794" vert-adv-y="1000"/><glyph glyph-name="uni0151" unicode="ő" d="m419.5 50-31.25-31Q357-12 262-12T104.5 50Q42 112 42 206q0 95 62.5 157T262 425q95 0 157.5-62T482 206q0-94-62.5-156m-54 270-21.25 20.5Q323 361 262 361t-103.5-41.5Q116 278 116 206t43-113q43-41 103-41t103 41q43 41 43 113 0 73-42.5 114M262 666l72-32-137-136-41 23 106 145m134 0 70-32-135-136-41 23 106 145Z" horiz-adv-x="524" vert-adv-y="1000"/><glyph glyph-name="uni0152" unicode="Œ" d="M1006 667v-70H739V399h260v-70H739V70h267V0H665v128Q618 57 547 22.5T401-12Q254-12 152 89.5T50 332q0 142 102 244t246 102q80 0 150-36.5T665 536v131h341m-610-59q-112 0-191-81.5T126 332q0-112 78.5-193T395 58q112 0 191 80.5T665 331q0 114-79 195.5T396 608Z" horiz-adv-x="1056" vert-adv-y="1000"/><glyph glyph-name="uni0153" unicode="œ" d="M810 209v-15H483q2-59 40-100.5T619 52q43 0 75.5 25t49.5 64l61-35q-28-52-76.5-85T616-12q-14 0-30.5 2.5T541 1.5Q513 10 486.5 32T442 87q-65-99-182-99-93 0-155.5 63T42 206q0 94 63 156.5T263 425q119 0 179-99 53 99 167 99 93 0 147-58.5T810 209m-321 45h247q-7 48-41.5 77.5T612 361q-46 0-79.5-28.5T489 254M261 361q-67 0-106-46t-39-109q0-63 39.5-108.5T260 52q59 0 102.5 40T406 204q0 68-38.5 112.5T261 361Z" horiz-adv-x="852" vert-adv-y="1000"/><glyph glyph-name="uni0154" unicode="Ŕ" d="M86 667h107q108 0 162-37 73-49 73-148 0-77-46.5-128T260 298L472 0h-90L179 292h-19V0H86v667m74-70V358h47q69 0 108 32t39 90q0 68-53 98-34 19-96 19h-45m152 285 70-45-153-117-43 32 126 130Z" horiz-adv-x="502" vert-adv-y="1000"/><glyph glyph-name="uni0155" unicode="ŕ" d="M68 0v415h72v-45q35 55 94 55 30 0 64-17l-34-65q-20 14-42 14-38 0-58-26-24-32-24-112V0H68m184 666 74-34-134-135-45 24 105 145Z" horiz-adv-x="296" vert-adv-y="1000"/><glyph glyph-name="uni0156" unicode="Ŗ" d="M86 667h107q108 0 162-37 73-49 73-148 0-77-46.5-128T260 298L472 0h-90L179 292h-19V0H86v667m74-70V358h47q69 0 108 32t39 90q0 68-53 98-34 19-96 19h-45m18-807 56 160 64-24-70-156-50 20Z" horiz-adv-x="502" vert-adv-y="1000"/><glyph glyph-name="uni0157" unicode="ŗ" d="M68 0v415h72v-45q35 55 94 55 30 0 64-17l-34-65q-20 14-42 14-38 0-58-26-24-32-24-112V0H68m-3-210 56 160 64-24-70-156-50 20Z" horiz-adv-x="296" vert-adv-y="1000"/><glyph glyph-name="uni0158" unicode="Ř" d="M86 667h107q108 0 162-37 73-49 73-148 0-77-46.5-128T260 298L472 0h-90L179 292h-19V0H86v667m74-70V358h47q69 0 108 32t39 90q0 68-53 98-34 19-96 19h-45m70 208 88 76 52-41-140-119L90 840l52 41 88-76Z" horiz-adv-x="502" vert-adv-y="1000"/><glyph glyph-name="uni0159" unicode="ř" d="M68 0v415h72v-45q35 55 94 55 30 0 64-17l-34-65q-20 14-42 14-38 0-58-26-24-32-24-112V0H68m132 573 92 81 46-36-138-121L62 618l46 36 92-81Z" horiz-adv-x="296" vert-adv-y="1000"/><glyph glyph-name="uni015A" unicode="Ś" d="m443 574-59-39q-16 31-39 50-30 23-75 23-50 0-81-28.5T158 505q0-34 25-58 20-20 70-42l64-28q71-31 103-63 48-48 48-121 0-91-60-148T257-12q-90 0-145 54-45 44-62 118l72 20q7-50 40-85 37-37 96-37 64 0 99 38.5t35 93.5q0 48-33 78-19 18-80 46l-60 28q-61 28-89 55-46 44-46 109 0 77 52.5 124.5T271 678q62 0 107-30 41-27 65-74M341 882l70-45-153-117-43 32 126 130Z" horiz-adv-x="518" vert-adv-y="1000"/><glyph glyph-name="uni015B" unicode="ś" d="m298 350-59-31q-17 42-58 42-21 0-35.5-12T131 314q0-21 13.5-31.5T198 255q79-33 104-64 22-27 22-67 0-63-40.5-99.5T181-12q-12 0-26 2.5t-38.5 11Q92 10 70 34T36 94l62 26q25-68 84-68 33 0 50.5 20t17.5 46q0 14-4.5 24.5t-15 18.5q-10.5 8-20 13T183 187q-80 35-101 61-19 24-19 61 0 54 33.5 85t87.5 31q79 0 114-75m-60 316 74-34-134-135-45 24 105 145Z" horiz-adv-x="352" vert-adv-y="1000"/><glyph glyph-name="uni015C" unicode="Ŝ" d="m443 574-59-39q-16 31-39 50-30 23-75 23-50 0-81-28.5T158 505q0-34 25-58 20-20 70-42l64-28q71-31 103-63 48-48 48-121 0-91-60-148T257-12q-90 0-145 54-45 44-62 118l72 20q7-50 40-85 37-37 96-37 64 0 99 38.5t35 93.5q0 48-33 78-19 18-80 46l-60 28q-61 28-89 55-46 44-46 109 0 77 52.5 124.5T271 678q62 0 107-30 41-27 65-74M274 797l-88-76-52 41 140 119 140-119-52-41-88 76Z" horiz-adv-x="518" vert-adv-y="1000"/><glyph glyph-name="uni015D" unicode="ŝ" d="m298 350-59-31q-17 42-58 42-21 0-35.5-12T131 314q0-21 13.5-31.5T198 255q79-33 104-64 22-27 22-67 0-63-40.5-99.5T181-12q-12 0-26 2.5t-38.5 11Q92 10 70 34T36 94l62 26q25-68 84-68 33 0 50.5 20t17.5 46q0 14-4.5 24.5t-15 18.5q-10.5 8-20 13T183 187q-80 35-101 61-19 24-19 61 0 54 33.5 85t87.5 31q79 0 114-75M184 578l-92-81-46 36 138 121 138-121-46-36-92 81Z" horiz-adv-x="352" vert-adv-y="1000"/><glyph glyph-name="uni015E" unicode="Ş" d="m443 574-59-39q-16 31-39 50-30 23-75 23-50 0-81-28.5T158 505q0-34 25-58 20-20 70-42l64-28q71-31 103-63 48-48 48-121 0-91-60-148T257-12q-90 0-145 54-45 44-62 118l72 20q7-50 40-85 37-37 96-37 64 0 99 38.5t35 93.5q0 48-33 78-19 18-80 46l-60 28q-61 28-89 55-46 44-46 109 0 77 52.5 124.5T271 678q62 0 107-30 41-27 65-74M254-52l70-30-104-128-50 26 84 132Z" horiz-adv-x="518" vert-adv-y="1000"/><glyph glyph-name="uni015F" unicode="ş" d="m298 350-59-31q-17 42-58 42-21 0-35.5-12T131 314q0-21 13.5-31.5T198 255q79-33 104-64 22-27 22-67 0-63-40.5-99.5T181-12q-12 0-26 2.5t-38.5 11Q92 10 70 34T36 94l62 26q25-68 84-68 33 0 50.5 20t17.5 46q0 14-4.5 24.5t-15 18.5q-10.5 8-20 13T183 187q-80 35-101 61-19 24-19 61 0 54 33.5 85t87.5 31q79 0 114-75M176-52l66-27-101-128-49 24 84 131Z" horiz-adv-x="352" vert-adv-y="1000"/><glyph glyph-name="uni0160" unicode="Š" d="m443 574-59-39q-16 31-39 50-30 23-75 23-50 0-81-28.5T158 505q0-34 25-58 20-20 70-42l64-28q71-31 103-63 48-48 48-121 0-91-60-148T257-12q-90 0-145 54-45 44-62 118l72 20q7-50 40-85 37-37 96-37 64 0 99 38.5t35 93.5q0 48-33 78-19 18-80 46l-60 28q-61 28-89 55-46 44-46 109 0 77 52.5 124.5T271 678q62 0 107-30 41-27 65-74M274 805l88 76 52-41-140-119-140 119 52 41 88-76Z" horiz-adv-x="518" vert-adv-y="1000"/><glyph glyph-name="uni0161" unicode="š" d="m298 350-59-31q-17 42-58 42-21 0-35.5-12T131 314q0-21 13.5-31.5T198 255q79-33 104-64 22-27 22-67 0-63-40.5-99.5T181-12q-12 0-26 2.5t-38.5 11Q92 10 70 34T36 94l62 26q25-68 84-68 33 0 50.5 20t17.5 46q0 14-4.5 24.5t-15 18.5q-10.5 8-20 13T183 187q-80 35-101 61-19 24-19 61 0 54 33.5 85t87.5 31q79 0 114-75M184 573l92 81 46-36-138-121L46 618l46 36 92-81Z" horiz-adv-x="352" vert-adv-y="1000"/><glyph glyph-name="uni0162" unicode="Ţ" d="M412 597H250V0h-74v597H14v70h398v-70M204-52l70-30-104-128-50 26 84 132Z" horiz-adv-x="426" vert-adv-y="1000"/><glyph glyph-name="uni0163" unicode="ţ" d="M214 349h-72V0H70v349H26v66h44v150h72V415h72v-66M96-52l66-27L61-207l-49 24L96-52Z" horiz-adv-x="214" vert-adv-y="1000"/><glyph glyph-name="uni0164" unicode="Ť" d="M412 597H250V0h-74v597H14v70h398v-70M213 805l88 76 52-41-140-119L73 840l52 41 88-76Z" horiz-adv-x="426" vert-adv-y="1000"/><glyph glyph-name="uni0165" unicode="ť" d="M214 349h-72V0H70v349H26v66h44v150h72V415h72v-66m-34 181 52 160 64-24-70-156-46 20Z" horiz-adv-x="276" vert-adv-y="1000"/><glyph glyph-name="uni0168" unicode="Ũ" d="M160 667V258q0-38 1.5-59t14-51.5Q188 117 213 96q45-38 110-38t110 38q25 21 37.5 51.5t14 51.5q1.5 21 1.5 59v409h74V238q0-102-42-160-31-42-81.5-66T323-12q-63 0-113.5 24T128 78q-42 58-42 160v429h74m275 175 43-35q-9-24-26-41-30-31-70-31-23 0-67 22-42 20-56 20-17 0-30-13-13-15-17-31l-44 36q10 26 30 45 27 27 63 27 26 0 68-21 40-21 56-21 18 0 32 14 12 12 18 29Z" horiz-adv-x="646" vert-adv-y="1000"/><glyph glyph-name="uni0169" unicode="ũ" d="M140 415V173q0-63 20-89 25-32 73-32t73 32q20 26 20 89v242h72V165q0-84-38-125-49-52-127-52T106 40Q68 81 68 165v250h72m-19 82-42 34q17 27 34 45 25 24 57 24 30 0 70-20 38-20 56-20t29 12q13 15 21 31l41-34q-8-21-26-39-29-30-66-30-25 0-69 21-41 19-55 19-15 0-29-14-11-11-21-29Z" horiz-adv-x="466" vert-adv-y="1000"/><glyph glyph-name="uni016A" unicode="Ū" d="M160 667V258q0-38 1.5-59t14-51.5Q188 117 213 96q45-38 110-38t110 38q25 21 37.5 51.5t14 51.5q1.5 21 1.5 59v409h74V238q0-102-42-160-31-42-81.5-66T323-12q-63 0-113.5 24T128 78q-42 58-42 160v429h74m3 66v64h320v-64H163Z" horiz-adv-x="646" vert-adv-y="1000"/><glyph glyph-name="uni016B" unicode="ū" d="M140 415V173q0-63 20-89 25-32 73-32t73 32q20 26 20 89v242h72V165q0-84-38-125-49-52-127-52T106 40Q68 81 68 165v250h72m-58 98v60h302v-60H82Z" horiz-adv-x="466" vert-adv-y="1000"/><glyph glyph-name="uni016C" unicode="Ŭ" d="M160 667V258q0-38 1.5-59t14-51.5Q188 117 213 96q45-38 110-38t110 38q25 21 37.5 51.5t14 51.5q1.5 21 1.5 59v409h74V238q0-102-42-160-31-42-81.5-66T323-12q-63 0-113.5 24T128 78q-42 58-42 160v429h74m252 174h66q-7-39-31-67-46-53-124-53t-124 53q-24 28-31 67h66q7-22 25-36 26-20 64-20t64 20q18 14 25 36Z" horiz-adv-x="646" vert-adv-y="1000"/><glyph glyph-name="uni016D" unicode="ŭ" d="M140 415V173q0-63 20-89 25-32 73-32t73 32q20 26 20 89v242h72V165q0-84-38-125-49-52-127-52T106 40Q68 81 68 165v250h72M88 617h61q7-23 24-39 24-21 60-21t60 21q17 16 24 39h61q-6-32-29-67-41-53-116-53t-116 53q-23 35-29 67Z" horiz-adv-x="466" vert-adv-y="1000"/><glyph glyph-name="uni016E" unicode="Ů" d="M160 667V258q0-38 1.5-59t14-51.5Q188 117 213 96q45-38 110-38t110 38q25 21 37.5 51.5t14 51.5q1.5 21 1.5 59v409h74V238q0-102-42-160-31-42-81.5-66T323-12q-63 0-113.5 24T128 78q-42 58-42 160v429h74m101 89-13 13q-13 13-13 49t26 62q26 26 62 26t62-26q26-26 26-62t-26-62q-26-26-62-26t-62 26m32.5 92.5-6.25-6.25Q281 836 281 819t12.5-29.5Q306 777 323 777t29.5 12.5Q365 802 365 819t-12.5 29.5Q340 861 323 861t-29.5-12.5Z" horiz-adv-x="646" vert-adv-y="1000"/><glyph glyph-name="uni016F" unicode="ů" d="M140 415V173q0-63 20-89 25-32 73-32t73 32q20 26 20 89v242h72V165q0-84-38-125-49-52-127-52T106 40Q68 81 68 165v250h72m32.5 107.5-12.75 12.75Q147 548 147 583t25.5 60.5Q198 669 233 669t60.5-25.5Q319 618 319 583t-25.5-60.5Q268 497 233 497t-60.5 25.5m31 90-6.25-6.25Q191 600 191 583t12.5-29.5Q216 541 233 541t29.5 12.5Q275 566 275 583t-12.5 29.5Q250 625 233 625t-29.5-12.5Z" horiz-adv-x="466" vert-adv-y="1000"/><glyph glyph-name="uni0170" unicode="Ű" d="M160 667V258q0-38 1.5-59t14-51.5Q188 117 213 96q45-38 110-38t110 38q25 21 37.5 51.5t14 51.5q1.5 21 1.5 59v409h74V238q0-102-42-160-31-42-81.5-66T323-12q-63 0-113.5 24T128 78q-42 58-42 160v429h74m167 215 70-40-147-122-43 26 120 136m150 0 70-40-147-122-43 26 120 136Z" horiz-adv-x="646" vert-adv-y="1000"/><glyph glyph-name="uni0171" unicode="ű" d="M140 415V173q0-63 20-89 25-32 73-32t73 32q20 26 20 89v242h72V165q0-84-38-125-49-52-127-52T106 40Q68 81 68 165v250h72m93 251 72-32-137-136-41 23 106 145m134 0 70-32-135-136-41 23 106 145Z" horiz-adv-x="466" vert-adv-y="1000"/><glyph glyph-name="uni0172" unicode="Ų" d="M160 667V245q0-95 43-139 21-21 54-34.5T323 58q65 0 110 38 24 21 37 51.5t14.5 50Q486 217 486 247v420h74V238q0-120-57-179-16-16-89-59-44-24-59-42-20-23-20-48 0-17 13-29 13-11 39-11 25 0 48 13l-8-59q-28-14-59-14-46 0-76 30-21 22-21 56 0 31 21 60 14 20 31 32-56 0-109 22t-86 68q-42 58-42 160v429h74Z" horiz-adv-x="646" vert-adv-y="1000"/><glyph glyph-name="uni0173" unicode="ų" d="M140 415V173q0-63 20-89 25-32 73-32t73 32q20 26 20 89v242h72V165q0-86-38-125-14-14-60-42-32-19-50-41-20-24-20-47 0-19 13-29 14-11 39-11t48 13l-8-55q-24-14-57-14-45 0-73 28-22 22-22 55 0 29 16 52 14 21 37 39-71 4-117 52-38 41-38 125v250h72Z" horiz-adv-x="466" vert-adv-y="1000"/><glyph glyph-name="uni0178" unicode="Ÿ" d="M227 0v287L8 667h86l170-298 172 298h86L301 287V0h-74m-93 748-7.5 7.5Q119 763 119 784t15 36q15 15 36 15t36-15q15-15 15-36t-15-36q-15-15-36-15t-36 15m190 0-7.5 7.5Q309 763 309 784t15 36q15 15 36 15t36-15q15-15 15-36t-15-36q-15-15-36-15t-36 15Z" horiz-adv-x="530" vert-adv-y="1000"/><glyph glyph-name="uni0179" unicode="Ź" d="M512 667 148 70h354V0H24l364 597H71v70h441M350 882l70-45-153-117-43 32 126 130Z" horiz-adv-x="536" vert-adv-y="1000"/><glyph glyph-name="uni017A" unicode="ź" d="M452 415 152 66h288V0H8l300 349H66v66h386M292 666l74-34-134-135-45 24 105 145Z" horiz-adv-x="460" vert-adv-y="1000"/><glyph glyph-name="uni017B" unicode="Ż" d="M512 667 148 70h354V0H24l364 597H71v70h441m-271.5 77.5-7.75 7.75Q225 760 225 784t15.5 39.5Q256 839 280 839t39.5-15.5Q335 808 335 784t-15.5-39.5Q304 729 280 729t-39.5 15.5Z" horiz-adv-x="536" vert-adv-y="1000"/><glyph glyph-name="uni017C" unicode="ż" d="M452 415 152 66h288V0H8l300 349H66v66h386M212.5 515l-7.75 7.5Q197 530 197 553t15.5 38q15.5 15 37.5 15t37.5-15q15.5-15 15.5-38t-15.5-38Q272 500 250 500t-37.5 15Z" horiz-adv-x="460" vert-adv-y="1000"/><glyph glyph-name="uni017D" unicode="Ž" d="M512 667 148 70h354V0H24l364 597H71v70h441M280 805l88 76 52-41-140-119-140 119 52 41 88-76Z" horiz-adv-x="536" vert-adv-y="1000"/><glyph glyph-name="uni017E" unicode="ž" d="M452 415 152 66h288V0H8l300 349H66v66h386M250 573l92 81 46-36-138-121-138 121 46 36 92-81Z" horiz-adv-x="460" vert-adv-y="1000"/><glyph glyph-name="uni018F" unicode="Ə" d="m132 483-55 50q33 45 77 79 86 66 204 66 149 0 248.5-99.5T706 333q0-146-98.5-245.5T362-12q-83 0-146.5 34T114 108q-64 87-64 211v16h580q0 114-77 193.5T357 608q-96 0-162-56-34-28-63-69m491-218H126q2-52 27-95 29-51 83.5-81.5T357 58q96 0 171 58.5T623 265Z" horiz-adv-x="756" vert-adv-y="1000"/><glyph glyph-name="uni0192" unicode="ƒ" d="M427 355H319L258 26q-6-35-11.5-55.5T228-77q-13-27-32-46-48-47-139-47-18 0-42 4l14 64q14-2 25-2 59 0 89 29 31 31 48 128l55 302h-72l9 60h74l33 179q14 78 49 113 33 33 92 33 34 0 64-10l-13-67q-26 11-46 11-26 0-44-16-20-20-32-84l-30-159h106l-9-60Z" horiz-adv-x="568" vert-adv-y="1000"/><glyph glyph-name="uni01CF" unicode="Ǐ" d="M85 667h74V0H85v667m38 138 88 76 52-41-140-119-140 119 52 41 88-76Z" horiz-adv-x="246" vert-adv-y="1000"/><glyph glyph-name="uni01D0" unicode="ǐ" d="M68 415h72V0H68v415m36 164 75 67 43-35-118-106-118 106 43 35 75-67Z" horiz-adv-x="208" vert-adv-y="1000"/><glyph glyph-name="uni01DD" unicode="ǝ" d="m105 274-60 33q21 40 51 67 56 51 138 51 84 0 145-55t61-162q0-95-55-157.5T238-12Q135-12 80 64q-45 64-38 156h324q-1 63-39 102t-94 39q-51 0-85-30-28-24-43-57m255-114H116q8-48 41-78t81-30q45 0 79.5 30.5T360 160Z" horiz-adv-x="482" vert-adv-y="1000"/><glyph glyph-name="uni01E6" unicode="Ǧ" d="M430 265v70h278v-16q0-124-64-211Q555-12 396-12q-148 0-247 99.5T50 333q0 146 99.5 245.5T398 678q118 0 204-66 44-34 77-79l-55-50q-29 41-63 69-69 56-162 56-119 0-196-79t-77-197q0-86 42-150.5t102.5-94Q331 58 397 58t120.5 30.5Q572 119 601 170q25 43 27 95H430m-51 540 88 76 52-41-140-119-140 119 52 41 88-76Z" horiz-adv-x="758" vert-adv-y="1000"/><glyph glyph-name="uni01E7" unicode="ǧ" d="M386 356v59h72V10q0-109-40-163-57-77-166-77-92 0-148 56-54 54-54 134h71q0-50 32-86 36-40 100-40 75 0 110 58 23 37 23 106v60q-54-70-142-70-86 0-142 56-60 60-60 164 0 101 60 161 58 56 142 56 89 0 142-69m-134 5q-55 0-94-39-42-43-42-114 0-79 47-122 37-34 89-34 56 0 91 35 47 45 47 120t-44 117q-37 37-94 37m11 212 92 81 46-36-138-121-138 121 46 36 92-81Z" horiz-adv-x="526" vert-adv-y="1000"/><glyph glyph-name="uni01FC" unicode="Ǽ" d="m538 0-79 187H175L96 0H14l297 667h293l29-70H364l83-198h264l29-70H478L586 70h271l29-70H538M207 257h223L320 518 207 257m325 625 70-45-153-117-43 32 126 130Z" horiz-adv-x="900" vert-adv-y="1000"/><glyph glyph-name="uni01FD" unicode="ǽ" d="m667 140 60-36Q666-12 540-12q-107 0-163 83-47-83-156-83-77 0-128 35T42 123q0 65 49 101t124 36q70 0 119-35 2 54-19 88-28 48-99 48-56 0-128-26v68q67 22 129 22 117 0 157-84 52 84 160 84 91 0 144.5-61.5T732 200v-7H408q2-61 39.5-101T539 52q41 0 75 25t53 63M413 253h245q-7 50-41 79t-82 29q-46 0-80-29t-42-79m-192-57q-51 0-79-20.5T114 123q0-28 24.5-49.5T219 52q57 0 84 22.5t27 51.5q0 26-26.5 48T221 196m228 470 74-34-134-135-45 24 105 145Z" horiz-adv-x="774" vert-adv-y="1000"/><glyph glyph-name="uni0218" unicode="Ș" d="m443 574-59-39q-16 31-39 50-30 23-75 23-50 0-81-28.5T158 505q0-34 25-58 20-20 70-42l64-28q71-31 103-63 48-48 48-121 0-91-60-148T257-12q-90 0-145 54-45 44-62 118l72 20q7-50 40-85 37-37 96-37 64 0 99 38.5t35 93.5q0 48-33 78-19 18-80 46l-60 28q-61 28-89 55-46 44-46 109 0 77 52.5 124.5T271 678q62 0 107-30 41-27 65-74M188-210l56 160 64-24-70-156-50 20Z" horiz-adv-x="518" vert-adv-y="1000"/><glyph glyph-name="uni0219" unicode="ș" d="m298 350-59-31q-17 42-58 42-21 0-35.5-12T131 314q0-21 13.5-31.5T198 255q79-33 104-64 22-27 22-67 0-63-40.5-99.5T181-12q-12 0-26 2.5t-38.5 11Q92 10 70 34T36 94l62 26q25-68 84-68 33 0 50.5 20t17.5 46q0 14-4.5 24.5t-15 18.5q-10.5 8-20 13T183 187q-80 35-101 61-19 24-19 61 0 54 33.5 85t87.5 31q79 0 114-75M110-210l56 160 64-24-70-156-50 20Z" horiz-adv-x="352" vert-adv-y="1000"/><glyph glyph-name="uni021A" unicode="Ț" d="M412 597H250V0h-74v597H14v70h398v-70M128-210l56 160 64-24-70-156-50 20Z" horiz-adv-x="426" vert-adv-y="1000"/><glyph glyph-name="uni021B" unicode="ț" d="M214 349h-72V0H70v349H26v66h44v150h72V415h72v-66M30-210 86-50l64-24-70-156-50 20Z" horiz-adv-x="214" vert-adv-y="1000"/><glyph glyph-name="uni0228" unicode="Ȩ" d="M432 667v-70H160V399h264v-70H160V70h272V0H86v667h346M255-52l70-30-104-128-50 26 84 132Z" horiz-adv-x="482" vert-adv-y="1000"/><glyph glyph-name="uni0229" unicode="ȩ" d="m376 139 60-33q-21-40-51-67-57-51-138-51-84 0-144.5 54.5T42 205q0 95 54.5 157.5T243 425q104 0 157-76 42-60 39-156H116q1-63 39-102t93-39q49 0 85 30 28 24 43 57M121 253h244q-9 49-42.5 78.5T243 361q-45 0-79.5-30.5T121 253M256-52l66-27-101-128-49 24 84 131Z" horiz-adv-x="481" vert-adv-y="1000"/><glyph glyph-name="uni0237" unicode="ȷ" d="M68 415h72v-645H68v645Z" horiz-adv-x="208" vert-adv-y="1000"/><glyph glyph-name="uni0259" unicode="ə" d="m105 274-60 33q21 40 51 67 56 51 138 51 84 0 145-55t61-162q0-95-55-157.5T238-12Q135-12 80 64q-45 64-38 156h324q-1 63-39 102t-94 39q-51 0-85-30-28-24-43-57m255-114H116q8-48 41-78t81-30q45 0 79.5 30.5T360 160Z" horiz-adv-x="482" vert-adv-y="1000"/><glyph glyph-name="uni02BC" unicode="ʼ" d="m190 530 52 160 64-24-70-156-46 20Z" horiz-adv-x="500" vert-adv-y="1000"/><glyph glyph-name="uni02C6" unicode="ˆ" d="m250 578-92-81-46 36 138 121 138-121-46-36-92 81Z" horiz-adv-x="500" vert-adv-y="1000"/><glyph glyph-name="uni02C7" unicode="ˇ" d="m250 573 92 81 46-36-138-121-138 121 46 36 92-81Z" horiz-adv-x="500" vert-adv-y="1000"/><glyph glyph-name="uni02C9" unicode="ˉ" d="M99 513v60h302v-60H99Z" horiz-adv-x="500" vert-adv-y="1000"/><glyph glyph-name="uni02D8" unicode="˘" d="M105 617h61q7-23 24-39 24-21 60-21t60 21q17 16 24 39h61q-6-32-29-67-41-53-116-53t-116 53q-23 35-29 67Z" horiz-adv-x="500" vert-adv-y="1000"/><glyph glyph-name="uni02D9" unicode="˙" d="m212.5 515-7.75 7.5Q197 530 197 553t15.5 38q15.5 15 37.5 15t37.5-15q15.5-15 15.5-38t-15.5-38Q272 500 250 500t-37.5 15Z" horiz-adv-x="500" vert-adv-y="1000"/><glyph glyph-name="uni02DA" unicode="˚" d="m189.5 522.5-12.75 12.75Q164 548 164 583t25.5 60.5Q215 669 250 669t60.5-25.5Q336 618 336 583t-25.5-60.5Q285 497 250 497t-60.5 25.5m31.5 90-6.5-6.25Q208 600 208 583t13-29.5q13-12.5 29-12.5t29 12.5q13 12.5 13 29.5t-13 29.5Q266 625 250 625t-29-12.5Z" horiz-adv-x="500" vert-adv-y="1000"/><glyph glyph-name="uni02DB" unicode="˛" d="m364-117-8-55q-27-14-56-14-39 0-67.5 23T204-103q0 34 24 64 19 25 48 39h58q-32-21-47-39-23-28-23-51 0-40 52-40 26 0 48 13Z" horiz-adv-x="500" vert-adv-y="1000"/><glyph glyph-name="uni02DC" unicode="˜" d="m138 497-42 34q16 27 34 45 25 24 57 24 30 0 70-20 38-20 56-20t29 12q13 15 21 31l41-34q-8-21-26-39-29-30-66-30-25 0-69 21-41 19-55 19-15 0-29-14-11-11-21-29Z" horiz-adv-x="500" vert-adv-y="1000"/><glyph glyph-name="uni02DD" unicode="˝" d="m250 666 72-32-137-136-41 23 106 145m134 0 70-32-135-136-41 23 106 145Z" horiz-adv-x="500" vert-adv-y="1000"/><glyph glyph-name="uni0301" unicode="́" d="m-186 666 74-34-134-135-45 24 105 145Z" horiz-adv-x="2" vert-adv-y="1000"/><glyph glyph-name="uni0394" unicode="Δ" d="M640 0H28l268 667h76L640 0M334 574 134 70h400L334 574Z" horiz-adv-x="668" vert-adv-y="1000"/><glyph glyph-name="uni2206" unicode="∆" d="M640 0H28l268 667h76L640 0M334 574 134 70h400L334 574Z" horiz-adv-x="668" vert-adv-y="1000"/><glyph glyph-name="uni03A9" unicode="Ω" d="M379 0v70q85 45 133 113 51 74 51 169 0 125-76 197-63 59-153 59t-153-59q-76-72-76-197 0-95 51-169 48-68 133-113V0H29v70h179q-74 39-121 103-58 80-58 186 0 147 92 237 82 82 213 82t213-82q92-90 92-237 0-106-58-186-47-64-121-103h179V0H379Z" horiz-adv-x="668" vert-adv-y="1000"/><glyph glyph-name="uni2126" unicode="Ω" d="M379 0v70q85 45 133 113 51 74 51 169 0 125-76 197-63 59-153 59t-153-59q-76-72-76-197 0-95 51-169 48-68 133-113V0H29v70h179q-74 39-121 103-58 80-58 186 0 147 92 237 82 82 213 82t213-82q92-90 92-237 0-106-58-186-47-64-121-103h179V0H379Z" horiz-adv-x="668" vert-adv-y="1000"/><glyph glyph-name="uni03C0" unicode="π" d="M174 0h-72v349H28v66h482v-66h-74V0h-72v349H174V0Z" horiz-adv-x="538" vert-adv-y="1000"/><glyph glyph-name="uni0401" unicode="Ё" d="M432 667v-70H160V399h264v-70H160V70h272V0H86v667h346m-305 81-7.5 7.5Q112 763 112 784t15 36q15 15 36 15t36-15q15-15 15-36t-15-36q-15-15-36-15t-36 15m190 0-7.5 7.5Q302 763 302 784t15 36q15 15 36 15t36-15q15-15 15-36t-15-36q-15-15-36-15t-36 15Z" horiz-adv-x="482" vert-adv-y="1000"/><glyph glyph-name="uni0402" unicode="Ђ" d="M450 597H248V385q71 23 137 23 120 0 175-67 44-54 44-147 0-112-70-163Q485-6 400-6q-28 0-68 6v70q28-6 63-6 61 0 93 27 40 34 40 104 0 63-28 97-39 46-122 46-64 0-130-23V0h-74v597H14v70h436v-70Z" horiz-adv-x="646" vert-adv-y="1000"/><glyph glyph-name="uni0403" unicode="Ѓ" d="M86 0v667h304v-70H160V0H86m236 882 70-45-153-117-43 32 126 130Z" horiz-adv-x="404" vert-adv-y="1000"/><glyph glyph-name="uni0404" unicode="Є" d="M595 612v-92q-36 36-87 60-64 28-135 28-101 0-168.5-65.5T129 380h386v-70H126q-1-110 73-181t175-71q75 0 144 33 47 23 77 54V53Q494-12 374-12q-148 0-236 97T50 331q0 152 89.5 249.5T378 678q121 0 217-66Z" horiz-adv-x="645" vert-adv-y="1000"/><glyph glyph-name="uni0405" unicode="Ѕ" d="m443 574-59-39q-16 31-39 50-30 23-75 23-50 0-81-28.5T158 505q0-34 25-58 20-20 70-42l64-28q71-31 103-63 48-48 48-121 0-91-60-148T257-12q-90 0-145 54-45 44-62 118l72 20q7-50 40-85 37-37 96-37 64 0 99 38.5t35 93.5q0 48-33 78-19 18-80 46l-60 28q-61 28-89 55-46 44-46 109 0 77 52.5 124.5T271 678q62 0 107-30 41-27 65-74Z" horiz-adv-x="518" vert-adv-y="1000"/><glyph glyph-name="uni0406" unicode="І" d="M86 667h74V0H86v667Z" horiz-adv-x="246" vert-adv-y="1000"/><glyph glyph-name="uni0407" unicode="Ї" d="M86 667h74V0H86v667m-58 81-6.5 7.5Q15 763 15 784t13 36q13 15 32 15t32-15q13-15 13-36t-13-36q-13-15-32-15t-32 15m126 0-6.5 7.5Q141 763 141 784t13 36q13 15 32 15t32-15q13-15 13-36t-13-36q-13-15-32-15t-32 15Z" horiz-adv-x="246" vert-adv-y="1000"/><glyph glyph-name="uni0408" unicode="Ј" d="M146 667h74V187q0-36-1.5-57.5t-11-50.5Q198 50 179 30 140-12 73-12-3-12-46 37l41 58q34-37 76-37 31 0 50 19 25 25 25 108v482Z" horiz-adv-x="306" vert-adv-y="1000"/><glyph glyph-name="uni0409" unicode="Љ" d="M154 667h406V390h90q230 0 230-188 0-94-58.5-148T664 0H486v597H228V239q0-47-1-70.5t-15.5-66Q197 60 168 34 123-6 54-6 38-6 14 0v70q20-6 37-6 39 0 65 26 18 18 27 51.5t10 56.5q1 23 1 71v398m406-347V70h86q85 0 123 37 35 33 35 95 0 72-54 101-31 17-112 17h-78Z" horiz-adv-x="922" vert-adv-y="1000"/><glyph glyph-name="uni040A" unicode="Њ" d="M160 667V390h342v277h74V390h90q230 0 230-188 0-94-58.5-148T680 0H502v320H160V0H86v667h74m416-347V70h86q85 0 123 37 35 33 35 95 0 72-54 101-31 17-112 17h-78Z" horiz-adv-x="938" vert-adv-y="1000"/><glyph glyph-name="uni040B" unicode="Ћ" d="M450 597H248V401q93 7 138 7 119 0 165-36 61-47 61-155V0h-74v207q0 81-40 110-28 21-116 21-59 0-134-7V0h-74v597H14v70h436v-70Z" horiz-adv-x="678" vert-adv-y="1000"/><glyph glyph-name="uni040C" unicode="Ќ" d="M160 667V381l284 286h100L232 356 554 0H452L179 306l-19-19V0H86v667h74m206 215 70-45-153-117-43 32 126 130Z" horiz-adv-x="568" vert-adv-y="1000"/><glyph glyph-name="uni040E" unicode="Ў" d="M8 667h90l208-393 174 393h80L259 0h-80l85 186L8 667m127 151 70 23q6-19 18.5-31.5t28-17q15.5-4.5 23.5-6t15-1.5q7 0 15 1.5t23.5 6q15.5 4.5 28 17T375 841l70-23q-4-11-11.5-23T409 764q-17-19-48-31t-71-12q-40 0-71 12t-48 31q-17 19-24.5 31T135 818Z" horiz-adv-x="568" vert-adv-y="1000"/><glyph glyph-name="uni040F" unicode="Џ" d="M86 0v667h74V70h338v597h74V0H364v-160h-70V0H86Z" horiz-adv-x="658" vert-adv-y="1000"/><glyph glyph-name="uni0410" unicode="А" d="m532 0-78 188H170L90 0H8l307 699L614 0h-82M199 258h226L313 525 199 258Z" horiz-adv-x="622" vert-adv-y="1000"/><glyph glyph-name="uni0411" unicode="Б" d="M86 0v667h331v-70H160V390h90q230 0 230-188 0-94-58.5-148T264 0H86m74 320V70h86q85 0 123 37 35 33 35 95 0 72-54 101-31 17-112 17h-78Z" horiz-adv-x="530" vert-adv-y="1000"/><glyph glyph-name="uni0412" unicode="В" d="M86 667h120q100 0 153-42 60-46 60-138 0-86-66-131 64-16 95.5-64.5T480 188q0-45-19.5-83T412 44Q356 0 252 0H86v667m74-70V374h56q15 0 29 1.5t33.5 8q19.5 6.5 34 17.5t24.5 33q10 22 10 51 0 31-12 53.5T308 572q-15 11-36 17t-32 7q-11 1-22 1h-58m0-289V70h85q81 0 117 28 44 32 44 92 0 67-57 98-36 20-113 20h-76Z" horiz-adv-x="530" vert-adv-y="1000"/><glyph glyph-name="uni0413" unicode="Г" d="M86 0v667h304v-70H160V0H86Z" horiz-adv-x="404" vert-adv-y="1000"/><glyph glyph-name="uni0414" unicode="Д" d="M144 667h406V70h76v-210h-70V0H84v-140H14V70q34-1 62 24.5t44 65.5q24 61 24 175v332m74-70V335q0-123-24-186-17-45-51-79h333v527H218Z" horiz-adv-x="640" vert-adv-y="1000"/><glyph glyph-name="uni0415" unicode="Е" d="M432 667v-70H160V399h264v-70H160V70h272V0H86v667h346Z" horiz-adv-x="482" vert-adv-y="1000"/><glyph glyph-name="uni0416" unicode="Ж" d="M368 667h74V381l254 286h92L508 356 796 0h-94L458 305l-16-18V0h-74v287l-16 18L108 0H14l288 356L22 667h92l254-286v286Z" horiz-adv-x="810" vert-adv-y="1000"/><glyph glyph-name="uni0417" unicode="З" d="m157 536-57 45q65 97 191 97 90 0 141-47 52-47 52-123 0-49-25.5-85.5T392 367q65-15 99.5-62T526 195q0-104-83-163-64-44-152-44-91 0-151 46T50 148l72 32q20-56 66-89t106-33q61 0 102 28 54 38 54 107 0 131-178 131h-60v70h60q66 0 101 32t35 81q0 43-27 70-30 31-90 31-84 0-134-72Z" horiz-adv-x="576" vert-adv-y="1000"/><glyph glyph-name="uni0418" unicode="И" d="M550 0v509L86-30v697h74V156l464 539V0h-74Z" horiz-adv-x="710" vert-adv-y="1000"/><glyph glyph-name="uni0419" unicode="Й" d="M550 0v509L86-30v697h74V156l464 539V0h-74M200 818l70 23q6-19 18.5-31.5t28-17q15.5-4.5 23.5-6t15-1.5q7 0 15 1.5t23.5 6q15.5 4.5 28 17T440 841l70-23q-4-11-11.5-23T474 764q-17-19-48-31t-71-12q-40 0-71 12t-48 31q-17 19-24.5 31T200 818Z" horiz-adv-x="710" vert-adv-y="1000"/><glyph glyph-name="uni041A" unicode="К" d="M160 667V381l284 286h100L232 356 554 0H452L179 306l-19-19V0H86v667h74Z" horiz-adv-x="568" vert-adv-y="1000"/><glyph glyph-name="uni041B" unicode="Л" d="M154 667h406V0h-74v597H228V239q0-47-1-70.5t-15.5-66Q197 60 168 34 123-6 54-6 38-6 14 0v70q20-6 37-6 39 0 65 26 18 18 27 51.5t10 56.5q1 23 1 71v398Z" horiz-adv-x="646" vert-adv-y="1000"/><glyph glyph-name="uni041C" unicode="М" d="M139 0H63l111 704 256-563 261 564L795 0h-76l-63 464L429-28 205 464 139 0Z" horiz-adv-x="863" vert-adv-y="1000"/><glyph glyph-name="uni041D" unicode="Н" d="M160 667V396h342v271h74V0h-74v326H160V0H86v667h74Z" horiz-adv-x="662" vert-adv-y="1000"/><glyph glyph-name="uni041E" unicode="О" d="m643.5 87-50.25-49.5Q543-12 397-12T150.5 87Q50 186 50 333q0 148 101 246.5T397 678q145 0 246-98.5T744 333q0-147-100.5-246M589 528l-39.5 40Q510 608 397 608t-192-80q-79-80-79-195t79-195q79-80 192-80t192 80q79 80 79 195t-79 195Z" horiz-adv-x="794" vert-adv-y="1000"/><glyph glyph-name="uni041F" unicode="П" d="M86 667h490V0h-74v597H160V0H86v667Z" horiz-adv-x="662" vert-adv-y="1000"/><glyph glyph-name="uni0420" unicode="Р" d="M86 667h121q114 0 168-47 61-52 61-143 0-78-52.5-132.5T225 290h-65V0H86v667m74-70V360h61q66 0 103.5 32t37.5 89q0 116-147 116h-55Z" horiz-adv-x="456" vert-adv-y="1000"/><glyph glyph-name="uni0421" unicode="С" d="M596 612v-92q-40 40-87 62-57 26-115 26-115 0-191.5-80.5T126 330q0-126 83.5-199T395 58q64 0 124 31 42 21 77 56V53q-91-65-201-65-148 0-246.5 99T50 331q0 149 99.5 248T399 678q110 0 197-66Z" horiz-adv-x="646" vert-adv-y="1000"/><glyph glyph-name="uni0422" unicode="Т" d="M412 597H250V0h-74v597H14v70h398v-70Z" horiz-adv-x="426" vert-adv-y="1000"/><glyph glyph-name="uni0423" unicode="У" d="M8 667h90l208-393 174 393h80L259 0h-80l85 186L8 667Z" horiz-adv-x="568" vert-adv-y="1000"/><glyph glyph-name="uni0424" unicode="Ф" d="M374 0v94h-18q-71 0-126.5 17T141 154q-33 26-54.5 62t-29 69.5Q50 319 50 354t7.5 68.5Q65 456 86.5 492t54.5 62q33 26 88.5 43T356 614h18v80h74v-80h18q71 0 126.5-17t88.5-43q33-26 54.5-62t29-69.5Q772 389 772 354t-7.5-68.5q-7.5-33.5-29-69.5T681 154q-33-26-88.5-43T466 94h-18V0h-74m0 164v380h-20q-65 0-112-17t-71-46.5Q147 451 136.5 420T126 354q0-35 10.5-66t34.5-60.5q24-29.5 71-46.5t112-17h20m74 380V164h20q65 0 112 17t71 46.5q24 29.5 34.5 60.5t10.5 66q0 35-10.5 66T651 480.5Q627 510 580 527t-112 17h-20Z" horiz-adv-x="822" vert-adv-y="1000"/><glyph glyph-name="uni0425" unicode="Х" d="m14 0 197 345L32 667h84l138-251 142 251h84L297 345 490 0h-84L253 274 98 0H14Z" horiz-adv-x="504" vert-adv-y="1000"/><glyph glyph-name="uni0426" unicode="Ц" d="M86 0v667h74V70h338v597h74V70h76v-210h-70V0H86Z" horiz-adv-x="662" vert-adv-y="1000"/><glyph glyph-name="uni0427" unicode="Ч" d="M430 0v286q-93-7-138-7-119 0-165 36-61 47-61 155v197h74V480q0-81 40-110 28-21 116-21 59 0 134 7v311h74V0h-74Z" horiz-adv-x="590" vert-adv-y="1000"/><glyph glyph-name="uni0428" unicode="Ш" d="M86 0v667h74V70h264v597h74V70h264v597h74V0H86Z" horiz-adv-x="922" vert-adv-y="1000"/><glyph glyph-name="uni0429" unicode="Щ" d="M86 0v667h74V70h264v597h74V70h264v597h74V70h76v-210h-70V0H86Z" horiz-adv-x="926" vert-adv-y="1000"/><glyph glyph-name="uni042A" unicode="Ъ" d="M174 0v597H14v70h234V390h90q230 0 230-188 0-94-58.5-148T352 0H174m74 320V70h86q85 0 123 37 35 33 35 95 0 72-54 101-31 17-112 17h-78Z" horiz-adv-x="610" vert-adv-y="1000"/><glyph glyph-name="uni042B" unicode="Ы" d="M86 0v667h74V390h90q230 0 230-188 0-94-58.5-148T264 0H86m74 320V70h86q85 0 123 37 35 33 35 95 0 72-54 101-31 17-112 17h-78m390 347h74V0h-74v667Z" horiz-adv-x="710" vert-adv-y="1000"/><glyph glyph-name="uni042C" unicode="Ь" d="M86 0v667h74V390h90q230 0 230-188 0-94-58.5-148T264 0H86m74 320V70h86q85 0 123 37 35 33 35 95 0 72-54 101-31 17-112 17h-78Z" horiz-adv-x="522" vert-adv-y="1000"/><glyph glyph-name="uni042D" unicode="Э" d="M50 520v92q96 66 217 66 149 0 238.5-97.5T595 331q0-149-88-246T271-12Q151-12 50 53v92q30-31 77-54 69-33 144-33 101 0 175 71t73 181H130v70h386q-8 97-75.5 162.5T272 608q-71 0-135-28-51-24-87-60Z" horiz-adv-x="645" vert-adv-y="1000"/><glyph glyph-name="uni042E" unicode="Ю" d="M160 389h102q18 125 111.5 207T599 678q148 0 244.5-97T940 333q0-149-97-247T599-12q-145 0-240 97T259 319h-99V0H86v667h74V389m627 140-38.5 39.5Q710 608 599 608t-187.5-79Q335 450 335 333t76.5-196Q488 58 599 58t188 79q77 79 77 196t-77 196Z" horiz-adv-x="990" vert-adv-y="1000"/><glyph glyph-name="uni042F" unicode="Я" d="m30 0 196 296q-68 7-112 42-58 47-58 136 0 82 46 133 54 60 166 60h156V0h-74v292h-40L120 0H30m320 597h-72q-80 0-114-35-32-34-32-86 0-59 38-90 36-28 102-28h78v239Z" horiz-adv-x="510" vert-adv-y="1000"/><glyph glyph-name="uni0430" unicode="а" d="M386 356v59h72V0h-72v58q-54-70-142-70-84 0-143 58T42 208q0 102 58.5 159.5T244 425q90 0 142-69m-134 5q-57 0-96.5-40.5T116 208q0-69 36.5-112.5T252 52q63 0 100.5 45T390 207q0 74-42 114t-96 40Z" horiz-adv-x="526" vert-adv-y="1000"/><glyph glyph-name="uni0431" unicode="б" d="M388 700h80q-11-37-37.5-62.5t-48-34.5q-21.5-9-50.5-16-5-1-24-5.5t-29-7.5q-10-3-26-8t-29-12q-13-7-24-15-38-29-61.5-80.5T113 349h2q45 76 151 76 93 0 154.5-63T482 206q0-94-63-156T255-12q-87 0-143 52-70 64-70 214 0 261 118 342 9 6 19 11.5t21.5 10q11.5 4.5 19.5 8t22.5 7q14.5 3.5 20 5t22 5Q301 646 305 647q40 9 58 21.5t25 31.5m-22.5-380-21.25 20.5Q323 361 262 361t-103.5-41.5Q116 278 116 206t43-113q43-41 103-41t103 41q43 41 43 113 0 73-42.5 114Z" horiz-adv-x="524" vert-adv-y="1000"/><glyph glyph-name="uni0432" unicode="в" d="M68 415h157q57 0 87-24 36-29 36-78 0-54-45-83 31-8 52-28 33-32 33-80 0-60-43-94-37-28-98-28H68v415m72-169h76q29 0 46 12 20 15 20 43 0 25-20 40-15 10-58 10h-64V246m0-182h89q46 0 65 14 24 18 24 46 0 30-21 47-19 15-65 15h-92V64Z" horiz-adv-x="430" vert-adv-y="1000"/><glyph glyph-name="uni0433" unicode="г" d="M68 0v415h246v-66H140V0H68Z" horiz-adv-x="318" vert-adv-y="1000"/><glyph glyph-name="uni0434" unicode="д" d="M98 415h292V66h62v-176h-66V0H70v-110H4V66q52 1 77 54 17 35 17 110v185M318 66v283H170V193q0-83-50-127h198Z" horiz-adv-x="460" vert-adv-y="1000"/><glyph glyph-name="uni0435" unicode="е" d="m376 139 60-33q-21-40-51-67-57-51-138-51-84 0-144.5 54.5T42 205q0 95 54.5 157.5T243 425q104 0 157-76 42-60 39-156H116q1-63 39-102t93-39q49 0 85 30 28 24 43 57M121 253h244q-9 49-42.5 78.5T243 361q-45 0-79.5-30.5T121 253Z" horiz-adv-x="481" vert-adv-y="1000"/><glyph glyph-name="uni0436" unicode="ж" d="M262 415h72V245l156 170h84L394 223 592 0h-90L348 175l-14-14V0h-72v161l-14 14L94 0H4l198 223L22 415h84l156-170v170Z" horiz-adv-x="596" vert-adv-y="1000"/><glyph glyph-name="uni0437" unicode="з" d="m122 309-50 41q24 35 53 52 39 23 91 23 63 0 98-29 36-31 36-79 0-58-47-87 30-7 48-27 29-31 29-76 0-67-54-107-44-32-118-32-66 0-111 35-34 25-55 71l62 26q11-28 37-47 28-21 68-21 47 0 70 16 29 19 29 58 0 32-25 48-21 14-68 14h-42v66h35q38 0 54 11 22 14 22 38 0 28-18 43-17 15-53 15-31 0-57-16-22-14-34-36Z" horiz-adv-x="422" vert-adv-y="1000"/><glyph glyph-name="uni0438" unicode="и" d="M68 415h72V141l284 306V0h-72v277L68-29v444Z" horiz-adv-x="492" vert-adv-y="1000"/><glyph glyph-name="uni0439" unicode="й" d="M68 415h72V141l284 306V0h-72v277L68-29v444m36 179 60 23q18-60 85-60t85 60l60-23q-16-45-54.5-71T249 497q-52 0-90.5 26T104 594Z" horiz-adv-x="492" vert-adv-y="1000"/><glyph glyph-name="uni043A" unicode="к" d="M68 415h72V245l168 170h88L216 230 418 0h-94L162 182l-22-21V0H68v415Z" horiz-adv-x="422" vert-adv-y="1000"/><glyph glyph-name="uni043B" unicode="л" d="M382 415V0h-72v349H162V162q0-81-32-120Q94-2 30-2 22-2 8 0v66q10-2 16-2 35 0 52 27 14 22 14 71v253h292Z" horiz-adv-x="450" vert-adv-y="1000"/><glyph glyph-name="uni043C" unicode="м" d="m20 0 100 447 172-338 168 338L560 0h-74l-55 257L290-29 147 257 94 0H20Z" horiz-adv-x="580" vert-adv-y="1000"/><glyph glyph-name="uni043D" unicode="н" d="M68 0v415h72V245h196v170h72V0h-72v179H140V0H68Z" horiz-adv-x="476" vert-adv-y="1000"/><glyph glyph-name="uni043E" unicode="о" d="m419.5 50-31.25-31Q357-12 262-12T104.5 50Q42 112 42 206q0 95 62.5 157T262 425q95 0 157.5-62T482 206q0-94-62.5-156m-54 270-21.25 20.5Q323 361 262 361t-103.5-41.5Q116 278 116 206t43-113q43-41 103-41t103 41q43 41 43 113 0 73-42.5 114Z" horiz-adv-x="524" vert-adv-y="1000"/><glyph glyph-name="uni043F" unicode="п" d="M68 415h334V0h-72v349H140V0H68v415Z" horiz-adv-x="470" vert-adv-y="1000"/><glyph glyph-name="uni0440" unicode="р" d="M140 58v-288H68v645h72v-58q55 68 142 68 93 0 147.5-65.5T484 205q0-90-54-153.5T285-12q-91 0-145 70m135-6q61 0 98 44.5T410 205q0 72-41 114t-95 42q-54 0-96-42t-42-113q0-65 38.5-109.5T275 52Z" horiz-adv-x="526" vert-adv-y="1000"/><glyph glyph-name="uni0441" unicode="с" d="M393 385v-86q-49 62-130 62-61 0-104-41.5T116 206q0-72 43-113t103-41q80 0 134 65V31q-59-43-132-43-97 0-159.5 61.5T42 205q0 95 63 157.5T264 425q72 0 129-40Z" horiz-adv-x="438" vert-adv-y="1000"/><glyph glyph-name="uni0442" unicode="т" d="M340 349H210V0h-72v349H8v66h332v-66Z" horiz-adv-x="348" vert-adv-y="1000"/><glyph glyph-name="uni0443" unicode="у" d="M67-230 199 39 8 415h82l147-297 135 297h80L147-230H67Z" horiz-adv-x="460" vert-adv-y="1000"/><glyph glyph-name="uni0444" unicode="ф" d="M289-230V-7Q180-7 114 47q-72 58-72 161 0 102 71 160 64 54 176 54v245h72V422q112 0 176-54 71-58 71-160 0-103-72-161Q470-7 361-7v-223h-72m0 287v301q-71 0-111-26-62-39-62-124 0-80 58-121 42-30 115-30m72 301V57q73 0 115 30 58 41 58 121 0 85-62 124-40 26-111 26Z" horiz-adv-x="650" vert-adv-y="1000"/><glyph glyph-name="uni0445" unicode="х" d="m8 0 177 222L34 415h88l107-141 109 141h88L274 221 446 0h-88L227 169 96 0H8Z" horiz-adv-x="454" vert-adv-y="1000"/><glyph glyph-name="uni0446" unicode="ц" d="M68 0v415h72V66h186v349h72V66h68v-176h-66V0H68Z" horiz-adv-x="474" vert-adv-y="1000"/><glyph glyph-name="uni0447" unicode="ч" d="M290 0v163q-59-9-98-9-68 0-101 30-35 31-35 102v129h72V296q0-34 9-49 14-27 63-27 44 0 90 9v186h72V0h-72Z" horiz-adv-x="430" vert-adv-y="1000"/><glyph glyph-name="uni0448" unicode="ш" d="M68 0v415h72V66h160v349h72V66h160v349h72V0H68Z" horiz-adv-x="672" vert-adv-y="1000"/><glyph glyph-name="uni0449" unicode="щ" d="M68 0v415h72V66h160v349h72V66h160v349h72V66h68v-176h-66V0H68Z" horiz-adv-x="680" vert-adv-y="1000"/><glyph glyph-name="uni044A" unicode="ъ" d="M98 0v349H8v66h162V256h74q86 0 126-41 32-32 32-87 0-58-37-93T243 0H98m72 64h67q45 0 64 11 27 18 27 53 0 36-26 52-18 12-64 12h-68V64Z" horiz-adv-x="430" vert-adv-y="1000"/><glyph glyph-name="uni044B" unicode="ы" d="M68 0v415h72V256h74q86 0 126-41 32-32 32-87 0-58-37-93T213 0H68m72 64h67q45 0 64 11 27 18 27 53 0 36-26 52-18 12-64 12h-68V64M422 0v415h72V0h-72Z" horiz-adv-x="562" vert-adv-y="1000"/><glyph glyph-name="uni044C" unicode="ь" d="M68 0v415h72V256h74q86 0 126-41 32-32 32-87 0-58-37-93T213 0H68m72 64h67q45 0 64 11 27 18 27 53 0 36-26 52-18 12-64 12h-68V64Z" horiz-adv-x="400" vert-adv-y="1000"/><glyph glyph-name="uni044D" unicode="э" d="M42 334v70q52 21 113 21 105 0 165.5-61T381 205q0-95-61.5-156T160-12Q98-12 42 11v70q55-29 117-29 58 0 100 35.5t48 92.5H88v64h219q-12 55-53 86t-96 31q-58 0-116-27Z" horiz-adv-x="423" vert-adv-y="1000"/><glyph glyph-name="uni044E" unicode="ю" d="M140 245h75q10 70 56 118 59 62 157 62 96 0 158-62t62-157q0-94-62.5-156T428-12q-109 0-171 78-40 50-46 113h-71V0H68v415h72V245m288 116q-60 0-101.5-41.5T285 206q0-73 42-113.5T428 52q60 0 103 41t43 113q0 72-42.5 113.5T428 361Z" horiz-adv-x="690" vert-adv-y="1000"/><glyph glyph-name="uni044F" unicode="я" d="m20 0 129 171q-6 0-16.5 2T102 183q-20 8-33 21-33 31-33 83 0 59 37 93 37 35 122 35h145V0h-72v167h-44L106 0H20m248 227v124h-67q-47 0-65-11-26-17-26-51t26-50q19-12 64-12h68Z" horiz-adv-x="408" vert-adv-y="1000"/><glyph glyph-name="uni0451" unicode="ё" d="m376 139 60-33q-21-40-51-67-57-51-138-51-84 0-144.5 54.5T42 205q0 95 54.5 157.5T243 425q104 0 157-76 42-60 39-156H116q1-63 39-102t93-39q49 0 85 30 28 24 43 57M121 253h244q-9 49-42.5 78.5T243 361q-45 0-79.5-30.5T121 253m4 262-7.5 7.5Q110 530 110 550t15 35q15 15 35 15t35-15q15-15 15-35t-15-35q-15-15-35-15t-35 15m174 0-7.5 7.5Q284 530 284 550t15 35q15 15 35 15t35-15q15-15 15-35t-15-35q-15-15-35-15t-35 15Z" horiz-adv-x="481" vert-adv-y="1000"/><glyph glyph-name="uni0452" unicode="ђ" d="M68 0v514H0v60h68v155h72V574h200v-60H140V327q44 58 119 58 80 0 119-57 24-35 24-111V-86q0-75-32-109-34-35-91-35-27 0-51 9v70q25-9 47-9 32 0 46 22 9 15 9 60v293q0 51-19 76-23 30-68 30-46 0-73-32-30-35-30-112V0H68Z" horiz-adv-x="470" vert-adv-y="1000"/><glyph glyph-name="uni0453" unicode="ѓ" d="M68 0v415h246v-66H140V0H68m184 666 74-34-134-135-45 24 105 145Z" horiz-adv-x="318" vert-adv-y="1000"/><glyph glyph-name="uni0454" unicode="є" d="M393 385v-86q-52 62-130 62-51 0-92.5-31.5T119 244h217v-64H118q7-57 48-92.5T262 52q80 0 134 65V31q-59-43-132-43-97 0-159.5 61.5T42 205q0 95 63 157.5T264 425q72 0 129-40Z" horiz-adv-x="438" vert-adv-y="1000"/><glyph glyph-name="uni0455" unicode="ѕ" d="m298 350-59-31q-17 42-58 42-21 0-35.5-12T131 314q0-21 13.5-31.5T198 255q79-33 104-64 22-27 22-67 0-63-40.5-99.5T181-12q-12 0-26 2.5t-38.5 11Q92 10 70 34T36 94l62 26q25-68 84-68 33 0 50.5 20t17.5 46q0 14-4.5 24.5t-15 18.5q-10.5 8-20 13T183 187q-80 35-101 61-19 24-19 61 0 54 33.5 85t87.5 31q79 0 114-75Z" horiz-adv-x="352" vert-adv-y="1000"/><glyph glyph-name="uni0456" unicode="і" d="M68 415h72V0H68v415m0 121-7.5 7.5Q53 551 53 572t15 36q15 15 36 15t36-15q15-15 15-36t-15-36q-15-15-36-15t-36 15Z" horiz-adv-x="208" vert-adv-y="1000"/><glyph glyph-name="uni0457" unicode="ї" d="M68 415h72V0H68v415M21.5 538l-6.25 7.5Q9 553 9 573t12.5 35Q34 623 51 623t29.5-15Q93 593 93 573t-12.5-35Q68 523 51 523t-29.5 15m106 0-6.25 7.5Q115 553 115 573t12.5 35q12.5 15 29.5 15t29.5-15q12.5-15 12.5-35t-12.5-35Q174 523 157 523t-29.5 15Z" horiz-adv-x="208" vert-adv-y="1000"/><glyph glyph-name="uni0458" unicode="ј" d="M68 415h72v-645H68v645m0 121-7.5 7.5Q53 551 53 572t15 36q15 15 36 15t36-15q15-15 15-36t-15-36q-15-15-36-15t-36 15Z" horiz-adv-x="208" vert-adv-y="1000"/><glyph glyph-name="uni0459" unicode="љ" d="M382 415V256h74q86 0 126-41 32-32 32-87 0-58-37-93T455 0H310v349H162V162q0-81-32-120Q94-2 30-2 22-2 8 0v66q10-2 16-2 35 0 52 27 14 22 14 71v253h292m0-351h67q45 0 64 11 27 18 27 53 0 36-26 52-18 12-64 12h-68V64Z" horiz-adv-x="642" vert-adv-y="1000"/><glyph glyph-name="uni045A" unicode="њ" d="M68 0v415h72V258h196v157h72V256h74q86 0 126-41 32-32 32-87 0-58-37-93T481 0H336v192H140V0H68m340 64h67q45 0 64 11 27 18 27 53 0 36-26 52-18 12-64 12h-68V64Z" horiz-adv-x="668" vert-adv-y="1000"/><glyph glyph-name="uni045B" unicode="ћ" d="M68 0v514H0v60h68v155h72V574h200v-60H140V327q44 58 119 58 80 0 119-57 24-35 24-111V0h-72v215q0 51-19 76-23 30-68 30-46 0-73-32-30-35-30-112V0H68Z" horiz-adv-x="470" vert-adv-y="1000"/><glyph glyph-name="uni045C" unicode="ќ" d="M68 415h72V245l168 170h88L216 230 418 0h-94L162 182l-22-21V0H68v415m205 251 74-34-134-135-45 24 105 145Z" horiz-adv-x="422" vert-adv-y="1000"/><glyph glyph-name="uni045E" unicode="ў" d="M67-230 199 39 8 415h82l147-297 135 297h80L147-230H67m28 824 60 23q18-60 85-60t85 60l60-23q-16-45-54.5-71T240 497q-52 0-90.5 26T95 594Z" horiz-adv-x="460" vert-adv-y="1000"/><glyph glyph-name="uni045F" unicode="џ" d="M68 0v415h72V66h186v349h72V0H266v-120h-66V0H68Z" horiz-adv-x="466" vert-adv-y="1000"/><glyph glyph-name="uni0462" unicode="Ѣ" d="M174 0v517H14v70h160v107h74V587h180v-70H248V390h90q230 0 230-188 0-94-58.5-148T352 0H174m74 320V70h86q85 0 123 37 35 33 35 95 0 72-54 101-31 17-112 17h-78Z" horiz-adv-x="610" vert-adv-y="1000"/><glyph glyph-name="uni0463" unicode="ѣ" d="M8 415h90v252h72V415h120v-66H170v-93h74q86 0 126-41 32-32 32-87 0-58-37-93T243 0H98v349H8v66M170 64h67q45 0 64 11 27 18 27 53 0 36-26 52-18 12-64 12h-68V64Z" horiz-adv-x="430" vert-adv-y="1000"/><glyph glyph-name="uni0472" unicode="Ѳ" d="m641.5 87-50.25-49.5Q541-12 396-12T150.5 87Q50 186 50 333q0 148 100.5 246.5T396 678q145 0 245.5-98.5T742 333q0-147-100.5-246M129 380h534q-18 106-96 167t-171 61q-93 0-171-61t-96-167m537-70H126q10-112 88.5-182T396 58q103 0 181.5 70T666 310Z" horiz-adv-x="792" vert-adv-y="1000"/><glyph glyph-name="uni0473" unicode="ѳ" d="m419.5 50-31.25-31Q357-12 262-12T104.5 50Q42 112 42 206q0 95 62.5 157T262 425q95 0 157.5-62T482 206q0-94-62.5-156M120 244h284q-10 55-50.5 86T262 361q-51 0-91.5-31T120 244m286-64H118q5-57 47-92.5T262 52q55 0 96.5 35.5T406 180Z" horiz-adv-x="524" vert-adv-y="1000"/><glyph glyph-name="uni0474" unicode="Ѵ" d="M8 667h82l188-509 188 509h82L278-40 8 667Z" horiz-adv-x="556" vert-adv-y="1000"/><glyph glyph-name="uni0475" unicode="ѵ" d="M8 415h80l124-280 124 280h80L212-27 8 415Z" horiz-adv-x="424" vert-adv-y="1000"/><glyph glyph-name="uni0490" unicode="Ґ" d="M86 0v667h234v140h70V597H160V0H86Z" horiz-adv-x="404" vert-adv-y="1000"/><glyph glyph-name="uni0491" unicode="ґ" d="M68 0v415h180v110h66V349H140V0H68Z" horiz-adv-x="328" vert-adv-y="1000"/><glyph glyph-name="uni0492" unicode="Ғ" d="M86 0v334H0v66h86v267h304v-70H160V400h136v-66H160V0H86Z" horiz-adv-x="404" vert-adv-y="1000"/><glyph glyph-name="uni0493" unicode="ғ" d="M68 0v188H0v60h68v167h246v-66H140V248h100v-60H140V0H68Z" horiz-adv-x="318" vert-adv-y="1000"/><glyph glyph-name="uni0494" unicode="Ҕ" d="M402 597H160V385q71 23 137 23 120 0 175-67 44-54 44-147 0-112-70-163Q397-6 312-6q-28 0-68 6v70q28-6 63-6 61 0 93 27 40 34 40 104 0 63-28 97-39 46-122 46-64 0-130-23V0H86v667h316v-70Z" horiz-adv-x="558" vert-adv-y="1000"/><glyph glyph-name="uni0495" unicode="ҕ" d="M68 0v415h246v-66H140V236h30q110 0 167-57 51-53 51-139 0-109-79-182-62-57-146-66v70q54 7 96 48 53 50 53 131 0 66-39 99-34 30-103 30h-30V0H68Z" horiz-adv-x="430" vert-adv-y="1000"/><glyph glyph-name="uni0496" unicode="Җ" d="M368 667h74V381l254 286h92L508 356 739 70h57v-210h-70V0h-24L458 305l-16-18V0h-74v287l-16 18L108 0H14l288 356L22 667h92l254-286v286Z" horiz-adv-x="810" vert-adv-y="1000"/><glyph glyph-name="uni0497" unicode="җ" d="M262 415h72V245l156 170h84L394 223 534 66h58v-176h-66V0h-24L348 175l-14-14V0h-72v161l-14 14L94 0H4l198 223L22 415h84l156-170v170Z" horiz-adv-x="596" vert-adv-y="1000"/><glyph glyph-name="uni0498" unicode="Ҙ" d="m157 536-57 45q32 47 78 72t109 25q96 0 149-51 48-46 48-118 0-51-27-89-27-36-65-53 52-12 87-47 47-47 47-122 0-84-56-143-57-59-142-65v-150h-70v150q-77 7-135 57-48 41-73 101l72 32q16-45 47-73 50-49 128-49 73 0 115 40 38 38 38 99 0 55-36 88-42 39-142 39h-60v70h60q66 0 101 31 35 29 35 82 0 43-27 70-31 31-90 31-52 0-88-25-28-20-46-47Z" horiz-adv-x="576" vert-adv-y="1000"/><glyph glyph-name="uni0499" unicode="ҙ" d="m122 309-50 41q24 35 53 52 37 23 95 23 59 0 94-29 36-30 36-81 0-31-14-54-11-19-33-31 28-7 48-27 29-29 29-77 0-52-38-92-39-41-95-44v-110h-66v110q-46 4-84 33-32 25-55 71l62 26q14-30 37-47 28-21 68-21 43 0 68 15 31 19 31 59 0 31-25 48-22 14-68 14h-42v66h35q36 0 54 11 22 15 22 39 0 26-18 42-18 15-56 15-31 0-54-16t-34-36Z" horiz-adv-x="422" vert-adv-y="1000"/><glyph glyph-name="uni049A" unicode="Қ" d="M86 667h74V381l284 286h100L232 356 491 70h63v-210h-70V0h-32L179 306l-19-19V0H86v667Z" horiz-adv-x="568" vert-adv-y="1000"/><glyph glyph-name="uni049B" unicode="қ" d="M68 415h72V245l168 170h88L216 230 360 66h58v-176h-66V0h-28L162 182l-22-21V0H68v415Z" horiz-adv-x="422" vert-adv-y="1000"/><glyph glyph-name="uni049C" unicode="Ҝ" d="M86 667h74V376h80v140h66V376l233 291h82L366 352 630 0h-88L306 310V160h-66v150h-80V0H86v667Z" horiz-adv-x="644" vert-adv-y="1000"/><glyph glyph-name="uni049D" unicode="ҝ" d="M68 415h72V245h50v100h60V245l109 170h78L306 216 446 0h-80L250 185V75h-60v110h-50V0H68v415Z" horiz-adv-x="450" vert-adv-y="1000"/><glyph glyph-name="uni04A0" unicode="Ҡ" d="M174 0v597H14v70h234V381l284 286h100L320 356 642 0H540L267 306l-19-19V0h-74Z" horiz-adv-x="656" vert-adv-y="1000"/><glyph glyph-name="uni04A1" unicode="ҡ" d="M98 0v349H8v66h162V245l168 170h88L246 230 448 0h-94L192 182l-22-21V0H98Z" horiz-adv-x="452" vert-adv-y="1000"/><glyph glyph-name="uni04A2" unicode="Ң" d="M86 0v667h74V396h342v271h74V70h76v-210h-70V0h-80v326H160V0H86Z" horiz-adv-x="666" vert-adv-y="1000"/><glyph glyph-name="uni04A3" unicode="ң" d="M68 0v415h72V245h196v170h72V66h68v-176h-66V0h-74v179H140V0H68Z" horiz-adv-x="484" vert-adv-y="1000"/><glyph glyph-name="uni04A4" unicode="Ҥ" d="M86 0v667h74V396h342v271h304v-70H576V0h-74v326H160V0H86Z" horiz-adv-x="820" vert-adv-y="1000"/><glyph glyph-name="uni04A5" unicode="ҥ" d="M68 0v415h72V245h196v170h246v-66H408V0h-72v179H140V0H68Z" horiz-adv-x="586" vert-adv-y="1000"/><glyph glyph-name="uni04AA" unicode="Ҫ" d="M596 612v-92q-40 40-87 62-55 26-115 26-112 0-190-78-78-80-78-200 0-117 76-193 79-79 193-79 59 0 114 26 45 21 87 61V53Q532 4 433-10v-150h-70v150Q236-2 146 89q-96 98-96 242t94 244q98 103 255 103 117 0 197-66Z" horiz-adv-x="646" vert-adv-y="1000"/><glyph glyph-name="uni04AB" unicode="ҫ" d="M393 385v-86q-50 62-130 62-63 0-106-43-41-41-41-112 0-65 36-105 43-49 113-49 77 0 131 65V31Q356-4 302-9v-111h-66v110q-80 6-135 61-59 59-59 153 0 96 61 157 64 64 164 64 69 0 126-40Z" horiz-adv-x="438" vert-adv-y="1000"/><glyph glyph-name="uni04AE" unicode="Ү" d="M227 0v287L8 667h86l170-298 172 298h86L301 287V0h-74Z" horiz-adv-x="530" vert-adv-y="1000"/><glyph glyph-name="uni04AF" unicode="ү" d="M8 415h80l124-280 124 280h80L248 51v-281h-72V51L8 415Z" horiz-adv-x="424" vert-adv-y="1000"/><glyph glyph-name="uni04B0" unicode="Ұ" d="M227 0v221H37v66h190L8 667h86l170-298 172 298h86L301 287h190v-66H301V0h-74Z" horiz-adv-x="530" vert-adv-y="1000"/><glyph glyph-name="uni04B1" unicode="ұ" d="M8 415h80l124-280 124 280h80L248 51V0h120v-66H248v-164h-72v164H56V0h120v51L8 415Z" horiz-adv-x="424" vert-adv-y="1000"/><glyph glyph-name="uni04B2" unicode="Ҳ" d="m14 0 197 345L32 667h84l138-251 142 251h84L297 345 451 70h55v-210h-70V0h-30L253 274 98 0H14Z" horiz-adv-x="520" vert-adv-y="1000"/><glyph glyph-name="uni04B3" unicode="ҳ" d="m8 0 177 222L34 415h88l107-141 109 141h88L274 221 395 66h51v-176h-66V0h-22L227 169 96 0H8Z" horiz-adv-x="454" vert-adv-y="1000"/><glyph glyph-name="uni04B6" unicode="Ҷ" d="M430 0v286q-93-7-138-7-119 0-165 36-61 47-61 155v197h74V480q0-81 40-110 28-21 116-21 59 0 134 7v311h74V70h76v-210h-70V0h-80Z" horiz-adv-x="594" vert-adv-y="1000"/><glyph glyph-name="uni04B7" unicode="ҷ" d="M290 0v163q-59-9-98-9-68 0-101 30-35 31-35 102v129h72V296q0-34 9-49 14-27 63-27 44 0 90 9v186h72V66h68v-176h-66V0h-74Z" horiz-adv-x="438" vert-adv-y="1000"/><glyph glyph-name="uni04B8" unicode="Ҹ" d="M460 0v286q-47-3-116-6V140h-66v139q-104 0-151 36-61 46-61 155v197h74V480q0-81 40-110 32-24 98-21v147h66V350q65 2 116 6v311h74V0h-74Z" horiz-adv-x="620" vert-adv-y="1000"/><glyph glyph-name="uni04B9" unicode="ҹ" d="M320 0v163q-30-6-64-6V55h-60v99q-66-4-105 30-35 30-35 102v129h72V296q0-35 9-49 17-28 59-26v104h60V222q29 0 64 7v186h72V0h-72Z" horiz-adv-x="460" vert-adv-y="1000"/><glyph glyph-name="uni04BA" unicode="Һ" d="M160 667V401q93 7 138 7 119 0 165-36 61-47 61-155V0h-74v207q0 81-40 110-28 21-116 21-59 0-134-7V0H86v667h74Z" horiz-adv-x="590" vert-adv-y="1000"/><glyph glyph-name="uni04BB" unicode="һ" d="M68 0v729h72V367q44 58 119 58 80 0 119-57 24-35 24-111V0h-72v255q0 51-19 76-23 30-68 30-46 0-73-32-30-35-30-112V0H68Z" horiz-adv-x="470" vert-adv-y="1000"/><glyph glyph-name="uni04C0" unicode="Ӏ" d="M86 667h74V0H86v667Z" horiz-adv-x="246" vert-adv-y="1000"/><glyph glyph-name="uni04C1" unicode="Ӂ" d="M368 667h74V381l254 286h92L508 356 796 0h-94L458 305l-16-18V0h-74v287l-16 18L108 0H14l288 356L22 667h92l254-286v286M250 818l70 23q6-19 18.5-31.5t28-17q15.5-4.5 23.5-6t15-1.5q7 0 15 1.5t23.5 6q15.5 4.5 28 17T490 841l70-23q-4-11-11.5-23T524 764q-17-19-48-31t-71-12q-40 0-71 12t-48 31q-17 19-24.5 31T250 818Z" horiz-adv-x="810" vert-adv-y="1000"/><glyph glyph-name="uni04C2" unicode="ӂ" d="M262 415h72V245l156 170h84L394 223 592 0h-90L348 175l-14-14V0h-72v161l-14 14L94 0H4l198 223L22 415h84l156-170v170M153 594l60 23q18-60 85-60t85 60l60-23q-16-45-54.5-71T298 497q-52 0-90.5 26T153 594Z" horiz-adv-x="596" vert-adv-y="1000"/><glyph glyph-name="uni04C3" unicode="Ӄ" d="M86 667h74V361l284 306h100L284 395q121 0 182-61 76-75 76-226 0-143-67-212-54-56-151-56-58 0-111 21l21 71q38-22 86-22 61 0 96 33 51 49 51 158 0 138-70 193-46 36-123 36-55 0-114-13V0H86v667Z" horiz-adv-x="584" vert-adv-y="1000"/><glyph glyph-name="uni04C4" unicode="ӄ" d="M68 415h72V245l168 170h88L214 230q77-5 123-51 51-51 51-135 0-113-79-186-62-57-146-66v70q54 7 96 48 53 51 53 128 0 67-39 102-35 30-103 30h-30V0H68v415Z" horiz-adv-x="414" vert-adv-y="1000"/><glyph glyph-name="uni04C7" unicode="Ӈ" d="M86 0v667h74V396h342v271h74V-86q0-79-34-113-31-31-89-31-30 0-53 9v72q19-9 42-9 30 0 44 13 16 15 16 55v416H160V0H86Z" horiz-adv-x="662" vert-adv-y="1000"/><glyph glyph-name="uni04C8" unicode="ӈ" d="M68 0v415h72V245h196v170h72V-86q0-75-32-109-34-35-91-35-27 0-51 9v70q25-9 47-9 32 0 46 22 9 15 9 60v257H140V0H68Z" horiz-adv-x="476" vert-adv-y="1000"/><glyph glyph-name="uni04D0" unicode="Ӑ" d="m532 0-78 188H170L90 0H8l307 699L614 0h-82M199 258h226L313 525 199 258m-39 560 70 23q6-19 18.5-31.5t28-17q15.5-4.5 23.5-6t15-1.5q7 0 15 1.5t23.5 6q15.5 4.5 28 17T400 841l70-23q-4-11-11.5-23T434 764q-17-19-48-31t-71-12q-40 0-71 12t-48 31q-17 19-24.5 31T160 818Z" horiz-adv-x="622" vert-adv-y="1000"/><glyph glyph-name="uni04D1" unicode="ӑ" d="M386 356v59h72V0h-72v58q-54-70-142-70-84 0-143 58T42 208q0 102 58.5 159.5T244 425q90 0 142-69m-134 5q-57 0-96.5-40.5T116 208q0-69 36.5-112.5T252 52q63 0 100.5 45T390 207q0 74-42 114t-96 40M109 594l60 23q18-60 85-60t85 60l60-23q-16-45-54.5-71T254 497q-52 0-90.5 26T109 594Z" horiz-adv-x="526" vert-adv-y="1000"/><glyph glyph-name="uni04D2" unicode="Ӓ" d="m532 0-78 188H170L90 0H8l307 699L614 0h-82M199 258h226L313 525 199 258m-15 490-7.5 7.5Q169 763 169 784t15 36q15 15 36 15t36-15q15-15 15-36t-15-36q-15-15-36-15t-36 15m190 0-7.5 7.5Q359 763 359 784t15 36q15 15 36 15t36-15q15-15 15-36t-15-36q-15-15-36-15t-36 15Z" horiz-adv-x="622" vert-adv-y="1000"/><glyph glyph-name="uni04D3" unicode="ӓ" d="M386 356v59h72V0h-72v58q-54-70-142-70-84 0-143 58T42 208q0 102 58.5 159.5T244 425q90 0 142-69m-134 5q-57 0-96.5-40.5T116 208q0-69 36.5-112.5T252 52q63 0 100.5 45T390 207q0 74-42 114t-96 40M118 515l-7.5 7.5Q103 530 103 550t15 35q15 15 35 15t35-15q15-15 15-35t-15-35q-15-15-35-15t-35 15m174 0-7.5 7.5Q277 530 277 550t15 35q15 15 35 15t35-15q15-15 15-35t-15-35q-15-15-35-15t-35 15Z" horiz-adv-x="526" vert-adv-y="1000"/><glyph glyph-name="uni04D4" unicode="Ӕ" d="m538 0-79 187H175L96 0H14l297 667h293l29-70H364l83-198h264l29-70H478L586 70h271l29-70H538M207 257h223L320 518 207 257Z" horiz-adv-x="900" vert-adv-y="1000"/><glyph glyph-name="uni04D5" unicode="ӕ" d="m667 140 60-36Q666-12 540-12q-107 0-163 83-47-83-156-83-77 0-128 35T42 123q0 65 49 101t124 36q70 0 119-35 2 54-19 88-28 48-99 48-56 0-128-26v68q67 22 129 22 117 0 157-84 52 84 160 84 91 0 144.5-61.5T732 200v-7H408q2-61 39.5-101T539 52q41 0 75 25t53 63M413 253h245q-7 50-41 79t-82 29q-46 0-80-29t-42-79m-192-57q-51 0-79-20.5T114 123q0-28 24.5-49.5T219 52q57 0 84 22.5t27 51.5q0 26-26.5 48T221 196Z" horiz-adv-x="774" vert-adv-y="1000"/><glyph glyph-name="uni04D6" unicode="Ӗ" d="M432 667v-70H160V399h264v-70H160V70h272V0H86v667h346M105 818l70 23q6-19 18.5-31.5t28-17q15.5-4.5 23.5-6t15-1.5q7 0 15 1.5t23.5 6q15.5 4.5 28 17T345 841l70-23q-4-11-11.5-23T379 764q-17-19-48-31t-71-12q-40 0-71 12t-48 31q-17 19-24.5 31T105 818Z" horiz-adv-x="482" vert-adv-y="1000"/><glyph glyph-name="uni04D7" unicode="ӗ" d="m376 139 60-33q-21-40-51-67-57-51-138-51-84 0-144.5 54.5T42 205q0 95 54.5 157.5T243 425q104 0 157-76 42-60 39-156H116q1-63 39-102t93-39q49 0 85 30 28 24 43 57M121 253h244q-9 49-42.5 78.5T243 361q-45 0-79.5-30.5T121 253M96 594l60 23q18-60 85-60t85 60l60-23q-16-45-54.5-71T241 497q-52 0-90.5 26T96 594Z" horiz-adv-x="481" vert-adv-y="1000"/><glyph glyph-name="uni04D8" unicode="Ә" d="m132 483-55 50q33 45 77 79 86 66 204 66 149 0 248.5-99.5T706 333q0-146-98.5-245.5T362-12q-83 0-146.5 34T114 108q-64 87-64 211v16h580q0 114-77 193.5T357 608q-96 0-162-56-34-28-63-69m491-218H126q2-52 27-95 29-51 83.5-81.5T357 58q96 0 171 58.5T623 265Z" horiz-adv-x="756" vert-adv-y="1000"/><glyph glyph-name="uni04D9" unicode="ә" d="m105 274-60 33q21 40 51 67 56 51 138 51 84 0 145-55t61-162q0-95-55-157.5T238-12Q135-12 80 64q-45 64-38 156h324q-1 63-39 102t-94 39q-51 0-85-30-28-24-43-57m255-114H116q8-48 41-78t81-30q45 0 79.5 30.5T360 160Z" horiz-adv-x="482" vert-adv-y="1000"/><glyph glyph-name="uni04DA" unicode="Ӛ" d="m132 483-55 50q33 45 77 79 86 66 204 66 149 0 248.5-99.5T706 333q0-146-98.5-245.5T362-12q-83 0-146.5 34T114 108q-64 87-64 211v16h580q0 114-77 193.5T357 608q-96 0-162-56-34-28-63-69m491-218H126q2-52 27-95 29-51 83.5-81.5T357 58q96 0 171 58.5T623 265M229 748l-7.5 7.5Q214 763 214 784t15 36q15 15 36 15t36-15q15-15 15-36t-15-36q-15-15-36-15t-36 15m190 0-7.5 7.5Q404 763 404 784t15 36q15 15 36 15t36-15q15-15 15-36t-15-36q-15-15-36-15t-36 15Z" horiz-adv-x="756" vert-adv-y="1000"/><glyph glyph-name="uni04DB" unicode="ӛ" d="m105 274-60 33q21 40 51 67 56 51 138 51 84 0 145-55t61-162q0-95-55-157.5T238-12Q135-12 80 64q-45 64-38 156h324q-1 63-39 102t-94 39q-51 0-85-30-28-24-43-57m255-114H116q8-48 41-78t81-30q45 0 79.5 30.5T360 160M120 515l-7.5 7.5Q105 530 105 550t15 35q15 15 35 15t35-15q15-15 15-35t-15-35q-15-15-35-15t-35 15m174 0-7.5 7.5Q279 530 279 550t15 35q15 15 35 15t35-15q15-15 15-35t-15-35q-15-15-35-15t-35 15Z" horiz-adv-x="482" vert-adv-y="1000"/><glyph glyph-name="uni04DC" unicode="Ӝ" d="M368 667h74V381l254 286h92L508 356 796 0h-94L458 305l-16-18V0h-74v287l-16 18L108 0H14l288 356L22 667h92l254-286v286m-94 81-7.5 7.5Q259 763 259 784t15 36q15 15 36 15t36-15q15-15 15-36t-15-36q-15-15-36-15t-36 15m190 0-7.5 7.5Q449 763 449 784t15 36q15 15 36 15t36-15q15-15 15-36t-15-36q-15-15-36-15t-36 15Z" horiz-adv-x="810" vert-adv-y="1000"/><glyph glyph-name="uni04DD" unicode="ӝ" d="M262 415h72V245l156 170h84L394 223 592 0h-90L348 175l-14-14V0h-72v161l-14 14L94 0H4l198 223L22 415h84l156-170v170m-86 100-7.5 7.5Q161 530 161 550t15 35q15 15 35 15t35-15q15-15 15-35t-15-35q-15-15-35-15t-35 15m174 0-7.5 7.5Q335 530 335 550t15 35q15 15 35 15t35-15q15-15 15-35t-15-35q-15-15-35-15t-35 15Z" horiz-adv-x="596" vert-adv-y="1000"/><glyph glyph-name="uni04DE" unicode="Ӟ" d="m157 536-57 45q65 97 191 97 90 0 141-47 52-47 52-123 0-49-25.5-85.5T392 367q65-15 99.5-62T526 195q0-104-83-163-64-44-152-44-91 0-151 46T50 148l72 32q20-56 66-89t106-33q61 0 102 28 54 38 54 107 0 131-178 131h-60v70h60q66 0 101 32t35 81q0 43-27 70-30 31-90 31-84 0-134-72m2 212-7.5 7.5Q144 763 144 784t15 36q15 15 36 15t36-15q15-15 15-36t-15-36q-15-15-36-15t-36 15m190 0-7.5 7.5Q334 763 334 784t15 36q15 15 36 15t36-15q15-15 15-36t-15-36q-15-15-36-15t-36 15Z" horiz-adv-x="576" vert-adv-y="1000"/><glyph glyph-name="uni04DF" unicode="ӟ" d="m122 309-50 41q24 35 53 52 39 23 91 23 63 0 98-29 36-31 36-79 0-58-47-87 30-7 48-27 29-31 29-76 0-67-54-107-44-32-118-32-66 0-111 35-34 25-55 71l62 26q11-28 37-47 28-21 68-21 47 0 70 16 29 19 29 58 0 32-25 48-21 14-68 14h-42v66h35q38 0 54 11 22 14 22 38 0 28-18 43-17 15-53 15-31 0-57-16-22-14-34-36M98 515l-7.5 7.5Q83 530 83 550t15 35q15 15 35 15t35-15q15-15 15-35t-15-35q-15-15-35-15t-35 15m174 0-7.5 7.5Q257 530 257 550t15 35q15 15 35 15t35-15q15-15 15-35t-15-35q-15-15-35-15t-35 15Z" horiz-adv-x="422" vert-adv-y="1000"/><glyph glyph-name="uni04E2" unicode="Ӣ" d="M550 0v509L86-30v697h74V156l464 539V0h-74M200 733v64h320v-64H200Z" horiz-adv-x="710" vert-adv-y="1000"/><glyph glyph-name="uni04E3" unicode="ӣ" d="M68 415h72V141l284 306V0h-72v277L68-29v444m27 98v60h302v-60H95Z" horiz-adv-x="492" vert-adv-y="1000"/><glyph glyph-name="uni04E4" unicode="Ӥ" d="M550 0v509L86-30v697h74V156l464 539V0h-74M229 748l-7.5 7.5Q214 763 214 784t15 36q15 15 36 15t36-15q15-15 15-36t-15-36q-15-15-36-15t-36 15m190 0-7.5 7.5Q404 763 404 784t15 36q15 15 36 15t36-15q15-15 15-36t-15-36q-15-15-36-15t-36 15Z" horiz-adv-x="710" vert-adv-y="1000"/><glyph glyph-name="uni04E5" unicode="ӥ" d="M68 415h72V141l284 306V0h-72v277L68-29v444m56 100-7.5 7.5Q109 530 109 550t15 35q15 15 35 15t35-15q15-15 15-35t-15-35q-15-15-35-15t-35 15m174 0-7.5 7.5Q283 530 283 550t15 35q15 15 35 15t35-15q15-15 15-35t-15-35q-15-15-35-15t-35 15Z" horiz-adv-x="492" vert-adv-y="1000"/><glyph glyph-name="uni04E6" unicode="Ӧ" d="m643.5 87-50.25-49.5Q543-12 397-12T150.5 87Q50 186 50 333q0 148 101 246.5T397 678q145 0 246-98.5T744 333q0-147-100.5-246M589 528l-39.5 40Q510 608 397 608t-192-80q-79-80-79-195t79-195q79-80 192-80t192 80q79 80 79 195t-79 195M266 748l-7.5 7.5Q251 763 251 784t15 36q15 15 36 15t36-15q15-15 15-36t-15-36q-15-15-36-15t-36 15m190 0-7.5 7.5Q441 763 441 784t15 36q15 15 36 15t36-15q15-15 15-36t-15-36q-15-15-36-15t-36 15Z" horiz-adv-x="794" vert-adv-y="1000"/><glyph glyph-name="uni04E7" unicode="ӧ" d="m419.5 50-31.25-31Q357-12 262-12T104.5 50Q42 112 42 206q0 95 62.5 157T262 425q95 0 157.5-62T482 206q0-94-62.5-156m-54 270-21.25 20.5Q323 361 262 361t-103.5-41.5Q116 278 116 206t43-113q43-41 103-41t103 41q43 41 43 113 0 73-42.5 114M140 515l-7.5 7.5Q125 530 125 550t15 35q15 15 35 15t35-15q15-15 15-35t-15-35q-15-15-35-15t-35 15m174 0-7.5 7.5Q299 530 299 550t15 35q15 15 35 15t35-15q15-15 15-35t-15-35q-15-15-35-15t-35 15Z" horiz-adv-x="524" vert-adv-y="1000"/><glyph glyph-name="uni04E8" unicode="Ө" d="m641.5 87-50.25-49.5Q541-12 396-12T150.5 87Q50 186 50 333q0 148 100.5 246.5T396 678q145 0 245.5-98.5T742 333q0-147-100.5-246M129 380h534q-18 106-96 167t-171 61q-93 0-171-61t-96-167m537-70H126q10-112 88.5-182T396 58q103 0 181.5 70T666 310Z" horiz-adv-x="792" vert-adv-y="1000"/><glyph glyph-name="uni04E9" unicode="ө" d="m419.5 50-31.25-31Q357-12 262-12T104.5 50Q42 112 42 206q0 95 62.5 157T262 425q95 0 157.5-62T482 206q0-94-62.5-156M120 244h284q-10 55-50.5 86T262 361q-51 0-91.5-31T120 244m286-64H118q5-57 47-92.5T262 52q55 0 96.5 35.5T406 180Z" horiz-adv-x="524" vert-adv-y="1000"/><glyph glyph-name="uni04EA" unicode="Ӫ" d="m641.5 87-50.25-49.5Q541-12 396-12T150.5 87Q50 186 50 333q0 148 100.5 246.5T396 678q145 0 245.5-98.5T742 333q0-147-100.5-246M129 380h534q-18 106-96 167t-171 61q-93 0-171-61t-96-167m537-70H126q10-112 88.5-182T396 58q103 0 181.5 70T666 310M266 748l-7.5 7.5Q251 763 251 784t15 36q15 15 36 15t36-15q15-15 15-36t-15-36q-15-15-36-15t-36 15m190 0-7.5 7.5Q441 763 441 784t15 36q15 15 36 15t36-15q15-15 15-36t-15-36q-15-15-36-15t-36 15Z" horiz-adv-x="792" vert-adv-y="1000"/><glyph glyph-name="uni04EB" unicode="ӫ" d="m419.5 50-31.25-31Q357-12 262-12T104.5 50Q42 112 42 206q0 95 62.5 157T262 425q95 0 157.5-62T482 206q0-94-62.5-156M120 244h284q-10 55-50.5 86T262 361q-51 0-91.5-31T120 244m286-64H118q5-57 47-92.5T262 52q55 0 96.5 35.5T406 180M140 515l-7.5 7.5Q125 530 125 550t15 35q15 15 35 15t35-15q15-15 15-35t-15-35q-15-15-35-15t-35 15m174 0-7.5 7.5Q299 530 299 550t15 35q15 15 35 15t35-15q15-15 15-35t-15-35q-15-15-35-15t-35 15Z" horiz-adv-x="524" vert-adv-y="1000"/><glyph glyph-name="uni04EE" unicode="Ӯ" d="M8 667h90l208-393 174 393h80L259 0h-80l85 186L8 667m127 66v64h320v-64H135Z" horiz-adv-x="568" vert-adv-y="1000"/><glyph glyph-name="uni04EF" unicode="ӯ" d="M67-230 199 39 8 415h82l147-297 135 297h80L147-230H67m12 743v60h302v-60H79Z" horiz-adv-x="460" vert-adv-y="1000"/><glyph glyph-name="uni04F0" unicode="Ӱ" d="M8 667h90l208-393 174 393h80L259 0h-80l85 186L8 667m156 81-7.5 7.5Q149 763 149 784t15 36q15 15 36 15t36-15q15-15 15-36t-15-36q-15-15-36-15t-36 15m190 0-7.5 7.5Q339 763 339 784t15 36q15 15 36 15t36-15q15-15 15-36t-15-36q-15-15-36-15t-36 15Z" horiz-adv-x="568" vert-adv-y="1000"/><glyph glyph-name="uni04F1" unicode="ӱ" d="M67-230 199 39 8 415h82l147-297 135 297h80L147-230H67m51 745-7.5 7.5Q103 530 103 550t15 35q15 15 35 15t35-15q15-15 15-35t-15-35q-15-15-35-15t-35 15m174 0-7.5 7.5Q277 530 277 550t15 35q15 15 35 15t35-15q15-15 15-35t-15-35q-15-15-35-15t-35 15Z" horiz-adv-x="460" vert-adv-y="1000"/><glyph glyph-name="uni04F2" unicode="Ӳ" d="M8 667h90l208-393 174 393h80L259 0h-80l85 186L8 667m280 215 70-40-147-122-43 26 120 136m150 0 70-40-147-122-43 26 120 136Z" horiz-adv-x="568" vert-adv-y="1000"/><glyph glyph-name="uni04F3" unicode="ӳ" d="M67-230 199 39 8 415h82l147-297 135 297h80L147-230H67m163 896 72-32-137-136-41 23 106 145m134 0 70-32-135-136-41 23 106 145Z" horiz-adv-x="460" vert-adv-y="1000"/><glyph glyph-name="uni04F4" unicode="Ӵ" d="M430 0v286q-93-7-138-7-119 0-165 36-61 47-61 155v197h74V480q0-81 40-110 28-21 116-21 59 0 134 7v311h74V0h-74M159 748l-7.5 7.5Q144 763 144 784t15 36q15 15 36 15t36-15q15-15 15-36t-15-36q-15-15-36-15t-36 15m190 0-7.5 7.5Q334 763 334 784t15 36q15 15 36 15t36-15q15-15 15-36t-15-36q-15-15-36-15t-36 15Z" horiz-adv-x="590" vert-adv-y="1000"/><glyph glyph-name="uni04F5" unicode="ӵ" d="M290 0v163q-59-9-98-9-68 0-101 30-35 31-35 102v129h72V296q0-34 9-49 14-27 63-27 44 0 90 9v186h72V0h-72M88 515l-7.5 7.5Q73 530 73 550t15 35q15 15 35 15t35-15q15-15 15-35t-15-35q-15-15-35-15t-35 15m174 0-7.5 7.5Q247 530 247 550t15 35q15 15 35 15t35-15q15-15 15-35t-15-35q-15-15-35-15t-35 15Z" horiz-adv-x="430" vert-adv-y="1000"/><glyph glyph-name="uni04F8" unicode="Ӹ" d="M86 0v667h74V390h90q230 0 230-188 0-94-58.5-148T264 0H86m74 320V70h86q85 0 123 37 35 33 35 95 0 72-54 101-31 17-112 17h-78m390 347h74V0h-74v667m-326 81-7.5 7.5Q209 763 209 784t15 36q15 15 36 15t36-15q15-15 15-36t-15-36q-15-15-36-15t-36 15m190 0-7.5 7.5Q399 763 399 784t15 36q15 15 36 15t36-15q15-15 15-36t-15-36q-15-15-36-15t-36 15Z" horiz-adv-x="710" vert-adv-y="1000"/><glyph glyph-name="uni04F9" unicode="ӹ" d="M68 0v415h72V256h74q86 0 126-41 32-32 32-87 0-58-37-93T213 0H68m72 64h67q45 0 64 11 27 18 27 53 0 36-26 52-18 12-64 12h-68V64M422 0v415h72V0h-72M159 515l-7.5 7.5Q144 530 144 550t15 35q15 15 35 15t35-15q15-15 15-35t-15-35q-15-15-35-15t-35 15m174 0-7.5 7.5Q318 530 318 550t15 35q15 15 35 15t35-15q15-15 15-35t-15-35q-15-15-35-15t-35 15Z" horiz-adv-x="562" vert-adv-y="1000"/><glyph glyph-name="uni1E9E" unicode="ẞ" d="M86 0v480q0 91 59 145 58 53 142 53 76 0 125-32 36-24 57.5-66.5T490 498L347 376q68-11 114-46 66-52 66-134 0-102-96-163-63-39-160-45v70q73 6 118 34 62 38 62 99 0 68-64 107-44 26-116 31v60l142 128q-20 91-124 91-61 0-97-39-32-35-32-103V0H86Z" horiz-adv-x="577" vert-adv-y="1000"/><glyph glyph-name="uni2010" unicode="‐" d="M50 176v74h220v-74H50Z" horiz-adv-x="320" vert-adv-y="1000"/><glyph glyph-name="uni2011" unicode="‑" d="M50 176v74h220v-74H50Z" horiz-adv-x="320" vert-adv-y="1000"/><glyph glyph-name="uni2012" unicode="‒" d="M70 307v64h440v-64H70Z" horiz-adv-x="580" vert-adv-y="1000"/><glyph glyph-name="uni2013" unicode="–" d="M70 181v64h440v-64H70Z" horiz-adv-x="580" vert-adv-y="1000"/><glyph glyph-name="uni2014" unicode="—" d="M70 181v64h660v-64H70Z" horiz-adv-x="800" vert-adv-y="1000"/><glyph glyph-name="uni2015" unicode="―" d="M70 181v64h660v-64H70Z" horiz-adv-x="800" vert-adv-y="1000"/><glyph glyph-name="uni2018" unicode="‘" d="m206 667-83-231-65 24 101 226 47-19Z" horiz-adv-x="264" vert-adv-y="1000"/><glyph glyph-name="uni2019" unicode="’" d="m58 460 81 231 67-24-101-226-47 19Z" horiz-adv-x="264" vert-adv-y="1000"/><glyph glyph-name="uni201A" unicode="‚" d="m58-133 81 231 67-24-101-226-47 19Z" horiz-adv-x="308" vert-adv-y="1000"/><glyph glyph-name="uni201C" unicode="“" d="m206 667-83-231-65 24 101 226 47-19m146 0-81-231-67 24 101 226 47-19Z" horiz-adv-x="410" vert-adv-y="1000"/><glyph glyph-name="uni201D" unicode="”" d="m58 460 81 231 67-24-101-226-47 19m146 0 83 231 65-24-101-226-47 19Z" horiz-adv-x="410" vert-adv-y="1000"/><glyph glyph-name="uni201E" unicode="„" d="m58-133 81 231 67-24-101-226-47 19m146 0 83 231 65-24-101-226-47 19Z" horiz-adv-x="454" vert-adv-y="1000"/><glyph glyph-name="uni2020" unicode="†" d="M248 503v226h72V503h148v-68H320v-605h-72v605H100v68h148Z" horiz-adv-x="568" vert-adv-y="1000"/><glyph glyph-name="uni2021" unicode="‡" d="M248 503v226h72V503h148v-68H320V158h148V90H320v-266h-72V90H100v68h148v277H100v68h148Z" horiz-adv-x="568" vert-adv-y="1000"/><glyph glyph-name="uni2022" unicode="•" d="m401 241-20.5 20.5Q360 282 360 340t41 99q41 41 99 41t99-41q41-41 41-99t-41-99q-41-41-99-41t-99 41Z" horiz-adv-x="1000" vert-adv-y="1000"/><glyph glyph-name="uni2026" unicode="…" d="m90 5-7.5 7.5Q75 20 75 40t15 35q15 15 35 15t35-15q15-15 15-35T160 5q-15-15-35-15T90 5m248 0-7.5 7.5Q323 20 323 40t15 35q15 15 35 15t35-15q15-15 15-35T408 5q-15-15-35-15T338 5m248 0-7.5 7.5Q571 20 571 40t15 35q15 15 35 15t35-15q15-15 15-35T656 5q-15-15-35-15T586 5Z" horiz-adv-x="746" vert-adv-y="1000"/><glyph glyph-name="uni2030" unicode="‰" d="m75 631 21 21q21 21 82 21t103-42q42-42 42-103t-42-103q-42-42-103-42T75 425q-42 42-42 103t42 103m103-193q36 0 60.5 26.5T263 528q0 37-24.5 63.5T178 618q-35 0-60-26.5T93 528q0-37 25-63.5t60-26.5M141 10l389 670 39-22L180-13l-39 23m288 231 21 21q21 21 82 21t103-42q42-42 42-103T635 35Q593-7 532-7T429 35q-42 42-42 103t42 103M532 48q36 0 60.5 26.5T617 138q0 37-24.5 63.5T532 228q-35 0-60-26.5T447 138q0-37 25-63.5T532 48m247 193 21 21q21 21 82 21t103-42q42-42 42-103T985 35Q943-7 882-7T779 35q-42 42-42 103t42 103M882 48q36 0 60.5 26.5T967 138q0 37-24.5 63.5T882 228q-35 0-60-26.5T797 138q0-37 25-63.5T882 48Z" horiz-adv-x="1060" vert-adv-y="1000"/><glyph glyph-name="uni2039" unicode="‹" d="M112 212 232 66l-46-36L36 212l150 188 46-37-120-151Z" horiz-adv-x="282" vert-adv-y="1000"/><glyph glyph-name="uni203A" unicode="›" d="M170 218 50 364l46 36 150-182L96 30 50 67l120 151Z" horiz-adv-x="282" vert-adv-y="1000"/><glyph glyph-name="uni2044" unicode="⁄" d="m-150 10 388 670 38-22-388-671-38 23Z" horiz-adv-x="126" vert-adv-y="1000"/><glyph glyph-name="uni2080" unicode="₀" d="M281 53Q238-7 175-7T69 53q-41 55-41 147 0 90 41 147 42 59 106 59t106-59q41-57 41-147 0-92-41-147m-39 266q-26 41-67 41t-67-41q-28-43-28-119 0-74 28-118 28-43 67-43t67 43q28 43 28 118 0 77-28 119Z" horiz-adv-x="350" vert-adv-y="1000"/><glyph glyph-name="uni2081" unicode="₁" d="M166 0v354H88l24 46h106V0h-52Z" horiz-adv-x="350" vert-adv-y="1000"/><glyph glyph-name="uni2082" unicode="₂" d="M297 0H32l146 169q35 41 46 58 22 32 22 61 0 30-20.5 51T170 360q-45 0-65-34-12-21-12-48H43q3 54 30 87 35 41 96 41 57 0 93-33t36-86q0-39-32-85-15-22-55-67l-77-89h163V0Z" horiz-adv-x="350" vert-adv-y="1000"/><glyph glyph-name="uni2083" unicode="₃" d="M102 296H52q2 37 19 64 30 46 97 46 61 0 88.5-33.5T284 299q0-65-52-89 58-22 58-97 0-51-34.5-85.5T163-7q-46 0-74.5 20T48 62q-8 20-10 47h50q1-22 14-40 22-30 59-30 34 0 55.5 21.5T238 115q0 48-39 65-19 9-46 7v46q26-2 46 8 33 17 33 57 0 26-16 44t-48 18q-34 0-51-21-13-16-15-43Z" horiz-adv-x="350" vert-adv-y="1000"/><glyph glyph-name="uni2084" unicode="₄" d="M269 422V111h49V65h-49V0h-50v65H14l255 357M104 111h115v164L104 111Z" horiz-adv-x="350" vert-adv-y="1000"/><glyph glyph-name="uni2085" unicode="₅" d="M297 400v-46H163l-22-81q16 2 25 2 62 0 98-38.5t36-97.5q0-68-45.5-107T147-7Q96-7 57 24 34 42 22 65l39 30q10-19 26-32 28-24 62-24 41 0 70 28.5t29 68.5q0 40-28 66.5T149 229q-39 0-77-28l58 199h167Z" horiz-adv-x="350" vert-adv-y="1000"/><glyph glyph-name="uni2086" unicode="₆" d="m202 413 42-31-92-123q14 5 31 5 60 0 97-38t37-96q0-60-39.5-98.5T176-7Q115-7 74 31.5T33 129q0 44 33 92l136 192M175 39q43 0 66.5 27.5T265 129q0 38-26.5 63.5T174 218q-38 0-63.5-25.5T85 129q0-35 23-62.5T175 39Z" horiz-adv-x="350" vert-adv-y="1000"/><glyph glyph-name="uni2087" unicode="₇" d="m32 18 222 336H40v46h300L73-10 32 18Z" horiz-adv-x="350" vert-adv-y="1000"/><glyph glyph-name="uni2088" unicode="₈" d="M109 208q-48 29-48 88 0 46 30.5 78t83.5 32q53 0 83.5-32t30.5-78q0-59-48-88 61-26 61-98 0-50-34-83.5T175-7q-59 0-93 33.5T48 110q0 72 61 98m19 40 9-9.5q9-9.5 38-9.5t47 19q18 19 18 47 0 30-18.5 47.5T175 360q-28 0-46.5-17.5T110 295q0-28 18-47m101-84-10.5 10.5Q208 185 175 185t-54-21q-21-21-21-52 0-32 21-52.5T175 39q33 0 54 20.5t21 52.5q0 31-21 52Z" horiz-adv-x="350" vert-adv-y="1000"/><glyph glyph-name="uni2089" unicode="₉" d="m148-14-42 31 92 123q-14-5-31-5-60 0-97 38t-37 96q0 60 39.5 98.5T174 406q61 0 102-38.5t41-97.5q0-44-33-92L148-14m27 374q-43 0-66.5-27.5T85 270q0-38 26.5-63.5T176 181q38 0 63.5 25.5T265 270q0 35-23 62.5T175 360Z" horiz-adv-x="350" vert-adv-y="1000"/><glyph glyph-name="uni20AC" unicode="€" d="m528 622-33-67q-63 53-151 53-39 0-72.5-12.5T217 565q-21-18-37.5-42t-25-43.5Q146 460 141 440h319l-26-66H129q-6-39-1-78h281l-26-66H139q15-76 70-124t137-48q100 0 182 77V43q-82-55-186-55-122 0-195 69.5T59 230H-8l26 66h34q-5 41 1 78H-8l26 66h43q21 100 96 169t192 69q99 0 179-56Z" horiz-adv-x="568" vert-adv-y="1000"/><glyph glyph-name="uni20B4" unicode="₴" d="m158 535-59 39q35 45 79 71 55 33 127 33 70 0 112-36 42-35 42-89 0-62-49-113h93v-56H365l-89-88h227v-56H225q-45-42-45-100 0-34 25-57 27-25 74-25 56 0 97 38 30 29 49 74l68-30q-20-55-59-92-61-60-159-60-74 0-118 33-53 42-53 114 0 57 39 105H66v56h122l89 88H66v56h262q57 50 57 95 0 30-22 50-24 23-71 23-43 0-77-22-33-21-57-51Z" horiz-adv-x="568" vert-adv-y="1000"/><glyph glyph-name="uni20B6" unicode="₶" d="M263 667q121 0 177-56 52-52 52-134 0-79-50-127-57-56-161-56h-65v-88h164v-56H216V0h-74v150H66v56h76v88H66v66h76v307h121m-47-70V360h61q75 0 112 39 29 32 29 84 0 48-28 76-37 38-119 38h-55Z" horiz-adv-x="568" vert-adv-y="1000"/><glyph glyph-name="uni20B7" unicode="₷" d="M263 667q121 0 177-56 52-52 52-134 0-79-50-127-57-56-161-56h-65v-88h164v-56H216V0h-74v150H66v56h76v88H66v66h76v307h121m-47-70V360h61q75 0 112 39 29 32 29 84 0 48-28 76-37 38-119 38h-55Z" horiz-adv-x="568" vert-adv-y="1000"/><glyph glyph-name="uni20B9" unicode="₹" d="M263 667q121 0 177-56 52-52 52-134 0-79-50-127-57-56-161-56h-65v-88h164v-56H216V0h-74v150H66v56h76v88H66v66h76v307h121m-47-70V360h61q75 0 112 39 29 32 29 84 0 48-28 76-37 38-119 38h-55Z" horiz-adv-x="568" vert-adv-y="1000"/><glyph glyph-name="uni20BA" unicode="₺" d="M263 667q121 0 177-56 52-52 52-134 0-79-50-127-57-56-161-56h-65v-88h164v-56H216V0h-74v150H66v56h76v88H66v66h76v307h121m-47-70V360h61q75 0 112 39 29 32 29 84 0 48-28 76-37 38-119 38h-55Z" horiz-adv-x="568" vert-adv-y="1000"/><glyph glyph-name="uni20BB" unicode="₻" d="M263 667q121 0 177-56 52-52 52-134 0-79-50-127-57-56-161-56h-65v-88h164v-56H216V0h-74v150H66v56h76v88H66v66h76v307h121m-47-70V360h61q75 0 112 39 29 32 29 84 0 48-28 76-37 38-119 38h-55Z" horiz-adv-x="568" vert-adv-y="1000"/><glyph glyph-name="uni20BC" unicode="₼" d="M263 667q121 0 177-56 52-52 52-134 0-79-50-127-57-56-161-56h-65v-88h164v-56H216V0h-74v150H66v56h76v88H66v66h76v307h121m-47-70V360h61q75 0 112 39 29 32 29 84 0 48-28 76-37 38-119 38h-55Z" horiz-adv-x="568" vert-adv-y="1000"/><glyph glyph-name="uni20BD" unicode="₽" d="M263 667q121 0 177-56 52-52 52-134 0-79-50-127-57-56-161-56h-65v-88h164v-56H216V0h-74v150H66v56h76v88H66v66h76v307h121m-47-70V360h61q75 0 112 39 29 32 29 84 0 48-28 76-37 38-119 38h-55Z" horiz-adv-x="568" vert-adv-y="1000"/><glyph glyph-name="uni20BE" unicode="₾" d="M263 667q121 0 177-56 52-52 52-134 0-79-50-127-57-56-161-56h-65v-88h164v-56H216V0h-74v150H66v56h76v88H66v66h76v307h121m-47-70V360h61q75 0 112 39 29 32 29 84 0 48-28 76-37 38-119 38h-55Z" horiz-adv-x="568" vert-adv-y="1000"/><glyph glyph-name="uni20BF" unicode="₿" d="M263 667q121 0 177-56 52-52 52-134 0-79-50-127-57-56-161-56h-65v-88h164v-56H216V0h-74v150H66v56h76v88H66v66h76v307h121m-47-70V360h61q75 0 112 39 29 32 29 84 0 48-28 76-37 38-119 38h-55Z" horiz-adv-x="568" vert-adv-y="1000"/><glyph glyph-name="uni20C0" unicode="⃀" d="M263 667q121 0 177-56 52-52 52-134 0-79-50-127-57-56-161-56h-65v-88h164v-56H216V0h-74v150H66v56h76v88H66v66h76v307h121m-47-70V360h61q75 0 112 39 29 32 29 84 0 48-28 76-37 38-119 38h-55Z" horiz-adv-x="568" vert-adv-y="1000"/><glyph glyph-name="uni20C1" unicode="⃁" d="M263 667q121 0 177-56 52-52 52-134 0-79-50-127-57-56-161-56h-65v-88h164v-56H216V0h-74v150H66v56h76v88H66v66h76v307h121m-47-70V360h61q75 0 112 39 29 32 29 84 0 48-28 76-37 38-119 38h-55Z" horiz-adv-x="568" vert-adv-y="1000"/><glyph glyph-name="uni20C2" unicode="⃂" d="M263 667q121 0 177-56 52-52 52-134 0-79-50-127-57-56-161-56h-65v-88h164v-56H216V0h-74v150H66v56h76v88H66v66h76v307h121m-47-70V360h61q75 0 112 39 29 32 29 84 0 48-28 76-37 38-119 38h-55Z" horiz-adv-x="568" vert-adv-y="1000"/><glyph glyph-name="uni20C3" unicode="⃃" d="M263 667q121 0 177-56 52-52 52-134 0-79-50-127-57-56-161-56h-65v-88h164v-56H216V0h-74v150H66v56h76v88H66v66h76v307h121m-47-70V360h61q75 0 112 39 29 32 29 84 0 48-28 76-37 38-119 38h-55Z" horiz-adv-x="568" vert-adv-y="1000"/><glyph glyph-name="uni20C4" unicode="⃄" d="M263 667q121 0 177-56 52-52 52-134 0-79-50-127-57-56-161-56h-65v-88h164v-56H216V0h-74v150H66v56h76v88H66v66h76v307h121m-47-70V360h61q75 0 112 39 29 32 29 84 0 48-28 76-37 38-119 38h-55Z" horiz-adv-x="568" vert-adv-y="1000"/><glyph glyph-name="uni20C5" unicode="⃅" d="M263 667q121 0 177-56 52-52 52-134 0-79-50-127-57-56-161-56h-65v-88h164v-56H216V0h-74v150H66v56h76v88H66v66h76v307h121m-47-70V360h61q75 0 112 39 29 32 29 84 0 48-28 76-37 38-119 38h-55Z" horiz-adv-x="568" vert-adv-y="1000"/><glyph glyph-name="uni20C6" unicode="⃆" d="M263 667q121 0 177-56 52-52 52-134 0-79-50-127-57-56-161-56h-65v-88h164v-56H216V0h-74v150H66v56h76v88H66v66h76v307h121m-47-70V360h61q75 0 112 39 29 32 29 84 0 48-28 76-37 38-119 38h-55Z" horiz-adv-x="568" vert-adv-y="1000"/><glyph glyph-name="uni20C7" unicode="⃇" d="M263 667q121 0 177-56 52-52 52-134 0-79-50-127-57-56-161-56h-65v-88h164v-56H216V0h-74v150H66v56h76v88H66v66h76v307h121m-47-70V360h61q75 0 112 39 29 32 29 84 0 48-28 76-37 38-119 38h-55Z" horiz-adv-x="568" vert-adv-y="1000"/><glyph glyph-name="uni20C8" unicode="⃈" d="M263 667q121 0 177-56 52-52 52-134 0-79-50-127-57-56-161-56h-65v-88h164v-56H216V0h-74v150H66v56h76v88H66v66h76v307h121m-47-70V360h61q75 0 112 39 29 32 29 84 0 48-28 76-37 38-119 38h-55Z" horiz-adv-x="568" vert-adv-y="1000"/><glyph glyph-name="uni20C9" unicode="⃉" d="M263 667q121 0 177-56 52-52 52-134 0-79-50-127-57-56-161-56h-65v-88h164v-56H216V0h-74v150H66v56h76v88H66v66h76v307h121m-47-70V360h61q75 0 112 39 29 32 29 84 0 48-28 76-37 38-119 38h-55Z" horiz-adv-x="568" vert-adv-y="1000"/><glyph glyph-name="uni20CA" unicode="⃊" d="M263 667q121 0 177-56 52-52 52-134 0-79-50-127-57-56-161-56h-65v-88h164v-56H216V0h-74v150H66v56h76v88H66v66h76v307h121m-47-70V360h61q75 0 112 39 29 32 29 84 0 48-28 76-37 38-119 38h-55Z" horiz-adv-x="568" vert-adv-y="1000"/><glyph glyph-name="uni20CB" unicode="⃋" d="M263 667q121 0 177-56 52-52 52-134 0-79-50-127-57-56-161-56h-65v-88h164v-56H216V0h-74v150H66v56h76v88H66v66h76v307h121m-47-70V360h61q75 0 112 39 29 32 29 84 0 48-28 76-37 38-119 38h-55Z" horiz-adv-x="568" vert-adv-y="1000"/><glyph glyph-name="uni20CC" unicode="⃌" d="M263 667q121 0 177-56 52-52 52-134 0-79-50-127-57-56-161-56h-65v-88h164v-56H216V0h-74v150H66v56h76v88H66v66h76v307h121m-47-70V360h61q75 0 112 39 29 32 29 84 0 48-28 76-37 38-119 38h-55Z" horiz-adv-x="568" vert-adv-y="1000"/><glyph glyph-name="uni20CD" unicode="⃍" d="M263 667q121 0 177-56 52-52 52-134 0-79-50-127-57-56-161-56h-65v-88h164v-56H216V0h-74v150H66v56h76v88H66v66h76v307h121m-47-70V360h61q75 0 112 39 29 32 29 84 0 48-28 76-37 38-119 38h-55Z" horiz-adv-x="568" vert-adv-y="1000"/><glyph glyph-name="uni20CE" unicode="⃎" d="M263 667q121 0 177-56 52-52 52-134 0-79-50-127-57-56-161-56h-65v-88h164v-56H216V0h-74v150H66v56h76v88H66v66h76v307h121m-47-70V360h61q75 0 112 39 29 32 29 84 0 48-28 76-37 38-119 38h-55Z" horiz-adv-x="568" vert-adv-y="1000"/><glyph glyph-name="uni20CF" unicode="⃏" d="M263 667q121 0 177-56 52-52 52-134 0-79-50-127-57-56-161-56h-65v-88h164v-56H216V0h-74v150H66v56h76v88H66v66h76v307h121m-47-70V360h61q75 0 112 39 29 32 29 84 0 48-28 76-37 38-119 38h-55Z" horiz-adv-x="568" vert-adv-y="1000"/><glyph glyph-name="uni20B8" unicode="₸" d="M483 487H321V0h-74v487H85v70h398v-70m0 120H85v60h398v-60Z" horiz-adv-x="568" vert-adv-y="1000"/><glyph glyph-name="uni2116" unicode="№" d="M160 0H86v695l466-529v501h74V-30L160 499V0m582 625 21 21q21 21 82 21t103-42q42-42 42-103t-42-103q-42-42-103-42t-103 42q-42 42-42 103t42 103m103-193q36 0 60.5 26.5T930 522q0 37-24.5 63.5T845 612q-35 0-60-26.5T760 522q0-37 25-63.5t60-26.5M720 227v70h250v-70H720Z" horiz-adv-x="1020" vert-adv-y="1000"/><glyph glyph-name="uni2117" unicode="℗" d="M263 519h74q80 0 110-31 28-28 28-77t-28-77q-31-31-99-31h-31V145h-54v374m54-48V351h22q47 0 65 17 17 15 17 44 0 26-13 40-17 19-71 19h-20m398-139q0-138-94-238Q520-13 370-13T119 94Q25 194 25 332q0 137 94 237 101 107 251 107t251-107q94-100 94-237M479 598l-27.5 11Q424 620 370 620t-109-22q-55-22-94-60-41-40-63.5-95T81 332q0-57 22.5-112t63.5-95q39-38 94-60t109-22q54 0 109 22t94 60q41 40 63.5 95T659 332q0 56-22.5 111T573 538q-39 38-94 60Z" horiz-adv-x="740" vert-adv-y="1000"/><glyph glyph-name="uni2122" unicode="™" d="M234 621h-90V287H94v334H4v46h230v-46m82-334h-46l65 404 143-315 147 315 61-404h-46l-35 257-127-276-125 276-37-257Z" horiz-adv-x="722" vert-adv-y="1000"/><glyph glyph-name="uni2202" unicode="∂" d="m83 604 17 69q128-12 219-77 35-25 67.5-62.5T437 462q45-87 45-213 0-101-41-165-61-96-179-96-98 0-159 64.5T42 212q0 96 59 160.5T256 437q85 0 133-48h2q-31 98-124 157-78 50-184 58m325-386q0 65-39 110t-104 45q-66 0-107.5-46T116 210q0-74 44-116t102-42q64 0 105 48.5T408 218Z" horiz-adv-x="524" vert-adv-y="1000"/><glyph glyph-name="uni220F" unicode="∏" d="M36 684v66h626v-66h-78v-868h78v-66H428v66h82v868H188v-868h81v-66H36v66h78v868H36Z" horiz-adv-x="698" vert-adv-y="1000"/><glyph glyph-name="uni2211" unicode="∑" d="M32 750h574V535h-74v149H130l238-413-242-455h414v147h74v-213H32v46l252 476L32 704v46Z" horiz-adv-x="686" vert-adv-y="1000"/><glyph glyph-name="uni2212" unicode="−" d="M33 300v66h434v-66H33Z" horiz-adv-x="500" vert-adv-y="1000"/><glyph glyph-name="uni2215" unicode="∕" d="m0-170 514 929 58-30L58-198 0-170Z" horiz-adv-x="592" vert-adv-y="1000"/><glyph glyph-name="uni2219" unicode="∙" d="m55 295-9.5 9.5Q36 314 36 340t19 45q19 19 45 19t45-19q19-19 19-45t-19-45q-19-19-45-19t-45 19Z" horiz-adv-x="200" vert-adv-y="1000"/><glyph glyph-name="uni221A" unicode="√" d="M409 827h259v-66H469L254 0h-89L83 300H0v66h141l70-268h2l196 729Z" horiz-adv-x="668" vert-adv-y="1000"/><glyph glyph-name="uni221E" unicode="∞" d="M336 292q-26-42-68.5-73.5T171 187q-67 0-109.5 43T19 341q0 66 42.5 109T171 493q51 0 93-30.5t69-74.5q26 42 68 73.5t98 31.5q66 0 108-43t42-111q0-67-42-109.5T499 187q-55 0-97 31.5T336 292m153 137q-37 0-68-27.5T370 340q20-38 53.5-63.5T490 251q35 0 60 24.5t25 64.5q0 37-24 63t-62 26M179 251q38 0 69 27.5t50 61.5q-19 37-51.5 63T178 429q-38 0-61.5-26T93 339q0-42 26.5-65t59.5-23Z" horiz-adv-x="668" vert-adv-y="1000"/><glyph glyph-name="uni222B" unicode="∫" d="m404 739-16-64q-21 11-47 11-27 0-40-15-14-15-14-87V-84q0-32-.5-47.5t-7-39.5q-6.5-24-19.5-40-33-39-97-39-34 0-67 11l16 64q21-11 47-11 27 0 40 15 14 15 14 87v668q0 32 .5 47.5t7 39.5q6.5 24 19.5 40 33 39 97 39 34 0 67-11Z" horiz-adv-x="500" vert-adv-y="1000"/><glyph glyph-name="uni2248" unicode="≈" d="m446 488 44-26q-19-44-50-73-39-39-96-39-34 0-108 34-69 32-95 32-29 0-52-20-19-16-35-52l-44 26q23 49 48 78 34 38 87 38 42 0 113-34 69-32 95-32 37 0 61 24 19 17 32 44m0-166 44-26q-19-44-50-73-39-39-96-39-34 0-108 34-69 32-95 32-29 0-52-20-19-16-35-52l-44 26q23 49 48 78 34 38 87 38 42 0 113-34 69-32 95-32 37 0 61 24 19 17 32 44Z" horiz-adv-x="500" vert-adv-y="1000"/><glyph glyph-name="uni2260" unicode="≠" d="M33 384v66h240l55 114h59l-54-114h134v-66H301l-42-88h208v-66H227l-54-114h-60l55 114H33v66h166l43 88H33Z" horiz-adv-x="500" vert-adv-y="1000"/><glyph glyph-name="uni2264" unicode="≤" d="m110 377 357-159v-68L33 346v62l434 196v-68L110 377M467 55H33v66h434V55Z" horiz-adv-x="500" vert-adv-y="1000"/><glyph glyph-name="uni2265" unicode="≥" d="M390 377 33 536v68l434-196v-62L33 150v68l357 159m77-322H33v66h434V55Z" horiz-adv-x="500" vert-adv-y="1000"/><glyph glyph-name="uni22C5" unicode="⋅" d="m55 295-9.5 9.5Q36 314 36 340t19 45q19 19 45 19t45-19q19-19 19-45t-19-45q-19-19-45-19t-45 19Z" horiz-adv-x="200" vert-adv-y="1000"/><glyph glyph-name="uni25CA" unicode="◊" d="m74 334 260 360 260-360L334-26 74 334m436 0L334 577 158 334 334 91l176 243Z" horiz-adv-x="680" vert-adv-y="1000"/><glyph glyph-name="uni25E6" unicode="◦" d="m147.5 432.5-19.75 19.75Q108 472 108 531t39.5 98.5Q187 669 246 669t98.5-39.5Q384 590 384 531t-39.5-98.5Q305 393 246 393t-98.5 39.5m38 166-13.75-12.25Q158 574 158 531t27.5-67.5Q213 439 246 439t60.5 24.5Q334 488 334 531t-27.5 67.5Q279 623 246 623t-60.5-24.5Z" horiz-adv-x="493" vert-adv-y="1000"/><glyph glyph-name="uniF400" unicode="" d="m-186 666 74-34-134-135-45 24 105 145Z" horiz-adv-x="2" vert-adv-y="1000"/><glyph glyph-name="uniF401" unicode="" d="m-236 882 70-45-153-117-43 32 126 130Z" horiz-adv-x="2" vert-adv-y="1000"/><glyph glyph-name="uniF406" unicode="" d="M339 841h66q-7-39-31-67-46-53-124-53t-124 53q-24 28-31 67h66q7-22 25-36 26-20 64-20t64 20q18 14 25 36Z" horiz-adv-x="500" vert-adv-y="1000"/><glyph glyph-name="uniF407" unicode="" d="m264-52 70-30-104-128-50 26 84 132Z" horiz-adv-x="500" vert-adv-y="1000"/><glyph glyph-name="uniF408" unicode="" d="m250 797-88-76-52 41 140 119 140-119-52-41-88 76Z" horiz-adv-x="500" vert-adv-y="1000"/><glyph glyph-name="uniF409" unicode="" d="m168-210 56 160 64-24-70-156-50 20Z" horiz-adv-x="500" vert-adv-y="1000"/><glyph glyph-name="uniF40A" unicode="" d="m190 520 52 160 64-24-70-156-46 20Z" horiz-adv-x="500" vert-adv-y="1000"/><glyph glyph-name="uniF40B" unicode="" d="m210.5 744.5-7.75 7.75Q195 760 195 784t15.5 39.5Q226 839 250 839t39.5-15.5Q305 808 305 784t-15.5-39.5Q274 729 250 729t-39.5 15.5Z" horiz-adv-x="500" vert-adv-y="1000"/><glyph glyph-name="uniF40C" unicode="" d="m188 756-13 13q-13 13-13 49t26 62q26 26 62 26t62-26q26-26 26-62t-26-62q-26-26-62-26t-62 26m33 92.5-6.5-6.25Q208 836 208 819t13-29.5q13-12.5 29-12.5t29 12.5q13 12.5 13 29.5t-13 29.5Q266 861 250 861t-29-12.5Z" horiz-adv-x="500" vert-adv-y="1000"/><glyph glyph-name="uniF40D" unicode="" d="m362 842 43-35q-9-24-26-41-30-31-70-31-23 0-67 22-42 20-56 20-17 0-30-13-13-15-17-31l-44 36q10 26 30 45 27 27 63 27 26 0 68-21 40-21 56-21 18 0 32 14 12 12 18 29Z" horiz-adv-x="500" vert-adv-y="1000"/><glyph glyph-name="uniF40E" unicode="" d="m366-117-8-59q-28-14-59-14-39 0-68 23.5T202-103q0 34 24 64 18 23 48 39h62q-32-21-47-39-23-28-23-51 0-40 52-40 26 0 48 13Z" horiz-adv-x="500" vert-adv-y="1000"/><glyph glyph-name="uniF460" unicode="" d="m532 0-78 188H170L90 0H8l307 699L614 0h-82M199 258h226L313 525 199 258m194 624 70-45-153-117-43 32 126 130Z" horiz-adv-x="622" vert-adv-y="1000"/><glyph glyph-name="uniF461" unicode="" d="M432 667v-70H160V399h264v-70H160V70h272V0H86v667h346M323 882l70-45-153-117-43 32 126 130Z" horiz-adv-x="482" vert-adv-y="1000"/><glyph glyph-name="uniF462" unicode="" d="M550 0v509L86-30v697h74V156l464 539V0h-74M437 882l70-45-153-117-43 32 126 130Z" horiz-adv-x="710" vert-adv-y="1000"/><glyph glyph-name="uniF463" unicode="" d="m643.5 87-50.25-49.5Q543-12 397-12T150.5 87Q50 186 50 333q0 148 101 246.5T397 678q145 0 246-98.5T744 333q0-147-100.5-246M589 528l-39.5 40Q510 608 397 608t-192-80q-79-80-79-195t79-195q79-80 192-80t192 80q79 80 79 195t-79 195M479 882l70-45-153-117-43 32 126 130Z" horiz-adv-x="794" vert-adv-y="1000"/><glyph glyph-name="uniF464" unicode="" d="M8 667h90l208-393 174 393h80L259 0h-80l85 186L8 667m358 215 70-45-153-117-43 32 126 130Z" horiz-adv-x="568" vert-adv-y="1000"/><glyph glyph-name="uniF465" unicode="" d="M86 0v667h74V390h90q230 0 230-188 0-94-58.5-148T264 0H86m74 320V70h86q85 0 123 37 35 33 35 95 0 72-54 101-31 17-112 17h-78m390 347h74V0h-74v667M437 882l70-45-153-117-43 32 126 130Z" horiz-adv-x="710" vert-adv-y="1000"/><glyph glyph-name="uniF466" unicode="" d="M50 520v92q96 66 217 66 149 0 238.5-97.5T595 331q0-149-88-246T271-12Q151-12 50 53v92q30-31 77-54 69-33 144-33 101 0 175 71t73 181H130v70h386q-8 97-75.5 162.5T272 608q-71 0-135-28-51-24-87-60m288 362 70-45-153-117-43 32 126 130Z" horiz-adv-x="645" vert-adv-y="1000"/><glyph glyph-name="uniF467" unicode="" d="M160 389h102q18 125 111.5 207T599 678q148 0 244.5-97T940 333q0-149-97-247T599-12q-145 0-240 97T259 319h-99V0H86v667h74V389m627 140-38.5 39.5Q710 608 599 608t-187.5-79Q335 450 335 333t76.5-196Q488 58 599 58t188 79q77 79 77 196t-77 196M577 882l70-45-153-117-43 32 126 130Z" horiz-adv-x="990" vert-adv-y="1000"/><glyph glyph-name="uniF468" unicode="" d="m30 0 196 296q-68 7-112 42-58 47-58 136 0 82 46 133 54 60 166 60h156V0h-74v292h-40L120 0H30m320 597h-72q-80 0-114-35-32-34-32-86 0-59 38-90 36-28 102-28h78v239m-13 285 70-45-153-117-43 32 126 130Z" horiz-adv-x="510" vert-adv-y="1000"/><glyph glyph-name="uniF469" unicode="" d="M432 667v-70H160V399h264v-70H160V70h272V0H86v667h346M291 882l55-37-124-118-34 25 103 130M86 793q0 21 13.5 34.5T134 841q23 0 36-15t13-33q0-20-14.5-34.5T134 744q-18 0-33 13t-15 36m249 0q0 18 13 33t36 15q21 0 34.5-13.5T432 793q0-23-15-36t-33-13q-20 0-34.5 14.5T335 793Z" horiz-adv-x="482" vert-adv-y="1000"/><glyph glyph-name="uniF46A" unicode="" d="M386 356v59h72V0h-72v58q-54-70-142-70-84 0-143 58T42 208q0 102 58.5 159.5T244 425q90 0 142-69m-134 5q-57 0-96.5-40.5T116 208q0-69 36.5-112.5T252 52q63 0 100.5 45T390 207q0 74-42 114t-96 40m73 305 74-34-134-135-45 24 105 145Z" horiz-adv-x="526" vert-adv-y="1000"/><glyph glyph-name="uniF46B" unicode="" d="m376 139 60-33q-21-40-51-67-57-51-138-51-84 0-144.5 54.5T42 205q0 95 54.5 157.5T243 425q104 0 157-76 42-60 39-156H116q1-63 39-102t93-39q49 0 85 30 28 24 43 57M121 253h244q-9 49-42.5 78.5T243 361q-45 0-79.5-30.5T121 253m181 413 74-34-134-135-45 24 105 145Z" horiz-adv-x="481" vert-adv-y="1000"/><glyph glyph-name="uniF46C" unicode="" d="M68 415h72V141l284 306V0h-72v277L68-29v444m240 251 74-34-134-135-45 24 105 145Z" horiz-adv-x="492" vert-adv-y="1000"/><glyph glyph-name="uniF46D" unicode="" d="m419.5 50-31.25-31Q357-12 262-12T104.5 50Q42 112 42 206q0 95 62.5 157T262 425q95 0 157.5-62T482 206q0-94-62.5-156m-54 270-21.25 20.5Q323 361 262 361t-103.5-41.5Q116 278 116 206t43-113q43-41 103-41t103 41q43 41 43 113 0 73-42.5 114M324 666l74-34-134-135-45 24 105 145Z" horiz-adv-x="524" vert-adv-y="1000"/><glyph glyph-name="uniF46E" unicode="" d="M67-230 199 39 8 415h82l147-297 135 297h80L147-230H67m225 896 74-34-134-135-45 24 105 145Z" horiz-adv-x="460" vert-adv-y="1000"/><glyph glyph-name="uniF46F" unicode="" d="M68 0v415h72V256h74q86 0 126-41 32-32 32-87 0-58-37-93T213 0H68m72 64h67q45 0 64 11 27 18 27 53 0 36-26 52-18 12-64 12h-68V64M422 0v415h72V0h-72m-79 666 74-34-134-135-45 24 105 145Z" horiz-adv-x="562" vert-adv-y="1000"/><glyph glyph-name="uniF470" unicode="" d="M42 334v70q52 21 113 21 105 0 165.5-61T381 205q0-95-61.5-156T160-12Q98-12 42 11v70q55-29 117-29 58 0 100 35.5t48 92.5H88v64h219q-12 55-53 86t-96 31q-58 0-116-27m181 332 74-34-134-135-45 24 105 145Z" horiz-adv-x="423" vert-adv-y="1000"/><glyph glyph-name="uniF471" unicode="" d="M140 245h75q10 70 56 118 59 62 157 62 96 0 158-62t62-157q0-94-62.5-156T428-12q-109 0-171 78-40 50-46 113h-71V0H68v415h72V245m288 116q-60 0-101.5-41.5T285 206q0-73 42-113.5T428 52q60 0 103 41t43 113q0 72-42.5 113.5T428 361m-21 305 74-34-134-135-45 24 105 145Z" horiz-adv-x="690" vert-adv-y="1000"/><glyph glyph-name="uniF472" unicode="" d="m20 0 129 171q-6 0-16.5 2T102 183q-20 8-33 21-33 31-33 83 0 59 37 93 37 35 122 35h145V0h-72v167h-44L106 0H20m248 227v124h-67q-47 0-65-11-26-17-26-51t26-50q19-12 64-12h68m-2 439 74-34-134-135-45 24 105 145Z" horiz-adv-x="408" vert-adv-y="1000"/><glyph glyph-name="uniF473" unicode="" d="m376 139 60-33q-21-40-51-67-56-51-138-51-90 0-144 54-61 60-61 163 0 107 66 169 54 51 135 51 106 0 157-76 42-60 39-156H116q-1-62 42-105 36-36 90-36 51 0 85 30 28 24 43 57M121 253h244q-7 41-37 73-35 35-85 35t-85-37q-28-28-37-71M93 515l-7.5 7.5Q78 530 78 550t15 35q15 15 35 15t35-15q15-15 15-35t-15-35q-15-15-35-15t-35 15m230 0-7.5 7.5Q308 530 308 550t15 35q15 15 35 15t35-15q15-15 15-35t-15-35q-15-15-35-15t-35 15m-32 151 61-27-134-135-32 17 105 145Z" horiz-adv-x="481" vert-adv-y="1000"/><glyph glyph-name="uniF4C6" unicode="" d="M430 667h74V-86q0-79-34-113-31-31-87-31-32 0-55 9v72q19-9 42-9 30 0 44 13 16 15 16 57v374q-93-7-138-7-119 0-165 36-61 47-61 155v197h74V480q0-81 40-110 28-21 116-21 59 0 134 7v311Z" horiz-adv-x="590" vert-adv-y="1000"/><glyph glyph-name="uniF4C7" unicode="" d="M290 415h72V-72q0-28-1-43.5t-8.5-39Q345-178 330-195q-31-35-91-35-27 0-51 9v70q25-9 47-9 32 0 46 22 9 15 9 60v241q-59-9-98-9-68 0-101 30-35 31-35 102v129h72V296q0-34 9-49 14-27 63-27 44 0 90 9v186Z" horiz-adv-x="430" vert-adv-y="1000"/><glyph glyph-name="uniF4CC" unicode="" d="M8 667h90l208-393 174 393h80L259 0h-80l85 186L8 667m358 215 70-45-153-117-43 32 126 130Z" horiz-adv-x="568" vert-adv-y="1000"/><glyph glyph-name="uniF4CD" unicode="" d="M67-230 199 39 8 415h82l147-297 135 297h80L147-230H67m225 896 74-34-134-135-45 24 105 145Z" horiz-adv-x="460" vert-adv-y="1000"/><glyph glyph-name="uniF5F5" unicode="" d="m402 574-59-39q-15 30-38 50-19 17-43 21V384q79-31 117-70 47-48 47-121 0-72-44-130.5T262-8v-93h-60v89Q127-9 74 42 28 88 12 160l72 20q8-52 40-85 34-35 78-37v274q-72 29-110 65-46 43-46 109 0 70 45 117t111 53v87h60v-87q42-4 76-28 40-28 64-74M262 304V62q40 11 64 48t24 80q0 47-32 79-21 21-56 35m-60 107v195q-39-6-60.5-34T120 507q0-35 25-60 22-22 57-36Z" horiz-adv-x="442" vert-adv-y="1000"/><glyph glyph-name="uniF5F6" unicode="" d="m554 622-33-67q-63 53-151 53-39 0-72.5-12.5T243 565q-21-18-37.5-42t-25-43.5Q172 460 167 440h319l-26-66H155q-6-39-1-78h281l-26-66H165q15-76 70-124t137-48q100 0 182 77V43q-82-55-186-55-122 0-195 69.5T85 230H18l26 66h34q-5 41 1 78H18l26 66h43q21 100 96 169t192 69q99 0 179-56Z" horiz-adv-x="587" vert-adv-y="1000"/><glyph glyph-name="uniF5F7" unicode="" d="M258 655v-97q58-7 105-39v-86q-45 54-105 61V188q62 7 108 63v-86q-48-35-108-42V14h-60v111q-76 11-127 61-59 57-59 153t62 158q49 49 124 59v99h60m-60-466v302q-40-5-69-34-43-43-43-117 0-71 44-115 27-27 68-36Z" horiz-adv-x="383" vert-adv-y="1000"/><glyph glyph-name="uniF5F8" unicode="" d="M468 458h-73v10q0 70-36 106-32 32-85 32-52 0-83-31-37-35-37-88 0-12 2.5-25t5-22.5q2.5-9.5 9-24.5t10.5-22.5q4-7.5 13-25.5l13-26 14-28h126v-56H246q11-29 11-61 0-48-29-94l59-22q54-21 70-21 30 0 53 22 20 20 31 47l61-36q-18-42-49-68-41-35-89-35-40 0-86 18l-39 15q-50 19-75 19-30 0-53-18Q89 6 81-13L24 26q24 36 47 55 36 30 82 30 28 42 28 86 0 30-13 60H56v56h86l-20 37q-44 81-44 139 0 81 53 134t144 53q83 0 133-50 60-58 60-159v-9Z" horiz-adv-x="526" vert-adv-y="1000"/><glyph glyph-name="uniF5F9" unicode="" d="M507 384H366l-51-88h192v-56H309V0h-74v240H40v56h189l-51 88H40v56h106L15 667h87l170-298 172 298h87L398 440h109v-56Z" horiz-adv-x="546" vert-adv-y="1000"/><glyph glyph-name="uniF5FA" unicode="" d="M415 355H307L246 26q-6-35-11.5-55.5T216-77q-13-27-32-46-48-47-139-47-18 0-42 4l14 64q14-2 25-2 59 0 89 29 31 31 48 128l55 302h-72l9 60h74l33 179q14 78 49 113 33 33 92 33 34 0 64-10l-13-67q-26 11-46 11-26 0-44-16-20-20-32-84l-30-159h106l-9-60Z" horiz-adv-x="481" vert-adv-y="1000"/><glyph glyph-name="uniF5FB" unicode="" d="m112 535-59 39q35 45 79 71 55 33 127 33 70 0 112-36 42-35 42-89 0-62-49-113h93v-56H319l-89-88h227v-56H179q-45-42-45-100 0-34 25-57 27-25 74-25 56 0 97 38 30 29 49 74l68-30q-20-55-59-92-61-60-159-60-74 0-118 33-53 42-53 114 0 57 39 105H20v56h122l89 88H20v56h262q57 50 57 95 0 30-22 50-24 23-71 23-43 0-77-22-33-21-57-51Z" horiz-adv-x="477" vert-adv-y="1000"/><glyph glyph-name="uniF5FC" unicode="" d="M215 667q121 0 177-56 52-52 52-134 0-79-50-127-57-56-161-56h-65v-88h164v-56H168V0H94v150H18v56h76v88H18v66h76v307h121m-47-70V360h61q75 0 112 39 29 32 29 84 0 48-28 76-37 38-119 38h-55Z" horiz-adv-x="453" vert-adv-y="1000"/><glyph glyph-name="uniF5FD" unicode="" d="M403 487H241V0h-74v487H5v70h398v-70m0 120H5v60h398v-60Z" horiz-adv-x="408" vert-adv-y="1000"/><glyph glyph-name="uniF639" unicode="" d="M436 88Q367-12 265-12T94 88q-67 97-67 245t67 245q69 100 171 100t171-100q67-97 67-245T436 88m-56 448q-46 74-115 74t-115-74q-49-78-49-203t49-203q46-74 115-74t115 74q49 78 49 203t-49 203Z" horiz-adv-x="530" vert-adv-y="1000"/><glyph glyph-name="uniF63A" unicode="" d="M454 0H23l243 281q62 73 78 97 37 53 37 102 0 57-37 93.5T248 610q-72 0-111-59-21-32-22-79H41q4 85 50 138 59 68 158 68 89 0 147.5-56.5T455 479q0-67-53-143-27-37-91-111L172 68h282V0Z" horiz-adv-x="480" vert-adv-y="1000"/><glyph glyph-name="uniF63B" unicode="" d="M118 502H44q3 53 31 98 50 78 155 78 89 0 138.5-53T418 498q0-105-86-148 13-5 25.5-13.5T388 310q18-18 29-49.5t11-71.5q0-91-58.5-146T223-12q-59 0-110 27.5T37 103q-13 32-15 70h74q5-41 24-67 34-50 103-50 55 0 93 39.5t38 95.5q0 82-66 112-33 16-76 14v66q43-3 76 14 56 29 56 99 0 49-28 81.5T230 610q-56 0-86-38-23-30-26-70Z" horiz-adv-x="457" vert-adv-y="1000"/><glyph glyph-name="uniF63C" unicode="" d="M417 704V194h82v-68h-82V0h-74v126H1l416 578M132 194h211v295L132 194Z" horiz-adv-x="520" vert-adv-y="1000"/><glyph glyph-name="uniF63D" unicode="" d="M459 667v-68H245l-43-144q17 4 42 4 99 0 159.5-66T464 228q0-108-70.5-174T221-12q-86 0-149 52-36 31-58 68l59 42q15-30 45-54 49-40 108-40 70 0 117 50t47 121q0 72-46.5 118T226 391q-63 0-129-46l97 322h265Z" horiz-adv-x="490" vert-adv-y="1000"/><glyph glyph-name="uniF63E" unicode="" d="m298 683 56-42-153-213q28 9 59 9 95 0 155.5-63T476 217q0-100-64.5-164.5T247-12q-74 0-128.5 35.5t-78.5 86Q16 160 16 215q0 76 55 153l227 315M246 56q68 0 112 45.5T402 215q0 67-44.5 110.5T245 369q-68 0-111.5-44T90 215q0-68 43.5-113.5T246 56Z" horiz-adv-x="496" vert-adv-y="1000"/><glyph glyph-name="uniF63F" unicode="" d="m22 23 379 576H36v68h490L80-16 22 23Z" horiz-adv-x="528" vert-adv-y="1000"/><glyph glyph-name="uniF640" unicode="" d="M335 347q101-45 101-163 0-83-53.5-139.5T232-12q-97 0-150.5 56.5T28 184q0 118 101 163-81 47-81 146 0 76 49 130.5T232 678q86 0 135-54.5T416 493q0-99-81-146m-184.5 63 16.25-16.5Q183 377 232 377t81.5 33q32.5 33 32.5 82 0 53-33.5 85.5T232 610q-47 0-80.5-32.5T118 492q0-49 32.5-82M138 92.5l18-18.25Q174 56 232 56t94 36.5q36 36.5 36 93.5 0 56-36.5 91.5T232 313q-57 0-93.5-35.5T102 186q0-57 36-93.5Z" horiz-adv-x="464" vert-adv-y="1000"/><glyph glyph-name="uniF641" unicode="" d="m198-16-56 41 153 213q-29-9-59-9-95 0-155.5 63T20 449q0 100 64.5 164.5T249 678q74 0 128.5-35.5t78.5-86Q480 506 480 451q0-77-55-153L198-16m52 626q-68 0-112-45.5T94 451q0-67 44.5-110.5T251 297q68 0 111.5 44T406 451q0 68-43.5 113.5T250 610Z" horiz-adv-x="496" vert-adv-y="1000"/><glyph glyph-name="uniF6BA" unicode="" d="M50 302v74h220v-74H50Z" horiz-adv-x="320" vert-adv-y="1000"/><glyph glyph-name="uniF6BB" unicode="" d="M70 307v64h440v-64H70Z" horiz-adv-x="580" vert-adv-y="1000"/><glyph glyph-name="uniF6BC" unicode="" d="M70 307v64h660v-64H70Z" horiz-adv-x="800" vert-adv-y="1000"/><glyph glyph-name="uniF6C3" unicode="" d="m170-210 56 160 64-24-70-156-50 20Z" horiz-adv-x="500" vert-adv-y="1000"/><glyph glyph-name="uniF6C9" unicode="" d="m332 882 70-45-153-117-43 32 126 130Z" horiz-adv-x="500" vert-adv-y="1000"/><glyph glyph-name="uniF6CA" unicode="" d="m250 805 88 76 52-41-140-119-140 119 52 41 88-76Z" horiz-adv-x="500" vert-adv-y="1000"/><glyph glyph-name="uniF6CB" unicode="" d="m119 748-7.5 7.5Q104 763 104 784t15 36q15 15 36 15t36-15q15-15 15-36t-15-36q-15-15-36-15t-36 15m190 0-7.5 7.5Q294 763 294 784t15 36q15 15 36 15t36-15q15-15 15-36t-15-36q-15-15-36-15t-36 15Z" horiz-adv-x="500" vert-adv-y="1000"/><glyph glyph-name="uniF6CE" unicode="" d="M251 720 98 837l70 45 126-130-43-32Z" horiz-adv-x="500" vert-adv-y="1000"/><glyph glyph-name="uniF6CF" unicode="" d="m254 882 70-40-147-122-43 26 120 136m150 0 70-40-147-122-43 26 120 136Z" horiz-adv-x="500" vert-adv-y="1000"/><glyph glyph-name="uniF6D0" unicode="" d="M90 733v64h320v-64H90Z" horiz-adv-x="500" vert-adv-y="1000"/><glyph glyph-name="uniF6D1" unicode="" d="m95 818 70 23q6-19 18.5-31.5t28-17q15.5-4.5 23.5-6t15-1.5q7 0 15 1.5t23.5 6q15.5 4.5 28 17T335 841l70-23q-4-11-11.5-23T369 764q-17-19-48-31t-71-12q-40 0-71 12t-48 31q-17 19-24.5 31T95 818Z" horiz-adv-x="500" vert-adv-y="1000"/><glyph glyph-name="uniF6D4" unicode="" d="m105 594 60 23q18-60 85-60t85 60l60-23q-16-45-54.5-71T250 497q-52 0-90.5 26T105 594Z" horiz-adv-x="500" vert-adv-y="1000"/><glyph glyph-name="uniF6DC" unicode="" d="M114 0v597H2l39 70h147V0h-74Z" horiz-adv-x="229" vert-adv-y="1000"/><glyph glyph-name="uniF6DE" unicode="" d="M52 181v64h495v-64H52Z" horiz-adv-x="600" vert-adv-y="1000"/><glyph glyph-name="uniFB01" unicode="ﬁ" d="M244 349H142V0H70v349H30v66h40v156q0 75 24 109 41 61 137 61 98 0 137-61 24-39 24-109v-17h-72v17q0 43-14 65-21 32-75 32t-75-32q-14-20-14-65V415h102v-66m76 66h72V0h-72v415Z" horiz-adv-x="460" vert-adv-y="1000"/><glyph glyph-name="uniFB02" unicode="ﬂ" d="M244 349H142V0H70v349H30v66h40v156q0 75 24 109 41 61 137 61 98 0 137-61 24-39 24-109V0h-72v571q0 43-14 65-21 32-75 32t-75-32q-14-20-14-65V415h102v-66Z" horiz-adv-x="460" vert-adv-y="1000"/></font>
</defs>
</svg>
