<svg width="32" height="32" fill="none" xmlns="http://www.w3.org/2000/svg"><path fill-rule="evenodd" clip-rule="evenodd" d="M16 0C7.163 0 0 7.163 0 16s7.163 16 16 16 16-7.163 16-16S24.837 0 16 0Zm-3.518 7.518c.91-.041 1.201-.051 3.519-.051h-.003c2.318 0 2.608.01 3.518.051.909.042 1.53.186 2.073.397a4.17 4.17 0 0 1 1.511.984c.475.474.767.95.985 1.511.21.543.354 1.163.397 2.071.04.91.051 1.201.051 3.519s-.01 2.608-.051 3.518c-.043.908-.187 1.528-.397 2.071a4.19 4.19 0 0 1-.985 1.512c-.474.474-.95.767-1.51.984-.543.212-1.164.355-2.072.397-.91.041-1.2.051-3.518.051-2.318 0-2.608-.01-3.519-.051-.908-.042-1.528-.185-2.071-.397a4.178 4.178 0 0 1-1.511-.985 4.181 4.181 0 0 1-.984-1.511c-.211-.543-.355-1.163-.397-2.071-.041-.91-.051-1.2-.051-3.518 0-2.318.01-2.608.051-3.519.04-.908.185-1.528.396-2.07A4.19 4.19 0 0 1 8.9 8.898c.475-.475.95-.766 1.512-.984.543-.211 1.163-.355 2.071-.397Z" fill="#007D75"/><path fill-rule="evenodd" clip-rule="evenodd" d="M15.236 9.004h.765c2.279 0 2.549.008 3.449.05.832.037 1.283.176 1.584.293.398.155.682.34.98.638.3.299.484.583.64.982.116.3.255.752.293 1.584.041.9.05 1.17.05 3.447s-.009 2.547-.05 3.447c-.038.832-.177 1.284-.294 1.584-.154.398-.34.682-.638.98a2.638 2.638 0 0 1-.98.638c-.301.118-.753.256-1.585.295-.9.04-1.17.05-3.448.05-2.28 0-2.55-.01-3.449-.05-.832-.039-1.283-.178-1.584-.295a2.644 2.644 0 0 1-.982-.638 2.644 2.644 0 0 1-.638-.98c-.117-.301-.256-.753-.294-1.585-.041-.9-.05-1.17-.05-3.448 0-2.28.009-2.548.05-3.447.038-.832.177-1.284.294-1.585.154-.398.34-.683.638-.981.3-.299.583-.484.982-.639.3-.117.752-.256 1.584-.294.787-.036 1.093-.046 2.683-.048v.002Zm5.32 1.417a1.024 1.024 0 1 0 0 2.048 1.024 1.024 0 0 0 0-2.048ZM11.62 16a4.382 4.382 0 1 1 8.765 0 4.382 4.382 0 0 1-8.765 0Z" fill="#007D75"/><path d="M16 13.156a2.845 2.845 0 1 1 0 5.69 2.845 2.845 0 0 1 0-5.69Z" fill="#007D75"/></svg>