<svg width="34" height="24" fill="none" xmlns="http://www.w3.org/2000/svg"><rect x=".3" y=".3" width="33.4" height="23.4" rx="3.7" fill="#fff" stroke="#DCE4F1" stroke-width=".6"/><path d="M20.113 17.385h-6.068V6.307h6.068v11.078Z" fill="#FF5F00"/><path d="M14.433 11.845a7.074 7.074 0 0 1 2.649-5.54A6.837 6.837 0 0 0 12.796 4.8c-3.83 0-6.935 3.155-6.935 7.046 0 3.891 3.105 7.046 6.935 7.046a6.837 6.837 0 0 0 4.286-1.507 7.075 7.075 0 0 1-2.649-5.54Z" fill="#EB001B"/><path d="M28.297 11.845c0 3.891-3.105 7.046-6.935 7.046a6.839 6.839 0 0 1-4.286-1.507 7.074 7.074 0 0 0 2.65-5.54 7.074 7.074 0 0 0-2.65-5.538 6.839 6.839 0 0 1 4.286-1.507c3.83 0 6.935 3.155 6.935 7.046Z" fill="#F79E1B"/></svg>