<svg width="130" height="48" fill="none" xmlns="http://www.w3.org/2000/svg"><g clip-path="url(#a)"><path d="M10.768 38.013a.737.737 0 0 1-.71-.545.722.722 0 0 1-.01-.317l1.444-7.62a.718.718 0 0 1 .202-.38l17.684-17.554a.732.732 0 0 1 .383-.2l7.676-1.433a.737.737 0 0 1 .836.5.724.724 0 0 1 .02.349l-1.445 7.62a.723.723 0 0 1-.201.38L18.964 36.366a.727.727 0 0 1-.382.2L10.905 38a.743.743 0 0 1-.137.013Zm26.804-27.588a.306.306 0 0 0-.049.005l-7.676 1.433a.255.255 0 0 0-.133.07L12.033 29.488a.255.255 0 0 0-.07.132l-1.444 7.62a.247.247 0 0 0 .07.225.254.254 0 0 0 .227.07l7.676-1.433a.252.252 0 0 0 .133-.07l17.682-17.554a.25.25 0 0 0 .07-.132l1.444-7.62a.25.25 0 0 0-.14-.275.257.257 0 0 0-.108-.025h-.001Z" fill="#007D75"/><path d="M37.57 38.013a.744.744 0 0 1-.135-.013l-7.676-1.433a.727.727 0 0 1-.383-.2L11.694 18.812a.72.72 0 0 1-.202-.38l-1.444-7.62a.723.723 0 0 1 .504-.83.738.738 0 0 1 .351-.02l7.676 1.434a.733.733 0 0 1 .383.2L36.645 29.15a.724.724 0 0 1 .201.38l1.444 7.62a.72.72 0 0 1-.156.599.733.733 0 0 1-.563.263ZM10.768 10.425a.256.256 0 0 0-.245.19.252.252 0 0 0-.004.11l1.444 7.62c.01.05.034.096.07.132l17.683 17.554c.036.036.082.06.133.07l7.676 1.433a.257.257 0 0 0 .227-.07.252.252 0 0 0 .07-.225l-1.444-7.62a.252.252 0 0 0-.07-.132L18.624 11.933a.25.25 0 0 0-.132-.07l-7.676-1.433a.31.31 0 0 0-.05-.005Z" fill="#007D75"/><path d="M24.17 43.526a.738.738 0 0 1-.604-.318l-4.407-6.4a.716.716 0 0 1-.128-.411V11.572c0-.146.044-.29.128-.41l4.407-6.402a.73.73 0 0 1 .604-.317.737.737 0 0 1 .604.317l4.407 6.402c.083.12.127.264.127.41v24.825c0 .146-.044.29-.127.41l-4.405 6.4a.729.729 0 0 1-.606.319Zm0-38.609a.254.254 0 0 0-.211.11l-4.407 6.402a.25.25 0 0 0-.044.143v24.824c0 .051.015.1.044.143l4.407 6.402a.25.25 0 0 0 .211.11.253.253 0 0 0 .212-.11l4.405-6.404a.25.25 0 0 0 .045-.142V11.57c0-.051-.016-.1-.045-.143l-4.406-6.401a.25.25 0 0 0-.21-.11v.001Z" fill="#007D75"/><path d="m29.27 36.233-5.14-5.104-5.141 5.104v-7.216H11.72l5.14-5.103-5.14-5.103h7.268v-7.215l5.14 5.103 5.141-5.103v7.215h7.268l-5.141 5.104 5.14 5.102H29.27v7.216Zm-4.804-5.44 4.325 4.294v-6.07h-2.535l-1.79 1.777Zm-4.999-1.776v6.07l4.325-4.294-1.789-1.776h-2.536Zm3.212 0 1.45 1.44 1.45-1.44h-2.9Zm6.592-.474h6.114L31.06 24.25l-1.789 1.776v2.517Zm-2.535 0h2.057V26.5l-2.057 2.043Zm-4.535 0h3.858l2.734-2.714V22l-2.733-2.714H22.2L19.467 22v3.83l2.734 2.714Zm-2.734 0h2.058L19.467 26.5v2.043Zm-6.591 0h6.114v-2.517L17.2 24.25l-4.324 4.293Zm16.395-6.07v2.882l1.45-1.44-1.45-1.441Zm-11.733 1.44 1.45 1.44v-2.881l-1.45 1.441Zm11.733-2.112 1.789 1.777 4.325-4.294H29.27l.001 2.517Zm-16.395-2.517 4.323 4.296 1.79-1.776v-2.519h-6.113Zm13.86 0 2.057 2.043v-2.043h-2.057Zm-7.269 0v2.043l2.058-2.043h-2.058Zm6.79-.474h2.536v-6.07l-4.325 4.294 1.79 1.775Zm-3.578 0h2.903l-1.45-1.44-1.453 1.44Zm-3.212 0h2.536l1.79-1.776-4.326-4.293v6.069Z" fill="#007D75"/><path d="M36.674 29.085H11.667a.732.732 0 0 1-.413-.127l-6.45-4.374a.73.73 0 0 1-.318-.6.723.723 0 0 1 .319-.6l6.449-4.375a.736.736 0 0 1 .413-.126h25.007c.147 0 .291.044.413.126l6.449 4.375a.729.729 0 0 1 .319.6.724.724 0 0 1-.32.6l-6.448 4.374a.732.732 0 0 1-.413.127Zm-25.007-9.729a.257.257 0 0 0-.144.044l-6.448 4.375a.252.252 0 0 0 0 .417l6.448 4.375a.254.254 0 0 0 .144.044h25.007a.255.255 0 0 0 .143-.044l6.45-4.375a.253.253 0 0 0 .11-.209.25.25 0 0 0-.11-.208l-6.45-4.375a.256.256 0 0 0-.143-.044H11.667ZM26.153 4.805l3.57 5.182a.237.237 0 0 0 .24.099l6.254-1.143a.24.24 0 0 0 .191-.196.237.237 0 0 0-.004-.096L34.185.177a.235.235 0 0 0-.139-.159.24.24 0 0 0-.211.015l-7.606 4.435a.237.237 0 0 0-.113.248.235.235 0 0 0 .037.09Zm13.153 7.199-1.169 6.184a.233.233 0 0 0 .1.24l5.247 3.59a.241.241 0 0 0 .276-.003.235.235 0 0 0 .065-.072l4.477-7.566a.234.234 0 0 0-.048-.3.24.24 0 0 0-.097-.05L39.6 11.82a.238.238 0 0 0-.294.184ZM12.244 8.846l6.052 1.128a.234.234 0 0 0 .233-.096l3.513-5.06a.229.229 0 0 0-.073-.33L14.564.167a.233.233 0 0 0-.341.14l-2.16 8.253a.227.227 0 0 0 .093.25.24.24 0 0 0 .088.035ZM4.851 22.025l5.232-3.552a.236.236 0 0 0 .1-.238l-1.154-6.223a.237.237 0 0 0-.295-.186L.178 14.033a.24.24 0 0 0-.177.246.236.236 0 0 0 .032.103L4.51 21.95a.238.238 0 0 0 .25.112.24.24 0 0 0 .09-.037Zm4.183 13.937 1.168-6.184a.235.235 0 0 0-.099-.24L4.856 25.95a.24.24 0 0 0-.342.075L.037 33.591a.236.236 0 0 0 .146.35l8.556 2.207a.242.242 0 0 0 .258-.097.236.236 0 0 0 .037-.089Zm13.152 7.198-3.57-5.182a.24.24 0 0 0-.24-.1l-6.253 1.144a.238.238 0 0 0-.188.291l2.219 8.475a.236.236 0 0 0 .246.176.237.237 0 0 0 .105-.032l7.605-4.436a.237.237 0 0 0 .076-.337Zm14.041-4.143-6.217-1.16a.24.24 0 0 0-.24.099l-3.609 5.2a.235.235 0 0 0 .076.337l7.607 4.436a.238.238 0 0 0 .35-.144l2.22-8.478a.234.234 0 0 0-.098-.254.24.24 0 0 0-.09-.036Zm7.261-13.076-5.232 3.553a.237.237 0 0 0-.1.24l1.154 6.221a.235.235 0 0 0 .198.192.24.24 0 0 0 .097-.005l8.556-2.207a.24.24 0 0 0 .178-.246.235.235 0 0 0-.033-.103l-4.478-7.568a.237.237 0 0 0-.25-.114.241.241 0 0 0-.09.037Zm-15.72-14.748-3.293-4.785A.37.37 0 0 0 24 6.292a.37.37 0 0 0-.133.116l-3.293 4.785c-.337.435.064.832.29 1.058l1.465 1.454a.164.164 0 0 0 .258-.034l1.443-2.48a.164.164 0 0 1 .224-.06.164.164 0 0 1 .06.06l1.442 2.48a.164.164 0 0 0 .259.034l1.464-1.454c.227-.226.602-.564.29-1.058Zm-15.253 19.31-1.08 5.694a.366.366 0 0 0 .255.417.372.372 0 0 0 .176.011l5.738-1.07c.548-.072.548-.634.548-.953v-2.056a.162.162 0 0 0-.132-.16.163.163 0 0 0-.075.003l-2.787.741a.167.167 0 0 1-.158-.042.163.163 0 0 1-.043-.157l.747-2.767a.16.16 0 0 0-.086-.188.164.164 0 0 0-.072-.017h-2.071c-.32 0-.827-.024-.96.544Zm18.223 5.051 5.736 1.072a.375.375 0 0 0 .328-.102.367.367 0 0 0 .102-.325l-1.078-5.696c-.072-.544-.638-.544-.96-.544h-2.07a.166.166 0 0 0-.13.064.163.163 0 0 0-.029.14l.747 2.767a.161.161 0 0 1-.042.158.164.164 0 0 1-.16.042l-2.786-.741a.167.167 0 0 0-.142.028.165.165 0 0 0-.064.129v2.056c0 .319-.025.82.548.952Zm5.088-18.092 1.08-5.695a.366.366 0 0 0-.254-.416.372.372 0 0 0-.177-.011l-5.737 1.07c-.549.072-.549.634-.549.953v2.056a.161.161 0 0 0 .065.129.163.163 0 0 0 .142.028l2.787-.741a.165.165 0 0 1 .2.115.162.162 0 0 1 0 .084l-.746 2.767a.162.162 0 0 0 .086.188.164.164 0 0 0 .073.017h2.07c.322.001.828.026.96-.544Z" fill="#007D75"/><path d="m11.286 20.412-4.82 3.27a.37.37 0 0 0-.117.472.369.369 0 0 0 .117.132l4.82 3.27c.438.334.838-.063 1.066-.29l1.464-1.453a.162.162 0 0 0-.034-.256l-2.499-1.432a.165.165 0 0 1-.082-.141.162.162 0 0 1 .082-.141l2.499-1.432a.162.162 0 0 0 .034-.256l-1.464-1.453c-.228-.227-.568-.598-1.066-.29Zm9.287 16.363 3.294 4.784a.37.37 0 0 0 .476.116.37.37 0 0 0 .133-.116l3.293-4.784c.337-.436-.063-.833-.29-1.058l-1.465-1.455a.165.165 0 0 0-.258.034l-1.443 2.48a.164.164 0 0 1-.224.06.164.164 0 0 1-.06-.06l-1.442-2.48a.164.164 0 0 0-.195-.072.165.165 0 0 0-.064.038l-1.464 1.455c-.227.225-.601.563-.29 1.058Zm16.482-9.22 4.82-3.27a.37.37 0 0 0 .159-.302.366.366 0 0 0-.16-.302l-4.82-3.269c-.437-.335-.838.063-1.065.289l-1.464 1.453a.163.163 0 0 0 .034.256l2.498 1.433a.163.163 0 0 1 .06.222.162.162 0 0 1-.06.06l-2.498 1.432a.161.161 0 0 0-.074.193.163.163 0 0 0 .04.063l1.464 1.454c.227.225.568.597 1.066.288ZM17.68 12.434l-5.736-1.073a.373.373 0 0 0-.42.253.366.366 0 0 0-.01.175l1.079 5.696c.071.544.637.544.959.544h2.07a.164.164 0 0 0 .16-.205l-.748-2.767a.162.162 0 0 1 .116-.2.165.165 0 0 1 .085 0l2.787.742a.165.165 0 0 0 .207-.157v-2.056c0-.32.024-.821-.548-.952Zm4.39 4.796-.349.345a.667.667 0 0 1-.469.193h-.495a.403.403 0 0 1-.402-.398v-2.036a.152.152 0 0 1 .095-.14.155.155 0 0 1 .168.032l1.45 1.44a.398.398 0 0 1 .001.564Zm5.416.506h-.492a.667.667 0 0 1-.47-.192l-.35-.348a.398.398 0 0 1 0-.564l1.45-1.44a.154.154 0 0 1 .263.109v2.037a.397.397 0 0 1-.401.398Zm3.47 4.16-.348-.345a.658.658 0 0 1-.194-.466v-.492a.396.396 0 0 1 .401-.398h2.051a.153.153 0 0 1 .15.183.152.152 0 0 1-.041.078l-1.45 1.44a.402.402 0 0 1-.569 0Zm-.511 5.376v-.488c0-.175.07-.342.195-.466l.35-.348a.403.403 0 0 1 .567 0l1.45 1.44a.152.152 0 0 1-.108.26h-2.053a.402.402 0 0 1-.4-.398Zm-4.189 3.448.348-.345a.663.663 0 0 1 .47-.193h.495a.403.403 0 0 1 .4.398v2.035a.153.153 0 0 1-.183.15.154.154 0 0 1-.079-.041l-1.45-1.44a.396.396 0 0 1-.001-.564Zm-5.417-.51h.492a.67.67 0 0 1 .469.194l.35.348a.397.397 0 0 1 0 .563l-1.45 1.44a.153.153 0 0 1-.168.033.153.153 0 0 1-.095-.141v-2.038a.397.397 0 0 1 .402-.398Zm-3.471-4.158.348.346c.124.123.194.29.194.465v.492a.397.397 0 0 1-.401.398h-2.05a.155.155 0 0 1-.143-.094.151.151 0 0 1 .034-.166l1.45-1.44a.401.401 0 0 1 .568-.001Zm.511-5.378v.488c0 .175-.07.342-.195.466l-.35.348a.403.403 0 0 1-.567 0l-1.45-1.44a.153.153 0 0 1-.034-.166.153.153 0 0 1 .142-.095h2.053a.403.403 0 0 1 .4.399Zm4.904 5.416h2.773v-.73h.734v-2.752h-.734v-.73h-2.773v.73h-.734v2.753h.734v.729Z" fill="#007D75"/><path d="m80.184 22.13-1.02-2.4h-4.646l-1.02 2.4h-2.436l4.959-11.437h1.762l4.82 11.438h-2.419Zm-4.958-4.218h3.282l-1.64-4.115-1.642 4.115Zm14.351-5.298h-2.591v9.517H84.74v-9.517h-2.592v-1.92h7.43v1.92ZM91 10.693h2.246v7.185c0 .72.184 1.286.553 1.698.437.526 1.048.788 1.831.788.784 0 1.394-.262 1.832-.788.368-.412.552-.978.552-1.698v-7.185h2.246v6.996c0 1.304-.288 2.321-.864 3.053-.403.525-.944.931-1.624 1.217a5.387 5.387 0 0 1-2.142.429c-.76 0-1.48-.143-2.16-.429-.667-.286-1.203-.692-1.606-1.217-.576-.732-.864-1.75-.864-3.053v-6.996Zm11.654 0h3.334c1.267 0 2.246.286 2.937.858.761.64 1.141 1.497 1.141 2.572 0 1.189-.45 2.086-1.348 2.692-.346.24-.766.406-1.261.497l3.593 4.819h-2.799l-3.074-4.596h-.277v4.596h-2.246V10.693Zm2.246 1.818v3.447h.639c.184 0 .363-.012.536-.035.184-.034.42-.097.708-.188.288-.103.518-.28.691-.532.184-.263.277-.589.277-.977 0-.389-.087-.709-.26-.96a1.265 1.265 0 0 0-.691-.532 3.579 3.579 0 0 0-.691-.189 4.07 4.07 0 0 0-.535-.034h-.674Zm15.517 9.619-1.02-2.4h-4.647l-1.019 2.4h-2.436l4.958-11.437h1.762l4.82 11.438h-2.418Zm-4.958-4.218h3.282l-1.641-4.115-1.641 4.115Zm8.723-7.219h2.246v9.517h3.558v1.92h-5.804V10.694ZM62.42 22.13h-2.246V10.694h1.555l5.733 7.63v-7.63h2.246v11.438h-1.555l-5.733-7.648v7.648Zm18.676 3.616v1.964h-4.915v2.612h4.737v1.964h-4.737v3.19h4.915v1.965h-7.23V25.746h7.23ZM93.46 37.44l-1.052-2.454h-4.79l-1.051 2.455h-2.512l5.111-11.695h1.817l4.97 11.695h-2.494Zm-5.113-4.313h3.385L90.04 28.92l-1.693 4.207Zm11.024-7.381h2.316v9.73h4.309v1.965h-6.625V25.746Zm17.636 1.964h-3.313v9.73h-2.315v-9.73h-3.313v-1.964h8.941v1.964Zm5.576-1.964v4.524h5.185v-4.524h2.218v11.695h-2.218v-5.208h-5.185v5.208h-2.171V25.746h2.171Zm-60.238-.126v4.523h5.184v-4.524h2.219v11.695h-2.22v-5.208h-5.183v5.208h-2.171V25.619h2.17Zm.626 15.966-.171.352c-.137-.136-.114-.125-.274-.2a1.418 1.418 0 0 0-.59-.132c-.392 0-.72.137-.983.412-.26.27-.39.605-.39 1.001 0 .427.142.765.425 1.012.287.248.605.371.953.371.22 0 .43-.052.636-.157.143-.072.275-.166.394-.285v.468c-.31.22-.654.33-1.03.33-.505 0-.927-.168-1.265-.503a1.688 1.688 0 0 1-.502-1.24c0-.506.169-.926.507-1.262.342-.335.769-.503 1.281-.503.376 0 .712.112 1.01.336Zm7.269 2.669a1.729 1.729 0 0 1-1.26.503c-.5 0-.922-.168-1.267-.503a1.683 1.683 0 0 1-.512-1.251c0-.502.173-.918.518-1.25a1.74 1.74 0 0 1 1.26-.504c.495 0 .915.168 1.26.503.346.333.518.75.518 1.251 0 .498-.172.915-.518 1.25Zm-.277-2.242a1.336 1.336 0 0 0-.984-.407c-.386 0-.714.136-.984.407-.27.27-.404.601-.404.991s.135.72.404.992c.27.27.598.406.984.406s.714-.135.984-.407c.27-.27.405-.601.405-.991s-.136-.72-.405-.991Zm5.205-.708h.548c.369 0 .646.062.83.188.25.166.374.417.374.752a.92.92 0 0 1-.24.651.882.882 0 0 1-.62.285l1.086 1.515h-.462l-1.04-1.485h-.097v1.485h-.379v-3.391Zm.379.356v1.215h.24c.236 0 .421-.054.554-.163a.557.557 0 0 0 .2-.458c0-.23-.09-.396-.272-.498-.115-.064-.28-.096-.491-.096h-.231Zm5.908-.356h.62c.39 0 .677.08.86.239.21.176.314.418.314.727 0 .264-.091.49-.272.676-.178.183-.447.274-.81.274h-.332v1.475h-.38v-3.391Zm.38.356v1.205h.312c.225 0 .4-.055.528-.163a.558.558 0 0 0 .194-.453c0-.393-.251-.59-.753-.59h-.281Zm8.525 2.594a1.729 1.729 0 0 1-1.26.503c-.499 0-.92-.168-1.265-.503a1.683 1.683 0 0 1-.513-1.251c0-.502.172-.918.518-1.25a1.74 1.74 0 0 1 1.26-.504c.495 0 .915.168 1.26.503.346.333.518.75.518 1.251 0 .498-.172.915-.517 1.25Zm-.276-2.242a1.337 1.337 0 0 0-.984-.407c-.386 0-.714.136-.984.407-.27.27-.404.601-.404.991s.135.72.404.992c.27.27.598.406.984.406s.714-.135.984-.407c.27-.27.405-.601.405-.991s-.136-.72-.405-.991Zm5.207-.708h.548c.37 0 .646.062.83.188.25.166.374.417.374.752a.92.92 0 0 1-.24.651.883.883 0 0 1-.62.285l1.086 1.515h-.462l-1.04-1.485h-.097v1.485h-.379v-3.391Zm.379.356v1.215h.24c.237 0 .42-.054.554-.163a.557.557 0 0 0 .2-.458c0-.23-.09-.396-.272-.498-.116-.064-.28-.096-.491-.096h-.231Zm8.19 3.035-.399-.956h-1.455l-.41.956h-.42l1.502-3.395h.139l1.464 3.395h-.421Zm-1.706-1.312h1.158l-.574-1.358-.584 1.358Zm7.764-1.724h-.829v3.036h-.38V41.66h-.83v-.356h2.039v.356Zm4.227-.355h.379v3.39h-.379v-3.39Zm7.829 2.95a1.73 1.73 0 0 1-1.26.503c-.499 0-.921-.168-1.266-.503a1.68 1.68 0 0 1-.512-1.251c0-.502.172-.918.517-1.25a1.74 1.74 0 0 1 1.261-.504c.495 0 .915.168 1.26.503.345.333.518.75.518 1.251 0 .498-.173.915-.518 1.25Zm-.277-2.242a1.334 1.334 0 0 0-.983-.407c-.386 0-.714.136-.984.407-.27.27-.405.601-.405.991s.135.72.405.992c.27.27.598.406.984.406.385 0 .714-.135.983-.407.27-.27.405-.601.405-.991s-.135-.72-.405-.991Zm5.585 2.683h-.38v-3.391h.38l2.285 2.754v-2.754h.379v3.39h-.379l-2.285-2.759v2.76Z" fill="#000"/></g><defs><clipPath id="a"><path fill="#fff" d="M0 0h130v48H0z"/></clipPath></defs></svg>