<svg width="14" height="14" fill="none" xmlns="http://www.w3.org/2000/svg"><path fill-rule="evenodd" clip-rule="evenodd" d="M5.667 1.603c0-.702.569-1.27 1.27-1.27h.064a2 2 0 0 1 2 2V5h2.509a2 2 0 0 1 1.789 2.894l-2.333 4.667a2 2 0 0 1-1.79 1.105H6.499c-.164 0-.326-.02-.485-.06L3.585 13H2.334a2 2 0 0 1-2-2V7a2 2 0 0 1 2-2h1.421l1.62-2.43a1.75 1.75 0 0 0 .292-.967Zm-2.666 4.73h-.667A.667.667 0 0 0 1.667 7v4c0 .368.299.666.667.666h.667V6.333Zm1.333 5.48V6.535l2.15-3.224A3.078 3.078 0 0 0 7 1.665c.369 0 .667.299.667.667v3.333c0 .369.299.667.667.667h3.176c.496 0 .818.522.596.965l-2.333 4.666a.667.667 0 0 1-.596.369H6.498a.668.668 0 0 1-.162-.02l-2.002-.5Z" fill="#007D75"/></svg>